<?xml version="1.0" encoding="utf-8"?>
<!-- Generator: Adobe Illustrator 25.4.1, SVG Export Plug-In . SVG Version: 6.00 Build 0)  -->
<svg version="1.1" id="Layer_1" xmlns="http://www.w3.org/2000/svg" xmlns:xlink="http://www.w3.org/1999/xlink" x="0px" y="0px"
	 viewBox="0 0 133.5 208.1" style="enable-background:new 0 0 133.5 208.1;" xml:space="preserve">
<style type="text/css">
	.st0{fill:#CCCCCC;}
	.st1{fill:#F5E1D7;}
	.st2{fill:#EEC9B8;}
	.st3{fill:#0E495C;}
	.st4{fill:#1F404D;}
	.st5{fill:#F6E2D7;}
	.st6{fill:#E7E8E4;}
	.st7{opacity:0.25;}
	.st8{fill:#1D1D1B;}
	.st9{opacity:0.5;}
	.st10{fill:#E2B8A3;}
	.st11{fill:#F4CDBA;}
	.st12{fill:#FFCCCC;}
	.st13{fill:#EFA29A;}
	.st14{fill:#2D2D2B;}
	.st15{fill:#3C3C3B;}
	.st16{fill:#96312C;}
	.st17{fill:#EA978F;}
	.st18{fill:#FFFFFF;}
</style>
<g id="Layer_2_00000019672083321503862600000002243855617664120996_">
	<g id="Layer_1-2">
		<ellipse class="st0" cx="76" cy="198.5" rx="57.5" ry="9.6"/>
		<path class="st1" d="M54.1,198.3c1,1.7,11.1,0.8,15.4-1.6c0.9-3.1,1.5-6.2,2.1-9.3c0-0.1,0-0.3,0.1-0.4c0.8-4.4,3-10.1,3.1-13.4
			c-3.8-0.4-8.3-2.1-12.1-2.5c-0.6,4.8-2,7.1-2.4,12.4v0.4c-0.2,3-0.5,4.6-0.8,8.6C57,193.1,53.2,194.4,54.1,198.3z"/>
		<path class="st2" d="M60.2,183.5c1.2,0.7,2.4,1.3,3.7,1.8c2.4,1,5,1.5,7.6,1.7c0.8-4.4,3-10.1,3.1-13.4c-3.8-0.4-8.3-2.1-12.1-2.5
			C62.1,175.9,60.7,178.1,60.2,183.5z"/>
		<path class="st3" d="M68.9,194c-0.1-0.1-0.1-0.1-0.2-0.1c-1.5-0.5-3-0.9-4.5-1.1c-1.5-0.2-3.1-0.7-4.6-0.3
			c-0.7,0.2-1.3,0.5-1.9,0.9c-0.6,0.4-1.3,0.6-1.9,1c-1.2,0.9-1.9,2.4-1.7,3.9c0.1,0.9,0.7,1.1,1.1,0.8h0.1c2.7,0.4,5.4-0.2,8-0.7
			c1.3-0.2,2.6-0.5,3.9-0.8c0.6-0.1,1.1-0.3,1.6-0.6c0.2-0.2,0.3-0.5,0.4-0.8c0-0.1,0-0.6,0-0.7c0.3-0.4,0.2-1-0.2-1.3
			C69,194.1,69,194,68.9,194z"/>
		<path class="st4" d="M53.7,198.8c0-0.1-0.1-0.2-0.1-0.2c-0.3-1-0.2-2,0.1-3c0.8-2.1,3-3,5.2-3.7c0.5-7,1.6-14,3.2-20.9
			c0.1-0.3,0.3-0.5,0.5-0.5c2.1,0.3,4.1,0.7,6.1,1.3c2,0.5,4,0.9,6,1.2c0.2,0,0.3,0.2,0.4,0.3c0.1,0.2,0.1,0.4,0,0.6
			c-2.3,9-5.1,22.8-5.1,22.9c0,0.2-0.1,0.4-0.3,0.5c-2.9,1.3-6,2.1-9.1,2.3c-0.8,0.1-1.7,0.1-2.7,0.1
			C56,199.9,54.2,199.6,53.7,198.8z M74,174.3c-1.7-0.2-3.6-0.7-5.4-1.2c-1.9-0.5-3.7-0.9-5.7-1.2c-1.6,6.7-2.6,13.6-3.1,20.5
			c0,0.3-0.1,0.5-0.4,0.7c-1.5,0.4-4.2,1.2-4.9,3.1c-0.2,0.5-0.2,1.1-0.1,1.6c0.5,0.4,2.5,0.8,6.1,0.4c2.9-0.2,5.8-0.9,8.5-2.1
			C69.5,194,71.9,182.6,74,174.3z"/>
		<path class="st4" d="M69.9,194.9c0.2,0,0.4-0.2,0.5-0.5s0-0.7-0.3-0.9c-3.4-1.2-7-1.8-10.6-1.8l0,0c-0.3,0-0.5,0.3-0.5,0.7
			s0.2,0.7,0.5,0.8c3.5,0,7,0.6,10.4,1.8C69.8,194.9,69.8,194.9,69.9,194.9z"/>
		<path class="st1" d="M75.1,196.7c4.3,2.4,14.5,3.3,15.4,1.6c0.9-4-3-5.2-5.3-6c1-2.4,0.9-5.1,1.8-7.9c1-3.3-0.1-6.8,0.4-10.1
			c-3.8,0.4-6.9,0.5-10.6,0.9c0,3.4-0.2,7.8-0.6,11.7C75.7,192.2,75.1,196.7,75.1,196.7z"/>
		<path class="st3" d="M75.6,193.9c0.1,0,0.1-0.1,0.2-0.1c1.5-0.5,3-0.9,4.5-1.1c1.5-0.2,3.1-0.7,4.6-0.4c0.7,0.2,1.3,0.5,1.9,0.9
			s1.3,0.6,1.9,1c1.3,0.9,1.9,2.5,1.7,4c0,0.9-0.7,1.1-1.1,0.8h-0.1c-2.6,0.5-5.4-0.2-8-0.7c-1.3-0.2-2.6-0.5-3.9-0.9
			c-0.6-0.1-1.1-0.3-1.6-0.6c-0.2-0.2-0.3-0.5-0.4-0.8c0-0.1,0-0.6-0.1-0.7C74.9,194.8,75,194.2,75.6,193.9L75.6,193.9z"/>
		<path class="st2" d="M76.2,187c4,0.2,7-0.7,10.8-2.5c1-3.3-0.1-6.8,0.4-10.1c-3.8,0.4-6.9,0.5-10.6,0.9
			C76.8,178.6,76.5,183,76.2,187z"/>
		<path class="st4" d="M84,199.7c-3.2-0.2-6.2-1-9.1-2.4c-0.3-0.2-0.4-0.5-0.3-0.8c0-0.1,1.8-13.6,1.7-21.3c0-0.4,0.2-0.7,0.4-0.8
			c1.9-0.2,4.4-0.3,6.8-0.5c1.3-0.1,2.5-0.2,3.8-0.5c0.2,0,0.3,0.1,0.4,0.3s0.1,0.4,0.1,0.6c-0.9,5.5,0.2,12-1.9,17.3
			c1.7,0.6,4,1.5,4.9,3.6c0.4,1,0.4,2,0.2,3.1c0,0.1,0,0.2-0.1,0.2c-0.5,0.9-2.3,1.1-4.2,1.1C85.8,199.9,84.9,199.8,84,199.7z
			 M90,196.2c-0.7-1.9-3.4-2.7-4.9-3.1c-0.2-0.1-0.3-0.2-0.3-0.4c-0.1-0.2-0.1-0.5,0-0.7c2.1-5.1,2-11.3,3-16.8
			c-1.8,0.2-2,0.3-4.2,0.4s-4.5,0.2-6.3,0.4c-0.2,6.8-0.7,13.5-1.6,20.3c2.6,1.1,5.5,1.8,8.3,2.1c3.6,0.4,5.6,0,6.1-0.4
			C90.2,197.3,90.2,196.7,90,196.2z"/>
		<path class="st4" d="M75.4,194.5L75.4,194.5c3.2-1.2,6.5-1.9,9.9-1.9l0,0c0.3,0,0.5-0.3,0.5-0.7s-0.2-0.7-0.5-0.7
			c-3.4,0-6.8,0.6-10,1.9c-0.3,0.2-0.4,0.5-0.3,0.9C75,194.2,75.2,194.5,75.4,194.5z"/>
		<path class="st5" d="M124.3,125.8c-0.2-0.5-1.3-0.4-1.8-0.3c0.2-1.1-1.7-0.8-2.1-0.8c-1,0.1-2.1,0.2-3.1,0.5
			c-0.6,0-1.2,0.1-1.8,0.3v-0.1c0.5-1,1.2-2.3,0.6-3.4c-0.4-0.5-1.1,0.4-1.4,0.9c-1,1.7-1.8,3.5-2.3,5.4c-1.4,1-2.7,2.1-4.1,3.1
			c1.1,1.6,2.2,3.3,3.3,4.9c1-1.3,2-2.7,3-4.1c0.4-0.5,1.1-0.4,1.7-0.6c1.8-0.8,3.4-1.8,5.2-2.5c0.7-0.3,1.4-0.6,2.1-0.8
			c0.3,0,0.3-1.1-0.2-1.5l0,0C123.9,126.7,124.6,126.5,124.3,125.8z"/>
		<path class="st4" d="M111.8,136.7c-0.2,0-0.3-0.1-0.4-0.2c-0.3-0.2-0.3-0.7-0.1-0.9c0.5-0.6,0.9-1.2,1.3-1.8
			c0.5-0.9,1.2-1.7,1.9-2.5c0.1-0.1,0.2-0.1,0.3-0.2c3-0.9,5.8-2.2,8.6-3.7c0-0.1,0-0.1-0.1-0.2c-1-0.4-2,0-3.2,0.5
			c-0.5,0.2-1,0.4-1.5,0.5c-0.3,0.1-0.7-0.1-0.9-0.4s0.1-0.7,0.4-0.9h0.1c0.5-0.1,0.9-0.3,1.4-0.5c1.3-0.5,2.7-1.1,4.2-0.5
			c0.3,0.2,0.6,0.4,0.8,0.8c0.2,0.4,0.2,0.9,0,1.3c0,0.1-0.1,0.2-0.2,0.3c-2.9,1.7-6,3-9.2,4c-0.6,0.6-1.1,1.3-1.6,2.1
			c-0.4,0.7-0.9,1.3-1.4,1.9C112.2,136.6,112,136.7,111.8,136.7z"/>
		<path class="st4" d="M108.6,131.8c-0.2,0-0.3-0.1-0.5-0.2c-0.3-0.3-0.3-0.7,0-0.9c0.9-0.8,1.8-1.4,2.8-2c0.2-0.2,0.5-0.3,0.6-0.4
			c0.2-0.2,0.6-1.3,1-2.2c0.7-1.5,1.5-3.3,2.1-4.4l0.1-0.1c0.3-0.3,0.8-0.5,1.2-0.6c0.2,0,0.3,0.1,0.4,0.2c1.1,1,0.6,2.4,0.2,3.4
			c-0.2,0.4-0.3,0.8-0.4,1.2c0,0.2,0,0.5,0,0.7c-0.1,0.5,0,1.1,0.1,1.6c0.1,0.4-0.1,0.7-0.5,0.8s-0.7-0.1-0.8-0.5l0,0
			c-0.2-0.7-0.2-1.3-0.1-2c0-0.2,0-0.4,0-0.7v-0.1c0.1-0.6,0.2-1.1,0.5-1.6c0.2-0.5,0.4-1,0.4-1.5c-0.6,1-1.3,2.7-2,4
			c-0.9,2-1.1,2.4-1.3,2.6c-0.3,0.2-0.5,0.4-0.8,0.5c-0.9,0.5-1.7,1.1-2.5,1.8C108.9,131.7,108.8,131.8,108.6,131.8z M111.5,128.3
			L111.5,128.3z"/>
		<path class="st4" d="M123.6,127.2c-0.3,0-0.5-0.3-0.5-0.6c0-0.3,0.2-0.4,0.5-0.5c0.1,0,0.2,0,0.3-0.1l0,0c-0.4-0.1-0.8-0.1-1.1,0
			h-0.3c-1.4,0.1-2.8,0.4-4.1,0.9c-0.3,0.1-0.6,0-0.7-0.3s0-0.6,0.3-0.7c1.4-0.6,2.9-0.9,4.4-1h0.2c0.7-0.1,1.9-0.2,2.3,0.7
			c0.2,0.3,0.2,0.8,0,1.1C124.6,127.1,124.1,127.3,123.6,127.2L123.6,127.2z"/>
		<path class="st4" d="M115.7,126.2c-0.2,0-0.5-0.2-0.5-0.4c-0.1-0.3,0-0.6,0.3-0.7l0,0c1.6-0.6,3.2-0.9,4.9-1h0.2
			c0.9-0.1,1.9-0.1,2.4,0.5c0.2,0.3,0.3,0.7,0.2,1.1c-0.1,0.3-0.4,0.5-0.7,0.4c-0.3-0.1-0.5-0.4-0.4-0.7l0,0l0,0
			c-0.4-0.1-0.9-0.1-1.3,0h-0.2c-1.5,0.1-3.1,0.4-4.5,0.9C115.8,126.3,115.7,126.2,115.7,126.2z"/>
		<path class="st6" d="M114.8,130.1c-0.1,1.5-0.4,2.9-1,4.2c-0.9,1.9-2.2,3.6-3.8,5c-1.6,1.5-3.3,2.7-5.3,3.7
			c-4.4,1.9-9.4,2.2-14,0.8s-8.8-3.9-12.3-7.2c0,0.1-0.1,0.2-0.1,0.4c-0.5-0.8-0.8-1.7-1.2-2.6c-1.2-3.2-2-7.9,0-10.9
			s5.2-2.8,7.2-0.2c1.6,1.9,2.9,5,4.6,7.4s3.8,3.9,6.9,2.9c2.1-0.6,3.6-2.5,5-4.1c1.6-1.8,3.2-3.4,5.6-3.7c2.2-0.2,4.5,0.4,6.2,1.9
			C113.7,128.3,114.3,129.2,114.8,130.1z"/>
		<g class="st7">
			<path class="st8" d="M116.1,137.4c-0.7,3.5-2.9,6.5-5.9,8.4c-7.9,5.2-18.8,3.3-26.1-2.1c-2.4-1.8-4.3-4-5.7-6.7
				c0-0.1,0-0.2,0.1-0.4c3.5,3.3,7.7,5.8,12.3,7.2c4.6,1.4,9.6,1.1,14-0.8c1.9-0.9,3.7-2.2,5.3-3.7c1.6-1.4,2.9-3.1,3.8-5
				c0.6-1.3,0.9-2.8,1-4.2C116.1,132.3,116.5,134.9,116.1,137.4z"/>
		</g>
		<path class="st4" d="M99.6,149.5c-5.7-0.1-11.2-2-15.8-5.3c-3.2-2.4-5.7-5.8-7.1-9.6c-0.6-1.7-2.5-7.6,0-11.5
			c0.8-1.4,2.3-2.3,3.9-2.5c1.8,0,3.4,0.8,4.5,2.2c0.9,1.2,1.7,2.5,2.4,3.8c0.7,1.2,1.4,2.4,2.2,3.6c1.9,2.6,3.8,3.4,6.2,2.7
			c1.8-0.5,3.1-2.1,4.4-3.7l0.2-0.2c1.6-1.8,3.4-3.6,6.1-3.9c2.4-0.3,4.8,0.4,6.7,2c2.9,2.6,4.2,6.5,3.6,10.4
			c-0.8,3.7-3,6.9-6.2,8.9C107.3,148.5,103.5,149.6,99.6,149.5z M80.8,122h-0.2c-1.2,0.1-2.2,0.8-2.8,1.9c-1.7,2.7-1.1,7.1,0.1,10.3
			c1.3,3.6,3.6,6.7,6.7,8.9c6.5,4.8,17.1,7.5,25.3,2.1c2.9-1.8,4.9-4.7,5.6-8c0.6-3.4-0.6-6.8-3.1-9.1c-1.6-1.3-3.6-2-5.7-1.7
			c-2.1,0.2-3.6,1.6-5.2,3.4l-0.2,0.2c-1.4,1.7-2.9,3.5-5.1,4.1c-3.9,1.2-6.2-1.2-7.6-3.2c-0.8-1.2-1.6-2.4-2.3-3.7
			c-0.7-1.3-1.4-2.5-2.3-3.6C83.2,122.7,82,122.1,80.8,122z"/>
		<path class="st5" d="M21.9,125.8c0.2-0.5,1.3-0.4,1.8-0.3c-0.2-1.1,1.7-0.8,2.1-0.8c1,0.1,2.1,0.2,3.1,0.5c0.6,0,1.2,0.1,1.8,0.3
			v-0.1c-0.5-1-1.2-2.3-0.6-3.4c0.4-0.5,1.1,0.4,1.4,0.9c1,1.7,1.8,3.5,2.3,5.4c1.4,1,2.7,2.1,4.1,3.1c-1.1,1.6-2.2,3.3-3.3,4.9
			c-1-1.3-2-2.7-3-4.1c-0.4-0.5-1.1-0.4-1.7-0.6c-1.8-0.8-3.4-1.8-5.2-2.5c-0.7-0.3-1.4-0.6-2.1-0.8c-0.3,0-0.3-1.1,0.2-1.5l0,0
			C22.2,126.7,21.6,126.5,21.9,125.8z"/>
		<path class="st4" d="M34.4,136.7c-0.2,0-0.4-0.1-0.5-0.2c-0.5-0.6-1-1.3-1.4-1.9c-0.4-0.8-1-1.5-1.6-2.1c-3.2-1-6.3-2.3-9.2-4
			c-0.1-0.1-0.2-0.2-0.2-0.3c-0.2-0.4-0.2-0.9,0-1.3c0.1-0.3,0.4-0.6,0.8-0.8c1.5-0.6,2.9,0,4.2,0.5c0.5,0.2,0.9,0.4,1.4,0.5
			c0.4,0.1,0.6,0.4,0.5,0.8c-0.1,0.4-0.4,0.6-0.8,0.5h-0.1c-0.5-0.1-1-0.3-1.5-0.5c-1.2-0.5-2.2-0.9-3.2-0.5c0,0.1-0.1,0.1-0.1,0.2
			c2.7,1.5,5.6,2.7,8.6,3.6c0.1,0,0.2,0.1,0.3,0.2c0.7,0.7,1.4,1.6,1.9,2.5c0.4,0.6,0.8,1.2,1.3,1.8c0.2,0.3,0.2,0.7-0.1,0.9
			C34.7,136.7,34.5,136.7,34.4,136.7z"/>
		<path class="st4" d="M37.6,131.8c-0.2,0-0.4-0.1-0.5-0.2c-0.8-0.7-1.6-1.3-2.5-1.8c-0.3-0.2-0.6-0.3-0.8-0.5s-0.4-0.6-1.3-2.6
			c-0.6-1.4-1.4-3-2-4c0,0.5,0.1,1.1,0.4,1.5c0.2,0.5,0.4,1.1,0.5,1.6v0.1c0,0.2,0,0.4,0,0.7c0.1,0.7,0,1.3-0.1,2
			c-0.1,0.4-0.5,0.6-0.8,0.5s-0.6-0.5-0.5-0.8l0,0c0.1-0.5,0.1-1.1,0.1-1.6c0-0.2,0-0.5,0-0.7c-0.1-0.4-0.2-0.8-0.4-1.2
			c-0.4-1-0.9-2.4,0.2-3.4c0.1-0.1,0.3-0.2,0.5-0.2c0.5,0,0.9,0.3,1.2,0.6l0.1,0.1c0.6,1,1.5,2.9,2.1,4.4c0.4,0.9,0.9,1.9,1,2.2
			c0.1,0.1,0.4,0.2,0.6,0.4c1,0.6,1.9,1.2,2.8,2c0.3,0.3,0.3,0.7,0,0.9C37.9,131.8,37.8,131.8,37.6,131.8z M34.7,128.3L34.7,128.3z"
			/>
		<path class="st4" d="M22.6,127.2L22.6,127.2c-0.5,0-0.9-0.2-1.2-0.6c-0.2-0.3-0.2-0.8,0-1.1c0.4-0.8,1.5-0.7,2.3-0.7h0.2
			c1.5,0.1,3,0.4,4.5,1c0.3,0.1,0.4,0.4,0.3,0.7c-0.1,0.3-0.4,0.4-0.7,0.3c-1.3-0.5-2.7-0.8-4.1-0.9h-0.3c-0.4-0.1-0.8-0.1-1.1,0
			l0,0c0.1,0,0.2,0,0.3,0.1c0.3,0,0.5,0.3,0.5,0.6C23.1,127,22.9,127.2,22.6,127.2L22.6,127.2z"/>
		<path class="st4" d="M30.5,126.2c-0.1,0-0.1,0-0.2,0c-1.5-0.5-3-0.8-4.5-0.9h-0.2c-0.4-0.1-0.9-0.1-1.3,0l0,0
			c0.1,0.3-0.1,0.6-0.4,0.7l0,0c-0.3,0.1-0.6-0.1-0.7-0.4c-0.1-0.4-0.1-0.8,0.2-1.1c0.5-0.6,1.5-0.6,2.4-0.5H26
			c1.7,0.1,3.3,0.4,4.9,1c0.3,0.1,0.5,0.4,0.4,0.7C31,126.1,30.8,126.2,30.5,126.2L30.5,126.2z"/>
		<path class="st6" d="M31.4,130.1c0.1,1.5,0.4,2.9,1,4.2c0.9,1.9,2.2,3.6,3.8,5c1.6,1.5,3.3,2.7,5.3,3.7c4.4,1.9,9.4,2.2,14,0.8
			s8.8-3.9,12.3-7.2c0,0.1,0.1,0.2,0.1,0.4c0.5-0.8,0.8-1.7,1.2-2.6c1.2-3.2,2-7.9,0-10.9s-5.2-2.8-7.2-0.2c-1.6,1.9-2.9,5-4.6,7.4
			s-3.8,3.9-6.9,2.9c-2.1-0.6-3.5-2.5-5-4.1c-1.6-1.8-3.2-3.4-5.6-3.7c-2.2-0.2-4.5,0.4-6.2,1.9C32.5,128.3,31.9,129.2,31.4,130.1z"
			/>
		<g class="st7">
			<path class="st8" d="M30.1,137.4c0.7,3.5,2.9,6.5,5.9,8.4c7.9,5.2,18.8,3.3,26.1-2.1c2.4-1.8,4.3-4,5.7-6.7c0-0.1,0-0.2-0.1-0.4
				c-3.5,3.3-7.7,5.8-12.3,7.2s-9.6,1.1-14-0.8c-1.9-0.9-3.7-2.2-5.3-3.7c-1.6-1.4-2.9-3.1-3.8-5c-0.6-1.3-0.9-2.8-1-4.2
				C30.1,132.3,29.7,134.9,30.1,137.4z"/>
		</g>
		<path class="st4" d="M46.6,149.5c-3.9,0-7.7-1.1-11-3.2c-3.2-2-5.4-5.2-6.2-8.9c-0.7-3.8,0.7-7.8,3.6-10.4c1.9-1.6,4.3-2.3,6.7-2
			c2.7,0.3,4.5,2,6.1,3.9l0.2,0.2c1.3,1.6,2.7,3.2,4.5,3.7c2.4,0.7,4.3-0.1,6.2-2.7c0.8-1.2,1.5-2.4,2.2-3.6
			c0.7-1.3,1.5-2.6,2.4-3.8c1-1.4,2.7-2.2,4.5-2.2c1.6,0.2,3.1,1.1,3.9,2.5c2.5,3.9,0.7,9.8,0,11.5c-1.4,3.8-3.9,7.1-7.1,9.6
			C57.9,147.6,52.3,149.5,46.6,149.5z M38.6,126.4c-1.8,0-3.5,0.6-4.8,1.8c-2.5,2.3-3.7,5.7-3.1,9.1c0.7,3.3,2.7,6.2,5.6,8
			c8.2,5.4,18.8,2.7,25.3-2.1c3-2.3,5.3-5.4,6.7-8.9c1.2-3.2,1.8-7.6,0.1-10.3c-0.5-1.1-1.6-1.8-2.8-1.9c-1.3,0-2.6,0.6-3.3,1.7
			c-0.9,1.1-1.6,2.3-2.3,3.6c-0.7,1.3-1.5,2.5-2.3,3.7l-0.5-0.4l0.5,0.4c-1.4,1.9-3.8,4.3-7.6,3.2c-2.2-0.6-3.6-2.4-5.1-4.1
			l-0.2-0.2c-1.6-1.9-3.1-3.2-5.2-3.4C39.2,126.4,38.9,126.4,38.6,126.4L38.6,126.4z"/>
		<path class="st6" d="M76.1,188.6c4.8,0.5,9.6,2,14-1.7c-1-2.9-1.9-24.8-2.8-27.7c-0.8-2.4-0.5-4.9-1.3-7.3l-24.5-2.3
			c-0.6,2.4-1.3,4.8-1.9,7.2c-0.9,3.7-0.8,24.4-1.7,28.5c4.3,3,9.3,3.8,14.7,3L76.1,188.6z"/>
		<path class="st6" d="M63,131.1l23-5.1c0.4,1.6,0.9,23.1,0.9,24.8c0,5.5-23.4,6.6-25.7,3.3C61,154.7,61.8,139.3,63,131.1z"/>
		<g>
			
				<image style="overflow:visible;enable-background:new    ;" width="338" height="502" xlink:href="../../../5.jpg"  transform="matrix(4.000000e-02 0 0 4.000000e-02 65.6727 141.3051)">
			</image>
			<g>
				<g transform="translate(62.8 152.83) scale(0.04 0.04)">
					
						<image style="overflow:visible;enable-background:new    ;" width="79" height="109" id="image" xlink:href="263DD570.png"  transform="matrix(0.9768 0 0 1.0714 -5.3521 1.3973)">
					</image>
					
						<image style="overflow:visible;enable-background:new    ;" width="77" height="154" xlink:href="263DD576.png"  transform="matrix(0.9792 0 0 0.9792 -65.6 -18.9315)">
					</image>
				</g>
				
					<image style="overflow:visible;enable-background:new    ;" width="75" height="114" xlink:href="263DD571.png"  transform="matrix(4.000000e-02 0 0 4.000000e-02 78.84 152.85)">
				</image>
				
					<image style="overflow:visible;enable-background:new    ;" width="75" height="112" xlink:href="263DD573.png"  transform="matrix(4.000000e-02 0 0 4.000000e-02 81.74 152.84)">
				</image>
				
					<image style="overflow:visible;enable-background:new    ;" width="75" height="108" xlink:href="263DD57E.png"  transform="matrix(4.000000e-02 0 0 4.000000e-02 83.36 152.97)">
				</image>
			</g>
		</g>
		<path class="st4" d="M90.5,187.4c-4,3.4-7.5,2-11.4,2c-1.3,0-2.4-0.1-3.2-0.1l-3.3-0.2c-6,0.9-10.9-0.2-15.2-3.1
			c-0.2-0.2-0.4-0.5-0.3-0.8c1.7-7.4,2.1-29.9,3.5-35.4l0,0c-0.5-6.4,0.1-12.8,1.7-19c0.1-0.3,0.4-0.5,0.7-0.3l0,0
			c0.3,0.1,0.4,0.5,0.3,0.8c-1.6,5.4-1.9,13.8-1.7,17.7c0,0.5,0.1,1.1,0.1,1.6c-0.1,0.6-0.3,1.2-0.4,1.9c-1,6-1.5,26.4-2.9,32.6
			c3.8,2.6,8.5,3.7,13.1,3l6.3,0.2c1.9,0.1,6.6,2,11.2-1.6c-1.6-4.7-2.3-27.8-3.6-33.2c-0.1-0.3-0.1-0.6-0.2-0.8l-0.6-0.1
			c0.6-0.3,1.1-0.7,1.4-1.3c0.1-0.2,0.1-0.3,0.1-0.5c0-0.5,0-1.6,0.1-2.9c0.1-3.1,0.3-8.1,0-9.2c-0.1-0.3,0.1-0.6,0.4-0.7
			c0.3-0.1,0.6,0.1,0.7,0.4c0.3,1.1,0.2,5.2,0,9.6c0,1.3-0.1,2.4-0.1,2.9c0,0.6-0.2,1.2-0.7,1.7c1.4,5.6,2.2,29.2,3.9,34.2
			C90.8,186.9,90.7,187.2,90.5,187.4z"/>
		<path class="st6" d="M90.5,127.6c-0.8-2.9-2.3-5.6-4.5-7.8c-1.7-1.5-3.8-2.5-6-3.1c-4.4-1.4-9.2-1.3-13.6,0.2
			c-4.3,1.6-8.6,3.8-9.9,11.5c6.5,2.5,12.4,6.4,17.2,11.5C78.2,133.9,83.4,129.6,90.5,127.6z"/>
		<path class="st4" d="M73.8,140.5c-0.2,0-0.4-0.1-0.5-0.2c-4.7-5-10.5-8.9-16.9-11.3c-0.3-0.1-0.5-0.4-0.4-0.7
			c1.3-8.2,6-10.5,10.3-12c4.5-1.5,9.4-1.6,14-0.2c2.3,0.6,4.4,1.7,6.2,3.2c2.5,2.3,3.8,5.5,4.6,8.1c0.1,0.2,0.1,0.3,0,0.5
			c-0.1,0.2-0.2,0.3-0.4,0.3c-6.5,1.9-11.7,5.7-16.4,12.1C74.2,140.5,74.1,140.6,73.8,140.5L73.8,140.5z M57.4,128
			c6.2,2.4,11.7,6.2,16.4,10.9c4.6-6,9.7-9.8,15.9-11.7c-0.8-2.6-2.2-5-4.1-6.9c-1.6-1.4-3.6-2.4-5.7-3c-4.3-1.3-8.9-1.3-13.2,0.1
			C62.7,118.9,58.7,120.9,57.4,128z"/>
		<path class="st5" d="M80.2,124.4c-0.1,0.7-0.2,1.4-0.4,2.1c-1.4,3.7-5.5,5.6-9.2,4.3c-1.5-0.6-2.8-1.6-3.7-3
			c-0.4-0.7-0.7-1.6-0.9-2.4c-0.3-1.6-0.4-3.2-0.3-4.8c4.7,0,9.7,0.4,14.3-0.5C80.2,121.5,80.3,123,80.2,124.4z"/>
		<g class="st9">
			<path class="st10" d="M80.2,124.4c-1.8,1-3.8,1.6-5.8,1.9c-2.8,0.4-5.7,0-8.4-1c-0.3-1.6-0.4-3.2-0.3-4.8c4.7,0,9.7,0.4,14.3-0.5
				C80.2,121.5,80.3,123,80.2,124.4z"/>
		</g>
		<path class="st4" d="M73.1,131.9c-2.8,0-5.3-1.5-6.8-3.8c-0.5-0.8-0.8-1.7-1-2.6c-0.3-1.6-0.4-3.3-0.3-5c0-0.4,0.3-0.7,0.7-0.7
			l0,0c1.1,0,2.2,0,3.3,0c3.6,0.2,7.3,0,10.9-0.5c0.2,0,0.4,0,0.6,0.1s0.3,0.3,0.3,0.5c0.2,1.5,0.3,3,0.2,4.5
			c-0.1,0.8-0.2,1.6-0.5,2.3c-1,2.6-3.3,4.6-6.1,5.1C73.9,131.8,73.5,131.9,73.1,131.9z M66.4,121.3c-0.1,1.3,0,2.6,0.3,3.9
			c0.2,0.8,0.4,1.5,0.8,2.2c1.8,3.1,5.8,4,8.9,2.2c1.3-0.8,2.2-1.9,2.7-3.3c0.2-0.6,0.4-1.3,0.4-1.9c0.1-1.1,0-2.3-0.1-3.4
			c-3.5,0.5-7,0.6-10.4,0.4C68.1,121.3,67.2,121.3,66.4,121.3z"/>
		<path class="st5" d="M108.2,59.1c2.6-5.5,9.2-7.9,14.7-5.2c0.3,0.1,0.6,0.3,0.9,0.5c4,2.3,6.1,7,6.7,11.5
			c1.4,11.5-5.6,22.4-16.7,25.7c-3.9-0.3-7.2-2.7-8.8-6.2c-1.7-3.5-2-7.6-1.6-11.5C103.8,68.9,106.1,63.6,108.2,59.1z"/>
		<path class="st4" d="M113.8,92.4L113.8,92.4c-4.2-0.3-7.9-2.9-9.6-6.7c-1.6-3.2-2.1-7.1-1.7-12c0.5-5.1,2.8-10.5,4.9-15.1l0,0
			c2.8-5.9,9.9-8.5,15.9-5.6c0.3,0.2,0.6,0.3,1,0.5c3.8,2.2,6.4,6.7,7.1,12.1c1.5,11.9-5.8,23.2-17.3,26.7
			C114,92.4,113.9,92.4,113.8,92.4z M109,59.4L109,59.4c-2.1,4.4-4.3,9.6-4.8,14.5c-0.4,4.5,0.1,8.1,1.5,11c1.4,3.2,4.5,5.4,8,5.7
			c10.6-3.3,17.4-13.7,16-24.8c-0.6-4.9-3-9-6.3-10.9c-4.8-2.9-11.1-1.3-14,3.6C109.3,58.9,109.1,59.2,109,59.4L109,59.4z"/>
		<path class="st4" d="M102,83.2c-0.3,0-0.6-0.2-0.9-0.3c-0.9-0.6-1.2-1.9-0.6-2.9l0,0c4.8-7.1,11.9-12.4,20.1-15
			c1.1-0.3,2.3,0.3,2.6,1.4s-0.3,2.3-1.4,2.6l0,0c-7.3,2.3-13.6,7-17.9,13.3C103.6,83,102.8,83.3,102,83.2z"/>
		<path class="st5" d="M19.2,76.8c-2.4-2-5.5-2.9-8.6-2.4c-3.1,0.4-5.8,2.1-7.6,4.7C0.4,82.8,0.4,88,1.8,92.3
			c3.5,11.1,14.5,17.9,26,16.3c3.4-1.9,5.5-5.5,5.4-9.4c0.1-3.9-1.4-7.7-3.4-11.1C27.3,83.8,23,80,19.2,76.8z"/>
		<path class="st4" d="M24.6,109.7c-10.8,0-20.3-6.9-23.6-17.1c-1.7-5.3-1.2-10.4,1.3-14c1.9-2.7,4.9-4.5,8.2-5
			c3.3-0.4,6.7,0.5,9.2,2.6c3.9,3.2,8.2,7.1,10.8,11.6C33,92,34.1,95.7,34,99.3c0.1,4.2-2.2,8.1-5.9,10.1c-0.1,0-0.2,0.1-0.3,0.1
			C26.8,109.7,25.7,109.7,24.6,109.7z M12.1,75.1c-0.4,0-0.9,0-1.3,0.1c-2.8,0.4-5.4,2-7,4.3C1.6,82.7,1.2,87.3,2.7,92
			c3.4,10.6,13.9,17.2,24.9,15.8c3-1.8,4.9-5,4.8-8.6c0.1-3.3-1-6.8-3.3-10.7c-2.5-4.2-6.6-8-10.4-11.1l0,0
			C16.8,76,14.5,75.1,12.1,75.1z"/>
		<path class="st4" d="M34.9,96.1c0.3-0.2,0.5-0.4,0.7-0.7c0.6-1,0.3-2.3-0.7-2.8c-7.4-4.4-16-6.2-24.5-5.1
			c-1.1,0.1-1.9,1.2-1.8,2.3c0.1,1.1,1.2,1.9,2.3,1.8l0,0c7.6-1,15.3,0.6,21.8,4.5C33.4,96.5,34.3,96.5,34.9,96.1z"/>
		<path class="st5" d="M117.8,90.8c-1.3,12.2-9.6,21.1-20.5,26.1c-5.9,2.6-12.1,4.5-18.4,5.8c-17,3.9-43.9,7.8-54.8-10.2
			c-4-7-6.2-15-6.3-23.1c0-0.5,0-1,0-1.6c0-0.7,0-1.4,0-2.1c0-1.2,0.1-2.4,0.2-3.7c0.1-1,0.2-2,0.3-3c0-0.2,0-0.4,0.1-0.6l0.1-1
			l0.1-1c0.1-0.4,0.1-0.8,0.2-1.3C21.2,61.5,27,47.5,37.2,38c4.1-3.8,9-6.8,14.3-8.8c2.4-0.8,4.8-1.5,7.2-1.9
			c7.2-1.2,14.5-0.6,21.3,1.8h0.1c2.1,0.7,4.2,1.6,6.1,2.7l0,0c0.7,0.4,1.4,0.8,2.1,1.2c5.6,3.6,10.5,8.3,14.4,13.8
			c0.6,0.8,1.1,1.5,1.6,2.3c0.2,0.3,0.4,0.7,0.6,1c1.6,2.5,3.1,5.1,4.5,7.7c0.1,0.2,0.2,0.3,0.3,0.5c0.7,1.3,1.3,2.6,2,4
			s1.2,2.7,1.8,4.1c0.1,0.3,0.2,0.6,0.3,0.9c0.2,0.6,0.5,1.2,0.7,1.8s0.5,1.5,0.8,2.3C117.5,77.7,118.3,84.3,117.8,90.8z"/>
		<path class="st11" d="M109.6,58c-0.9-1.2-1.9-2.3-3.2-3.2c-1.7-1.2-3.6-2-4.8-3.6c-5,1.7-10.6,0.3-14.2-3.6
			C86.2,49.9,85,52.3,83,54c-1.3,0.9-2.7,1.7-4.2,2.1c-2.2,0.8-4.5,1.3-6.9,1.4c-4.6,0.1-8.7-2.2-11.7-5.6c-0.8,4-3.5,7.3-7.2,8.8
			s-7.8,1.8-11.7,0.7c-2.4-0.6-5-1.9-5.8-4.3c-1,4.6-3.2,8.8-6.5,12.1c-3.2,3.2-6.7,5.9-10.6,8.2l0.1-1c0.1-0.4,0.1-0.8,0.2-1.3
			C21.2,61.5,27,47.5,37.2,38c4.1-3.8,9-6.8,14.3-8.8c2.4-0.8,4.8-1.5,7.2-1.9c7.2-1.2,14.5-0.6,21.3,1.8h0.1
			c2.1,0.7,4.2,1.6,6.1,2.7l0,0c0.7,0.4,1.4,0.8,2.1,1.2c5.6,3.6,10.5,8.3,14.4,13.8c0.6,0.8,1.1,1.5,1.6,2.3c0.2,0.3,0.4,0.7,0.6,1
			C106.7,52.8,108.2,55.3,109.6,58z"/>
		<path class="st4" d="M54,126.9c-1.6,0-3.3-0.1-4.9-0.2c-12.1-0.9-20.8-5.5-25.7-13.7c-5-8.3-7.1-19-6.2-30.9
			c0.1-1.2,0.2-2.4,0.4-3.6c2.2-17.2,9-31.7,19-41c4.2-3.9,9.2-7,14.6-9c2.4-0.9,4.9-1.5,7.4-2c7.3-1.2,14.8-0.6,21.7,1.8h0.1
			c2.1,0.7,4.2,1.7,6.2,2.8h0.1c0.7,0.4,1.4,0.8,2.2,1.3c6.8,4.5,12.6,10.4,16.9,17.4c1.7,2.7,3.3,5.5,4.8,8.3s2.7,5.6,3.8,8.2
			c3.6,8.9,5,17.2,4.2,24.7c-1.2,11.6-8.7,21.1-20.9,26.8c-6,2.6-12.2,4.6-18.6,5.9C72.6,125.1,63.3,126.9,54,126.9z M65.9,27.5
			c-2.3,0-4.7,0.2-7,0.6c-2.4,0.4-4.8,1-7.1,1.9c-5.2,1.9-10,4.9-14,8.6c-9.8,9-16.3,23.2-18.5,40c-0.1,1.2-0.3,2.3-0.4,3.5
			c-0.9,11.6,1.1,21.9,6,30c4.6,7.7,12.8,12,24.4,12.9c10.6,0.8,21.9-1.4,29.5-3.1c6.3-1.3,12.4-3.2,18.2-5.8
			c11.8-5.5,18.9-14.5,20-25.5c0.8-7.2-0.6-15.2-4.1-23.9l0,0c-1-2.6-2.3-5.3-3.7-8s-3-5.5-4.7-8.1c-4.2-6.8-9.8-12.5-16.4-16.9
			c-0.7-0.4-1.4-0.8-2.1-1.2l0,0l0,0c-1.9-1.1-3.9-1.9-6-2.7l0,0l0,0C75.4,28.3,70.7,27.5,65.9,27.5z"/>
		<circle class="st12" cx="35.8" cy="106.1" r="10.7"/>
		
			<ellipse transform="matrix(0.9864 -0.1644 0.1644 0.9864 -12.2089 11.8858)" class="st13" cx="65.7" cy="79.7" rx="3.5" ry="1.7"/>
		<circle class="st12" cx="105.4" cy="87.1" r="11"/>
		<path class="st14" d="M29,47.7c-1.8,4.6-3.9,9.2-5.7,13.7c-1.5,3.8-3,7.6-4.1,11.6c-0.4,1.5-0.8,3-1.1,4.6
			c-0.1-0.3-0.2-0.6-0.4-0.9c-0.4-0.6-0.9-1.1-1.6-1.5c-0.4-0.3-0.9-0.5-1.3-0.6c-0.8-0.3-1.5-0.4-2.3-0.4c-0.4,0-0.8,0-1.3,0
			c-0.4,0.1-0.8,0.1-1.2,0.2s-0.8,0.2-1.3,0.3l-0.6,0.2c-1-7-3.6-21.5,6.1-34c0.4,0.5,0.8,0.9,1.1,1.3s0.6,0.6,0.9,0.9
			c0.5,0.5,1,0.9,1.5,1.3c0.4,0.3,0.7,0.5,1.1,0.7c0.6,0.4,1.2,0.7,1.9,0.9c0.4,0.2,0.8,0.3,1.3,0.4c1.3,0.4,2.6,0.6,3.9,0.8
			l1.4,0.2L29,47.7z"/>
		<path class="st8" d="M27.4,47.5c-1.1,1.8-2,3.7-2.8,5.7C22,59.5,19.8,66,19.2,72.8c0,0.1,0,0.1,0,0.2c-0.4,1.5-0.8,3-1.1,4.6
			c-0.1-0.3-0.2-0.6-0.4-0.9c0.1-5.5,1.1-10.9,2.8-16.2c1.1-3.3,2.3-6.6,3.8-9.7c0.5-1.2,1.1-2.3,1.8-3.4L27.4,47.5z"/>
		<path class="st8" d="M18.9,45.1c-3.1,5-5,10.6-5.8,16.5c-0.6,4.2-0.8,8.4-0.7,12.6c-0.4,0-0.8,0-1.3,0c-0.2-10.2,1.1-21,6.6-29.7
			C18.2,44.7,18.6,44.9,18.9,45.1z"/>
		<path class="st8" d="M22.1,46.5c-0.9,1.5-1.7,3-2.3,4.6c-3.2,7.7-4,15.9-3.6,24.1c-0.4-0.3-0.9-0.5-1.3-0.6c-0.3-9.9,1-20,6-28.5
			C21.2,46.2,21.7,46.4,22.1,46.5z"/>
		<path class="st8" d="M16.3,43.2c-0.5,0.6-1,1.3-1.4,2c-1,1.7-1.7,3.5-2.2,5.4c-1.3,4.1-2.2,8.3-2.7,12.5c-0.3,3.8-0.3,7.5,0,11.3
			c-0.4,0.1-0.8,0.2-1.3,0.3c-0.5-6.1-0.2-12.3,1.1-18.2c0.7-3.3,1.6-6.6,2.8-9.8c0.7-1.6,1.6-3.1,2.8-4.5
			C15.7,42.6,16,42.9,16.3,43.2z"/>
		<path class="st4" d="M18.1,78.4L18.1,78.4c-0.4,0-0.7-0.3-0.8-0.7c-0.3-0.8-0.9-1.4-1.6-1.8c-1.3-0.8-3.6-1.5-7.3-0.2
			c-0.2,0.1-0.5,0.1-0.7-0.1c-0.2-0.1-0.4-0.3-0.4-0.6l-0.1-0.6c-0.9-4.9-1.2-10-0.8-15c0.5-6.9,3-13.5,7.2-19
			c0.1-0.2,0.4-0.3,0.6-0.3c0.2,0,0.5,0.1,0.6,0.3c4.3,5.1,7.6,5.7,14.2,6.5c0.4,0,0.8,0.4,0.7,0.9c0,0.1,0,0.1-0.1,0.2
			c-0.9,2.3-1.9,4.7-2.9,6.9S25,59.5,24,61.8c-2,5.2-4.1,10.5-5.2,16C18.8,78.1,18.5,78.4,18.1,78.4z M12.2,73.4
			c1.5,0,3,0.4,4.3,1.1c0.4,0.3,0.8,0.6,1.2,0.9c1.3-4.9,2.9-9.6,4.8-14.3c0.9-2.3,1.9-4.6,2.8-6.9c0.8-1.9,1.6-3.9,2.4-5.9
			c-5.9-0.7-9.4-1.5-13.6-6.1C5.9,53.7,7.7,66.7,8.8,73.9C9.9,73.5,11.1,73.4,12.2,73.4L12.2,73.4z"/>
		<path class="st14" d="M89,34.8c3.3,3.6,6.9,7.2,10.2,10.8c2.8,3,5.5,6,8,9.3c0.9,1.2,1.8,2.5,2.7,3.8c-0.1-0.3-0.1-0.7,0-1
			c0.2-0.7,0.5-1.4,0.9-1.9c0.3-0.4,0.6-0.8,1-1.1c0.6-0.5,1.3-0.9,2-1.2c0.4-0.2,0.8-0.3,1.2-0.4c0.4-0.1,0.8-0.2,1.2-0.3
			c0.4-0.1,0.9-0.1,1.3-0.1c0.2,0,0.4,0,0.6,0c-1.5-6.9-4.4-21.4-17.9-29.5c-0.2,0.6-0.4,1.1-0.6,1.6s-0.3,0.8-0.5,1.2
			c-0.3,0.6-0.6,1.2-1,1.8c-0.2,0.4-0.5,0.7-0.8,1c-0.4,0.6-0.9,1.1-1.3,1.6c-0.3,0.3-0.7,0.6-1,0.9c-1.1,0.8-2.2,1.5-3.3,2.2
			L90.4,34L89,34.8z"/>
		<path class="st8" d="M90.4,34c1.6,1.3,3.2,2.8,4.6,4.3c4.7,5,9.1,10.2,12.1,16.4c0,0,0.1,0.1,0.1,0.2c0.9,1.2,1.8,2.5,2.7,3.8
			c-0.1-0.3-0.1-0.7,0-1c-2.1-5.1-4.9-9.8-8.4-14.1c-2.2-2.7-4.5-5.3-7-7.7c-0.9-0.9-1.9-1.8-2.9-2.6L90.4,34z"/>
		<path class="st8" d="M97.4,28.8c4.7,3.6,8.5,8.1,11.3,13.2c2,3.7,3.8,7.5,5.2,11.5c0.4-0.2,0.8-0.3,1.2-0.4
			c-3.5-9.7-8.6-19.3-16.9-25.4C97.9,28,97.7,28.4,97.4,28.8z"/>
		<path class="st8" d="M95,31.2c1.3,1.1,2.6,2.2,3.8,3.4c5.8,6,9.4,13.4,12.1,21.2c0.3-0.4,0.6-0.8,1-1.1
			c-3.3-9.3-8.2-18.3-15.9-24.4C95.7,30.6,95.3,30.9,95,31.2z"/>
		<path class="st8" d="M99.2,26c0.7,0.4,1.4,0.9,2.1,1.4c1.5,1.2,2.9,2.7,4,4.2c2.7,3.4,5,6.9,7,10.7c1.7,3.4,3,6.9,4.1,10.5
			c0.4-0.1,0.9-0.1,1.3-0.1c-1.7-5.9-4.3-11.5-7.6-16.7c-1.8-2.9-3.8-5.6-6.1-8.1c-1.2-1.3-2.7-2.3-4.2-3.2
			C99.5,25.2,99.3,25.6,99.2,26z"/>
		<path class="st4" d="M109.9,59.5c-0.3,0-0.5-0.1-0.7-0.4c-3.1-4.7-6.7-9-10.6-13c-1.7-1.8-3.4-3.6-5.1-5.4s-3.5-3.6-5.1-5.4
			c-0.3-0.3-0.3-0.8,0.1-1.1c0,0,0.1-0.1,0.2-0.1c5.9-3.1,8.8-4.9,10.9-11.2c0.2-0.4,0.6-0.6,1.1-0.5c0,0,0.1,0,0.1,0.1
			c5.9,3.6,10.6,8.8,13.5,15.1c2.1,4.6,3.7,9.4,4.6,14.3l0.1,0.6c0.1,0.2,0,0.5-0.2,0.7s-0.4,0.3-0.6,0.3c-3.9,0.1-5.8,1.5-6.7,2.8
			c-0.5,0.6-0.8,1.4-0.8,2.3c0.1,0.4-0.1,0.8-0.5,0.9C110.1,59.5,110,59.5,109.9,59.5z M90.3,35c1.4,1.5,3,3.1,4.4,4.6
			c1.7,1.8,3.4,3.6,5.1,5.4c3.5,3.6,6.7,7.5,9.7,11.6c0.2-0.5,0.5-0.9,0.8-1.3c1.1-1.4,3.1-3,7-3.3c-1.6-7.1-4.6-19.9-16.5-27.6
			C98.5,30.1,95.5,32.2,90.3,35z"/>
		<path class="st15" d="M103.4,32.7c0.8,2.1,1.1,4.4,0.9,6.6c-0.2,5.3-4,9.2-9.1,8.5c-2.6-0.5-5.1-1.6-7.2-3.4c-2-1.5-3.3-4.5-4.2-7
			c0.6,4.7-1.2,9.3-4.6,12.5c-7.3,6.4-19.9,2.6-22.5-7.5c-0.1,4.3-1.5,8.4-4.2,11.7c-2.5,3-6.3,4.5-10.2,3.8
			c-3.7-0.7-6.7-4.6-8.2-8.8c-0.5,3.8-2.3,7.3-5,9.9c-3.1,2.7-7.3,3.7-11.2,2.6c-5.2-1.7-6-8.3-3-12.4c-1.8,0.3-3.7,0.1-5.4-0.7
			C5,46.2,3.4,40.2,4.7,35.3c0.6-2.1,1.7-4.1,3.4-5.6c3.1-2.8,7.5-3.5,11.2,0.1c-0.5-1.7-0.7-3.6-0.5-5.4c0.4-3.8,2.1-7.7,5.4-9.6
			c1.9-1.2,4.3-1.4,6.4-0.7c2.8,1,4.9,3.6,6.7,6.2c0-5.5,2.6-11.8,8-13.1c2.5-0.5,5.1-0.1,7.3,1.2c1.4,0.8,5,3.1,5.2,4.9
			C56.8,5.1,65-0.4,72,1c1.6,0.3,3.1,0.9,4.5,1.8c4.4,2.7,7,7.6,6.8,12.7c0.5-1.9,2.1-3.6,3.3-5c3.2-3.7,8.4-4.2,12-0.3
			c2.6,3.1,3.5,7.3,2.5,11.2c1.5-2.7,4.3-4.3,7.3-4.4c3.4-0.3,6.4,1.9,7.3,5.2C118.1,30.6,109.6,34.2,103.4,32.7z"/>
		<path class="st14" d="M103.4,32.7c0.8,2.1,1.1,4.4,0.9,6.6c-0.2,5.3-4,9.2-9.1,8.5c-2.6-0.5-5.1-1.6-7.2-3.4c-2-1.5-3.3-4.5-4.2-7
			c0.6,4.7-1.2,9.3-4.6,12.5c-7.3,6.4-19.9,2.6-22.5-7.5c-0.1,4.3-1.5,8.4-4.2,11.7c-2.5,3-6.3,4.5-10.2,3.8
			c-3.7-0.7-6.7-4.6-8.2-8.8c-0.5,3.8-2.3,7.3-5,9.9c-3.1,2.7-7.3,3.7-11.2,2.6c-5.2-1.7-6-8.3-3-12.4c-1.8,0.3-3.7,0.1-5.4-0.7
			C5,46.2,3.4,40.2,4.7,35.3c0.6-2.1,1.7-4.1,3.4-5.6c0,0.5,0,1,0.1,1.5c0.4,3,2,6.1,4.6,7.5s6.1,0.7,7.6-2c-0.4,2.2-0.4,4.5,0,6.7
			c0.1,0.8,0.5,1.6,0.9,2.3c1.1,1.4,2.9,1.9,4.5,1.2s2.8-2,3.4-3.6s1.1-3.3,1.3-5.1c1.4,3.5,3.8,6.5,6.9,8.6c3,2.1,7.1,2.8,10.2,1
			c2.4-1.5,4.1-3.9,4.8-6.7s1-5.7,0.9-8.7c1.6,3.3,3.9,6.3,6.6,8.9c2.5,2.3,5.8,3.7,9.2,3.8c3.4,0,6.7-1.7,8.5-4.6
			c1-1.8,1.6-3.7,1.8-5.7c0.4-3.3,0.5-6.6,0.2-9.8c0.9,2.9,2.8,5.5,5.3,7.2c2.2,1.6,4.9,2.2,7.6,1.9c0.8-0.1,1.5-0.4,2.1-0.9
			c0.4-0.4,0.7-1,0.9-1.6c0.9-2.5,0.6-5.2-0.6-7.5c0.7,1.2,2.1,1.9,3.6,1.7c1.5-0.1,2.9-0.6,4.2-1.4c2.1-1,3.8-2.5,4.9-4.5
			c0.5-1,0.8-2,0.8-3.1c3.4-0.3,6.4,1.9,7.3,5.2C118.1,30.6,109.6,34.2,103.4,32.7z"/>
		<path class="st4" d="M20.9,62.8c-1.1,0-2.2-0.2-3.3-0.5c-2.3-0.7-4.1-2.6-4.8-4.9c-0.7-2.4-0.5-5.1,0.6-7.3c-1.5,0-3-0.3-4.3-0.9
			C4,46.6,2.7,40,4,35.2c1.1-4.1,4.1-7.3,7.7-8.2c2.2-0.6,4.5-0.2,6.3,1c-0.1-1.2-0.1-2.3,0-3.5c0.5-4.6,2.6-8.4,5.8-10.2
			c2.1-1.3,4.7-1.6,7-0.8c2.4,1,4.4,2.6,5.8,4.8c0.6-5.1,3.3-10.4,8.5-11.7c2.7-0.6,5.4-0.1,7.8,1.2c1.5,0.8,2.8,1.8,4.1,3
			c0.4-2.8,1.7-5.3,3.8-7.2c3.1-2.8,7.3-4.1,11.4-3.4c1.7,0.3,3.4,1,4.8,1.9l0,0c3.7,2.3,6.3,6.1,7,10.4c0.6-0.8,1.2-1.5,1.8-2.3
			L86,10c1.6-2,4-3.2,6.6-3.3c2.5,0,4.9,1.1,6.5,3c2.1,2.5,3.3,5.7,3.1,9c2-1.8,4.7-2.7,7.4-2.4c3.3,0.2,6,2.5,6.8,5.7
			c1.2,4.3-0.3,7-1.8,8.5c-2.3,2.4-6.4,3.6-10.1,3.1c0.5,1.8,0.7,3.8,0.5,5.7c0,2.8-1.3,5.5-3.4,7.4c-1.8,1.5-4.2,2.2-6.6,1.8
			c-2.8-0.5-5.4-1.7-7.6-3.5c-1.3-1.1-2.3-2.4-3-3.9c-0.4,3.6-2.1,6.9-4.8,9.4c-3.8,3.2-8.9,4.2-13.6,2.6c-3.9-1.2-7.1-3.9-9-7.5
			c-0.5,3.3-1.9,6.4-4,9c-2.6,3.2-6.8,4.8-10.9,4.1c-3.5-0.7-6.2-3.8-7.8-7c-0.8,3-2.5,5.7-4.8,7.9C27.2,61.7,24.1,62.8,20.9,62.8z
			 M14.9,48.5c0.3,0,0.5,0.1,0.6,0.4c0.2,0.3,0.2,0.6,0,0.9c-1.6,2.1-2,4.8-1.3,7.3c0.6,1.8,2,3.3,3.8,3.9c3.7,1,7.6,0.1,10.5-2.5
			c2.7-2.5,4.4-5.8,4.8-9.4c0.1-0.3,0.3-0.6,0.7-0.7c0.4,0,0.7,0.2,0.8,0.5c1.5,4.5,4.5,7.7,7.6,8.3c3.6,0.6,7.2-0.8,9.5-3.6
			c2.6-3.2,4-7.1,4-11.2c0-0.4,0.3-0.8,0.8-0.8c0.4,0,0.7,0.2,0.7,0.6c1.2,4.5,4.7,8.1,9.2,9.4c4.2,1.4,8.8,0.5,12.1-2.3
			c3.2-3,4.8-7.4,4.3-11.8c-0.1-0.4,0.2-0.7,0.6-0.8s0.8,0.1,0.9,0.5c1.2,3.3,2.4,5.5,3.9,6.7c2,1.6,4.3,2.8,6.8,3.2
			c1.9,0.3,3.9-0.2,5.4-1.5c1.8-1.6,2.8-3.9,2.9-6.3c0.2-2.1-0.1-4.3-0.9-6.3c-0.1-0.4,0.1-0.8,0.5-1c0.1,0,0.3-0.1,0.4,0
			c3.6,0.9,7.7-0.1,10-2.4c1.8-1.8,2.2-4.2,1.4-7.1c-0.7-2.6-2.9-4.4-5.5-4.6c-3.1-0.3-6.2,1.2-7.7,4c-0.2,0.4-0.6,0.5-1,0.4
			c-0.3-0.2-0.5-0.5-0.4-0.9c1-3.7,0.1-7.6-2.3-10.5c-1.3-1.6-3.3-2.5-5.4-2.5c-2.1,0.1-4.1,1.1-5.5,2.7l-0.3,0.3
			c-1.2,1.2-2.2,2.7-2.8,4.4c-0.1,0.4-0.5,0.7-0.9,0.6s-0.7-0.5-0.6-0.9l0,0c0.2-4.9-2.3-9.5-6.5-12l0,0c-1.3-0.8-2.8-1.4-4.3-1.7
			c-3.6-0.6-7.3,0.5-10,2.9c-2.5,2.2-3.7,5.4-3.4,8.6c0,0.4-0.3,0.8-0.7,0.8s-0.8-0.3-0.8-0.7c-0.1-1.2-2.9-3.3-4.8-4.4
			c-2-1.2-4.4-1.6-6.8-1.1C40.4,9.2,38,15.3,38,20.4c0,0.4-0.3,0.8-0.8,0.8c-0.3,0-0.5-0.1-0.6-0.3c-1.8-2.5-3.7-5-6.3-5.9
			c-1.9-0.6-4-0.4-5.8,0.7c-2.7,1.6-4.6,5-5,9.1c-0.2,1.7-0.1,3.4,0.5,5c0.1,0.4-0.1,0.8-0.5,1c-0.3,0.1-0.6,0-0.8-0.2
			c-1.7-1.9-4.2-2.6-6.6-2c-3,0.8-5.6,3.6-6.6,7.2c-1.2,4.3,0,10,4.4,12.3c1.5,0.7,3.3,0.9,4.9,0.6L14.9,48.5z"/>
		<path class="st16" d="M83.6,83.8c0.9,5.1,0.7,10.4-0.7,15.4c-1.8,6.2-5.7,10.7-10.8,11.7c-5.5,1-11.1-2.3-15.2-8.2
			c-2.6-3.9-4.4-8.2-5.3-12.8L83.6,83.8z"/>
		<path class="st17" d="M82.8,99.2c-1.8,6.2-5.7,10.7-10.8,11.7c-5.5,1-11.1-2.3-15.2-8.2c3.4-3.1,7.6-5.3,12.1-6.3
			C73.7,95.5,78.7,96.5,82.8,99.2z"/>
		<path class="st18" d="M82,84.1c-1.1,2.6-2.8,4.9-5,6.7c-3.8,3.1-8.4,4-13,4.1c-2.7,0.2-5.3-0.4-7.6-1.7c-1.4-1-2.7-2.2-3.6-3.7
			L82,84.1z"/>
		<path class="st4" d="M70,111.5c-3.8,0-7.6-1.8-11-5.3c-4.2-4.6-7.1-10.3-8.2-16.5c0-0.2,0-0.4,0.1-0.5s0.3-0.3,0.4-0.3l32.1-6
			c0.2,0,0.4,0,0.5,0.1s0.3,0.3,0.3,0.4c1.2,6.1,0.6,12.5-1.7,18.3c-2.3,5.3-6,8.7-10.4,9.5C71.4,111.4,70.7,111.5,70,111.5z
			 M52.2,90.1c1.1,5.6,3.8,10.9,7.7,15.1c3.7,3.8,7.9,5.5,11.9,4.8s7.3-3.8,9.4-8.7c2.2-5.4,2.8-11.3,1.8-17L52.2,90.1z"/>
		<path class="st4" d="M68.2,54.2c1.7-2.3,4.2-3.8,7.1-4c1.4,0,2.8,0.1,4.2,0.4c1.9,0.4,3.8,0.8,5.7,1.4c0.8,0.2,1.7,1.1,0.9,1.9
			s-2.3,0.7-3.3,0.9c-1.3,0.2-2.6,0.4-4,0.5c-2.7,0.3-5.4,0.5-8.1,0.6C69.9,56,67,55.6,68.2,54.2z"/>
		<path class="st4" d="M51.3,56.6c-2.6-1.2-5.5-1.2-8.1-0.1c-1.3,0.6-2.4,1.4-3.5,2.4c-1.5,1.2-3,2.6-4.3,4c-0.6,0.6-1,1.8,0.1,2.1
			s2.3-0.5,3.3-0.8c1.3-0.5,2.5-0.9,3.8-1.4c2.5-1,5-2.2,7.5-3.4C50.7,59,53,57.3,51.3,56.6z"/>
		<path class="st4" d="M37.5,80.2c1.7,0.1,3.5,0.1,5.2-0.1c1.7-0.1,3.4-0.4,5.1-0.8c1.7-0.4,3.3-1,4.9-1.6c1.6-0.7,3.2-1.5,4.7-2.4
			c-1.2,1.4-2.5,2.6-4.1,3.5c-3.2,1.8-6.8,2.7-10.5,2.6C41,81.3,39.2,80.9,37.5,80.2z"/>
		<path class="st4" d="M71.9,73c1.7,0.2,3.5,0.2,5.2,0.2c1.7-0.1,3.4-0.3,5.1-0.6c1.7-0.3,3.3-0.8,4.9-1.4s3.2-1.4,4.8-2.2
			c-1.2,1.3-2.7,2.5-4.3,3.3c-1.6,0.8-3.3,1.5-5.1,1.8c-1.8,0.4-3.6,0.4-5.4,0.3C75.3,74.2,73.5,73.8,71.9,73z"/>
	</g>
</g>
</svg>
