<?xml version="1.0" encoding="utf-8"?>
<!-- Generator: Adobe Illustrator 25.4.1, SVG Export Plug-In . SVG Version: 6.00 Build 0)  -->
<svg version="1.1" id="Layer_1" xmlns="http://www.w3.org/2000/svg" xmlns:xlink="http://www.w3.org/1999/xlink" x="0px" y="0px"
	 viewBox="0 0 146.1 202.8" style="enable-background:new 0 0 146.1 202.8;" xml:space="preserve">
<style type="text/css">
	.st0{fill:#CCCBCB;}
	.st1{fill:#F5E1D7;}
	.st2{fill:#EEC9B8;}
	.st3{fill:#0E495C;}
	.st4{fill:#1F404D;}
	.st5{fill:#E7E8E4;}
	.st6{opacity:0.25;}
	.st7{fill:#1D1D1B;}
	.st8{opacity:0.25;fill:#1D1D1B;enable-background:new    ;}
	.st9{opacity:0.28;fill:#E7E8E4;enable-background:new    ;}
	.st10{fill:#2D2D2B;}
	.st11{opacity:0.5;}
	.st12{fill:#E1B8A2;}
	.st13{fill:#F8CBC5;}
	.st14{fill:#EFA29A;}
	.st15{fill:#3C3C3B;}
	.st16{fill:#FFFFFF;}
	.st17{clip-path:url(#SVGID_00000041256498896551200700000014677292281137176719_);}
	.st18{fill:#7BC29D;}
	.st19{fill:#7AC19C;}
	.st20{fill:#79C19D;}
	.st21{fill:#79C19C;}
	.st22{fill:#76C09B;}
	.st23{fill:#75C09B;}
	.st24{fill:#73BF9A;}
	.st25{fill:#72BF9B;}
	.st26{fill:#72BF9A;}
	.st27{fill:#70BE9A;}
	.st28{fill:#6EBE9A;}
	.st29{fill:#6CBD99;}
	.st30{fill:#69BC99;}
	.st31{fill:#68BC98;}
	.st32{fill:#66BB98;}
	.st33{fill:#66BB97;}
	.st34{fill:#65BB97;}
	.st35{fill:#63BB97;}
	.st36{fill:#62BA97;}
	.st37{fill:#60BA97;}
	.st38{fill:#5FB996;}
	.st39{fill:#5DB996;}
	.st40{fill:#5CB995;}
	.st41{fill:#5AB894;}
	.st42{fill:#57B795;}
	.st43{fill:#55B794;}
	.st44{fill:#53B795;}
	.st45{fill:#52B693;}
	.st46{fill:#50B593;}
	.st47{fill:#4FB493;}
	.st48{fill:#4FB392;}
	.st49{fill:#4EB392;}
	.st50{fill:#4DB091;}
	.st51{fill:#4CB090;}
	.st52{fill:#4BAE90;}
	.st53{fill:#4BAD90;}
	.st54{fill:#4DAC8F;}
	.st55{fill:#4CAA8E;}
	.st56{fill:#4AA98E;}
	.st57{fill:#49A88E;}
	.st58{fill:#48A68D;}
	.st59{fill:#48A58C;}
	.st60{fill:#47A48B;}
	.st61{fill:#46A38B;}
	.st62{fill:#43A28A;}
	.st63{fill:#42A08A;}
	.st64{fill:#429F89;}
	.st65{fill:#419E89;}
	.st66{fill:#419D88;}
	.st67{fill:#409C88;}
	.st68{fill:#3F9A86;}
	.st69{fill:#3F9987;}
	.st70{fill:#3E9886;}
	.st71{fill:#3C9785;}
	.st72{fill:#3A9685;}
	.st73{fill:#3B9584;}
	.st74{fill:#3A9483;}
	.st75{fill:#3A9283;}
	.st76{fill:#399182;}
	.st77{fill:#399082;}
	.st78{fill:#378F82;}
	.st79{fill:#388E81;}
	.st80{fill:#368D81;}
	.st81{fill:#378C80;}
	.st82{fill:#368C80;}
	.st83{fill:#358B80;}
	.st84{fill:#348880;}
	.st85{fill:#328880;}
	.st86{fill:#328680;}
	.st87{fill:#31857E;}
	.st88{fill:#31847E;}
	.st89{fill:#2F837E;}
	.st90{fill:#2F827D;}
	.st91{fill:#30817C;}
	.st92{fill:#2E807D;}
	.st93{fill:#2D807B;}
	.st94{fill:#2D7F7C;}
	.st95{fill:#2A7F7C;}
	.st96{fill:#2B7D7B;}
	.st97{fill:#2A7B79;}
	.st98{fill:#2A7A7A;}
	.st99{fill:#2A7978;}
	.st100{fill:#287878;}
	.st101{fill:#287777;}
	.st102{fill:#287677;}
	.st103{fill:#277576;}
	.st104{fill:#257476;}
	.st105{fill:#257376;}
	.st106{fill:#237375;}
	.st107{fill:#237175;}
	.st108{fill:#227075;}
	.st109{fill:#237074;}
	.st110{fill:#206F74;}
	.st111{fill:#206E74;}
	.st112{fill:#1F6D73;}
	.st113{fill:#206C73;}
	.st114{fill:#206B71;}
	.st115{fill:#1F6A72;}
	.st116{fill:#206871;}
	.st117{fill:#1D6871;}
	.st118{fill:#1D6870;}
	.st119{fill:#1F6770;}
	.st120{fill:#1D656F;}
	.st121{fill:#1D6570;}
	.st122{fill:#1C646E;}
	.st123{fill:#19626E;}
	.st124{fill:#19616D;}
	.st125{fill:#19606D;}
	.st126{fill:#175F6C;}
	.st127{fill:#165E6C;}
	.st128{fill:#165D6C;}
	.st129{fill:#175D6B;}
	.st130{fill:#145D6B;}
	.st131{fill:#165C6B;}
	.st132{fill:#155C6A;}
	.st133{fill:#155B6A;}
	.st134{fill:#155A6B;}
	.st135{fill:#145869;}
	.st136{fill:#13586A;}
	.st137{fill:#135668;}
	.st138{fill:#135568;}
	.st139{fill:#125467;}
	.st140{fill:#115468;}
	.st141{fill:#0F5368;}
	.st142{fill:#125368;}
	.st143{fill:#115266;}
	.st144{fill:#115166;}
	.st145{clip-path:url(#SVGID_00000145776322342681016130000005571627323016046720_);}
</style>
<g id="Layer_2_00000078022343129650551550000005999697026147471768_">
	<g id="Layer_1-2">
		<ellipse class="st0" cx="70.7" cy="193.7" rx="54.6" ry="9.2"/>
		<path class="st1" d="M48.4,193.5c1,1.7,11.1,0.8,15.4-1.6c0.9-3.1,1.5-6.2,2-9.3c0-0.1,0-0.3,0.1-0.4c0.8-4.4,3-10.1,3.1-13.4
			c-3.8-0.4-8.3-2.1-12.1-2.5c-0.6,4.8-2,7.1-2.4,12.4v0.4c-0.2,3-0.5,4.6-0.8,8.6C51.4,188.3,47.5,189.6,48.4,193.5z"/>
		<path class="st2" d="M54.6,178.6c1.2,0.7,2.4,1.3,3.7,1.8c2.4,1,5,1.5,7.6,1.7c0.8-4.4,3-10.1,3.1-13.4c-3.8-0.4-8.3-2.1-12.1-2.5
			C56.4,171.1,55,173.3,54.6,178.6z"/>
		<path class="st3" d="M63.3,189.1l-0.2-0.1c-1.5-0.5-3-0.9-4.5-1.1c-1.5-0.2-3.1-0.7-4.6-0.3c-0.7,0.2-1.3,0.5-1.9,0.9
			c-0.6,0.4-1.3,0.6-1.9,1c-1.2,0.9-1.9,2.4-1.7,3.9c0.1,0.8,0.7,1.1,1.1,0.8h0.1c2.6,0.4,5.4-0.2,8-0.7c1.3-0.2,2.6-0.5,3.9-0.8
			c0.6-0.1,1.1-0.3,1.6-0.6c0.2-0.2,0.3-0.5,0.4-0.7c0-0.1,0-0.6,0.1-0.7C64,190,63.8,189.4,63.3,189.1
			C63.3,189.1,63.3,189.1,63.3,189.1z"/>
		<path class="st4" d="M48,194c0-0.1-0.1-0.2-0.1-0.2c-0.3-1-0.2-2,0.1-3c0.8-2.1,3-3,5.2-3.7c0.5-7,1.6-14,3.2-20.9
			c0.1-0.3,0.3-0.5,0.5-0.5C59,166,61,166.4,63,167c2,0.5,4,1,6,1.2c0.2,0,0.3,0.2,0.4,0.3c0.1,0.2,0.1,0.4,0,0.7
			c-2.3,9.1-5.1,22.8-5.2,23c0,0.2-0.1,0.4-0.3,0.5c-2.9,1.3-6,2.1-9.1,2.3c-0.8,0.1-1.7,0.1-2.7,0.1C50.4,195.1,48.5,194.8,48,194z
			 M68.3,169.6c-1.7-0.3-3.6-0.7-5.4-1.2c-1.9-0.5-3.8-0.9-5.7-1.2c-1.6,6.7-2.6,13.6-3.1,20.5c0,0.3-0.1,0.6-0.4,0.7
			c-1.5,0.4-4.2,1.2-4.9,3.1c-0.2,0.5-0.2,1.1-0.1,1.6c0.5,0.4,2.5,0.8,6.1,0.4c2.9-0.2,5.8-0.9,8.5-2.1
			C63.9,189.2,66.2,177.8,68.3,169.6L68.3,169.6z"/>
		<path class="st4" d="M64.2,190.1c0.2,0,0.4-0.2,0.5-0.5c0.1-0.3,0-0.7-0.3-0.9c-3.4-1.2-7-1.8-10.6-1.8l0,0
			c-0.3,0-0.5,0.3-0.5,0.7s0.2,0.7,0.5,0.7c3.5,0,7,0.6,10.4,1.8C64.1,190.1,64.2,190.1,64.2,190.1z"/>
		<path class="st1" d="M69.4,191.8c4.3,2.4,14.5,3.3,15.4,1.6c0.9-4-3-5.2-5.3-6c1-2.4,1.9-5,2.8-7.9c1-3.3,0.9-6.8,1.4-10.1
			c-3.8,0.4-8.9,0.5-12.6,0.9c0.1,3.4-0.2,7.8-0.6,11.7C70,187.4,69.4,191.8,69.4,191.8z"/>
		<path class="st3" d="M70,189c0.1-0.1,0.1-0.1,0.2-0.1c1.5-0.5,3-0.9,4.5-1.1c1.5-0.2,3.1-0.7,4.6-0.4c0.7,0.2,1.3,0.5,1.9,0.9
			c0.6,0.4,1.3,0.6,1.9,1c1.2,0.9,1.9,2.4,1.7,3.9c0,0.9-0.7,1.1-1.1,0.8h-0.1c-2.7,0.5-5.4-0.2-8-0.7c-1.3-0.2-2.6-0.5-3.9-0.9
			c-0.6-0.1-1.1-0.3-1.6-0.6c-0.2-0.2-0.3-0.5-0.4-0.8c0-0.1,0-0.6,0-0.7C69.3,189.9,69.5,189.3,70,189C70,189,70,189,70,189z"/>
		<path class="st2" d="M70.5,182.1c4.1,0.2,8.1-0.7,11.8-2.5c1-3.3,0.9-6.8,1.4-10.1c-3.8,0.4-8.9,0.5-12.6,0.9
			C71.2,173.8,70.8,178.2,70.5,182.1z"/>
		<path class="st4" d="M78.4,194.9c-3.2-0.2-6.2-1.1-9.1-2.4c-0.2-0.2-0.4-0.5-0.3-0.8c0-0.1,1.8-13.6,1.7-21.3
			c0-0.4,0.2-0.7,0.4-0.8c1.9-0.2,4.4-0.3,6.8-0.5s3.9-0.2,5.8-0.5c0.2,0,0.3,0.1,0.4,0.3c0.1,0.2,0.1,0.4,0.1,0.6
			c-0.8,5.3-1.7,11.7-3.9,17.3c1.7,0.6,4,1.5,4.9,3.6c0.4,1,0.4,2,0.2,3.1c0,0.1,0,0.2-0.1,0.2c-0.5,0.9-2.3,1.1-4.2,1.1
			C80.1,195.1,79.1,195,78.4,194.9z M84.3,191.3c-0.7-1.9-3.4-2.7-4.9-3.1c-0.2-0.1-0.3-0.2-0.3-0.4c-0.1-0.2-0.1-0.5,0-0.7
			c2.2-5.4,3.9-11,5-16.8c-1.8,0.2-4,0.3-6.2,0.4s-4.5,0.2-6.3,0.4c-0.2,6.8-0.7,13.5-1.6,20.3c2.7,1.1,5.5,1.9,8.4,2.1
			c3.6,0.4,5.6,0,6.1-0.4C84.6,192.5,84.5,191.9,84.3,191.3z"/>
		<path class="st4" d="M69.8,189.6h0.1c3.1-1.2,6.4-1.9,9.8-1.8l0,0c0.3,0,0.5-0.3,0.5-0.7s-0.2-0.7-0.5-0.7c-3.4,0-6.8,0.6-10,1.9
			c-0.3,0.2-0.4,0.5-0.3,0.9C69.4,189.4,69.6,189.6,69.8,189.6z"/>
		<path class="st1" d="M113.7,123.9c-0.2,0.1-0.3,0.2-0.5,0.2c-0.6,0.1-1.3,0.1-1.9,0c0.8,0.2,1.5,0.7,2,1.4
			c0.1,0.1,0.1,0.2,0.2,0.4c0,0.1,0,0.3-0.1,0.4c-0.2,0.2-0.4,0-0.7-0.1c-0.6-0.3-1.4-0.4-2-0.7c-0.7,2.3-1.7,4.5-3,6.5H95.1
			c3.5-3.7,7.3-7.2,11.2-10.4c-0.2-0.6-0.3-1.2-0.5-1.9c-0.1-0.2-0.1-0.4-0.1-0.6c0-0.2,0.1-0.4,0.3-0.5c0.2-0.1,0.4-0.1,0.6,0
			c0.2,0.1,0.3,0.3,0.4,0.5c0.3,0.4,0.5,0.9,0.6,1.5c0.6-0.7,1.4-1.2,2.4-1.3c0.2,0,0.3,0,0.5,0c0.2,0,0.3,0.2,0.4,0.3
			c0,0.2-0.1,0.5-0.3,0.7l-1,1.2c0.6-0.5,1.2-0.9,1.9-1.1c0.2-0.1,0.5-0.2,0.8-0.2c0.3,0,0.5,0.2,0.6,0.4c0,0.2,0,0.4-0.1,0.6
			c-0.1,0.2-0.3,0.3-0.4,0.4c-0.5,0.3-1,0.6-1.6,0.8c0.9-0.1,1.8,0,2.6,0.3c0.2,0.1,0.3,0.1,0.5,0.2c0.1,0.1,0.2,0.3,0.2,0.5
			C114,123.6,113.9,123.8,113.7,123.9z"/>
		<path class="st2" d="M95.1,132l1.4-1.4l1.1,1.4H95.1z"/>
		<path class="st4" d="M94.5,132.3c-0.1-0.3-0.1-0.5,0.1-0.7c3.4-3.6,7.1-7,11-10.2c0-0.2-0.1-0.3-0.1-0.5s-0.2-0.6-0.2-0.9
			c-0.1-0.3-0.1-0.5-0.1-0.8c0-0.4,0.2-0.8,0.6-1c0.4-0.3,0.9-0.3,1.3,0c0.3,0.2,0.5,0.4,0.7,0.7c0.1,0.2,0.2,0.4,0.3,0.6
			c0.6-0.4,1.2-0.6,1.9-0.7c0.3-0.1,0.5-0.1,0.8,0c0.4,0.1,0.7,0.4,0.8,0.8c0,0,0,0.1,0,0.1c0.2-0.1,0.5-0.1,0.8-0.1
			c0.7,0,1.3,0.6,1.3,1.3c0,0.3-0.1,0.5-0.3,0.8c-0.1,0.1-0.2,0.2-0.3,0.3l0.5,0.2c0.3,0.1,0.5,0.2,0.7,0.4c0.3,0.2,0.5,0.6,0.4,1
			c0,0.4-0.3,0.8-0.6,1l0,0c-0.2,0.1-0.4,0.2-0.6,0.2c0.1,0.1,0.2,0.3,0.3,0.4c0.1,0.2,0.2,0.4,0.3,0.7c0.1,0.4-0.1,0.8-0.4,1
			c-0.4,0.3-1,0.3-1.4,0c-0.3-0.1-0.6-0.2-0.9-0.3l-0.4-0.1c-0.7,2.1-1.7,4.1-2.8,6c-0.1,0.2-0.3,0.3-0.6,0.3H95.1
			C94.9,132.7,94.6,132.5,94.5,132.3z M110,125.3c0.1-0.2,0.2-0.4,0.4-0.4c0.2-0.1,0.4-0.1,0.6,0c0.3,0.1,0.6,0.2,0.9,0.3l0.3,0.1
			c-0.3-0.2-0.6-0.4-1-0.5c-0.4-0.1-0.6-0.4-0.6-0.8c0,0,0,0,0,0c0.1-0.4,0.4-0.6,0.8-0.6c0,0,0,0,0,0c0.6,0.1,1.1,0.1,1.7,0h0.1
			l0,0c-0.7-0.3-1.4-0.4-2.2-0.3c-0.4,0.1-0.7-0.1-0.8-0.5c-0.1-0.4,0.1-0.7,0.5-0.8c0.5-0.2,1-0.4,1.4-0.7l0.2-0.2
			c-0.1,0-0.3,0.1-0.4,0.1c-0.6,0.2-1.2,0.6-1.7,1c-0.3,0.3-0.7,0.3-0.9,0c-0.3-0.3-0.3-0.7,0-1c0,0,0,0,0,0l0.8-1
			c-0.6,0.1-1.2,0.4-1.7,0.9c-0.2,0.3-0.6,0.5-0.9,0.3c-0.2-0.1-0.3-0.3-0.4-0.5c-0.1-0.4-0.2-0.8-0.5-1.2l0,0
			c0.1,0.3,0.2,0.6,0.2,0.9l0.2,0.9c0.1,0.3,0,0.5-0.2,0.7c-3.5,2.9-6.9,5.9-10,9.2h10.5C108.4,129.4,109.3,127.4,110,125.3
			L110,125.3z M113.4,123.3l0.4,0.6L113.4,123.3L113.4,123.3z"/>
		<path class="st5" d="M108.6,138.1c-2.9,2.4-6.3,4.1-10,4.9c-5.4,1.2-11.1,0.5-16-2.1c-3-1.6-5.5-4.9-7.2-7.9l-0.2-0.3
			c-1.7-2.9-2.3-6.3-1.8-9.6c0.3-1.3,1.3-6.8,3.6-5.6c3,1.5,4.7,4.8,6.3,7.7c0.2,0.3,0.3,0.5,0.5,0.8c1.1,2.2,3.8,3,6,1.9
			c0.2-0.1,0.4-0.2,0.6-0.4c1-0.7,1.9-1.4,2.7-2.2c2.7-2.3,6.3-3.9,9.9-3.2c2.4,0.5,4.6,1.9,6.1,3.9c0.6,0.8,1.1,1.6,1.5,2.6
			C112.1,131.8,111.3,135.7,108.6,138.1z"/>
		<g class="st6">
			<path class="st7" d="M108.6,138.1c-2.9,2.4-6.3,4.1-10,4.9c-5.4,1.2-11.1,0.5-16-2.1c-3-1.6-5.5-4.9-7.2-7.9
				c2.5-1,5.4,2.3,7.5,3.3c6.1,3,13.4,2.9,19.4-0.3c2.6-1.2,4.7-3.3,5.9-5.9c0.5-1.3,0.8-2.7,0.8-4.1c0.6,0.8,1.1,1.6,1.5,2.6
				C112.1,131.8,111.3,135.7,108.6,138.1z"/>
		</g>
		<path class="st4" d="M82.3,141.5c-3.9-2.1-6.6-6.6-7.6-8.5c-1.1-2-2.7-5.9-1.9-10v-0.1c0.4-2.2,1.2-5.2,2.8-6
			c0.5-0.3,1.1-0.3,1.7,0c2.9,1.4,4.6,4.5,6.2,7.1l0.4,0.8c0.2,0.3,0.3,0.5,0.5,0.8c0.5,1,1.4,1.7,2.5,2c1.1,0.2,2.3,0,3.3-0.7
			c0.7-0.5,1.4-1,2-1.6l0.6-0.5c1.9-1.6,5.8-4.2,10.4-3.3c3.6,0.9,6.6,3.4,8,6.8c1.6,3.5,0.7,7.7-2.2,10.3
			c-4.4,3.7-9.9,5.7-15.6,5.6C89.4,144.3,85.7,143.3,82.3,141.5z M93.5,125.7l-0.6,0.5c-0.7,0.6-1.4,1.2-2.2,1.8
			c-1.2,0.8-2.7,1.1-4.2,0.8c-1.4-0.4-2.5-1.3-3.2-2.5c-0.2-0.3-0.3-0.5-0.5-0.8l0,0l-0.4-0.8c-1.5-2.6-3.1-5.3-5.7-6.6
			c-0.2-0.1-0.4-0.1-0.6,0c-0.5,0.2-1.3,1.2-2.1,5.2v0.1c-0.5,3.2,0.2,6.4,1.8,9.2c0.9,1.7,3.5,6,7.1,8c4.8,2.5,10.3,3.2,15.5,2
			c3.6-0.8,6.9-2.5,9.7-4.8c2.5-2.2,3.3-5.8,1.9-8.9c-1.3-3.1-3.9-5.3-7.2-6.1c-0.5-0.1-1.1-0.2-1.7-0.2
			C98.4,122.7,95.7,123.8,93.5,125.7z M83.4,125.1L83.4,125.1z"/>
		<path class="st5" d="M67.7,185.4c-4.8,0.5-9.6,2-14-1.7c1-2.9,1.9-24.8,2.8-27.7c0.8-2.4,0.5-4.9,1.3-7.3l24.5-2.3
			c0.7,2.4,1.3,4.8,1.9,7.2c0.9,3.7,0.8,24.4,1.7,28.5c-4.3,3-9.3,3.8-14.7,3L67.7,185.4z"/>
		<path class="st5" d="M80.8,127.8l-23-5c-0.5,1.6-0.9,23.1-0.9,24.8c-0.1,5.5,23.4,6.6,25.7,3.3C82.7,151.5,81.9,136.1,80.8,127.8z
			"/>
		
			<image style="overflow:visible;enable-background:new    ;" width="338" height="502" xlink:href="../../../5.jpg"  transform="matrix(4.000000e-02 0 0 4.000000e-02 65.36 136.0357)">
		</image>
		
			<image style="overflow:visible;enable-background:new    ;" width="80" height="110" xlink:href="9A5A7E06.png"  transform="matrix(-4.000000e-02 0 0 4.000000e-02 65.36 147.75)">
		</image>
		
			<image style="overflow:visible;enable-background:new    ;" width="79" height="111" xlink:href="9A5A7E01.png"  transform="matrix(-5.000000e-02 0 0 4.000000e-02 82.72 147.71)">
		</image>
		<path class="st4" d="M53.2,184.1c4,3.4,7.5,2,11.4,2c1.3,0,2.4-0.1,3.2-0.1l3.3-0.2c6,0.9,10.9-0.2,15.2-3.1
			c0.2-0.2,0.4-0.5,0.3-0.8c-1.7-7.3-2.1-29.9-3.6-35.4l0,0c0.5-6.4-0.1-12.8-1.7-19c-0.1-0.3-0.4-0.5-0.7-0.3c0,0,0,0,0,0
			c-0.3,0.1-0.4,0.5-0.3,0.8c1.6,5.4,1.9,13.8,1.7,17.7c0,0.5-0.1,1.1-0.1,1.6c0.1,0.6,0.3,1.2,0.4,1.9c1,6,1.5,26.4,2.9,32.6
			c-3.8,2.6-8.5,3.7-13.1,3l-6.3,0.2c-1.9,0.1-6.5,2-11.2-1.6c1.6-4.7,2.3-27.8,3.6-33.2c0.1-0.3,0.1-0.6,0.2-0.8l0.6-0.1
			c-0.6-0.3-1.1-0.7-1.4-1.3c-0.1-0.2-0.1-0.3-0.1-0.5c0-0.5,0-1.6-0.1-2.9c-0.1-3.1-0.3-8.1,0-9.2c0.1-0.3-0.1-0.6-0.4-0.7
			c-0.3-0.1-0.6,0.1-0.7,0.4l0,0c-0.3,1.1-0.2,5.2,0,9.6c0,1.3,0.1,2.4,0.1,2.9c0,0.6,0.2,1.2,0.7,1.7c-1.4,5.6-2.2,29.2-3.9,34.2
			C52.9,183.7,53,183.9,53.2,184.1z"/>
		<path class="st1" d="M62.8,153.1l-1.8,0.4c-1.4-1.8-2.9-3.6-4.5-5.5l-6.1,6c2.2,1.5,4.5,2.7,7,3.5c-0.3,0.5-0.4,1.3-0.7,1.9
			c-0.1,0.2-0.2,0.4-0.1,0.6c0.1,0.1,0.2,0.1,0.3,0.1c0.1,0,0.2-0.1,0.3-0.2c0.7-0.4,1.1-1.1,1.3-1.9c-0.1,0.6-0.1,1.2,0,1.8
			c0,0.2,0.1,0.4,0.2,0.5c0.1,0.3,0.4,0.4,0.7,0.3c0.1,0,0.1-0.1,0.2-0.2c0.1-0.1,0.2-0.3,0.2-0.4c0.3-0.8,0.5-1.6,0.4-2.4
			c0.2,0.5,0.4,1,0.7,1.5c0.1,0.2,0.2,0.3,0.4,0.4c0.1,0.1,0.3,0.2,0.5,0.1c0.2-0.1,0.4-0.3,0.4-0.6c0-0.3,0-0.5-0.2-0.7
			c-0.2-0.7-0.6-1.3-1-1.8l1.1,1c0.2,0.1,0.4,0.3,0.6,0.3c0.2,0,0.3-0.2,0.3-0.3c0-0.2,0-0.3,0-0.5c-0.1-0.9-0.5-1.7-1.2-2.3
			c0.5-0.1,0.9-0.3,1.4-0.5c0.2-0.1,0.3-0.2,0.5-0.4c0.1-0.2,0.1-0.4,0-0.6c-0.1-0.2-0.3-0.2-0.5-0.3C63.1,153,63,153,62.8,153.1z"
			/>
		<path class="st4" d="M59.2,161.4c-0.4,0-0.7-0.3-0.9-0.6c-0.1-0.2-0.2-0.4-0.2-0.6l-0.4,0.3c-0.2,0.1-0.4,0.2-0.6,0.2
			c-0.3,0.1-0.7-0.1-0.9-0.4c-0.3-0.4-0.3-0.9,0-1.3c0.1-0.3,0.2-0.5,0.3-0.8c0-0.1,0.1-0.3,0.1-0.4c-2.3-0.9-4.5-2-6.5-3.4
			c-0.2-0.1-0.3-0.3-0.3-0.5c0-0.2,0.1-0.4,0.2-0.5l6.1-6.1c0.1-0.1,0.3-0.2,0.5-0.2c0.2,0,0.3,0.1,0.5,0.2c1.6,1.8,3,3.5,4.3,5.2
			l0.5-0.1l0.9-0.2l0,0c0.2-0.1,0.5-0.1,0.7-0.1c0.6,0,1.1,0.5,1.1,1.2c0,0.2-0.1,0.4-0.2,0.6c-0.2,0.3-0.4,0.5-0.7,0.6
			c-0.2,0.1-0.4,0.2-0.5,0.3c0.3,0.6,0.5,1.2,0.7,1.9c0.1,0.3,0.1,0.5,0,0.8c-0.1,0.4-0.4,0.7-0.8,0.8h-0.1c0.1,0.2,0.1,0.5,0.1,0.7
			c0,0.5-0.4,1-0.9,1.1c-0.3,0.1-0.7,0-1-0.2c-0.1-0.1-0.2-0.2-0.3-0.3c0,0.2-0.1,0.4-0.2,0.5c-0.1,0.2-0.2,0.5-0.4,0.6
			c-0.2,0.3-0.5,0.4-0.9,0.4L59.2,161.4z M60.8,157.5c0.2,0.5,0.4,0.9,0.7,1.4c0,0.1,0.1,0.2,0.2,0.2c0-0.1,0-0.3-0.1-0.4
			c-0.2-0.6-0.5-1.2-0.9-1.6c-0.2-0.2-0.2-0.6,0-0.9c0.2-0.2,0.6-0.2,0.9,0l0.9,0.8c-0.3-1.2-0.6-1.5-0.8-1.6
			c-0.2-0.1-0.4-0.4-0.3-0.7c0-0.3,0.2-0.5,0.5-0.5c0.4-0.1,0.8-0.2,1.2-0.4l0.1-0.1h-0.1l-0.9,0.2l-0.9,0.2c-0.2,0.1-0.5,0-0.6-0.2
			c-1.2-1.6-2.6-3.3-4.1-5l-5.1,5c1.9,1.3,4,2.3,6.1,3c0.2,0.1,0.3,0.2,0.4,0.4c0.1,0.2,0.1,0.4,0,0.5c-0.1,0.3-0.2,0.5-0.3,0.8
			c0,0.1-0.1,0.2-0.1,0.4c0.3-0.3,0.4-0.6,0.5-1c0.1-0.3,0.4-0.6,0.7-0.5c0.3,0.1,0.6,0.4,0.5,0.7c-0.1,0.5-0.1,1.1,0,1.6
			c0,0,0,0.1,0,0.1c0,0,0-0.1,0-0.1c0.3-0.7,0.4-1.4,0.3-2.1c-0.1-0.3,0.1-0.6,0.4-0.7h0.2C60.5,157,60.8,157.2,60.8,157.5z"/>
		<path class="st5" d="M66.9,122.7c-0.4,1.3-5.5,4.2-6.5,9.5c-1,4.9,2,8.6,2.5,10.1c0,0.1,0.1,0.3,0.1,0.4c1.1,4,0.8,7.6-2,11.4
			c-2.2,2.9-10.5,5.2-14.9-4.8c-1-2.3-1.3-4.9-1.1-7.4c0.3-4.2,2-9.4,6.4-14.9c7.1-8.9,14.1-13,14.8-13.1
			C67.2,113.9,67.3,121.2,66.9,122.7z"/>
		<path class="st8" d="M61,154.1c-2.2,2.9-10.5,5.2-14.9-4.8c-1-2.3-1.4-4.9-1.1-7.4c0.3,1,0.6,2,1.1,2.9c1.4,2.7,3.6,4.9,6.4,6.1
			c1,0.5,2.1,0.7,3.2,0.7c1.8-0.2,3.5-1.2,4.6-2.7c1.2-1.6,2-3.4,2.5-5.3c0.1-0.4,0.2-0.7,0.3-1.1C64.1,146.7,63.8,150.3,61,154.1z"
			/>
		<path class="st4" d="M55.2,157.2c2.4,0.1,4.7-0.9,6.2-2.7c2.7-3.7,3.3-7.5,2-12.4c-0.2-0.6-0.4-1.1-0.7-1.6
			c-1-1.9-2.4-4.7-1.8-8.2c0-0.3-0.2-0.6-0.5-0.6c-0.3,0-0.5,0.1-0.6,0.4c-0.8,3.9,0.9,7.1,1.9,9c0.3,0.4,0.5,0.9,0.7,1.4
			c1.3,4.5,0.7,7.9-1.8,11.3c-1.6,1.7-3.8,2.6-6.1,2.2c-2.3-0.2-5.5-1.6-7.8-6.9c-1.1-2.8-1.4-5.9-0.9-8.9c0.9-4.7,3-9.1,6.1-12.8
			c6.4-8,12.8-12.2,14.3-12.8c0.5,1.2,0.6,6.5,0.3,7.8c-0.1,0.3,0.1,0.6,0.4,0.7c0.3,0.1,0.6-0.1,0.7-0.4c0,0,0,0,0,0
			c0.4-1.3,0.4-7.9-0.6-9.1c-0.2-0.2-0.5-0.4-0.8-0.3c-0.9,0.1-7.9,4.2-15.2,13.3s-7.6,17.8-5.4,22.9c2.5,5.7,6.2,7.3,8.8,7.5
			C54.6,157.2,54.9,157.2,55.2,157.2z"/>
		<path class="st5" d="M83.9,123c-0.7-2.8-2.2-5.4-4.2-7.5c-1.6-1.4-3.6-2.4-5.7-3c-4.2-1.3-8.7-1.3-12.9,0.2
			c-4.1,1.5-8.6,3.4-9.8,10.8c6.2,2.4,15.7,5.6,20.2,10.5C75.7,128.2,77.2,125,83.9,123z"/>
		<path class="st9" d="M83.9,123c-0.7-2.8-2.2-5.4-4.2-7.5c-1.6-1.4-3.6-2.4-5.7-3c-4.2-1.3-8.7-1.3-12.9,0.2
			c-4.1,1.5-8.6,3.4-9.8,10.8c6.2,2.4,15.7,5.6,20.2,10.5C75.7,128.2,77.2,125,83.9,123z"/>
		<path class="st4" d="M71.1,134.4c-3.9-4.2-11.9-7.2-17.7-9.4l-2.3-0.9c-0.3-0.1-0.4-0.4-0.4-0.7c1.2-7.5,5.5-9.6,10.2-11.3
			c4.3-1.5,9-1.5,13.3-0.1c2.2,0.6,4.2,1.6,5.9,3.1c2.4,2.2,3.6,5.3,4.4,7.7c0.1,0.2,0.1,0.3,0,0.5c-0.1,0.1-0.2,0.3-0.4,0.3
			c-5.6,1.6-7.4,4.2-10.4,8.5c-0.5,0.7-1,1.4-1.6,2.2c-0.1,0.2-0.3,0.2-0.5,0.3l0,0C71.4,134.6,71.2,134.6,71.1,134.4z M79.2,116
			c-1.6-1.4-3.4-2.3-5.4-2.8c-4.1-1.3-8.5-1.2-12.5,0.1c-4.4,1.6-8.1,3.4-9.3,9.8l1.8,0.7c5.7,2.2,13.4,5.1,17.7,9.2
			c0.4-0.6,0.8-1.1,1.2-1.6c3-4.2,4.9-7,10.5-8.8C82.4,120.1,81.1,117.8,79.2,116z"/>
		<path class="st10" d="M104.1,64.9c0.4,0.4,0.8,0.8,1.2,1.1l0.3,0.2c0.7-10.7-1.3-21.3-5.7-31h-0.6l-1.1,0.1
			c-3.5,0.4-7,0.2-10.5-0.4C89.6,46.4,95.4,57,104.1,64.9z"/>
		<path class="st7" d="M104.1,64.9c0.4,0.4,0.8,0.8,1.2,1.1c-0.8-6.4-1.9-12.8-3.2-19.1c-0.8-3.9-1.8-7.8-2.8-11.7l-1.1,0.1
			c0.2,0.9,0.5,1.8,0.7,2.7c1.7,6.9,3.2,13.8,4.3,20.8C103.5,60.8,103.8,62.8,104.1,64.9z"/>
		<path class="st4" d="M105.2,66.7C95.3,58.1,89,47.2,87.1,35c0-0.2,0-0.4,0.2-0.6c0.2-0.1,0.4-0.2,0.6-0.2
			c3.9,0.9,7.7,0.6,11.8,0.3h0.2c0.3,0,0.5,0.1,0.6,0.4c4.5,9.8,6.5,20.6,5.8,31.4c0,0.2-0.2,0.5-0.4,0.6h-0.1
			C105.6,66.9,105.3,66.9,105.2,66.7z M88.6,35.7C90.6,47,96.4,57.2,105,64.8c0.4-10-1.5-19.9-5.5-29C95.8,36.2,92.2,36.2,88.6,35.7
			L88.6,35.7z"/>
		<path class="st1" d="M76.1,118c-0.1,0.9-0.2,1.9-0.5,2.8c-0.8,2.8-3,5.3-5.9,5.7c-3.2,0.4-6.3-2.1-7.5-5.2
			c-0.4-1.1-0.7-2.2-0.9-3.3c-0.3-2.1-0.3-4.3-0.2-6.4c4.9,0.4,10,1.4,14.9,0.6C76.2,114.1,76.2,116.1,76.1,118z"/>
		<g class="st11">
			<path class="st12" d="M76.1,118c-1.8,1.2-3.9,1.9-6.1,2c-3,0.2-6.1-0.5-8.7-2c-0.3-2.1-0.3-4.3-0.2-6.4c4.9,0.4,10,1.4,14.9,0.6
				C76.2,114.1,76.2,116.1,76.1,118z"/>
		</g>
		<path class="st4" d="M69.8,127.1c-3.7,0.5-6.9-2.4-8.2-5.6c-0.5-1.1-0.8-2.3-0.9-3.5c-0.3-2.2-0.3-4.4-0.2-6.6
			c0-0.2,0.1-0.4,0.2-0.5c0.1-0.1,0.3-0.2,0.5-0.2c1.1,0.1,2.3,0.2,3.4,0.3c3.8,0.4,7.7,0.9,11.3,0.3c0.2,0,0.4,0,0.5,0.1
			c0.1,0.1,0.2,0.3,0.2,0.5c0.2,2,0.3,4,0.1,6c-0.1,1-0.3,2-0.6,2.9c-0.8,2.5-2.7,5.1-5.5,6C70.4,127,70.1,127.1,69.8,127.1z
			 M64.4,112.5c-0.9-0.1-1.8-0.2-2.7-0.3c-0.1,1.9,0,3.8,0.2,5.6c0.1,1.1,0.4,2.1,0.8,3.1c1.1,2.7,3.8,5.2,6.9,4.8
			c2.7-0.3,4.6-2.9,5.3-5.2c0.3-0.9,0.4-1.8,0.5-2.7c0.1-1.7,0.1-3.3-0.1-5C71.7,113.2,68.1,113.1,64.4,112.5z"/>
		<path class="st1" d="M10,93c4.4,5.7,10.9,9.5,18,10.5c0.4,0.5,0.8,1,1.2,1.5c0.6,0.7,1.3,1.3,2,1.8c1.7,1.3,3.6,2.3,5.6,3
			c11.8,4.4,25.7,7.7,38.2,5.1c6.1-1.4,11.9-4.1,17-7.7c5.4-3.7,10.3-8.4,13.1-14.3c0.1-0.1,0.1-0.3,0.2-0.4c3.4-7.6,3-16.2,1-24.4
			c-0.3-1.4-0.7-2.9-1.2-4.3c-2.1-6.8-4.9-13.3-7.1-20c-0.2-0.7-0.5-1.5-0.7-2.2c-1-3.4-1.7-6.2-3.8-9.1c-4.9-6.4-13.3-8.3-20.8-9.1
			c-5.4-0.7-10.9-0.6-16.3,0.2c-17,2.7-29.6,16.8-34,33.2c-1.2,4.8-1.9,9.8-1.9,14.8v0.6c-0.6-0.1-1.3-0.2-1.9-0.2
			c-2.7-0.3-5.4,0.1-7.9,1.2c-2.6,1.2-4.4,3.6-5.1,6.3C4.7,84.1,7,89.2,10,93z"/>
		<path class="st13" d="M97.7,84.9c1,4,3.8,7.2,7.6,8.9c0.1-0.1,0.1-0.3,0.2-0.4c3.4-7.6,3-16.2,1-24.4
			C99.7,71.1,95.9,78.1,97.7,84.9z"/>
		<path class="st4" d="M75.2,115.6c-10.7,2.2-23.7,0.4-38.6-5.2c-2.1-0.7-4-1.7-5.8-3c-0.8-0.6-1.5-1.2-2.1-1.9
			c-0.4-0.4-0.8-0.8-1.1-1.3c-7.2-1.1-13.8-5-18.2-10.8c-3.7-4.7-5.3-10-4.4-14.1c0.7-3,2.7-5.5,5.5-6.9c2.6-1.1,5.4-1.6,8.3-1.2
			c0.4,0,0.7,0.1,1.1,0.1c0-5,0.7-9.9,1.9-14.7c4.7-17.9,18.3-31.2,34.7-33.9c5.5-0.8,11-0.9,16.5-0.2c6.6,0.7,16,2.4,21.4,9.4
			c2,2.6,2.8,5.3,3.6,8.1c0.1,0.4,0.2,0.8,0.3,1.2c1.1,3.8,2.6,7.7,3.9,11.3c1.3,3.5,2.7,7.2,3.8,10.8c3.5,11.6,3.6,21.4,0.1,29.2
			c-2.5,5.5-7.1,10.6-13.6,15.1c-4.3,3-8.9,5.4-13.9,7C77.4,115.1,76.3,115.3,75.2,115.6z M23.3,57c-1.3,5-1.9,10.1-1.9,15.2
			c0,0.2-0.1,0.4-0.3,0.6C21,72.9,20.8,73,20.5,73c-0.6-0.1-1.3-0.2-1.8-0.2c-2.5-0.3-5.1,0.1-7.5,1.1c-2.4,1.1-4.1,3.3-4.7,5.8l0,0
			c-0.8,3.7,0.7,8.5,4.1,12.8c4.3,5.6,10.6,9.2,17.5,10.2c0.2,0,0.4,0.1,0.5,0.3c0.4,0.5,0.8,1,1.2,1.4c0.6,0.6,1.2,1.2,1.9,1.7
			c1.6,1.2,3.4,2.2,5.4,2.9c14.7,5.5,27.4,7.2,37.8,5.1c6-1.4,11.7-4,16.8-7.6c6.4-4.3,10.7-9.2,13.1-14.5
			c3.3-7.4,3.3-16.8-0.2-28.1c-1.1-3.6-2.5-7.2-3.8-10.7c-1.4-3.7-2.8-7.6-4-11.5l-0.3-1.2c-0.8-2.8-1.5-5.3-3.3-7.6
			c-5-6.5-14-8.1-20.3-8.8c-5.3-0.7-10.8-0.6-16.1,0.2c-1.7,0.3-3.3,0.7-4.9,1.1C38.3,29.6,27.4,41.5,23.3,57z"/>
		<path class="st4" d="M20.7,91.9c0.1,0,0.2-0.1,0.3-0.2c0.2-0.3,0.2-0.7-0.1-0.9c-0.8-0.9-0.9-2.2-0.3-3.2c0.7-1,2-1.6,3.2-1.5
			c1.3,0.1,2.4,0.7,3.3,1.6c0.3,0.2,0.7,0.1,0.9-0.2c0.1-0.2,0.2-0.4,0.1-0.6c-2-4.4-5.7-7.8-10.3-9.3c-1.8-0.7-3.7-0.8-5.6-0.3l0,0
			c-2,0.5-3.5,2.2-3.8,4.3c-0.1,0.4,0.2,0.7,0.5,0.8c0.4,0.1,0.7-0.2,0.8-0.5c0,0,0-0.1,0-0.1c0.2-1.5,1.4-2.7,2.8-3.2l0,0
			c1.6-0.4,3.2-0.3,4.8,0.3c3.4,1.1,6.3,3.4,8.3,6.4c-0.6-0.2-1.2-0.4-1.9-0.4c-1.7-0.1-3.4,0.7-4.4,2.1c-1,1.6-0.8,3.6,0.5,4.9
			C20.3,91.9,20.5,92,20.7,91.9z"/>
		<path class="st10" d="M9.7,73.7c0.9-0.5,1.9-0.8,2.9-1.1c0.4-0.1,0.7-0.2,1.1-0.3c1.2-0.3,2.4-0.4,3.6-0.3l1.1,0.1
			c0.8,0.1,1.7,0.2,2.5,0.4c0.7,0.2,1.4,0.4,2.1,0.6c0.4,0.1,0.7,0.3,1,0.4c1.4,0.6,2.6,1.3,3.8,2.3c0.3,0.2,0.6,0.5,0.9,0.8
			c0.6,0.6,1.2,1.2,1.7,1.8c6.7-11.1,10.6-23.8,11.1-36.8c-6.1,1-12.3,1.2-18.5,0.5l-1.1-0.1c-1.5-0.2-3-0.4-4.5-0.7L16.3,41
			c-1.8-0.4-3.6-0.8-5.4-1.3C7.9,50.5,7.8,62.5,9.7,73.7z"/>
		<path class="st7" d="M27.8,75.7c0.3,0.2,0.6,0.5,0.9,0.8c0.4-1,0.8-2,1.2-3c1.8-4.9,3.3-9.8,4.6-14.9c1.2-5.1,2.3-10.2,3.1-15.4
			c0.1-0.3-0.1-0.7-0.4-0.8c-0.3-0.1-0.6,0.1-0.7,0.4c0,0,0,0,0,0c-0.5,2.9-1,5.8-1.6,8.7c-1,5.1-2.3,10.2-3.8,15.1
			C30.1,69.7,29,72.8,27.8,75.7z"/>
		<path class="st7" d="M23,73c0.4,0.1,0.7,0.3,1,0.4c0.9-4.5,1.9-9,2.8-13.5c1.1-5.3,2.2-10.7,3.4-16c0.2-0.8-0.9-1.2-1-0.4l-1.9,9
			c-1.1,5.3-2.2,10.7-3.4,16C23.6,70.1,23.3,71.5,23,73z"/>
		<path class="st7" d="M17.3,71.9l1.1,0.1c0.5-5,1.2-9.9,1.9-14.8C21.1,52.1,22,47,23,42l-1.1-0.1c-0.5,2.5-1,5-1.4,7.5
			c-1,5.7-1.8,11.4-2.6,17.1C17.7,68.3,17.5,70.1,17.3,71.9z"/>
		<path class="st7" d="M12.6,72.5c0.4-0.1,0.7-0.2,1.1-0.3c-0.2-6,0.1-12,0.8-17.9c0.6-4.5,1.6-8.9,2.9-13.2L16.3,41
			c-0.4,1.5-0.8,2.9-1.2,4.4c-1.6,6.8-2.5,13.8-2.6,20.8C12.5,68.3,12.5,70.4,12.6,72.5z"/>
		<path class="st4" d="M30.4,79.1c-0.2,0-0.4-0.1-0.5-0.2c-2.3-2.9-5.5-4.9-9.1-5.7c-3.6-0.9-7.4-0.5-10.8,1.2
			c-0.2,0.1-0.4,0.1-0.6,0c-0.2-0.1-0.3-0.3-0.3-0.5c-2-12.2-1.7-24,1.2-34.4c0.1-0.4,0.4-0.6,0.8-0.5c0,0,0,0,0,0
			c9.9,2.8,20.2,3.5,30.3,1.8c0.2,0,0.4,0,0.5,0.2c0.2,0.2,0.2,0.4,0.2,0.6c-0.6,13.2-4.4,26-11.2,37.3c-0.1,0.1-0.2,0.2-0.3,0.3
			C30.5,79.1,30.5,79.1,30.4,79.1z M11.3,40.6c-2.6,10.5-2.9,21.4-1.1,32c3.4-1.5,7.2-1.8,10.8-0.9c3.6,0.8,6.8,2.7,9.2,5.5
			c6.2-10.6,9.8-22.5,10.5-34.8C30.9,43.9,20.9,43.2,11.3,40.6z"/>
		<ellipse class="st13" cx="42" cy="90.6" rx="12" ry="12.1"/>
		<path class="st14" d="M74,76.9c-1.8,0-3.3,0.8-3.3,1.6s1.5,1.6,3.3,1.5s3.3-0.8,3.3-1.6S75.8,76.8,74,76.9z"/>
		<path class="st4" d="M79.5,52.9c1.6-1.9,3.9-3,6.4-3c1.2,0.1,2.4,0.3,3.6,0.6c1.6,0.4,3.3,1,4.8,1.6c0.7,0.3,1.4,1,0.6,1.7
			s-2,0.5-2.9,0.5c-1.2,0.1-2.3,0.2-3.5,0.2c-2.4,0.1-4.7,0.1-7.1,0C80.8,54.5,78.4,54,79.5,52.9z"/>
		<path class="st4" d="M64.2,54.1c-1.8-1.6-4.3-2.3-6.7-2c-1.2,0.2-2.3,0.6-3.5,1.1c-1.6,0.7-3.1,1.4-4.5,2.3
			c-0.6,0.4-1.3,1.2-0.4,1.8s2.1,0.2,3,0.1c1.2-0.1,2.3-0.2,3.5-0.3c2.3-0.2,4.7-0.6,7-1C63.1,55.9,65.4,55.1,64.2,54.1z"/>
		<path class="st15" d="M15.1,39.8c-0.3,2.2,0,4.4,0.9,6.4c1.6,4.9,6.2,7.6,10.8,5.7c2.4-1.1,4.4-2.9,5.9-5c1.5-2,2-5,2.2-7.7
			c0.7,4.5,3.5,8.4,7.6,10.5c8.5,4.1,19.5-2.7,19.3-12.9c1.1,4,3.6,7.5,6.9,9.9c3.1,2.2,7.1,2.6,10.6,1c3.3-1.6,5.2-6.1,5.4-10.4
			c1.4,3.4,4,6.2,7.3,7.9c3.6,1.8,7.8,1.6,11.3-0.4c4.4-2.9,3.5-9.3-0.4-12.4c1.8-0.2,3.5-0.9,4.9-2c3.7-3.4,3.6-9.4,1.1-13.6
			c-1.1-1.9-2.7-3.4-4.6-4.4c-3.7-1.9-8-1.4-10.5,2.9c0.1-1.8-0.2-3.5-0.9-5.2c-1.4-3.5-4-6.7-7.6-7.7c-2.1-0.6-4.4-0.3-6.2,1
			c-2.4,1.7-3.7,4.7-4.7,7.6C72.9,6,68.9,0.8,63.4,0.9c-2.5,0.2-4.8,1.2-6.5,3C55.7,5,53,8.1,53.3,9.9c-1.4-8-10.5-11-16.7-7.9
			c-1.4,0.7-2.8,1.7-3.8,2.9c-3.5,3.6-4.7,8.9-3.2,13.7c-1-1.7-2.9-2.9-4.4-3.8c-4-2.7-9-1.8-11.4,2.8c-1.7,3.6-1.5,7.8,0.5,11.2
			c-2.1-2.1-5.1-2.9-8-2.2c-3.2,0.6-5.6,3.4-5.6,6.7C0.7,41.6,9.7,42.8,15.1,39.8z"/>
		<path class="st10" d="M15.1,39.8c-0.3,2.2,0,4.4,0.9,6.4c1.6,4.9,6.2,7.6,10.8,5.7c2.4-1.1,4.4-2.9,5.9-5c1.5-2,2-5,2.2-7.7
			c0.7,4.5,3.5,8.4,7.6,10.5c8.5,4.1,19.5-2.7,19.3-12.9c1.1,4,3.6,7.5,6.9,9.9c3.1,2.2,7.1,2.6,10.6,1c3.3-1.6,5.2-6.1,5.4-10.4
			c1.4,3.4,4,6.2,7.3,7.9c3.6,1.8,7.8,1.6,11.3-0.4c4.4-2.9,3.5-9.3-0.4-12.4c1.8-0.2,3.5-0.9,4.9-2c3.7-3.4,3.6-9.4,1.1-13.6
			c-1.1-1.9-2.7-3.4-4.6-4.4c0.1,0.5,0.2,1,0.3,1.5c0.4,2.9-0.3,6.2-2.4,8.2s-5.6,2.2-7.6,0.1c0.9,2,1.5,4.1,1.8,6.3
			c0,0.8-0.1,1.6-0.4,2.4c-0.7,1.6-2.3,2.5-4,2.3c-1.7-0.3-3.1-1.2-4.1-2.5c-1-1.4-1.9-2.9-2.6-4.4c-0.4,3.6-1.9,7-4.3,9.8
			c-2.3,2.8-6,4.5-9.4,3.6c-2.7-0.8-4.9-2.6-6.3-5.1c-1.4-2.5-2.4-5.1-3.1-7.9c-0.7,3.6-2,6.9-3.9,10c-1.8,2.9-4.5,5-7.7,6
			c-3.2,0.9-6.7,0.1-9.2-2.1c-1.4-1.4-2.5-3.1-3.2-4.9c-1.2-2.9-2.1-6-2.7-9.2c-0.1,3-1.2,5.8-3.2,8.2c-1.7,2.1-4.1,3.4-6.7,3.7
			c-0.8,0.1-1.5,0-2.2-0.3c-0.5-0.3-0.9-0.7-1.3-1.2c-1.5-2.1-2-4.7-1.4-7.2c-0.4,1.3-1.5,2.3-2.8,2.5c-1.5,0.3-2.9,0.2-4.4-0.3
			c-2.2-0.4-4.2-1.4-5.8-2.9c-0.7-0.8-1.2-1.7-1.6-2.7c-3.2,0.6-5.6,3.4-5.6,6.7C0.7,41.6,9.7,42.8,15.1,39.8z"/>
		<path class="st4" d="M20.3,52.5c-2.5-1.2-4.3-3.4-5.1-6.1c-0.7-1.7-1-3.6-1-5.4c-3.3,1.5-7.2,1.4-10.4-0.3C2.1,39.6,0,37.4,0,33.2
			c0-3.2,1.9-6,4.9-7.1c2.5-1,5.3-0.8,7.7,0.3c-1-3.1-0.8-6.4,0.6-9.3c1.1-2.2,3-3.8,5.4-4.5c2.5-0.6,5-0.1,7.1,1.4l0.3,0.2
			c0.8,0.5,1.6,1.1,2.3,1.7c-0.4-4.3,1-8.5,4-11.6c1.2-1.2,2.5-2.3,4.1-3c3.7-1.7,8-1.7,11.6,0.2c2.4,1.2,4.3,3.3,5.4,5.8
			c0.9-1.4,1.9-2.7,3.1-3.9c1.9-1.9,4.4-3,7-3.2c5.2-0.2,9.1,4.1,11,8.8c0.8-2.4,2.3-4.5,4.3-6c2-1.3,4.5-1.7,6.8-1
			c3.4,0.9,6.4,4,8.1,8.1c0.4,1.1,0.7,2.2,0.9,3.3c1.5-1.6,3.6-2.6,5.8-2.6c3.9,0.2,7.4,2.4,9.3,5.8c2.5,4.2,2.9,10.7-1.2,14.5
			c-1.1,0.9-2.4,1.6-3.8,1.9c1.7,1.8,2.6,4.2,2.5,6.7c-0.1,2.4-1.3,4.6-3.3,5.8c-3.7,2.2-8.2,2.3-12,0.5c-2.7-1.4-5-3.5-6.5-6.2
			c-0.7,3.5-2.4,7-5.5,8.6c-3.7,1.7-8,1.3-11.3-1c-2.7-1.9-4.8-4.5-6.1-7.4c-0.8,3.8-3.2,7.2-6.5,9.3c-4,2.7-9.2,3.2-13.6,1.1
			c-3.2-1.6-5.7-4.3-7-7.6c-0.3,1.6-0.9,3.1-1.8,4.5c-1.6,2.3-3.7,4.1-6.2,5.2c-1.1,0.5-2.2,0.7-3.4,0.7
			C22.5,53.2,21.4,53,20.3,52.5z M35.6,39c0.6,4.3,3.3,8,7.1,10c3.9,1.8,8.6,1.4,12.1-1c3.8-2.4,6.2-6.6,6.1-11.2
			c0-0.4,0.3-0.7,0.7-0.7c0.3,0,0.6,0.2,0.7,0.5c1.1,3.8,3.4,7.2,6.6,9.5c2.9,2,6.6,2.4,9.8,0.9c2.8-1.3,4.7-5.2,5-9.8
			c0-0.4,0.4-0.7,0.8-0.7c0.3,0,0.5,0.2,0.6,0.4c1.4,3.3,3.8,5.9,6.9,7.6c3.4,1.7,7.3,1.5,10.6-0.4c1.6-1,2.6-2.8,2.6-4.7
			c0.1-2.5-1-4.9-3-6.5c-0.2-0.2-0.3-0.5-0.3-0.8c0.1-0.3,0.3-0.5,0.7-0.5c1.6-0.2,3.2-0.8,4.5-1.8c3.6-3.3,3.2-9,1-12.6
			c-1.6-2.9-4.7-4.8-8-5l0,0c-2.5,0-4.7,1.4-5.8,3.6c-0.2,0.3-0.5,0.4-0.9,0.3c-0.3-0.1-0.5-0.4-0.5-0.8c0.1-1.7-0.2-3.3-0.9-4.8
			c-1.5-3.7-4.1-6.4-7.1-7.2c-1.9-0.5-4-0.2-5.6,0.8c-2.3,1.5-3.4,4.4-4.4,7.2c-0.1,0.3-0.4,0.5-0.7,0.5c-0.3,0-0.6-0.2-0.7-0.6
			c-1.5-4.8-5.2-9.9-10.3-9.7c-2.3,0.2-4.4,1.1-6.1,2.8c-1.5,1.4-3.6,4.1-3.4,5.3l0,0c0.1,0.4-0.2,0.8-0.6,0.9
			c-0.4,0.1-0.8-0.2-0.8-0.6c0,0,0,0,0,0l0,0c-0.5-3.1-2.5-5.8-5.3-7.2c-3.2-1.7-7-1.7-10.3-0.2c-1.4,0.7-2.6,1.6-3.6,2.7l0,0
			c-3.3,3.4-4.4,8.4-3,12.9c0.1,0.4-0.1,0.8-0.4,0.9c-0.3,0.2-0.8,0-0.9-0.3c-1-1.4-2.3-2.5-3.8-3.4l-0.3-0.2
			c-1.7-1.2-3.9-1.6-5.9-1.2c-1.9,0.5-3.6,1.9-4.4,3.7c-1.6,3.4-1.4,7.3,0.5,10.4c0.2,0.3,0.1,0.8-0.2,1c-0.3,0.2-0.7,0.2-1-0.1
			c-2.2-2.2-5.5-2.9-8.4-1.7c-2.4,0.8-4,3.1-4,5.7c-0.2,2.5,1,4.9,3.2,6.2c2.7,1.6,7,1.5,10.1-0.3c0.2-0.1,0.5-0.1,0.8,0
			c0.2,0.2,0.4,0.4,0.3,0.7c-0.3,2.1,0,4.2,0.8,6.2c0.7,2.2,2.2,4.1,4.3,5.2c1.8,0.8,3.8,0.8,5.5,0c2.3-1.1,4.2-2.7,5.6-4.8
			c1.1-1.5,1.8-3.9,2-7.3c0-0.4,0.3-0.7,0.7-0.7l0,0C35.2,38.4,35.5,38.6,35.6,39z"/>
		<path class="st16" d="M91.3,84.7c-8.6,2.4-21.7,2.8-30.4,1.6c-1.5-0.2-3.1-1.7-3.8-2.4c0.1,2.1,4.6,8.4,9.3,9.1
			C76.7,94.5,88.9,87.8,91.3,84.7z"/>
		<path class="st4" d="M66.4,93.6c-5.1-0.7-9.7-7.4-9.9-9.7c0-0.3,0.1-0.5,0.4-0.6c0.2-0.1,0.5-0.1,0.7,0.1c1.3,1.3,6.5,2.3,7.4,2.4
			c8.7,1.2,17.6,0.6,26.1-1.7c0.3-0.1,0.5,0,0.7,0.3c0.2,0.2,0.2,0.5,0,0.8c-1.4,1.8-5.4,4.3-9.7,6.1c-4,1.7-8.2,2.6-12.5,2.7
			C68.5,93.8,67.4,93.7,66.4,93.6z M64.9,87.1c-0.7-0.1-5.4-0.6-6.1-1c1.5,2.5,4.6,5.8,7.8,6.3c8.4,1.2,18.2-3.2,22.5-6.4
			C81.1,87.8,72.9,88.2,64.9,87.1z"/>
		<ellipse class="st16" cx="86.3" cy="67.6" rx="8.5" ry="8.6"/>
		<g>
			<defs>
				<path id="SVGID_1_" d="M80.8,70c0.7,3.2,3.8,5.2,7,4.5c3-0.7,5-3.5,4.6-6.6l-3.7,0.2l3.4-1.4c-1-2.9-4-4.6-6.9-3.9
					C82,63.6,80.1,66.8,80.8,70z"/>
			</defs>
			<clipPath id="SVGID_00000123414996838348128750000018281525330099211154_">
				<use xlink:href="#SVGID_1_"  style="overflow:visible;"/>
			</clipPath>
			<g style="clip-path:url(#SVGID_00000123414996838348128750000018281525330099211154_);">
				<polygon class="st18" points="92.8,74.4 90.8,75.1 92.8,75.1 				"/>
				<polygon class="st18" points="92.8,74.3 90.6,75.1 90.8,75.1 92.8,74.4 				"/>
				<polygon class="st19" points="92.8,74.2 90.3,75.1 90.6,75.1 92.8,74.3 				"/>
				<polygon class="st20" points="92.8,74.1 90.1,75.1 90.3,75.1 92.8,74.2 				"/>
				<polygon class="st21" points="92.8,74 89.8,75.1 90.1,75.1 92.8,74.1 				"/>
				<polygon class="st22" points="92.8,73.9 89.6,75.1 89.8,75.1 92.8,74 				"/>
				<polygon class="st23" points="92.8,73.8 89.3,75.1 89.6,75.1 92.8,73.9 				"/>
				<polygon class="st24" points="92.8,73.7 89.1,75.1 89.3,75.1 92.8,73.8 				"/>
				<polygon class="st25" points="92.8,73.6 88.8,75.1 89.1,75.1 92.8,73.7 				"/>
				<polygon class="st26" points="92.8,73.5 88.6,75.1 88.8,75.1 92.8,73.6 				"/>
				<polygon class="st27" points="92.8,73.4 88.3,75.1 88.6,75.1 92.8,73.5 				"/>
				<polygon class="st28" points="92.8,73.3 88.1,75.1 88.3,75.1 92.8,73.4 				"/>
				<polygon class="st29" points="92.8,73.2 87.8,75.1 88.1,75.1 92.8,73.3 				"/>
				<polygon class="st29" points="92.8,73.1 87.6,75.1 87.8,75.1 92.8,73.2 				"/>
				<polygon class="st30" points="92.8,73 87.3,75.1 87.6,75.1 92.8,73.1 				"/>
				<polygon class="st31" points="92.8,72.9 87.1,75.1 87.3,75.1 92.8,73 				"/>
				<polygon class="st32" points="92.8,72.8 86.8,75.1 87.1,75.1 92.8,72.9 				"/>
				<polygon class="st33" points="92.8,72.7 86.6,75.1 86.8,75.1 92.8,72.8 				"/>
				<polygon class="st34" points="92.8,72.6 86.3,75.1 86.6,75.1 92.8,72.7 				"/>
				<polygon class="st35" points="92.8,72.5 86.1,75.1 86.3,75.1 92.8,72.6 				"/>
				<polygon class="st36" points="92.8,72.4 85.8,75.1 86.1,75.1 92.8,72.5 				"/>
				<polygon class="st37" points="92.8,72.3 85.6,75.1 85.8,75.1 92.8,72.4 				"/>
				<polygon class="st38" points="92.8,72.2 85.3,75.1 85.6,75.1 92.8,72.3 				"/>
				<polygon class="st39" points="92.8,72.2 85.1,75.1 85.3,75.1 92.8,72.2 				"/>
				<polygon class="st40" points="92.8,72.1 84.8,75.1 85.1,75.1 92.8,72.2 				"/>
				<polygon class="st41" points="92.8,72 84.6,75.1 84.8,75.1 92.8,72.1 				"/>
				<polygon class="st42" points="92.8,71.9 84.3,75.1 84.6,75.1 92.8,72 				"/>
				<polygon class="st43" points="92.8,71.8 84.1,75.1 84.3,75.1 92.8,71.9 				"/>
				<polygon class="st44" points="92.8,71.7 83.8,75.1 84.1,75.1 92.8,71.8 				"/>
				<polygon class="st45" points="92.8,71.6 83.6,75.1 83.8,75.1 92.8,71.7 				"/>
				<polygon class="st46" points="92.8,71.5 83.3,75.1 83.6,75.1 92.8,71.6 				"/>
				<polygon class="st47" points="92.8,71.4 83.1,75.1 83.3,75.1 92.8,71.5 				"/>
				<polygon class="st48" points="92.8,71.3 82.8,75.1 83.1,75.1 92.8,71.4 				"/>
				<polygon class="st49" points="92.8,71.2 82.6,75.1 82.8,75.1 92.8,71.3 				"/>
				<polygon class="st50" points="92.8,71.1 82.3,75.1 82.6,75.1 92.8,71.2 				"/>
				<polygon class="st51" points="92.8,71 82.1,75.1 82.3,75.1 92.8,71.1 				"/>
				<polygon class="st52" points="92.8,70.9 81.9,75.1 81.9,75.1 82.1,75.1 92.8,71 				"/>
				<polygon class="st53" points="92.8,70.8 81.8,75 81.9,75.1 92.8,70.9 				"/>
				<polygon class="st54" points="92.8,70.7 81.8,74.9 81.8,75 92.8,70.8 				"/>
				<polygon class="st55" points="92.8,70.6 81.8,74.9 81.8,74.9 92.8,70.7 				"/>
				<polygon class="st56" points="92.8,70.5 81.7,74.8 81.8,74.9 92.8,70.6 				"/>
				<polygon class="st57" points="92.8,70.4 81.7,74.7 81.7,74.8 92.8,70.5 				"/>
				<polygon class="st58" points="92.8,70.3 81.7,74.6 81.7,74.7 92.8,70.4 				"/>
				<polygon class="st59" points="92.8,70.2 81.6,74.5 81.7,74.6 92.8,70.3 				"/>
				<polygon class="st60" points="92.8,70.1 81.6,74.4 81.6,74.5 92.8,70.2 				"/>
				<polygon class="st61" points="92.8,70 81.6,74.4 81.6,74.4 92.8,70.1 				"/>
				<polygon class="st62" points="92.8,69.9 81.6,74.3 81.6,74.4 92.8,70 				"/>
				<polygon class="st63" points="92.8,69.8 81.5,74.2 81.6,74.3 92.8,69.9 				"/>
				<polygon class="st64" points="92.8,69.8 81.5,74.1 81.5,74.2 92.8,69.8 				"/>
				<polygon class="st65" points="92.8,69.7 81.4,74 81.5,74.1 92.8,69.8 				"/>
				<polygon class="st66" points="92.8,69.6 81.4,73.9 81.4,74 92.8,69.7 				"/>
				<polygon class="st67" points="92.8,69.5 81.4,73.9 81.4,73.9 92.8,69.6 				"/>
				<polygon class="st68" points="92.8,69.4 81.4,73.8 81.4,73.9 92.8,69.5 				"/>
				<polygon class="st69" points="92.8,69.3 81.3,73.7 81.4,73.8 92.8,69.4 				"/>
				<polygon class="st70" points="92.8,69.2 81.3,73.6 81.3,73.7 92.8,69.3 				"/>
				<polygon class="st71" points="92.8,69.1 81.3,73.5 81.3,73.6 92.8,69.2 				"/>
				<polygon class="st72" points="92.8,69 81.2,73.4 81.3,73.5 92.8,69.1 				"/>
				<polygon class="st73" points="92.8,68.9 81.2,73.4 81.2,73.4 92.8,69 				"/>
				<polygon class="st74" points="92.8,68.8 81.2,73.3 81.2,73.4 92.8,68.9 				"/>
				<polygon class="st75" points="92.8,68.7 81.1,73.2 81.2,73.3 92.8,68.8 				"/>
				<polygon class="st76" points="92.8,68.6 81.1,73.1 81.1,73.2 92.8,68.7 				"/>
				<polygon class="st77" points="92.8,68.5 81.1,73 81.1,73.1 92.8,68.6 				"/>
				<polygon class="st78" points="92.8,68.4 81,72.9 81.1,73 92.8,68.5 				"/>
				<polygon class="st79" points="92.8,68.3 81,72.8 81,72.9 92.8,68.4 				"/>
				<polygon class="st80" points="92.8,68.2 81,72.8 81,72.8 92.8,68.3 				"/>
				<polygon class="st81" points="92.8,68.1 80.9,72.7 81,72.8 92.8,68.2 				"/>
				<polygon class="st82" points="92.8,68 80.9,72.6 80.9,72.7 92.8,68.1 				"/>
				<polygon class="st83" points="92.8,67.9 80.9,72.5 80.9,72.6 92.8,68 				"/>
				<polygon class="st84" points="92.8,67.8 80.8,72.4 80.9,72.5 92.8,67.9 				"/>
				<polygon class="st85" points="92.8,67.7 80.8,72.3 80.8,72.4 92.8,67.8 				"/>
				<polygon class="st86" points="92.8,67.6 80.8,72.3 80.8,72.3 92.8,67.7 				"/>
				<polygon class="st87" points="92.8,67.5 80.8,72.2 80.8,72.3 92.8,67.6 				"/>
				<polygon class="st88" points="92.8,67.4 80.7,72.1 80.8,72.2 92.8,67.5 				"/>
				<polygon class="st89" points="92.8,67.3 80.7,72 80.7,72.1 92.8,67.4 				"/>
				<polygon class="st90" points="92.8,67.2 80.7,71.9 80.7,72 92.8,67.3 				"/>
				<polygon class="st91" points="92.8,67.2 80.6,71.8 80.7,71.9 92.8,67.2 				"/>
				<polygon class="st92" points="92.8,67.1 80.6,71.8 80.6,71.8 92.8,67.2 				"/>
				<polygon class="st93" points="92.8,67 80.6,71.7 80.6,71.8 92.8,67.1 				"/>
				<polygon class="st94" points="92.8,66.9 80.5,71.6 80.6,71.7 92.8,67 				"/>
				<polygon class="st95" points="92.8,66.8 92.7,66.8 80.5,71.5 80.5,71.6 92.8,66.9 				"/>
				<polygon class="st96" points="80.5,71.5 80.5,71.4 92.7,66.7 92.7,66.8 				"/>
				<polygon class="st96" points="80.5,71.4 80.4,71.3 92.7,66.6 92.7,66.7 				"/>
				<polygon class="st97" points="80.4,71.3 80.4,71.3 92.6,66.5 92.7,66.6 				"/>
				<polygon class="st98" points="80.4,71.3 80.4,71.2 92.6,66.4 92.6,66.5 				"/>
				<polygon class="st99" points="80.4,71.2 80.3,71.1 92.6,66.3 92.6,66.4 				"/>
				<polygon class="st100" points="80.3,71.1 80.3,71 92.5,66.3 92.6,66.3 				"/>
				<polygon class="st101" points="80.3,71 80.3,70.9 92.5,66.2 92.5,66.3 				"/>
				<polygon class="st102" points="80.3,70.9 80.2,70.8 92.5,66.1 92.5,66.2 				"/>
				<polygon class="st103" points="80.2,70.8 80.2,70.8 92.4,66 92.5,66.1 				"/>
				<polygon class="st104" points="80.2,70.8 80.2,70.7 92.4,65.9 92.4,66 				"/>
				<polygon class="st105" points="80.2,70.7 80.1,70.6 92.4,65.8 92.4,65.9 				"/>
				<polygon class="st106" points="80.1,70.6 80.1,70.5 92.3,65.8 92.4,65.8 				"/>
				<polygon class="st107" points="80.1,70.5 80.1,70.4 92.3,65.7 92.3,65.8 				"/>
				<polygon class="st108" points="92.3,65.7 92.3,65.6 80.1,70.3 80.1,70.4 80.1,70.4 				"/>
				<polygon class="st108" points="92.3,65.6 92.2,65.5 80.1,70.2 80.1,70.3 				"/>
				<polygon class="st109" points="92.2,65.5 92.2,65.4 80.1,70.1 80.1,70.2 				"/>
				<polygon class="st110" points="92.2,65.4 92.2,65.3 80.1,70 80.1,70.1 				"/>
				<polygon class="st111" points="92.2,65.3 92.2,65.3 80.1,69.9 80.1,70 				"/>
				<polygon class="st112" points="92.2,65.3 92.1,65.2 80.1,69.8 80.1,69.9 				"/>
				<polygon class="st113" points="92.1,65.2 92.1,65.1 80.1,69.8 80.1,69.8 				"/>
				<polygon class="st114" points="92.1,65.1 92.1,65 80.1,69.7 80.1,69.8 				"/>
				<polygon class="st115" points="92.1,65 92,64.9 80.1,69.6 80.1,69.7 				"/>
				<polygon class="st116" points="92,64.9 92,64.8 80.1,69.5 80.1,69.6 				"/>
				<polygon class="st117" points="92,64.8 92,64.8 80.1,69.4 80.1,69.5 				"/>
				<polygon class="st118" points="92,64.8 91.9,64.7 80.1,69.3 80.1,69.4 				"/>
				<polygon class="st119" points="91.9,64.7 91.9,64.6 80.1,69.2 80.1,69.3 				"/>
				<polygon class="st120" points="91.9,64.6 91.9,64.5 80.1,69.1 80.1,69.2 				"/>
				<polygon class="st121" points="91.9,64.5 91.8,64.4 80.1,69 80.1,69.1 				"/>
				<polygon class="st122" points="91.8,64.4 91.8,64.3 80.1,68.9 80.1,69 				"/>
				<polygon class="st122" points="91.8,64.3 91.8,64.3 80.1,68.8 80.1,68.9 				"/>
				<polygon class="st123" points="91.8,64.3 91.7,64.2 80.1,68.7 80.1,68.8 				"/>
				<polygon class="st124" points="91.7,64.2 91.7,64.1 80.1,68.6 80.1,68.7 				"/>
				<polygon class="st125" points="91.7,64.1 91.7,64 80.1,68.5 80.1,68.6 				"/>
				<polygon class="st125" points="91.7,64 91.7,63.9 80.1,68.4 80.1,68.5 				"/>
				<polygon class="st126" points="91.7,63.9 91.6,63.8 80.1,68.3 80.1,68.4 				"/>
				<polygon class="st127" points="91.6,63.8 91.6,63.8 80.1,68.2 80.1,68.3 				"/>
				<polygon class="st128" points="91.6,63.8 91.6,63.7 80.1,68.1 80.1,68.2 				"/>
				<polygon class="st129" points="91.6,63.7 91.5,63.6 80.1,68 80.1,68.1 				"/>
				<polygon class="st130" points="91.5,63.6 91.5,63.5 80.1,67.9 80.1,68 				"/>
				<polygon class="st131" points="91.5,63.5 91.5,63.4 80.1,67.8 80.1,67.9 				"/>
				<polygon class="st132" points="91.5,63.4 91.4,63.3 80.1,67.7 80.1,67.8 				"/>
				<polygon class="st133" points="91.4,63.3 91.4,63.2 80.1,67.6 80.1,67.7 				"/>
				<polygon class="st134" points="91.4,63.2 91.4,63.2 80.1,67.5 80.1,67.6 				"/>
				<polygon class="st134" points="91.4,63.2 91.3,63.1 80.1,67.4 80.1,67.5 				"/>
				<polygon class="st135" points="91.3,63.1 91.3,63 80.1,67.3 80.1,67.4 				"/>
				<polygon class="st136" points="91.3,63 91.3,62.9 80.1,67.2 80.1,67.3 				"/>
				<polygon class="st136" points="91.3,62.9 91.2,62.8 80.1,67.2 80.1,67.2 				"/>
				<polygon class="st137" points="91.2,62.8 91.2,62.7 80.1,67.1 80.1,67.2 				"/>
				<polygon class="st137" points="91.2,62.7 91.2,62.7 80.1,66.9 80.1,67.1 				"/>
				<polygon class="st138" points="91.2,62.7 91.1,62.6 80.1,66.9 80.1,66.9 				"/>
				<polygon class="st138" points="91.1,62.6 91.1,62.5 80.1,66.8 80.1,66.9 				"/>
				<polygon class="st139" points="91.1,62.5 91.1,62.4 80.1,66.7 80.1,66.8 				"/>
				<polygon class="st139" points="91.1,62.4 91,62.3 80.1,66.6 80.1,66.7 				"/>
				<polygon class="st140" points="91,62.3 91,62.2 80.1,66.5 80.1,66.6 				"/>
				<polygon class="st141" points="91,62.2 91,62.2 80.1,66.4 80.1,66.5 				"/>
				<polygon class="st142" points="91,62.2 91,62.1 90.9,62.1 80.1,66.3 80.1,66.4 				"/>
				<polygon class="st143" points="90.6,62.1 80.1,66.2 80.1,66.3 90.9,62.1 				"/>
				<polygon class="st143" points="90.4,62.1 80.1,66.1 80.1,66.2 90.6,62.1 				"/>
				<polygon class="st144" points="90.1,62.1 80.1,66 80.1,66.1 90.4,62.1 				"/>
				<polygon class="st144" points="89.9,62.1 80.1,65.9 80.1,66 90.1,62.1 				"/>
				<polygon class="st144" points="89.6,62.1 80.1,65.8 80.1,65.9 89.9,62.1 				"/>
				<polygon class="st144" points="80.1,65.8 89.6,62.1 80.1,62.1 				"/>
			</g>
		</g>
		<path class="st16" d="M86.7,70.7c-0.6,0.1-0.9,0.7-0.8,1.3c0.1,0.6,0.7,0.9,1.3,0.8s0.9-0.7,0.8-1.3
			C87.9,70.9,87.3,70.5,86.7,70.7L86.7,70.7z"/>
		<ellipse class="st16" cx="59.3" cy="68.3" rx="8.5" ry="8.6"/>
		<g>
			<defs>
				<path id="SVGID_00000083046919922804210430000004723384671901718415_" d="M54.7,70.6c0.6,3.2,3.7,5.3,6.9,4.7c0,0,0,0,0,0
					c3-0.6,5-3.4,4.7-6.4l-3.7,0.1l3.4-1.2c-0.8-2.9-3.8-4.7-6.8-4.1C56.1,64.2,54.1,67.4,54.7,70.6z"/>
			</defs>
			<clipPath id="SVGID_00000151542646760796331310000008081004604354972560_">
				<use xlink:href="#SVGID_00000083046919922804210430000004723384671901718415_"  style="overflow:visible;"/>
			</clipPath>
			<g style="clip-path:url(#SVGID_00000151542646760796331310000008081004604354972560_);">
				<polygon class="st18" points="66.6,75.3 65.1,75.9 66.6,75.9 				"/>
				<polygon class="st18" points="66.6,75.3 64.8,75.9 65.1,75.9 66.6,75.3 				"/>
				<polygon class="st19" points="66.6,75.2 64.6,75.9 64.8,75.9 66.6,75.3 				"/>
				<polygon class="st20" points="66.6,75.1 64.3,75.9 64.6,75.9 66.6,75.2 				"/>
				<polygon class="st21" points="66.6,75 64,75.9 64.3,75.9 66.6,75.1 				"/>
				<polygon class="st22" points="66.6,74.9 63.8,75.9 64,75.9 66.6,75 				"/>
				<polygon class="st23" points="66.6,74.8 63.5,75.9 63.8,75.9 66.6,74.9 				"/>
				<polygon class="st24" points="66.6,74.7 63.2,75.9 63.5,75.9 66.6,74.8 				"/>
				<polygon class="st25" points="66.6,74.6 62.9,75.9 63.2,75.9 66.6,74.7 				"/>
				<polygon class="st26" points="66.6,74.5 62.7,75.9 62.9,75.9 66.6,74.6 				"/>
				<polygon class="st27" points="66.6,74.4 62.4,75.9 62.7,75.9 66.6,74.5 				"/>
				<polygon class="st28" points="66.6,74.3 62.1,75.9 62.4,75.9 66.6,74.4 				"/>
				<polygon class="st29" points="66.6,74.2 61.8,75.9 62.1,75.9 66.6,74.3 				"/>
				<polygon class="st29" points="66.6,74.1 61.6,75.9 61.8,75.9 66.6,74.2 				"/>
				<polygon class="st30" points="66.6,74 61.3,75.9 61.6,75.9 66.6,74.1 				"/>
				<polygon class="st31" points="66.6,73.9 61,75.9 61.3,75.9 66.6,74 				"/>
				<polygon class="st32" points="66.6,73.8 60.7,75.9 61,75.9 66.6,73.9 				"/>
				<polygon class="st33" points="66.6,73.7 60.5,75.9 60.7,75.9 66.6,73.8 				"/>
				<polygon class="st34" points="66.6,73.6 60.2,75.9 60.5,75.9 66.6,73.7 				"/>
				<polygon class="st35" points="66.6,73.6 59.9,75.9 60.2,75.9 66.6,73.6 				"/>
				<polygon class="st36" points="66.6,73.4 59.6,75.9 59.9,75.9 66.6,73.6 				"/>
				<polygon class="st37" points="66.6,73.4 59.4,75.9 59.6,75.9 66.6,73.4 				"/>
				<polygon class="st38" points="66.6,73.3 59.1,75.9 59.4,75.9 66.6,73.4 				"/>
				<polygon class="st39" points="66.6,73.2 58.8,75.9 59.1,75.9 66.6,73.3 				"/>
				<polygon class="st40" points="66.6,73.1 58.5,75.9 58.8,75.9 66.6,73.2 				"/>
				<polygon class="st41" points="66.6,73 58.3,75.9 58.5,75.9 66.6,73.1 				"/>
				<polygon class="st42" points="66.6,72.9 58,75.9 58.3,75.9 66.6,73 				"/>
				<polygon class="st43" points="66.6,72.8 57.7,75.9 58,75.9 66.6,72.9 				"/>
				<polygon class="st44" points="66.6,72.7 57.4,75.9 57.7,75.9 66.6,72.8 				"/>
				<polygon class="st45" points="66.6,72.6 57.2,75.9 57.4,75.9 66.6,72.7 				"/>
				<polygon class="st46" points="66.6,72.5 56.9,75.9 57.2,75.9 66.6,72.6 				"/>
				<polygon class="st47" points="66.6,72.4 56.6,75.9 56.9,75.9 66.6,72.5 				"/>
				<polygon class="st48" points="66.6,72.3 56.3,75.9 56.6,75.9 66.6,72.4 				"/>
				<polygon class="st49" points="66.6,72.2 56.1,75.9 56.3,75.9 66.6,72.3 				"/>
				<polygon class="st50" points="66.6,72.1 55.8,75.9 56.1,75.9 66.6,72.2 				"/>
				<polygon class="st51" points="66.6,72 55.6,75.8 55.6,75.9 55.8,75.9 66.6,72.1 				"/>
				<polygon class="st52" points="66.6,71.9 55.6,75.8 55.6,75.8 66.6,72 				"/>
				<polygon class="st53" points="66.6,71.8 55.5,75.7 55.6,75.8 66.6,71.9 				"/>
				<polygon class="st54" points="66.6,71.7 55.5,75.6 55.5,75.7 66.6,71.8 				"/>
				<polygon class="st55" points="66.6,71.7 55.5,75.5 55.5,75.6 66.6,71.7 				"/>
				<polygon class="st56" points="66.6,71.6 55.4,75.4 55.5,75.5 66.6,71.7 				"/>
				<polygon class="st57" points="66.6,71.5 55.4,75.3 55.4,75.4 66.6,71.6 				"/>
				<polygon class="st58" points="66.6,71.4 55.4,75.2 55.4,75.3 66.6,71.5 				"/>
				<polygon class="st59" points="66.6,71.3 55.4,75.2 55.4,75.2 66.6,71.4 				"/>
				<polygon class="st60" points="66.6,71.2 55.3,75.1 55.4,75.2 66.6,71.3 				"/>
				<polygon class="st61" points="66.6,71.1 55.3,75 55.3,75.1 66.6,71.2 				"/>
				<polygon class="st62" points="66.6,71 55.3,74.9 55.3,75 66.6,71.1 				"/>
				<polygon class="st63" points="66.6,70.9 55.2,74.8 55.3,74.9 66.6,71 				"/>
				<polygon class="st64" points="66.6,70.8 55.2,74.7 55.2,74.8 66.6,70.9 				"/>
				<polygon class="st65" points="66.6,70.7 55.2,74.7 55.2,74.7 66.6,70.8 				"/>
				<polygon class="st66" points="66.6,70.6 55.2,74.6 55.2,74.7 66.6,70.7 				"/>
				<polygon class="st67" points="66.6,70.5 55.1,74.5 55.2,74.6 66.6,70.6 				"/>
				<polygon class="st68" points="66.6,70.4 55.1,74.4 55.1,74.5 66.6,70.5 				"/>
				<polygon class="st69" points="66.6,70.3 55.1,74.3 55.1,74.4 66.6,70.4 				"/>
				<polygon class="st70" points="66.6,70.2 55,74.2 55.1,74.3 66.6,70.3 				"/>
				<polygon class="st71" points="66.6,70.1 55,74.1 55,74.2 66.6,70.2 				"/>
				<polygon class="st72" points="66.6,70 55,74.1 55,74.1 66.6,70.1 				"/>
				<polygon class="st73" points="66.6,69.9 55,74 55,74.1 66.6,70 				"/>
				<polygon class="st74" points="66.6,69.8 54.9,73.9 55,74 66.6,69.9 				"/>
				<polygon class="st75" points="66.6,69.8 54.9,73.8 54.9,73.9 66.6,69.8 				"/>
				<polygon class="st76" points="66.6,69.7 54.9,73.7 54.9,73.8 66.6,69.8 				"/>
				<polygon class="st77" points="66.6,69.6 54.8,73.6 54.9,73.7 66.6,69.7 				"/>
				<polygon class="st78" points="66.6,69.5 54.8,73.5 54.8,73.6 66.6,69.6 				"/>
				<polygon class="st79" points="66.6,69.4 54.8,73.5 54.8,73.5 66.6,69.5 				"/>
				<polygon class="st80" points="66.6,69.3 54.8,73.4 54.8,73.5 66.6,69.4 				"/>
				<polygon class="st81" points="66.6,69.2 54.7,73.3 54.8,73.4 66.6,69.3 				"/>
				<polygon class="st82" points="66.6,69.1 54.7,73.2 54.7,73.3 66.6,69.2 				"/>
				<polygon class="st83" points="66.6,69 54.7,73.1 54.7,73.2 66.6,69.1 				"/>
				<polygon class="st84" points="66.6,68.9 54.6,73 54.7,73.1 66.6,69 				"/>
				<polygon class="st85" points="66.6,68.8 54.6,72.9 54.6,73 66.6,68.9 				"/>
				<polygon class="st86" points="66.6,68.7 54.6,72.9 54.6,72.9 66.6,68.8 				"/>
				<polygon class="st87" points="66.6,68.6 54.5,72.8 54.6,72.9 66.6,68.7 				"/>
				<polygon class="st88" points="66.6,68.5 54.5,72.7 54.5,72.8 66.6,68.6 				"/>
				<polygon class="st89" points="66.6,68.4 54.5,72.6 54.5,72.7 66.6,68.5 				"/>
				<polygon class="st90" points="66.6,68.3 54.5,72.5 54.5,72.6 66.6,68.4 				"/>
				<polygon class="st91" points="66.6,68.2 54.4,72.4 54.5,72.5 66.6,68.3 				"/>
				<polygon class="st92" points="66.6,68.1 54.4,72.3 54.4,72.4 66.6,68.2 				"/>
				<polygon class="st93" points="66.6,68 54.4,72.3 54.4,72.3 66.6,68.1 				"/>
				<polygon class="st94" points="66.6,67.9 54.3,72.2 54.4,72.3 66.6,68 				"/>
				<polygon class="st95" points="66.6,67.8 54.3,72.1 54.3,72.2 66.6,67.9 				"/>
				<polygon class="st96" points="66.6,67.8 54.3,72 54.3,72.1 66.6,67.8 				"/>
				<polygon class="st96" points="66.6,67.7 54.3,71.9 54.3,72 66.6,67.8 				"/>
				<polygon class="st97" points="66.6,67.6 54.2,71.8 54.3,71.9 66.6,67.7 				"/>
				<polygon class="st98" points="66.6,67.5 54.2,71.8 54.2,71.8 66.6,67.6 				"/>
				<polygon class="st99" points="66.6,67.5 66.6,67.4 54.2,71.7 54.2,71.8 66.6,67.5 				"/>
				<polygon class="st100" points="54.2,71.7 54.1,71.6 66.5,67.3 66.6,67.4 				"/>
				<polygon class="st101" points="54.1,71.6 54.1,71.5 66.5,67.2 66.5,67.3 				"/>
				<polygon class="st102" points="54.1,71.5 54.1,71.4 66.5,67.1 66.5,67.2 				"/>
				<polygon class="st103" points="66.5,67.1 66.4,67 54.1,71.3 54.1,71.3 54.1,71.4 				"/>
				<polygon class="st104" points="66.4,67 66.4,66.9 54.1,71.2 54.1,71.3 				"/>
				<polygon class="st105" points="66.4,66.9 66.4,66.9 54.1,71.1 54.1,71.2 				"/>
				<polygon class="st106" points="66.4,66.9 66.4,66.8 54.1,71 54.1,71.1 				"/>
				<polygon class="st107" points="66.4,66.8 66.3,66.7 54.1,70.9 54.1,71 				"/>
				<polygon class="st108" points="66.3,66.7 66.3,66.6 54.1,70.8 54.1,70.9 				"/>
				<polygon class="st108" points="66.3,66.6 66.3,66.5 54.1,70.8 54.1,70.8 				"/>
				<polygon class="st109" points="66.3,66.5 66.2,66.4 54.1,70.7 54.1,70.8 				"/>
				<polygon class="st110" points="66.2,66.4 66.2,66.4 54.1,70.6 54.1,70.7 				"/>
				<polygon class="st111" points="66.2,66.4 66.2,66.3 54.1,70.5 54.1,70.6 				"/>
				<polygon class="st112" points="66.2,66.3 66.2,66.2 54.1,70.4 54.1,70.5 				"/>
				<polygon class="st113" points="66.2,66.2 66.1,66.1 54.1,70.3 54.1,70.4 				"/>
				<polygon class="st114" points="66.1,66.1 66.1,66 54.1,70.2 54.1,70.3 				"/>
				<polygon class="st115" points="66.1,66 66.1,65.9 54.1,70.1 54.1,70.2 				"/>
				<polygon class="st116" points="66.1,65.9 66.1,65.8 54.1,70 54.1,70.1 				"/>
				<polygon class="st117" points="66.1,65.8 66,65.8 54.1,69.9 54.1,70 				"/>
				<polygon class="st118" points="66,65.8 66,65.7 54.1,69.8 54.1,69.9 				"/>
				<polygon class="st119" points="66,65.7 66,65.6 54.1,69.7 54.1,69.8 				"/>
				<polygon class="st120" points="66,65.6 65.9,65.5 54.1,69.6 54.1,69.7 				"/>
				<polygon class="st121" points="65.9,65.5 65.9,65.4 54.1,69.5 54.1,69.6 				"/>
				<polygon class="st122" points="65.9,65.4 65.9,65.3 54.1,69.4 54.1,69.5 				"/>
				<polygon class="st122" points="65.9,65.3 65.8,65.2 54.1,69.3 54.1,69.4 				"/>
				<polygon class="st123" points="65.8,65.2 65.8,65.2 54.1,69.2 54.1,69.3 				"/>
				<polygon class="st124" points="65.8,65.2 65.8,65.1 54.1,69.1 54.1,69.2 				"/>
				<polygon class="st125" points="65.8,65.1 65.8,65 54.1,69.1 54.1,69.1 				"/>
				<polygon class="st125" points="65.8,65 65.7,64.9 54.1,68.9 54.1,69.1 				"/>
				<polygon class="st126" points="65.7,64.9 65.7,64.8 54.1,68.9 54.1,68.9 				"/>
				<polygon class="st127" points="65.7,64.8 65.7,64.7 54.1,68.8 54.1,68.9 				"/>
				<polygon class="st128" points="65.7,64.7 65.6,64.7 54.1,68.7 54.1,68.8 				"/>
				<polygon class="st129" points="65.6,64.7 65.6,64.6 54.1,68.6 54.1,68.7 				"/>
				<polygon class="st130" points="65.6,64.6 65.6,64.5 54.1,68.5 54.1,68.6 				"/>
				<polygon class="st131" points="65.6,64.5 65.6,64.4 54.1,68.4 54.1,68.5 				"/>
				<polygon class="st132" points="65.6,64.4 65.5,64.3 54.1,68.3 54.1,68.4 				"/>
				<polygon class="st133" points="65.5,64.3 65.5,64.2 54.1,68.2 54.1,68.3 				"/>
				<polygon class="st134" points="65.5,64.2 65.5,64.2 54.1,68.1 54.1,68.2 				"/>
				<polygon class="st134" points="65.5,64.2 65.4,64.1 54.1,68 54.1,68.1 				"/>
				<polygon class="st135" points="65.4,64.1 65.4,64 54.1,67.9 54.1,68 				"/>
				<polygon class="st136" points="65.4,64 65.4,63.9 54.1,67.8 54.1,67.9 				"/>
				<polygon class="st136" points="65.4,63.9 65.3,63.8 54.1,67.7 54.1,67.8 				"/>
				<polygon class="st137" points="65.3,63.8 65.3,63.7 54.1,67.6 54.1,67.7 				"/>
				<polygon class="st137" points="65.3,63.7 65.3,63.6 54.1,67.5 54.1,67.6 				"/>
				<polygon class="st138" points="65.3,63.6 65.3,63.5 54.1,67.4 54.1,67.5 				"/>
				<polygon class="st138" points="65.3,63.5 65.2,63.5 54.1,67.3 54.1,67.4 				"/>
				<polygon class="st139" points="65.2,63.5 65.2,63.4 54.1,67.2 54.1,67.3 				"/>
				<polygon class="st139" points="65.2,63.4 65.2,63.3 54.1,67.2 54.1,67.2 				"/>
				<polygon class="st140" points="65.2,63.3 65.2,63.2 54.1,67.1 54.1,67.2 				"/>
				<polygon class="st141" points="65.2,63.2 65.1,63.1 54.1,67 54.1,67.1 				"/>
				<polygon class="st142" points="65.1,63.1 65.1,63 54.1,66.9 54.1,67 				"/>
				<polygon class="st143" points="65.1,63 65.1,63 65,63 54.1,66.8 54.1,66.9 				"/>
				<polygon class="st143" points="64.7,63 54.1,66.7 54.1,66.8 65,63 				"/>
				<polygon class="st144" points="64.5,63 54.1,66.6 54.1,66.7 64.7,63 				"/>
				<polygon class="st144" points="64.2,63 54.1,66.5 54.1,66.6 64.5,63 				"/>
				<polygon class="st144" points="63.9,63 54.1,66.4 54.1,66.5 64.2,63 				"/>
				<polygon class="st144" points="54.1,66.4 63.9,63 54.1,63 				"/>
			</g>
		</g>
		<path class="st16" d="M61.6,70.6c-0.6,0.2-0.9,0.8-0.7,1.3c0.1,0.5,0.6,0.8,1.2,0.8c0.6-0.2,0.9-0.8,0.7-1.3
			C62.6,70.8,62.1,70.5,61.6,70.6z"/>
		<path class="st4" d="M125,60c0.3-0.6,0.7-1.1,1.2-1.6c0.7-0.8,1.3-1.7,1.9-2.5c1.1-1.4,2.2-2.9,3.5-4.3c2.1-2.5,3.4-5.5,3.7-8.8
			c0.2-1.8-0.2-2.2-2.1-1.9c-1.9,0.2-3.4,1.6-3.6,3.5c-0.1,0.6-0.2,1.2-0.3,1.8c-0.2,1.2-1.4,2-2.7,1.8c-0.5-0.1-1-0.4-1.3-0.8
			c-0.8-1-1.3-2.3-1.2-3.6c0-1.7,0.6-3.3,1.8-4.5c1.1-1.3,2.6-2.3,4.2-2.8c3.2-1,6.7-0.8,9.8,0.6c1.2,0.5,2.3,1.4,3.1,2.5
			c2.5,3.2,3.7,7.3,3.1,11.3c-0.1,0.7-0.4,1.4-0.6,2.5c-0.5,1.1-1,2.1-1.6,3.1c-2.4,3.7-6.1,6.4-10.4,7.6c-1.1,0.3-2.1,0.6-3.1,1
			c-1,0.4-2.2,0.4-3.2,0.1c-1.9-0.6-2.9-2.6-2.3-4.5C124.8,60.4,124.9,60.2,125,60z M119.7,70.7c0.6-2.2,2.8-3.5,5-2.9
			c2.2,0.6,3.5,2.8,2.9,5s-2.8,3.5-5,2.9c-0.1,0-0.1,0-0.2,0C120.3,75.1,119.1,72.9,119.7,70.7C119.7,70.8,119.7,70.8,119.7,70.7
			L119.7,70.7z"/>
	</g>
</g>
</svg>
