<?xml version="1.0" encoding="utf-8"?>
<!-- Generator: Adobe Illustrator 25.4.1, SVG Export Plug-In . SVG Version: 6.00 Build 0)  -->
<svg version="1.1" id="Layer_1" xmlns="http://www.w3.org/2000/svg" xmlns:xlink="http://www.w3.org/1999/xlink" x="0px" y="0px"
	 viewBox="0 0 133.2 200.8" style="enable-background:new 0 0 133.2 200.8;" xml:space="preserve">
<style type="text/css">
	.st0{fill:#CCCCCC;}
	.st1{fill:#E8E9E6;}
	.st2{fill:#F6E2D7;}
	.st3{fill:#1F404D;}
	.st4{fill:#E9E9E7;}
	.st5{clip-path:url(#SVGID_00000008110411583335201970000008904957502374052242_);}
	.st6{fill:#E7E8E4;}
	.st7{opacity:0.25;}
	.st8{fill:#1D1D1B;}
	.st9{fill:#2D2D2B;}
	.st10{opacity:0.5;}
	.st11{fill:#E2B8A3;}
	.st12{fill:#F9CCC5;}
	.st13{fill:#EFA29A;}
	.st14{fill:#FFFFFF;}
	.st15{clip-path:url(#SVGID_00000079481384140315051670000004342519403203131295_);}
	.st16{fill:#67D7A3;}
	.st17{fill:#66D6A3;}
	.st18{fill:#66D5A2;}
	.st19{fill:#65D3A2;}
	.st20{fill:#64D2A1;}
	.st21{fill:#63D1A0;}
	.st22{fill:#62CFA0;}
	.st23{fill:#61CE9F;}
	.st24{fill:#60CD9F;}
	.st25{fill:#5FCB9E;}
	.st26{fill:#5ECA9D;}
	.st27{fill:#5DC99D;}
	.st28{fill:#5DC79C;}
	.st29{fill:#5CC69B;}
	.st30{fill:#5BC59B;}
	.st31{fill:#5AC39A;}
	.st32{fill:#59C29A;}
	.st33{fill:#58C199;}
	.st34{fill:#57BF98;}
	.st35{fill:#56BE98;}
	.st36{fill:#56BD97;}
	.st37{fill:#55BB97;}
	.st38{fill:#54BA96;}
	.st39{fill:#53B996;}
	.st40{fill:#52B895;}
	.st41{fill:#51B694;}
	.st42{fill:#50B594;}
	.st43{fill:#50B493;}
	.st44{fill:#4FB393;}
	.st45{fill:#4EB192;}
	.st46{fill:#4DB091;}
	.st47{fill:#4CAF91;}
	.st48{fill:#4BAE90;}
	.st49{fill:#4BAC90;}
	.st50{fill:#4AAB8F;}
	.st51{fill:#49AA8F;}
	.st52{fill:#48A98E;}
	.st53{fill:#47A78E;}
	.st54{fill:#47A68D;}
	.st55{fill:#46A58C;}
	.st56{fill:#45A48C;}
	.st57{fill:#44A38B;}
	.st58{fill:#43A18B;}
	.st59{fill:#43A08A;}
	.st60{fill:#429F8A;}
	.st61{fill:#419E89;}
	.st62{fill:#409D89;}
	.st63{fill:#3F9B88;}
	.st64{fill:#3F9A88;}
	.st65{fill:#3E9987;}
	.st66{fill:#3D9886;}
	.st67{fill:#3C9786;}
	.st68{fill:#3C9685;}
	.st69{fill:#3B9585;}
	.st70{fill:#3A9384;}
	.st71{fill:#399284;}
	.st72{fill:#399183;}
	.st73{fill:#389083;}
	.st74{fill:#378F82;}
	.st75{fill:#368E82;}
	.st76{fill:#368D81;}
	.st77{fill:#358C81;}
	.st78{fill:#348B80;}
	.st79{fill:#348980;}
	.st80{fill:#33887F;}
	.st81{fill:#32877F;}
	.st82{fill:#31867E;}
	.st83{fill:#31857E;}
	.st84{fill:#30847D;}
	.st85{fill:#2F837D;}
	.st86{fill:#2F827C;}
	.st87{fill:#2E817C;}
	.st88{fill:#2D807B;}
	.st89{fill:#2D7F7B;}
	.st90{fill:#2C7E7B;}
	.st91{fill:#2B7D7A;}
	.st92{fill:#2B7C7A;}
	.st93{fill:#2A7B79;}
	.st94{fill:#297A79;}
	.st95{fill:#297978;}
	.st96{fill:#287878;}
	.st97{fill:#277777;}
	.st98{fill:#277677;}
	.st99{fill:#267576;}
	.st100{fill:#257476;}
	.st101{fill:#257376;}
	.st102{fill:#247275;}
	.st103{fill:#237175;}
	.st104{fill:#237074;}
	.st105{fill:#226F74;}
	.st106{fill:#226F73;}
	.st107{fill:#216E73;}
	.st108{fill:#206D73;}
	.st109{fill:#206C72;}
	.st110{fill:#1F6B72;}
	.st111{fill:#1F6A71;}
	.st112{fill:#1E6971;}
	.st113{fill:#1E6871;}
	.st114{fill:#1D6870;}
	.st115{fill:#1C6770;}
	.st116{fill:#1C6670;}
	.st117{fill:#1B656F;}
	.st118{fill:#1B646F;}
	.st119{fill:#1A636E;}
	.st120{fill:#19626E;}
	.st121{fill:#19616D;}
	.st122{fill:#18606D;}
	.st123{fill:#175F6C;}
	.st124{fill:#175E6C;}
	.st125{fill:#165D6C;}
	.st126{fill:#165D6B;}
	.st127{fill:#155C6B;}
	.st128{fill:#155B6B;}
	.st129{fill:#145B6A;}
	.st130{fill:#145A6A;}
	.st131{fill:#14596A;}
	.st132{fill:#13596A;}
	.st133{fill:#135869;}
	.st134{fill:#125769;}
	.st135{fill:#125668;}
	.st136{fill:#115668;}
	.st137{fill:#115568;}
	.st138{fill:#105568;}
	.st139{fill:#105467;}
	.st140{fill:#105367;}
	.st141{fill:#0F5367;}
	.st142{fill:#0F5267;}
	.st143{fill:#0F5266;}
	.st144{fill:#0E5266;}
	.st145{fill:#0E5166;}
	.st146{clip-path:url(#SVGID_00000035498985893679670770000010554765084991414695_);}
	.st147{fill:#3C3C3B;}
	.st148{display:none;fill:#1F404D;}
	.st149{fill:#0E495C;stroke:#1F404D;stroke-miterlimit:10;}
	.st150{fill:none;stroke:#1F404D;stroke-width:1.5;stroke-linecap:round;stroke-linejoin:round;stroke-miterlimit:10;}
</style>
<g id="Layer_2_00000077324263008554623280000016089289912117002677_">
	<g id="Layer_1-2">
		<ellipse class="st0" cx="59.1" cy="189.6" rx="55" ry="11.1"/>
		<path class="st1" d="M39.2,150.8c-0.5,2.8-0.4,5.7,0.2,8.5c0.5,2.2,1.5,4.4,2.9,6.2c3.2,4.5,8.2,7.4,13.6,8
			c3.8,0.3,7.7-0.5,11.1-2.1c2.1-0.9,4.1-2.2,5.7-3.9c3-3.3,4.1-7.8,3-12.1c-0.6-2.1-1.6-4-2.8-5.8c-1.8-3-4.2-5.6-7.1-7.7
			c-3.3-2.3-7.3-3.5-11.3-4.3c-1.8-0.4-3.7-0.7-5.6-0.9c-1.3-0.1-3-0.6-4.1,0.4c-2.2,2.3-3.8,5.2-4.5,8.3
			C39.8,147.1,39.4,149,39.2,150.8z"/>
		<path class="st2" d="M58.2,172.2c1-2.5,7.4-16,10-17.4c0.8-0.5,1.8-0.7,2.8-0.7c1.8,0.1,3.5,1.1,4.4,2.7
			c1.6,2.9,1.9,23.2,2.9,30.3c-2.9-0.3-5.7-0.3-8.6,0.1c-0.6-2.8-0.8-12-1.5-15.1c-1.2,3.5-0.8,4.5-2.3,5.3
			C61.6,180.1,56.4,176.6,58.2,172.2z"/>
		<path class="st3" d="M62.7,179.4c-1.3,0-2.5-0.5-3.4-1.4c-1.9-1.7-2.5-4.5-1.5-6.8c0.1-0.1,6.7-15.3,9.9-17c1-0.5,2-0.8,3.1-0.8
			c2.1,0.1,4,1.2,5,3.1c1.2,2.1,1.7,7.6,2.2,13.5c0.2,2.8,0.5,14.7,0.8,17c0,0.2,0,0.4-0.2,0.6c-0.1,0.2-0.4,0.2-0.6,0.2
			c-2.8-0.3-5.6-0.3-8.4,0.1c-0.4,0-0.7-0.2-0.8-0.6c-0.2-0.8-0.4-11-0.7-12.5c-0.3,1.5-1.2,2.8-2.5,3.6
			C64.7,179,63.7,179.3,62.7,179.4z M70.6,154.9c-0.8,0-1.6,0.2-2.2,0.6c-2.2,1.2-7.8,12.8-9.3,16.3c-0.8,1.8-0.3,3.9,1.2,5.2
			c1.3,1.2,3.2,1.3,4.7,0.4c1.2-0.7,1.7-1.8,2.6-5.4c0-0.1,0-0.2-0.1-0.3c-0.7-3.5-1.4-7.1-1.8-8.8c-0.1-0.4,0.2-0.7,0.5-0.8
			c0.4-0.1,0.7,0.1,0.8,0.5l0,0c0.4,1.7,1.1,5.3,1.8,8.8c0.5,2.4,0.9,13.8,1.2,15.2c2.4-0.3,4.8-0.3,7.2-0.1
			c-0.3-2.2-0.5-13.8-0.7-16.2c-0.5-5.5-1-11.2-2-13C73.7,155.9,72.3,155,70.6,154.9L70.6,154.9z"/>
		
			<image style="overflow:visible;enable-background:new    ;" width="338" height="502" xlink:href="../../../5.jpg"  transform="matrix(4.000000e-02 0 0 4.000000e-02 51.3694 153.6513)">
		</image>
		<path class="st4" d="M63.4,160.9c-5.1,1.5-10.4,2.2-15.6,1.9c-0.5,3-0.7,6-0.4,9s1,6.2,3.4,8.3c2.6,2.3,6.8,2.6,10.1,1.2
			c3.2-1.5,5.7-4.1,7.2-7.3L63.4,160.9z"/>
		<path class="st3" d="M56.7,182.8c-2.3,0.1-4.6-0.7-6.4-2.2c-2.7-2.4-3.4-6.2-3.6-8.8c-0.3-3.1-0.2-6.2,0.4-9.2
			c0.1-0.3,0.4-0.6,0.7-0.6c5.2,0.3,10.4-0.4,15.4-1.9c0.3-0.1,0.7,0.1,0.8,0.4l4.6,13.1c0.1,0.2,0.1,0.4,0,0.5
			c-1.5,3.4-4.2,6.1-7.5,7.6C59.8,182.5,58.2,182.8,56.7,182.8z M48.4,163.5c-0.4,2.7-0.5,5.5-0.3,8.2c0.3,3.8,1.3,6.3,3.2,7.9
			c2.3,2,6.1,2.5,9.4,1.1c3-1.4,5.3-3.8,6.7-6.7L63,161.7C58.2,163.1,53.3,163.7,48.4,163.5z"/>
		<path class="st4" d="M53.7,164.8c-5.1,1.3-10.4,1.9-15.6,1.6c-0.5,2.5-0.7,5.1-0.4,7.7c0.3,2.6,1,5.3,3.4,7.1
			c2.6,2,6.8,2.2,10.1,1c3.1-1.2,5.6-3.4,7.2-6.2L53.7,164.8z"/>
		<path class="st3" d="M46.9,183.5c-2.2,0.1-4.4-0.6-6.2-1.9c-2.8-2.1-3.4-5.3-3.6-7.5c-0.3-2.6-0.2-5.3,0.4-7.9
			c0.1-0.3,0.3-0.5,0.7-0.5c5.2,0.2,10.4-0.3,15.5-1.6c0.3-0.1,0.6,0.1,0.7,0.4l4.6,11.2c0.1,0.2,0.1,0.4,0,0.6
			c-1.7,3-4.3,5.3-7.5,6.5C50,183.3,48.5,183.5,46.9,183.5z M38.6,167.1c-0.4,2.3-0.5,4.6-0.2,6.9c0.3,3.2,1.3,5.3,3.1,6.6
			c2.3,1.7,6.2,2.1,9.5,0.9c2.8-1.1,5.2-3.1,6.7-5.7l-4.3-10.4C48.5,166.7,43.5,167.2,38.6,167.1z"/>
		<path class="st2" d="M50.3,156.8c0.9-0.3,1.8-0.5,2.8-0.6c1.8,0.1,3.4,1.2,4.3,2.9c1.5,2.9,1.5,22.3,2.2,29.4
			c-2.8-0.4-5.7-0.5-8.6-0.2c-0.5-2.8-0.7-3-1.3-6.1C49.2,176.8,45.4,157.6,50.3,156.8z"/>
		<path class="st3" d="M59.3,189.2L59.3,189.2c-2.9-0.4-5.7-0.5-8.5-0.2c-0.4,0-0.7-0.2-0.8-0.6c-0.2-1.3-0.7-4-1.1-6.8
			c-0.6-3.5-1.2-15.2-1.5-16.8c0-0.1,0-0.2,0-0.3c-1.1-5.4,0.6-7.4,2.3-8.3c1-0.5,2.1-0.7,3.2-0.7c2.1,0.2,3.9,1.4,4.8,3.2
			c1.1,2.1,1.4,7.7,1.7,13.6c0.2,2.8,0.3,13.7,0.5,16c0,0.2,0,0.4-0.2,0.6C59.7,189.1,59.5,189.2,59.3,189.2z M54.5,187.4
			c1.4,0,2.8,0.1,4.1,0.2c-0.2-2.2-0.3-12.8-0.5-15.2c-0.3-5.5-0.6-11.2-1.5-13c-0.7-1.4-2.1-2.4-3.7-2.5c-0.8,0-1.7,0.1-2.4,0.5
			c-2.2,1.1-2.1,4.3-1.5,6.8c0,0.1,0,0.2,0,0.3c0.3,1.7,0.9,13.3,1.5,16.8c0.4,2.4,0.8,4.8,1,6.2C52.4,187.4,53.4,187.4,54.5,187.4z
			"/>
		<g>
			<g>
				<defs>
					<path id="SVGID_1_" d="M82.2,166.4c-1.3,0.8-2.6,1.4-4,2c-4.4,1.1-11.5-13-11.5-13l-20.5,11v14.1h36V166.4z"/>
				</defs>
				<clipPath id="SVGID_00000000903725889119417850000015689865637763999164_">
					<use xlink:href="#SVGID_1_"  style="overflow:visible;"/>
				</clipPath>
				<g style="clip-path:url(#SVGID_00000000903725889119417850000015689865637763999164_);">
					<path class="st6" d="M65.2,179.5c4.8,0.5,9.6,2,14-1.7c-1-2.9-1.9-24.8-2.8-27.7c-0.8-2.4-0.5-4.9-1.3-7.3l-24.5-2.3
						c-0.7,2.4-1.3,4.8-1.9,7.2c-0.9,3.7-0.8,24.4-1.7,28.5c4.3,3,9.3,3.8,14.7,3L65.2,179.5z"/>
					<path class="st3" d="M79.6,178.2c-4,3.4-7.5,2-11.4,2c-1.3,0-2.4-0.1-3.2-0.1l-3.3-0.2c-6,0.9-10.9-0.2-15.2-3.1
						c-0.2-0.2-0.4-0.5-0.3-0.8c1.7-7.4,2.1-29.9,3.5-35.4l0,0c-0.5-6.4,0.1-12.8,1.7-19c0.1-0.3,0.4-0.5,0.7-0.3l0,0
						c0.3,0.1,0.4,0.5,0.3,0.8c-1.6,5.4-1.9,13.8-1.7,17.7c0,0.5,0.1,1.1,0.1,1.6c-0.1,0.6-0.3,1.2-0.4,1.9c-1,6-1.5,26.4-2.9,32.6
						c3.9,2.6,8.5,3.6,13.1,2.9l6.3,0.2c1.9,0.1,6.6,2,11.2-1.6c-1.6-4.7-2.3-27.8-3.6-33.2c-0.1-0.3-0.1-0.6-0.2-0.8l-0.6-0.1
						c0.6-0.3,1.1-0.7,1.4-1.3c0.1-0.2,0.1-0.3,0.1-0.5c0-0.5,0-1.6,0.1-2.9c0.1-3.1,0.3-8.1,0-9.2c-0.1-0.3,0.1-0.6,0.4-0.7
						c0.3-0.1,0.6,0.1,0.7,0.4c0.3,1.1,0.2,5.2,0,9.6c-0.1,1.3-0.1,2.4-0.1,2.9c0,0.6-0.2,1.2-0.7,1.7c1.4,5.6,2.2,29.2,3.9,34.2
						C79.9,177.7,79.9,178,79.6,178.2z"/>
				</g>
			</g>
		</g>
		<path class="st2" d="M63.8,160.4c0.2-0.4,0.7-0.7,1.2-0.6c0.5,0,1,0,1.4,0.1c-0.7-0.4-1.4-0.9-2-1.5c-0.2-0.2-0.3-0.4-0.5-0.6
			c-0.1-0.2-0.1-0.5,0-0.8c0.2-0.2,0.4-0.3,0.6-0.2c0.2,0,0.5,0.1,0.7,0.2c1.1,0.4,2.3,0.8,3.3,1.2c-0.8-0.6-1.5-1.4-2-2.2
			c-0.2-0.2-0.2-0.5-0.1-0.8c0.1-0.2,0.3-0.3,0.5-0.3s0.4,0.1,0.6,0.1c1.2,0.7,2.3,1.7,3,2.9c1.4-0.6,2.8-1.1,4.1-1.8v7.1
			c-2,0.2-4,0.2-6,0.1c-0.6,0.5-1.3,0.8-2.1,1c-0.2,0.1-0.5,0.1-0.8,0.1s-0.5-0.2-0.6-0.5c-0.1-0.4,0.2-0.7,0.5-0.9
			c0.5-0.4,1.1-0.7,1.7-0.8c-0.9,0.2-1.9,0.1-2.7-0.3c-0.3-0.1-0.5-0.3-0.7-0.5C63.8,161.1,63.7,160.7,63.8,160.4z"/>
		<path class="st3" d="M66,165.1h-0.3c-0.5-0.1-1-0.5-1.2-1c-0.1-0.5,0.1-1.1,0.5-1.4l-0.6-0.2c-0.4-0.2-0.7-0.4-1-0.7
			c-0.4-0.4-0.5-1-0.3-1.5l0,0c0.2-0.5,0.6-0.9,1.1-1l-0.4-0.3c-0.3-0.2-0.5-0.5-0.6-0.9c-0.2-0.5-0.1-1,0.2-1.4
			c0.3-0.3,0.7-0.5,1.2-0.5c0.3,0,0.6,0.1,0.9,0.2l0.7,0.2l-0.2-0.3c-0.3-0.4-0.3-1-0.2-1.4c0.2-0.4,0.6-0.7,1.1-0.7
			c0.3,0,0.6,0.1,0.9,0.2c1.2,0.6,2.2,1.5,3,2.6c1-0.4,2.2-1,3.6-1.6c0.2-0.1,0.5-0.1,0.7,0s0.3,0.4,0.3,0.6v7.2
			c0,0.4-0.3,0.7-0.6,0.7c-1.9,0.2-3.9,0.3-5.9,0.1c-0.6,0.4-1.3,0.7-2.1,0.9C66.6,165,66.3,165.1,66,165.1z M66,163.7
			c0.1,0,0.3,0,0.4-0.1c0.7-0.2,1.3-0.5,1.8-0.9c0.1-0.1,0.3-0.2,0.5-0.1c1.7,0.2,3.5,0.2,5.2,0v-5.5c-1.2,0.6-2.3,1-3.2,1.4
			c-0.3,0.1-0.6,0-0.8-0.2c-0.7-1.1-1.6-2-2.7-2.6h-0.1c0.5,0.8,1.1,1.5,1.8,2c0.3,0.2,0.4,0.6,0.2,0.9c-0.2,0.3-0.5,0.4-0.8,0.3
			l-1.7-0.6c-0.6-0.2-1.1-0.4-1.6-0.6c-0.2-0.1-0.3-0.1-0.5-0.1l0,0l0,0c0.1,0.1,0.2,0.3,0.3,0.4c0.6,0.6,1.2,1,1.9,1.4
			c0.3,0.2,0.5,0.5,0.3,0.9c-0.1,0.3-0.5,0.5-0.8,0.4c-0.4-0.1-0.8-0.1-1.2-0.1c-0.2,0-0.4,0.1-0.6,0.2c0,0.1,0,0.1,0.1,0.2
			c0.1,0.1,0.3,0.2,0.5,0.3c0.7,0.3,1.5,0.5,2.2,0.3c0.4-0.1,0.7,0.1,0.8,0.5l0,0c0.1,0.4-0.1,0.7-0.5,0.9
			C67,163.2,66.5,163.4,66,163.7C66.1,163.6,66.1,163.6,66,163.7z M63.8,160.4L63.8,160.4z"/>
		<path class="st4" d="M84.8,165.7c-1.3,1.8-3.9,2.6-6.1,2.6c-8.4,0.3-12-5.6-11.4-10.4c0.2-1.6,0.9-3.2,2.1-4.3s1.1-2.8,0.3-4.3
			l-8.4-1.9l10-6.9c0.5,2.4,2.5,4.2,4.2,5.8c2.1,2,4.6,3.6,6.7,5.6c2.3,2.2,3.8,5.1,4.2,8.3C86.5,162.2,86,164.1,84.8,165.7z"/>
		<g class="st7">
			<path class="st8" d="M84.8,165.7c-1.3,1.8-3.9,2.6-6.1,2.6c-8.4,0.3-12-5.6-11.4-10.4c3,4,7.9,6.1,12.9,5.6
				c0.8-0.1,1.5-0.3,2.3-0.6c1.5-0.6,2.8-1.6,3.8-2.7C86.5,162.2,86,164.1,84.8,165.7z"/>
		</g>
		<path class="st3" d="M78.6,169c-3.8,0-8.6-1.2-10.8-4.8c-1.2-1.9-2.1-5.3,0.5-10.4c0.7-1.2,1.9-2.1,3.2-2.2
			c2.6-0.4,5.2,0.5,7.1,2.3c0.3,0.2,0.3,0.7,0.1,0.9c0,0,0,0-0.1,0.1c-0.3,0.3-0.7,0.3-1,0l0,0c-1.6-1.5-3.8-2.2-5.9-1.9
			c-0.9,0.1-1.8,0.7-2.2,1.5c-1.8,3.7-2,6.8-0.6,9.1c1.9,3.1,6.2,4.1,9.7,4.1h0.1c1.9,0,4.3-0.6,5.6-2.4c2.9-4,0.8-9.5-2.7-12.9
			c-1.1-1.1-2.3-2.1-3.5-3c-1-0.8-2.1-1.7-3.2-2.6l-0.1-0.1c-1.8-1.6-3.8-3.5-4.3-6.1c-0.1-0.4,0.2-0.7,0.5-0.8l0,0
			c0.4-0.1,0.7,0.2,0.8,0.5l0,0c0.5,2.2,2.2,3.8,3.9,5.4l0.1,0.1c1,0.9,2,1.8,3.1,2.6c1.3,1,2.5,2,3.6,3.1
			c3.9,3.8,6.1,10.1,2.8,14.7C83.8,168.2,80.9,168.9,78.6,169L78.6,169z"/>
		<path class="st2" d="M62.3,161.8c-0.2-0.4-0.7-0.7-1.2-0.6c-0.5,0-1,0-1.4,0.1c0.7-0.4,1.4-0.9,2-1.5c0.2-0.2,0.3-0.4,0.5-0.6
			c0.1-0.2,0.1-0.5-0.1-0.7c-0.2-0.2-0.4-0.3-0.6-0.3c-0.2,0-0.5,0.1-0.7,0.2c-1.1,0.4-2.3,0.8-3.3,1.2c0.8-0.6,1.5-1.4,2-2.2
			c0.2-0.2,0.2-0.5,0.1-0.8c-0.1-0.2-0.3-0.3-0.5-0.3s-0.4,0.1-0.6,0.1c-1.2,0.7-2.3,1.7-3,2.9c-1.4-0.6-2.8-1.1-4.1-1.8v7.1
			c2,0.2,4,0.2,6,0.1c0.6,0.5,1.3,0.8,2.1,1c0.3,0.1,0.5,0.1,0.8,0.1s0.5-0.2,0.6-0.5c0.1-0.4-0.2-0.7-0.5-0.9
			c-0.5-0.4-1.1-0.7-1.7-0.8c0.9,0.2,1.9,0.1,2.7-0.3c0.3-0.1,0.5-0.3,0.8-0.5C62.3,162.5,62.4,162.1,62.3,161.8z"/>
		<path class="st3" d="M60.1,166.4c-0.3,0-0.6-0.1-0.8-0.1c-0.7-0.2-1.4-0.5-2.1-0.9c-2,0.1-3.9,0.1-5.9-0.1c-0.4,0-0.6-0.3-0.6-0.7
			v-7.2c0-0.2,0.1-0.5,0.3-0.6s0.5-0.1,0.7,0c1.4,0.7,2.6,1.2,3.6,1.6c0.8-1.1,1.8-2,3-2.6c0.3-0.1,0.6-0.2,0.9-0.2
			c0.5,0,0.9,0.3,1.1,0.7c0.2,0.5,0.1,1-0.2,1.4l-0.2,0.3l0.7-0.2c0.3-0.1,0.6-0.2,0.9-0.2c0.8-0.1,1.4,0.5,1.5,1.3
			c0,0.2,0,0.5-0.1,0.7c-0.1,0.3-0.4,0.6-0.6,0.9c-0.1,0.1-0.2,0.2-0.4,0.3c0.5,0.1,0.9,0.5,1.1,1l0,0c0.2,0.5,0,1.1-0.3,1.5
			c-0.3,0.3-0.6,0.5-1,0.7l-0.6,0.2c0.4,0.3,0.6,0.9,0.5,1.4c-0.2,0.5-0.6,0.9-1.2,1C60.4,166.5,60.3,166.5,60.1,166.4z M57.5,164
			c0.2,0,0.3,0.1,0.4,0.2c0.6,0.4,1.2,0.7,1.8,0.8c0.1,0.1,0.3,0.1,0.4,0.1c-0.1-0.1-0.1-0.1-0.2-0.2c-0.4-0.3-0.9-0.6-1.5-0.7
			c-0.4-0.1-0.6-0.5-0.5-0.9s0.5-0.6,0.8-0.5c0.8,0.1,1.6,0,2.2-0.3c0.2-0.1,0.3-0.2,0.5-0.3c0.1-0.1,0.1-0.1,0.1-0.2
			s-0.2-0.1-0.6-0.2c-0.4,0-0.8,0-1.2,0.1c-0.3,0.1-0.7-0.1-0.8-0.4c-0.1-0.3,0-0.7,0.3-0.9c0.7-0.4,1.3-0.8,1.9-1.4
			c0.1-0.1,0.2-0.2,0.3-0.4l0,0l0,0c-0.2,0-0.3,0.1-0.5,0.1c-0.5,0.2-1.1,0.4-1.7,0.6l-1.7,0.6c-0.4,0.1-0.8-0.1-0.9-0.5
			c-0.1-0.3,0-0.6,0.2-0.8c0.7-0.5,1.3-1.2,1.8-2l0,0c-1.1,0.6-2.1,1.5-2.7,2.6c-0.2,0.3-0.5,0.4-0.8,0.2c-0.9-0.4-2-0.8-3.2-1.4
			v5.5C53.9,164.1,55.7,164.1,57.5,164L57.5,164z"/>
		<g class="st7">
			<path class="st8" d="M59.3,161c0.8,3.7-1.4,7.2-5.2,9.2c-4.8,2.5-10.6,2.7-15.7,1.6c-2.7-0.6-5.8-1.8-7.2-4.4
				c-0.6-1.2-1-2.6-1-3.9c0.7,0.6,1.4,1.2,2.2,1.7c5.3,3.4,12.2,3.8,18.1,1.8c3.1-1,5.9-2.7,8.1-5.1C58.8,161.5,59.1,161.3,59.3,161
				z"/>
		</g>
		<path class="st4" d="M54.1,170.2c-4.8,2.5-10.6,2.7-15.7,1.6c-2.7-0.6-5.8-1.8-7.2-4.4c-0.6-1.2-1-2.6-1-3.9c0-0.2,0-0.5,0-0.7
			c0-5.6,2.3-11.2,4.5-16.1c2.2-4.7,4.9-9.2,8.8-12.4l3.6,12.9c-0.6,2.2-1.4,4.4-2.4,6.4c4.1-0.4,9.8,0.3,12.8,4
			c0.9,1,1.5,2.3,1.8,3.6C60.1,164.7,57.9,168.2,54.1,170.2z"/>
		<path class="st3" d="M44.5,173.2c-2.1,0-4.2-0.3-6.2-0.7c-3.8-0.9-6.4-2.5-7.7-4.8c-0.8-1.5-1.2-3.3-1.1-5
			c0-5.6,2.2-11.2,4.6-16.4c2.6-5.6,5.5-9.8,9-12.7c0.3-0.3,0.7-0.2,1,0.1l0,0c0.3,0.3,0.2,0.7-0.1,1c-3.3,2.7-6.1,6.7-8.6,12.2
			c-2.3,5.1-4.5,10.5-4.5,15.9c-0.1,1.5,0.3,3,0.9,4.3c1.1,1.9,3.4,3.3,6.8,4.1c5.5,1.3,11,0.7,15.2-1.5c2.4-1.1,4.1-3.2,4.8-5.8
			c0.4-2.2-0.3-4.4-1.7-6c-2.7-3.4-8.1-4.2-12.2-3.7c-0.2,0-0.5-0.1-0.6-0.3s-0.2-0.5-0.1-0.7c0.2-0.6,0.5-1,0.7-1.5
			c0.7-1.5,1.3-3.2,1.7-4.8c0.1-0.4,0.5-0.6,0.9-0.4c0.3,0.1,0.5,0.4,0.5,0.8c-0.4,1.7-1,3.4-1.8,5.1c-0.1,0.1-0.1,0.2-0.2,0.4
			c4.3-0.2,9.4,0.8,12.2,4.4c1.7,2,2.5,4.6,2,7.2c-0.8,3-2.8,5.4-5.5,6.7C51.4,172.4,48,173.2,44.5,173.2z"/>
		<path class="st4" d="M73.6,142.9c-0.7-3.1-1.7-6.2-3.8-8.5c-1.6-1.7-3.6-3-5.8-3.8c-4.4-1.9-9.4-2.3-14.1-1.2
			c-4.7,1.2-9.7,2.7-11.8,10.6c6.5,3.2,16.5,7.7,20.9,13.4C64.1,147.6,66,144.3,73.6,142.9z"/>
		<path class="st3" d="M59,154L59,154c-0.2,0-0.4-0.1-0.5-0.3c-3.8-4.9-12.2-9-18.3-12.1l-2.4-1.2c-0.3-0.1-0.4-0.5-0.4-0.8
			c2.1-7.9,7-9.8,12.3-11.1c4.8-1.1,9.9-0.7,14.5,1.3c2.3,0.9,4.4,2.2,6.1,4c2.4,2.6,3.3,6.1,4,8.8c0,0.2,0,0.4-0.1,0.5
			c-0.1,0.2-0.3,0.3-0.4,0.3c-6.3,1.1-8.5,3.7-12.2,8l-2,2.2C59.4,153.9,59.2,154,59,154z M38.9,139.6l1.9,0.9
			c6,2.9,14.1,6.9,18.2,11.8l1.4-1.6c3.7-4.2,6.1-7,12.3-8.3c-0.5-2.8-1.7-5.3-3.5-7.5c-1.6-1.6-3.5-2.9-5.6-3.7
			c-4.3-1.8-9.1-2.2-13.7-1.2C45.1,131.2,40.9,132.8,38.9,139.6z"/>
		<path class="st9" d="M117,85.3c0.4,0.5,0.8,1,1.2,1.5c0.1,0.1,0.2,0.2,0.3,0.3c2.7-12,2.5-24.4-0.8-36.3c-0.2,0-0.4,0-0.6-0.1
			l-1.3-0.1c-4.1-0.2-8.1-1-11.9-2.4C103.8,62,108.6,74.6,117,85.3z"/>
		<path class="st8" d="M117,85.3c0.4,0.5,0.8,1,1.2,1.5c0.2-7.4,0.2-14.8-0.2-22.2c-0.2-4.6-0.6-9.2-1-13.8l-1.3-0.1
			c0.1,1,0.2,2.1,0.3,3.2c0.7,8.1,1.1,16.3,1.1,24.4C117.1,80.6,117.1,83,117,85.3z"/>
		<path class="st3" d="M117.9,87.7C108.1,76.1,103,62.5,103,48.3c0-0.3,0.1-0.5,0.3-0.6c0.2-0.1,0.5-0.2,0.7-0.1
			c4.2,1.7,8.7,2.1,13.5,2.5h0.2c0.3,0,0.6,0.3,0.7,0.6c3.3,12,3.6,24.6,0.8,36.7c-0.1,0.3-0.3,0.5-0.6,0.6h-0.1
			C118.3,87.9,118.1,87.8,117.9,87.7z M104.6,49.4c0.2,12.9,4.9,25.4,13.5,36.1c2.3-11.2,2-22.8-1-33.9
			C112.8,51.4,108.6,50.6,104.6,49.4z"/>
		<path class="st2" d="M67,138.8c-0.3,1-0.7,2-1.3,3c-1.6,2.9-4.7,5.2-8,5c-3.8-0.3-6.6-3.9-7.3-7.6c-0.2-1.3-0.3-2.6-0.2-3.9
			c0.2-2.5,0.7-4.9,1.3-7.3c5.5,1.7,11,4,16.7,4.2C68,134.5,67.6,136.7,67,138.8z"/>
		<g class="st10">
			<path class="st11" d="M67,138.8c-2.4,0.9-4.9,1.2-7.4,0.8c-3.5-0.5-6.8-2-9.4-4.4c0.2-2.5,0.7-4.9,1.3-7.3c5.5,1.7,11,4,16.7,4.2
				C68,134.5,67.6,136.7,67,138.8z"/>
		</g>
		<path class="st3" d="M57.7,147.6c-4.3-0.4-7.3-4.4-8-8.2c-0.3-1.4-0.3-2.7-0.2-4.1c0.2-2.5,0.7-5,1.4-7.4c0-0.2,0.2-0.4,0.4-0.5
			s0.4-0.1,0.6-0.1c1.2,0.4,2.5,0.8,3.8,1.2c4.2,1.4,8.5,2.8,12.8,3c0.4,0,0.7,0.4,0.7,0.8c0,0,0,0,0,0.1c-0.2,2.3-0.6,4.5-1.3,6.7
			c-0.3,1.1-0.8,2.2-1.3,3.2c-1.5,2.6-4.3,5.1-7.6,5.4C58.4,147.6,58,147.6,57.7,147.6z M55,129.9c-1-0.3-2-0.7-3-1
			c-0.6,2.1-0.9,4.2-1.1,6.4c-0.1,1.3,0,2.5,0.2,3.7c0.6,3.3,3.1,6.7,6.7,7c3.1,0.2,5.9-2.1,7.3-4.6c0.5-0.9,0.9-1.9,1.2-2.9
			c0.5-1.9,0.9-3.7,1.1-5.7C63.2,132.6,59,131.2,55,129.9z"/>
		<path class="st2" d="M4.1,99.8c4,7.3,10.7,12.8,18.7,15.2c0.4,0.7,0.7,1.3,1.2,1.9c0.6,0.9,1.3,1.7,2,2.4c1.7,1.7,3.7,3.2,5.8,4.4
			c12.7,7.2,28,13.5,42.8,12.9c7.1-0.3,14.4-2.6,20.9-5.6c6.9-3.2,13.4-7.6,17.7-13.8c0.1-0.2,0.2-0.3,0.3-0.5
			c5.3-7.9,6.4-17.8,5.7-27.4c-0.1-1.7-0.3-3.4-0.6-5.1c-1.1-8.1-3.2-16-4.4-24c-0.1-0.9-0.3-1.7-0.4-2.6c-0.5-4-0.7-7.4-2.7-11
			c-4.4-8.1-13.7-11.9-22.1-14.2c-6.1-1.7-12.4-2.7-18.7-2.8c-20,0-37.2,13.6-45.1,31.5c-2.3,5.3-4,10.8-4.9,16.5
			c0,0.2-0.1,0.4-0.1,0.7c-0.7-0.2-1.4-0.4-2.1-0.6c-3-0.9-6.2-0.9-9.2-0.1c-3.2,0.9-5.7,3.2-7,6.2C-0.3,88.7,1.4,94.9,4.1,99.8z"/>
		<path class="st12" d="M106.2,105.7c0.4,4.7,3,8.9,7,11.5c0.1-0.2,0.2-0.3,0.3-0.5c5.3-7.9,6.4-17.8,5.7-27.4
			C111.1,90.4,105.4,97.7,106.2,105.7z"/>
		<path class="st3" d="M74.6,137.5c-12.7,0.5-27.2-3.9-43.3-13c-2.2-1.2-4.2-2.7-6-4.5c-0.8-0.8-1.4-1.6-2.1-2.5
			c-0.4-0.5-0.7-1.1-1-1.7c-8.1-2.6-14.9-8.1-18.9-15.6C0,94.2-0.9,87.9,1,83.4c1.4-3.3,4.2-5.8,7.6-6.8c3.2-0.8,6.5-0.8,9.7,0.1
			l1.2,0.3c1-5.6,2.6-11.1,4.9-16.3c8.7-19.4,26.7-32,45.9-32c6.4,0.1,12.7,1.1,18.9,2.9c7.4,2,17.9,5.7,22.7,14.6
			c1.8,3.3,2.2,6.5,2.6,9.9c0,0.5,0.1,0.9,0.2,1.4c0.6,4.6,1.5,9.2,2.4,13.6c0.9,4.2,1.7,8.6,2.3,13c1.9,13.8,0.2,25-5.3,33.1
			c-3.9,5.8-10,10.7-18.3,14.6c-5.4,2.6-11.2,4.4-17.2,5.3C77.3,137.3,76,137.4,74.6,137.5z M26,61.5c-2.4,5.4-4.1,11.1-5,16.9
			c-0.1,0.5-0.5,0.8-1,0.7h-0.1c-0.7-0.2-1.4-0.4-2.1-0.6c-2.9-0.8-5.9-0.9-8.8-0.2c-2.9,0.8-5.3,2.9-6.4,5.7l0,0
			c-1.7,4-0.8,9.8,2.3,15.3c3.9,7.1,10.4,12.4,18.2,14.8c0.2,0.1,0.4,0.2,0.5,0.4c0.3,0.6,0.7,1.2,1.1,1.8c0.6,0.8,1.2,1.6,1.9,2.3
			c1.7,1.7,3.6,3.1,5.6,4.2c15.8,9,30,13.3,42.3,12.8c6.3-0.2,13.2-2.1,20.6-5.5c8-3.7,13.9-8.4,17.6-14c5.2-7.8,6.8-18.5,5-31.9
			c-0.6-4.3-1.5-8.7-2.3-12.9c-0.9-4.5-1.8-9.1-2.4-13.7c-0.1-0.5-0.1-0.9-0.2-1.4c-0.4-3.3-0.8-6.2-2.4-9.3
			c-4.5-8.3-14.5-11.8-21.7-13.8c-6-1.7-12.2-2.7-18.4-2.8c-1.9,0-3.9,0.1-5.8,0.4C48.2,33.2,33.5,44.6,26,61.5z"/>
		<path class="st3" d="M16.6,100.5c0.1,0,0.3-0.1,0.4-0.2c0.3-0.3,0.4-0.7,0.1-1.1l0,0c-0.8-1.1-0.7-2.7,0.3-3.7
			c1.1-1,2.6-1.4,4-1.1c1.4,0.4,2.6,1.3,3.5,2.4c0.2,0.3,0.6,0.4,0.9,0.2c0.3-0.2,0.5-0.5,0.4-0.9c-1.4-5.4-5.1-9.9-10-12.5
			c-1.9-1.1-4.1-1.6-6.4-1.4l0,0c-2.4,0.2-4.4,1.9-5.1,4.2c-0.1,0.4,0.1,0.8,0.6,0.9c0.4,0.1,0.8-0.1,0.9-0.5c0.6-1.7,2.1-2.8,3.8-3
			l0,0c1.9-0.1,3.8,0.3,5.4,1.2c3.7,1.9,6.6,5,8.3,8.8c-0.6-0.4-1.3-0.7-2.1-0.8c-1.9-0.5-4,0.1-5.4,1.5c-1.4,1.6-1.6,3.9-0.3,5.7
			C16.1,100.5,16.4,100.6,16.6,100.5z"/>
		<path class="st9" d="M7.4,77.8c1.1-0.4,2.3-0.6,3.5-0.7c0.4,0,0.9-0.1,1.3-0.1c1.4-0.1,2.8,0,4.2,0.3c0.4,0.1,0.8,0.2,1.2,0.3
			c1,0.2,1.9,0.6,2.8,0.9c0.8,0.3,1.5,0.7,2.3,1.1c0.4,0.2,0.8,0.4,1.1,0.7c1.5,0.9,2.8,2,3.9,3.3c0.3,0.3,0.6,0.7,0.9,1
			c0.6,0.8,1.1,1.6,1.6,2.5C40,75.7,46.7,62,49.7,47.3c-7.2,0-14.3-0.9-21.2-2.8L27.2,44c-1.7-0.5-3.3-1-5-1.6
			c-0.4-0.1-0.8-0.3-1.2-0.5c-2-0.8-4-1.6-6-2.5C9.6,51.2,7.3,64.8,7.4,77.8z"/>
		<path class="st8" d="M27.7,83.5c0.3,0.3,0.6,0.7,0.9,1c0.6-1,1.3-2.1,1.9-3.2c3-5.2,5.7-10.5,8-16c2.4-5.5,4.5-11.2,6.4-16.9
			c0.2-0.4,0.1-0.8-0.3-1c-0.3-0.1-0.7,0-0.8,0.3l0,0c-1.1,3.2-2.2,6.4-3.4,9.5c-2.1,5.6-4.5,11.1-7.2,16.4
			C31.5,77.1,29.6,80.4,27.7,83.5z"/>
		<path class="st8" d="M22.7,79.6c0.4,0.2,0.8,0.4,1.1,0.7l5.7-14.8l6.8-17.6c0.3-0.9-0.8-1.5-1.1-0.6l-3.8,9.9l-6.8,17.6
			C24,76.3,23.3,77.9,22.7,79.6z"/>
		<path class="st8" d="M16.4,77.2c0.4,0.1,0.8,0.2,1.2,0.3c1.5-5.5,3.2-11,4.9-16.5c1.8-5.6,3.8-11.2,5.8-16.7L27.2,44
			c-1,2.8-2,5.5-3,8.3c-2.2,6.3-4.2,12.6-6.1,19C17.5,73.2,16.9,75.2,16.4,77.2z"/>
		<path class="st8" d="M10.9,77.1c0.4,0,0.9-0.1,1.3-0.1c0.9-6.8,2.3-13.6,4.3-20.2c1.5-5,3.4-9.8,5.8-14.4
			c-0.4-0.1-0.8-0.3-1.2-0.5c-0.8,1.6-1.5,3.1-2.2,4.7c-3.1,7.4-5.4,15.2-6.8,23.1C11.6,72.2,11.2,74.6,10.9,77.1z"/>
		<path class="st3" d="M30.1,87.8c-0.2,0-0.4-0.2-0.6-0.4c-2.1-3.7-5.4-6.6-9.4-8.2c-4-1.7-8.4-1.9-12.6-0.6c-0.2,0.1-0.5,0-0.6-0.1
			c-0.2-0.2-0.3-0.4-0.3-0.7C6.5,63.6,9.1,50.2,14.3,39c0.1-0.4,0.6-0.6,1-0.4l0,0c10.8,5.1,22.5,7.7,34.4,7.7
			c0.2,0,0.5,0.1,0.6,0.3s0.2,0.5,0.1,0.7C47.3,62.2,40.5,76,30.7,87.6c-0.1,0.1-0.3,0.2-0.4,0.3L30.1,87.8z M15.3,40.6
			C10.6,51,8.2,63.5,8.1,76.7c4.2-1.1,8.6-0.8,12.6,0.9c4,1.6,7.3,4.4,9.6,8C39.4,74.7,45.7,61.9,48.7,48
			C37.1,47.9,25.8,45.4,15.3,40.6z"/>
		<circle class="st12" cx="42" cy="104.3" r="16.5"/>
		<path class="st13" d="M82.3,94.5c-2.1-0.3-3.9,0.2-4,1.2s1.4,2.1,3.5,2.4s3.9-0.2,4.1-1.2S84.4,94.8,82.3,94.5z"/>
		<path class="st3" d="M92.7,63.4c2.2-1.8,5-2.6,7.9-2.2c1.4,0.3,2.7,0.8,4,1.4c1.8,0.8,3.6,1.7,5.2,2.7c0.7,0.4,1.5,1.4,0.4,2
			s-2.4,0.2-3.4,0.1c-1.3-0.1-2.7-0.2-4-0.4c-2.7-0.3-5.4-0.8-8.1-1.3C94,65.6,91.2,64.6,92.7,63.4z"/>
		<path class="st3" d="M75,62.5c-1.8-2.2-4.5-3.5-7.3-3.5c-1.4,0.1-2.8,0.3-4.2,0.7c-1.9,0.5-3.8,1.1-5.6,1.7
			c-0.8,0.3-1.7,1.2-0.8,1.9c0.9,0.7,2.3,0.6,3.3,0.7c1.3,0.1,2.7,0.2,4,0.3c2.7,0.2,5.4,0.2,8.2,0.1C73.4,64.4,76.3,63.9,75,62.5z"
			/>
		<circle class="st14" cx="66" cy="84.1" r="12.3"/>
		<g>
			<g>
				<defs>
					<path id="SVGID_00000029046779829043001930000009708436893732701102_" d="M71.3,87.1c-0.3,4.4-4.2,7.8-8.7,7.4
						c-4.1-0.3-7.3-3.7-7.4-7.8l5-0.5l-4.9-1.1c0.8-4.4,5-7.3,9.3-6.6C68.7,79.3,71.6,83,71.3,87.1L71.3,87.1z"/>
				</defs>
				<clipPath id="SVGID_00000024691167760162706280000003052717250519707291_">
					<use xlink:href="#SVGID_00000029046779829043001930000009708436893732701102_"  style="overflow:visible;"/>
				</clipPath>
				<g style="clip-path:url(#SVGID_00000024691167760162706280000003052717250519707291_);">
					<polygon class="st16" points="55.2,94.8 55.6,94.9 55.2,94.9 					"/>
					<polygon class="st17" points="55.2,94.7 56.2,94.9 55.6,94.9 55.2,94.8 					"/>
					<polygon class="st18" points="55.2,94.6 56.8,94.9 56.2,94.9 55.2,94.7 					"/>
					<polygon class="st19" points="55.2,94.4 57.3,94.9 56.8,94.9 55.2,94.6 					"/>
					<polygon class="st20" points="55.2,94.3 57.9,94.9 57.3,94.9 55.2,94.4 					"/>
					<polygon class="st21" points="55.2,94.2 58.5,94.9 57.9,94.9 55.2,94.3 					"/>
					<polygon class="st22" points="55.2,94.1 59.1,94.9 58.5,94.9 55.2,94.2 					"/>
					<polygon class="st23" points="55.2,93.9 59.7,94.9 59.1,94.9 55.2,94.1 					"/>
					<polygon class="st24" points="55.2,93.8 60.3,94.9 59.7,94.9 55.2,93.9 					"/>
					<polygon class="st25" points="55.2,93.7 60.9,94.9 60.3,94.9 55.2,93.8 					"/>
					<polygon class="st26" points="55.2,93.6 61.5,94.9 60.9,94.9 55.2,93.7 					"/>
					<polygon class="st27" points="55.2,93.4 62.1,94.9 61.5,94.9 55.2,93.6 					"/>
					<polygon class="st28" points="55.2,93.3 62.7,94.9 62.1,94.9 55.2,93.4 					"/>
					<polygon class="st29" points="55.2,93.2 63.3,94.9 62.7,94.9 55.2,93.3 					"/>
					<polygon class="st30" points="55.2,93.1 63.9,94.9 63.3,94.9 55.2,93.2 					"/>
					<polygon class="st31" points="55.2,92.9 64.5,94.9 63.9,94.9 55.2,93.1 					"/>
					<polygon class="st32" points="55.2,92.8 65.1,94.9 64.5,94.9 55.2,92.9 					"/>
					<polygon class="st33" points="55.2,92.7 65.7,94.9 65.1,94.9 55.2,92.8 					"/>
					<polygon class="st34" points="55.2,92.6 66.2,94.9 65.7,94.9 55.2,92.7 					"/>
					<polygon class="st35" points="55.2,92.4 66.8,94.9 66.2,94.9 55.2,92.6 					"/>
					<polygon class="st36" points="55.2,92.3 67.4,94.9 66.8,94.9 55.2,92.4 					"/>
					<polygon class="st37" points="55.2,92.2 68,94.9 67.4,94.9 55.2,92.3 					"/>
					<polygon class="st38" points="55.2,92.1 68.6,94.9 68,94.9 55.2,92.2 					"/>
					<polygon class="st39" points="55.2,91.9 69.2,94.9 68.6,94.9 55.2,92.1 					"/>
					<polygon class="st40" points="55.2,91.8 69.8,94.9 69.2,94.9 55.2,91.9 					"/>
					<polygon class="st41" points="55.2,91.7 70.4,94.9 69.8,94.9 55.2,91.8 					"/>
					<polygon class="st42" points="55.2,91.6 70.7,94.8 70.7,94.9 70.4,94.9 55.2,91.7 					"/>
					<polygon class="st43" points="55.2,91.4 70.8,94.7 70.7,94.8 55.2,91.6 					"/>
					<polygon class="st44" points="55.2,91.3 70.8,94.6 70.8,94.7 55.2,91.4 					"/>
					<polygon class="st45" points="55.2,91.2 70.8,94.5 70.8,94.6 55.2,91.3 					"/>
					<polygon class="st46" points="55.2,91.1 70.8,94.4 70.8,94.5 55.2,91.2 					"/>
					<polygon class="st47" points="55.2,90.9 70.9,94.2 70.8,94.4 55.2,91.1 					"/>
					<polygon class="st48" points="55.2,90.8 70.9,94.1 70.9,94.2 55.2,90.9 					"/>
					<polygon class="st49" points="55.2,90.7 70.9,94 70.9,94.1 55.2,90.8 					"/>
					<polygon class="st50" points="55.2,90.6 70.9,93.9 70.9,94 55.2,90.7 					"/>
					<polygon class="st51" points="55.2,90.4 71,93.8 70.9,93.9 55.2,90.6 					"/>
					<polygon class="st52" points="55.2,90.3 71,93.7 71,93.8 55.2,90.4 					"/>
					<polygon class="st53" points="55.2,90.2 71,93.5 71,93.7 55.2,90.3 					"/>
					<polygon class="st54" points="55.2,90.1 71,93.4 71,93.5 55.2,90.2 					"/>
					<polygon class="st55" points="55.2,89.9 71.1,93.3 71,93.4 55.2,90.1 					"/>
					<polygon class="st56" points="55.2,89.8 71.1,93.2 71.1,93.3 55.2,89.9 					"/>
					<polygon class="st57" points="55.2,89.7 71.1,93.1 71.1,93.2 55.2,89.8 					"/>
					<polygon class="st58" points="55.2,89.6 71.1,92.9 71.1,93.1 55.2,89.7 					"/>
					<polygon class="st59" points="55.2,89.4 71.2,92.8 71.1,92.9 55.2,89.6 					"/>
					<polygon class="st60" points="55.2,89.3 71.2,92.7 71.2,92.8 55.2,89.4 					"/>
					<polygon class="st61" points="55.2,89.2 71.2,92.6 71.2,92.7 55.2,89.3 					"/>
					<polygon class="st62" points="55.2,89.1 71.2,92.5 71.2,92.6 55.2,89.2 					"/>
					<polygon class="st63" points="55.2,88.9 71.3,92.3 71.2,92.5 55.2,89.1 					"/>
					<polygon class="st64" points="55.2,88.8 71.3,92.2 71.3,92.3 55.2,88.9 					"/>
					<polygon class="st65" points="55.2,88.7 71.3,92.1 71.3,92.2 55.2,88.8 					"/>
					<polygon class="st66" points="55.2,88.6 71.3,92 71.3,92.1 55.2,88.7 					"/>
					<polygon class="st67" points="55.2,88.4 71.4,91.9 71.3,92 55.2,88.6 					"/>
					<polygon class="st68" points="55.2,88.3 71.4,91.7 71.4,91.9 55.2,88.4 					"/>
					<polygon class="st69" points="55.2,88.2 71.4,91.6 71.4,91.7 55.2,88.3 					"/>
					<polygon class="st70" points="55.2,88.1 71.4,91.5 71.4,91.6 55.2,88.2 					"/>
					<polygon class="st71" points="55.2,87.9 71.5,91.4 71.4,91.5 55.2,88.1 					"/>
					<polygon class="st72" points="55.2,87.8 71.5,91.3 71.5,91.4 55.2,87.9 					"/>
					<polygon class="st73" points="55.2,87.7 71.5,91.1 71.5,91.3 55.2,87.8 					"/>
					<polygon class="st74" points="55.2,87.6 71.5,91 71.5,91.1 55.2,87.7 					"/>
					<polygon class="st75" points="55.2,87.4 71.6,90.9 71.5,91 55.2,87.6 					"/>
					<polygon class="st76" points="55.2,87.3 71.6,90.8 71.6,90.9 55.2,87.4 					"/>
					<polygon class="st77" points="55.2,87.2 71.6,90.7 71.6,90.7 71.6,90.8 55.2,87.3 					"/>
					<polygon class="st78" points="55.2,87.1 71.6,90.5 71.6,90.7 55.2,87.2 					"/>
					<polygon class="st79" points="55.2,86.9 71.6,90.4 71.6,90.5 55.2,87.1 					"/>
					<polygon class="st80" points="55.2,86.8 71.6,90.3 71.6,90.4 55.2,86.9 					"/>
					<polygon class="st81" points="55.2,86.7 71.6,90.2 71.6,90.3 55.2,86.8 					"/>
					<polygon class="st82" points="55.2,86.6 71.6,90 71.6,90.2 55.2,86.7 					"/>
					<polygon class="st83" points="55.2,86.4 71.6,89.9 71.6,90 55.2,86.6 					"/>
					<polygon class="st84" points="55.2,86.3 71.6,89.8 71.6,89.9 55.2,86.4 					"/>
					<polygon class="st85" points="55.2,86.2 71.6,89.7 71.6,89.8 55.2,86.3 					"/>
					<polygon class="st86" points="55.2,86.1 71.6,89.5 71.6,89.7 55.2,86.2 					"/>
					<polygon class="st87" points="55.2,85.9 71.6,89.4 71.6,89.5 55.2,86.1 					"/>
					<polygon class="st88" points="55.2,85.8 71.6,89.3 71.6,89.4 55.2,85.9 					"/>
					<polygon class="st89" points="55.2,85.7 71.6,89.2 71.6,89.3 55.2,85.8 					"/>
					<polygon class="st90" points="55.2,85.6 71.6,89 71.6,89.2 55.2,85.7 					"/>
					<polygon class="st91" points="55.2,85.4 71.6,88.9 71.6,89 55.2,85.6 					"/>
					<polygon class="st92" points="55.2,85.3 71.6,88.8 71.6,88.9 55.2,85.4 					"/>
					<polygon class="st93" points="55.2,85.2 71.6,88.7 71.6,88.8 55.2,85.3 					"/>
					<polygon class="st94" points="55.2,85.1 71.6,88.5 71.6,88.7 55.2,85.2 					"/>
					<polygon class="st95" points="55.2,84.9 71.6,88.4 71.6,88.5 55.2,85.1 					"/>
					<polygon class="st96" points="55.2,84.8 71.6,88.3 71.6,88.4 55.2,84.9 					"/>
					<polygon class="st97" points="55.2,84.7 71.6,88.2 71.6,88.3 55.2,84.8 					"/>
					<polygon class="st98" points="55.2,84.6 71.6,88 71.6,88.2 55.2,84.7 					"/>
					<polygon class="st99" points="55.2,84.4 71.6,87.9 71.6,88 55.2,84.6 					"/>
					<polygon class="st100" points="55.2,84.3 71.6,87.8 71.6,87.9 55.2,84.4 					"/>
					<polygon class="st101" points="55.2,84.2 71.6,87.7 71.6,87.8 55.2,84.3 					"/>
					<polygon class="st102" points="55.2,84.1 71.6,87.5 71.6,87.7 55.2,84.2 					"/>
					<polygon class="st103" points="55.2,83.9 71.6,87.4 71.6,87.5 55.2,84.1 					"/>
					<polygon class="st104" points="55.2,83.8 71.6,87.3 71.6,87.4 55.2,83.9 					"/>
					<polygon class="st105" points="55.2,83.7 71.6,87.2 71.6,87.3 55.2,83.8 					"/>
					<polygon class="st106" points="55.2,83.6 71.6,87 71.6,87.2 55.2,83.7 					"/>
					<polygon class="st107" points="55.2,83.4 71.6,86.9 71.6,87 55.2,83.6 					"/>
					<polygon class="st108" points="55.2,83.3 71.6,86.8 71.6,86.9 55.2,83.4 					"/>
					<polygon class="st109" points="55.2,83.2 71.6,86.7 71.6,86.8 55.2,83.3 					"/>
					<polygon class="st110" points="55.2,83.1 71.6,86.5 71.6,86.7 55.2,83.2 					"/>
					<polygon class="st111" points="55.2,82.9 71.6,86.4 71.6,86.5 55.2,83.1 					"/>
					<polygon class="st112" points="55.2,82.8 71.6,86.3 71.6,86.4 55.2,82.9 					"/>
					<polygon class="st113" points="55.2,82.7 71.6,86.2 71.6,86.3 55.2,82.8 					"/>
					<polygon class="st114" points="55.2,82.6 55.2,82.6 71.6,86 71.6,86.2 55.2,82.7 					"/>
					<polygon class="st115" points="55.2,82.6 55.2,82.5 71.6,85.9 71.6,86 					"/>
					<polygon class="st116" points="55.2,82.5 55.2,82.3 71.6,85.8 71.6,85.9 					"/>
					<polygon class="st117" points="55.2,82.3 55.2,82.2 71.6,85.7 71.6,85.8 					"/>
					<polygon class="st118" points="55.2,82.2 55.3,82.1 71.6,85.5 71.6,85.7 					"/>
					<polygon class="st119" points="55.3,82.1 55.3,82 71.6,85.4 71.6,85.5 					"/>
					<polygon class="st119" points="55.3,82 55.3,81.9 71.6,85.3 71.6,85.4 					"/>
					<polygon class="st120" points="55.3,81.9 55.3,81.7 71.6,85.2 71.6,85.3 					"/>
					<polygon class="st121" points="55.3,81.7 55.4,81.6 71.6,85 71.6,85.2 					"/>
					<polygon class="st122" points="55.4,81.6 55.4,81.5 71.6,84.9 71.6,85 					"/>
					<polygon class="st122" points="55.4,81.5 55.4,81.4 71.6,84.8 71.6,84.9 					"/>
					<polygon class="st123" points="55.4,81.4 55.5,81.3 71.6,84.7 71.6,84.8 					"/>
					<polygon class="st124" points="55.5,81.3 55.5,81.2 71.6,84.5 71.6,84.7 					"/>
					<polygon class="st125" points="55.5,81.2 55.5,81 71.6,84.4 71.6,84.5 					"/>
					<polygon class="st126" points="55.5,81 55.5,80.9 71.6,84.3 71.6,84.4 					"/>
					<polygon class="st127" points="55.5,80.9 55.6,80.8 71.6,84.2 71.6,84.3 					"/>
					<polygon class="st128" points="55.6,80.8 55.6,80.7 71.6,84 71.6,84.2 					"/>
					<polygon class="st129" points="55.6,80.7 55.6,80.6 71.6,83.9 71.6,84 					"/>
					<polygon class="st130" points="55.6,80.6 55.6,80.4 71.6,83.8 71.6,83.9 					"/>
					<polygon class="st131" points="55.6,80.4 55.7,80.3 71.6,83.7 71.6,83.8 					"/>
					<polygon class="st132" points="55.7,80.3 55.7,80.2 71.6,83.5 71.6,83.7 					"/>
					<polygon class="st133" points="55.7,80.2 55.7,80.1 71.6,83.4 71.6,83.5 					"/>
					<polygon class="st134" points="55.7,80.1 55.7,79.9 71.6,83.3 71.6,83.4 					"/>
					<polygon class="st134" points="55.7,79.9 55.8,79.8 71.6,83.2 71.6,83.3 					"/>
					<polygon class="st135" points="55.8,79.8 55.8,79.7 71.6,83 71.6,83.2 					"/>
					<polygon class="st136" points="55.8,79.7 55.8,79.6 71.6,82.9 71.6,83 					"/>
					<polygon class="st137" points="55.8,79.6 55.8,79.5 71.6,82.8 71.6,82.9 					"/>
					<polygon class="st138" points="55.8,79.5 55.9,79.3 71.6,82.7 71.6,82.8 					"/>
					<polygon class="st139" points="55.9,79.3 55.9,79.2 71.6,82.5 71.6,82.7 					"/>
					<polygon class="st139" points="55.9,79.2 55.9,79.1 71.6,82.4 71.6,82.5 					"/>
					<polygon class="st140" points="55.9,79.1 55.9,79 71.6,82.3 71.6,82.4 					"/>
					<polygon class="st141" points="55.9,79 56,78.9 71.6,82.2 71.6,82.3 					"/>
					<polygon class="st142" points="56,78.9 56,78.8 71.6,82 71.6,82.2 					"/>
					<polygon class="st143" points="56,78.8 56,78.6 71.6,81.9 71.6,82 					"/>
					<polygon class="st144" points="56,78.6 56,78.5 71.6,81.8 71.6,81.9 					"/>
					<polygon class="st145" points="56,78.5 56.1,78.4 71.6,81.7 71.6,81.8 					"/>
					<polygon class="st145" points="56.1,78.4 56.1,78.3 71.6,81.5 71.6,81.7 					"/>
					<polygon class="st145" points="56.1,78.3 56.1,78.2 56.2,78.2 71.6,81.4 71.6,81.5 					"/>
					<polygon class="st145" points="71.6,81.4 56.2,78.2 71.6,78.2 					"/>
				</g>
			</g>
		</g>
		<path class="st14" d="M59.3,90c0.8,0.1,1.4,0.8,1.3,1.6c-0.1,0.8-0.7,1.3-1.5,1.3c-0.8-0.1-1.4-0.8-1.3-1.6
			C57.9,90.5,58.6,90,59.3,90z"/>
		<circle class="st14" cx="100.7" cy="86.2" r="12.9"/>
		<g>
			<g>
				<defs>
					<path id="SVGID_00000177445230757088806000000010849471344941264016_" d="M105.7,89.4c-0.3,4.4-4.1,7.8-8.6,7.5
						c-4.2-0.3-7.4-3.7-7.5-7.9l5-0.5l-4.9-1.1c0.8-4.4,5-7.3,9.3-6.6C103.1,81.7,106,85.3,105.7,89.4L105.7,89.4z"/>
				</defs>
				<clipPath id="SVGID_00000173119417414872755310000013214911324745960638_">
					<use xlink:href="#SVGID_00000177445230757088806000000010849471344941264016_"  style="overflow:visible;"/>
				</clipPath>
				<g style="clip-path:url(#SVGID_00000173119417414872755310000013214911324745960638_);">
					<path class="st16" d="M89.6,97.2H90H89.6z"/>
					<polygon class="st17" points="89.6,97 90.6,97.2 90,97.2 89.6,97.2 					"/>
					<polygon class="st18" points="89.6,96.9 91.2,97.2 90.6,97.2 89.6,97 					"/>
					<polygon class="st19" points="89.6,96.8 91.8,97.2 91.2,97.2 89.6,96.9 					"/>
					<polygon class="st20" points="89.6,96.7 92.4,97.2 91.8,97.2 89.6,96.8 					"/>
					<polygon class="st21" points="89.6,96.5 92.9,97.2 92.4,97.2 89.6,96.7 					"/>
					<polygon class="st22" points="89.6,96.4 93.6,97.2 92.9,97.2 89.6,96.5 					"/>
					<polygon class="st23" points="89.6,96.3 94.1,97.2 93.6,97.2 89.6,96.4 					"/>
					<polygon class="st24" points="89.6,96.2 94.7,97.2 94.1,97.2 89.6,96.3 					"/>
					<polygon class="st25" points="89.6,96 95.3,97.2 94.7,97.2 89.6,96.2 					"/>
					<polygon class="st26" points="89.6,95.9 95.9,97.2 95.3,97.2 89.6,96 					"/>
					<polygon class="st27" points="89.6,95.8 96.5,97.2 95.9,97.2 89.6,95.9 					"/>
					<polygon class="st28" points="89.6,95.7 97.1,97.2 96.5,97.2 89.6,95.8 					"/>
					<polygon class="st29" points="89.6,95.5 97.7,97.2 97.1,97.2 89.6,95.7 					"/>
					<polygon class="st30" points="89.6,95.4 98.3,97.2 97.7,97.2 89.6,95.5 					"/>
					<polygon class="st31" points="89.6,95.3 98.9,97.2 98.3,97.2 89.6,95.4 					"/>
					<polygon class="st32" points="89.6,95.2 99.5,97.2 98.9,97.2 89.6,95.3 					"/>
					<polygon class="st33" points="89.6,95 100.1,97.2 99.5,97.2 89.6,95.2 					"/>
					<polygon class="st34" points="89.6,94.9 100.7,97.2 100.1,97.2 89.6,95 					"/>
					<polygon class="st35" points="89.6,94.8 101.3,97.2 100.7,97.2 89.6,94.9 					"/>
					<polygon class="st36" points="89.6,94.7 101.9,97.2 101.3,97.2 89.6,94.8 					"/>
					<polygon class="st37" points="89.6,94.5 102.5,97.2 101.9,97.2 89.6,94.7 					"/>
					<polygon class="st38" points="89.6,94.4 103.1,97.2 102.5,97.2 89.6,94.5 					"/>
					<polygon class="st39" points="89.6,94.3 103.7,97.2 103.1,97.2 89.6,94.4 					"/>
					<polygon class="st40" points="89.6,94.2 104.2,97.2 103.7,97.2 89.6,94.3 					"/>
					<polygon class="st41" points="89.6,94 104.8,97.2 104.2,97.2 89.6,94.2 					"/>
					<polygon class="st42" points="89.6,93.9 105.2,97.2 105.2,97.2 104.8,97.2 89.6,94 					"/>
					<polygon class="st43" points="89.6,93.8 105.2,97.1 105.2,97.2 89.6,93.9 					"/>
					<polygon class="st44" points="89.6,93.7 105.2,96.9 105.2,97.1 89.6,93.8 					"/>
					<polygon class="st45" points="89.6,93.5 105.2,96.8 105.2,96.9 89.6,93.7 					"/>
					<polygon class="st46" points="89.6,93.4 105.3,96.7 105.2,96.8 89.6,93.5 					"/>
					<polygon class="st47" points="89.6,93.3 105.3,96.6 105.3,96.7 89.6,93.4 					"/>
					<polygon class="st48" points="89.6,93.2 105.3,96.5 105.3,96.6 89.6,93.3 					"/>
					<polygon class="st49" points="89.6,93 105.3,96.3 105.3,96.5 89.6,93.2 					"/>
					<polygon class="st50" points="89.6,92.9 105.4,96.2 105.3,96.3 89.6,93 					"/>
					<polygon class="st51" points="89.6,92.8 105.4,96.1 105.4,96.2 89.6,92.9 					"/>
					<polygon class="st52" points="89.6,92.7 105.4,96 105.4,96.1 89.6,92.8 					"/>
					<polygon class="st53" points="89.6,92.5 105.4,95.9 105.4,96 89.6,92.7 					"/>
					<polygon class="st54" points="89.6,92.4 105.5,95.7 105.4,95.9 89.6,92.5 					"/>
					<polygon class="st55" points="89.6,92.3 105.5,95.6 105.5,95.7 89.6,92.4 					"/>
					<polygon class="st56" points="89.6,92.2 105.5,95.5 105.5,95.6 89.6,92.3 					"/>
					<polygon class="st57" points="89.6,92 105.5,95.4 105.5,95.5 89.6,92.2 					"/>
					<polygon class="st58" points="89.6,91.9 105.6,95.3 105.5,95.4 89.6,92 					"/>
					<polygon class="st59" points="89.6,91.8 105.6,95.1 105.6,95.3 89.6,91.9 					"/>
					<polygon class="st60" points="89.6,91.7 105.6,95 105.6,95.1 89.6,91.8 					"/>
					<polygon class="st61" points="89.6,91.5 105.6,94.9 105.6,95 89.6,91.7 					"/>
					<polygon class="st62" points="89.6,91.4 105.7,94.8 105.6,94.9 89.6,91.5 					"/>
					<polygon class="st63" points="89.6,91.3 105.7,94.7 105.7,94.8 89.6,91.4 					"/>
					<polygon class="st64" points="89.6,91.2 105.7,94.5 105.7,94.7 89.6,91.3 					"/>
					<polygon class="st65" points="89.6,91 105.7,94.4 105.7,94.5 89.6,91.2 					"/>
					<polygon class="st66" points="89.6,90.9 105.8,94.3 105.7,94.4 89.6,91 					"/>
					<polygon class="st67" points="89.6,90.8 105.8,94.2 105.8,94.3 89.6,90.9 					"/>
					<polygon class="st68" points="89.6,90.7 105.8,94.1 105.8,94.2 89.6,90.8 					"/>
					<polygon class="st69" points="89.6,90.5 105.8,93.9 105.8,94.1 89.6,90.7 					"/>
					<polygon class="st70" points="89.6,90.4 105.9,93.8 105.8,93.9 89.6,90.5 					"/>
					<polygon class="st71" points="89.6,90.3 105.9,93.7 105.9,93.8 89.6,90.4 					"/>
					<polygon class="st72" points="89.6,90.2 105.9,93.6 105.9,93.7 89.6,90.3 					"/>
					<polygon class="st73" points="89.6,90 105.9,93.5 105.9,93.6 89.6,90.2 					"/>
					<polygon class="st74" points="89.6,89.9 106,93.3 105.9,93.5 89.6,90 					"/>
					<polygon class="st75" points="89.6,89.8 106,93.2 106,93.3 89.6,89.9 					"/>
					<polygon class="st76" points="89.6,89.7 106,93.1 106,93.2 89.6,89.8 					"/>
					<polygon class="st77" points="89.6,89.5 106,93 106,93 106,93.1 89.6,89.7 					"/>
					<polygon class="st78" points="89.6,89.4 106,92.9 106,93 89.6,89.5 					"/>
					<polygon class="st79" points="89.6,89.3 106,92.7 106,92.9 89.6,89.4 					"/>
					<polygon class="st80" points="89.6,89.2 106,92.6 106,92.7 89.6,89.3 					"/>
					<polygon class="st81" points="89.6,89 106,92.5 106,92.6 89.6,89.2 					"/>
					<polygon class="st82" points="89.6,88.9 106,92.4 106,92.5 89.6,89 					"/>
					<polygon class="st83" points="89.6,88.8 106,92.2 106,92.4 89.6,88.9 					"/>
					<polygon class="st84" points="89.6,88.7 106,92.1 106,92.2 89.6,88.8 					"/>
					<polygon class="st85" points="89.6,88.5 106,92 106,92.1 89.6,88.7 					"/>
					<polygon class="st86" points="89.6,88.4 106,91.9 106,92 89.6,88.5 					"/>
					<polygon class="st87" points="89.6,88.3 106,91.7 106,91.9 89.6,88.4 					"/>
					<polygon class="st88" points="89.6,88.2 106,91.6 106,91.7 89.6,88.3 					"/>
					<polygon class="st89" points="89.6,88 106,91.5 106,91.6 89.6,88.2 					"/>
					<polygon class="st90" points="89.6,87.9 106,91.4 106,91.5 89.6,88 					"/>
					<polygon class="st91" points="89.6,87.8 106,91.2 106,91.4 89.6,87.9 					"/>
					<polygon class="st92" points="89.6,87.7 106,91.1 106,91.2 89.6,87.8 					"/>
					<polygon class="st93" points="89.6,87.5 106,91 106,91.1 89.6,87.7 					"/>
					<polygon class="st94" points="89.6,87.4 106,90.9 106,91 89.6,87.5 					"/>
					<polygon class="st95" points="89.6,87.3 106,90.7 106,90.9 89.6,87.4 					"/>
					<polygon class="st96" points="89.6,87.2 106,90.6 106,90.7 89.6,87.3 					"/>
					<polygon class="st97" points="89.6,87 106,90.5 106,90.6 89.6,87.2 					"/>
					<polygon class="st98" points="89.6,86.9 106,90.4 106,90.5 89.6,87 					"/>
					<polygon class="st99" points="89.6,86.8 106,90.2 106,90.4 89.6,86.9 					"/>
					<polygon class="st100" points="89.6,86.7 106,90.1 106,90.2 89.6,86.8 					"/>
					<polygon class="st101" points="89.6,86.5 106,90 106,90.1 89.6,86.7 					"/>
					<polygon class="st102" points="89.6,86.4 106,89.9 106,90 89.6,86.5 					"/>
					<polygon class="st103" points="89.6,86.3 106,89.7 106,89.9 89.6,86.4 					"/>
					<polygon class="st104" points="89.6,86.2 106,89.6 106,89.7 89.6,86.3 					"/>
					<polygon class="st105" points="89.6,86 106,89.5 106,89.6 89.6,86.2 					"/>
					<polygon class="st106" points="89.6,85.9 106,89.4 106,89.5 89.6,86 					"/>
					<polygon class="st107" points="89.6,85.8 106,89.2 106,89.4 89.6,85.9 					"/>
					<polygon class="st108" points="89.6,85.7 106,89.1 106,89.2 89.6,85.8 					"/>
					<polygon class="st109" points="89.6,85.5 106,89 106,89.1 89.6,85.7 					"/>
					<polygon class="st110" points="89.6,85.4 106,88.9 106,89 89.6,85.5 					"/>
					<polygon class="st111" points="89.6,85.3 106,88.7 106,88.9 89.6,85.4 					"/>
					<polygon class="st112" points="89.6,85.2 106,88.6 106,88.7 89.6,85.3 					"/>
					<polygon class="st113" points="89.6,85 106,88.5 106,88.6 89.6,85.2 					"/>
					<polygon class="st114" points="89.6,84.9 89.6,84.9 106,88.4 106,88.5 89.6,85 					"/>
					<polygon class="st115" points="89.6,84.9 89.6,84.8 106,88.2 106,88.4 					"/>
					<polygon class="st116" points="89.6,84.8 89.7,84.7 106,88.1 106,88.2 					"/>
					<polygon class="st117" points="89.7,84.7 89.7,84.6 106,88 106,88.1 					"/>
					<polygon class="st118" points="89.7,84.6 89.7,84.4 106,87.9 106,88 					"/>
					<polygon class="st119" points="89.7,84.4 89.7,84.3 106,87.7 106,87.9 					"/>
					<polygon class="st119" points="89.7,84.3 89.8,84.2 106,87.6 106,87.7 					"/>
					<polygon class="st120" points="89.8,84.2 89.8,84.1 106,87.5 106,87.6 					"/>
					<polygon class="st121" points="89.8,84.1 89.8,83.9 106,87.4 106,87.5 					"/>
					<polygon class="st122" points="89.8,83.9 89.8,83.8 106,87.2 106,87.4 					"/>
					<polygon class="st122" points="89.8,83.8 89.8,83.7 106,87.1 106,87.2 					"/>
					<polygon class="st123" points="89.8,83.7 89.9,83.6 106,87 106,87.1 					"/>
					<polygon class="st124" points="89.9,83.6 89.9,83.5 106,86.9 106,87 					"/>
					<polygon class="st125" points="89.9,83.5 89.9,83.3 106,86.7 106,86.9 					"/>
					<polygon class="st126" points="89.9,83.3 89.9,83.2 106,86.6 106,86.7 					"/>
					<polygon class="st127" points="89.9,83.2 90,83.1 106,86.5 106,86.6 					"/>
					<polygon class="st128" points="90,83.1 90,83 106,86.4 106,86.5 					"/>
					<polygon class="st129" points="90,83 90,82.9 106,86.2 106,86.4 					"/>
					<polygon class="st130" points="90,82.9 90.1,82.8 106,86.1 106,86.2 					"/>
					<polygon class="st131" points="90.1,82.8 90.1,82.6 106,86 106,86.1 					"/>
					<polygon class="st132" points="90.1,82.6 90.1,82.5 106,85.9 106,86 					"/>
					<polygon class="st133" points="90.1,82.5 90.1,82.4 106,85.7 106,85.9 					"/>
					<polygon class="st134" points="90.1,82.4 90.2,82.3 106,85.6 106,85.7 					"/>
					<polygon class="st134" points="90.2,82.3 90.2,82.2 106,85.5 106,85.6 					"/>
					<polygon class="st135" points="90.2,82.2 90.2,82 106,85.4 106,85.5 					"/>
					<polygon class="st136" points="90.2,82 90.2,81.9 106,85.2 106,85.4 					"/>
					<polygon class="st137" points="90.2,81.9 90.3,81.8 106,85.1 106,85.2 					"/>
					<polygon class="st138" points="90.3,81.8 90.3,81.7 106,85 106,85.1 					"/>
					<polygon class="st139" points="90.3,81.7 90.3,81.6 106,84.9 106,85 					"/>
					<polygon class="st139" points="90.3,81.6 90.3,81.4 106,84.7 106,84.9 					"/>
					<polygon class="st140" points="90.3,81.4 90.4,81.3 106,84.6 106,84.7 					"/>
					<polygon class="st141" points="90.4,81.3 90.4,81.2 106,84.5 106,84.6 					"/>
					<polygon class="st142" points="90.4,81.2 90.4,81.1 106,84.4 106,84.5 					"/>
					<polygon class="st143" points="90.4,81.1 90.4,81 106,84.2 106,84.4 					"/>
					<polygon class="st144" points="90.4,81 90.5,80.8 106,84.1 106,84.2 					"/>
					<polygon class="st145" points="90.5,80.8 90.5,80.7 106,84 106,84.1 					"/>
					<polygon class="st145" points="90.5,80.7 90.5,80.6 106,83.9 106,84 					"/>
					<polygon class="st145" points="90.5,80.6 90.5,80.5 90.6,80.5 106,83.7 106,83.9 					"/>
					<polygon class="st145" points="106,83.7 90.6,80.5 106,80.5 					"/>
				</g>
			</g>
		</g>
		<path class="st14" d="M93.8,92.3c0.8,0.1,1.4,0.8,1.4,1.6c-0.1,0.8-0.8,1.4-1.6,1.4s-1.4-0.8-1.4-1.6C92.3,92.9,93,92.3,93.8,92.3
			z"/>
		<path class="st147" d="M19.8,40.3c-0.7,2.4-0.8,5-0.2,7.5c0.9,5.9,5.7,9.8,11.3,8.4c2.9-0.8,5.6-2.4,7.7-4.6
			c2.1-2,3.2-5.3,3.9-8.3c0,5.3,2.5,10.2,6.7,13.4c9,6.2,22.8,0.5,24.5-11c0.6,4.7,2.7,9.2,6.1,12.5c3.2,3.1,7.7,4.2,11.9,3.1
			c4.1-1.2,7-5.9,8.1-10.8c1,4.2,3.4,7.8,6.9,10.3c3.6,2.5,8.9,3.4,13,1.6c5.6-2.5,5.7-9.9,1.8-14.1c2.1,0.1,4.2-0.3,6-1.4
			c4.8-3.1,5.9-9.9,3.8-15.2c-0.9-2.3-2.5-4.3-4.5-5.8c-3.8-2.8-8.9-3-12.6,1.4c0.4-2,0.4-4-0.1-6c-0.9-4.2-3.4-8.3-7.3-10.1
			c-2.3-1.1-5-1.1-7.3-0.1c-3.1,1.4-5.1,4.6-6.8,7.7C92,12.6,88.4,5.9,82.1,5.1c-2.8-0.3-5.7,0.5-8,2.2c-1.5,1-5.2,4.1-5.2,6.1
			c0-9.2-9.9-14.3-17.6-12C49.6,2,47.9,2.8,46.4,4c-4.6,3.5-7,9.2-6.2,14.9c-0.8-2.1-2.8-3.8-4.3-5.2c-4.1-3.8-10-3.7-13.5,1.1
			c-2.6,3.5-3,8.6-1.5,12.8c-2-2.8-5.4-4.3-8.8-4c-3.8,0.1-7,2.9-7.6,6.6C2.9,39.8,13,42.8,19.8,40.3z"/>
		<path class="st9" d="M19.8,40.3c-0.7,2.4-0.8,5-0.2,7.5c0.9,5.9,5.7,9.8,11.3,8.4c2.9-0.8,5.6-2.4,7.7-4.6c2.1-2,3.2-5.3,3.9-8.3
			c0,5.3,2.5,10.2,6.7,13.4c9,6.2,22.8,0.5,24.5-11c0.6,4.7,2.7,9.2,6.1,12.5c3.2,3.1,7.7,4.2,11.9,3.1c4.1-1.2,7-5.9,8.1-10.8
			c1,4.2,3.4,7.8,6.9,10.3c3.6,2.5,8.9,3.4,13,1.6c5.6-2.5,5.7-9.9,1.8-14.1c2.1,0.1,4.2-0.3,6-1.4c4.8-3.1,5.9-9.9,3.8-15.2
			c-0.9-2.3-2.5-4.3-4.5-5.8c0.1,0.6,0.1,1.2,0.1,1.7c-0.1,3.4-1.5,7-4.3,8.8s-6.8,1.4-8.7-1.3c0.7,2.4,1,5,0.8,7.5
			c-0.1,0.9-0.3,1.8-0.8,2.7c-1.1,1.7-3.1,2.4-5,1.9c-1.8-0.6-3.4-1.9-4.3-3.6c-0.9-1.7-1.6-3.6-2.1-5.5c-1.2,4-3.5,7.6-6.7,10.3
			s-7.7,3.9-11.4,2.3c-2.9-1.4-5.1-3.9-6.2-6.9c-1.1-3.1-1.8-6.3-2.1-9.5c-1.4,3.9-3.6,7.5-6.4,10.6c-2.6,2.9-6.1,4.8-9.9,5.4
			c-3.9,0.5-7.7-1.1-10.1-4.1c-1.3-1.8-2.2-3.9-2.7-6.2c-0.9-3.6-1.3-7.2-1.4-10.9c-0.5,3.1-2.8,6.7-5.1,8.7s-5.3,3.1-8.4,3
			c-0.9,0-1.8-0.2-2.5-0.7c-0.5-0.4-0.9-1-1.2-1.6c-1.3-2.7-1.4-5.8-0.2-8.5c-0.7,1.5-2.2,2.4-3.8,2.4c-1.7,0-3.4-0.3-4.9-1.1
			c-2.4-0.8-4.5-2.3-6.1-4.4c-0.6-1-1.1-2.1-1.3-3.3c-3.8,0.1-7,2.9-7.6,6.6C2.9,39.8,13,42.8,19.8,40.3z"/>
		<path class="st3" d="M114.9,64.3c-3.1,0-6.1-0.9-8.7-2.7c-2.9-2.1-5.1-4.9-6.4-8.2c-1.4,3.8-4,7.5-7.9,8.7
			c-4.5,1.2-9.4,0-12.8-3.3c-2.7-2.6-4.6-5.9-5.6-9.5c-1.7,4.2-5,7.6-9.1,9.3c-5.1,2.3-11.1,1.9-15.8-1.3c-3.3-2.4-5.6-5.9-6.6-9.9
			c-0.6,1.8-1.6,3.4-2.9,4.8c-2.2,2.3-5,3.9-8.1,4.8c-2.6,0.7-5.4,0.2-7.7-1.3c-2.6-1.8-4.3-4.6-4.7-7.8c-0.4-2.1-0.5-4.2-0.1-6.3
			c-4.2,1-8.9,0.2-11.9-2.3c-1.8-1.5-3.8-4.4-3-9.2c0.6-3.6,3.3-6.4,6.9-7.1c3-0.6,6.2,0,8.7,1.8c-0.6-3.7,0.3-7.4,2.4-10.4
			c1.6-2.3,4.2-3.8,7-4.1c2.9-0.2,5.8,0.8,7.9,2.9l0.3,0.3c0.8,0.7,1.6,1.5,2.3,2.3c0.3-4.9,2.7-9.5,6.6-12.5L46.4,4l-0.5-0.7
			c1.6-1.2,3.3-2.1,5.2-2.7c4.6-1.3,9.5-0.4,13.3,2.4c2.5,1.8,4.3,4.5,5.1,7.5c1.2-1.4,2.7-2.7,4.2-3.8c2.5-1.8,5.6-2.6,8.6-2.3
			c5.9,0.8,9.6,6.4,11,12c1.5-2.5,3.4-4.8,6-6c2.6-1.1,5.5-1.1,8,0.1c3.7,1.7,6.6,5.7,7.7,10.7c0.3,1.3,0.4,2.6,0.4,3.9
			c2-1.6,4.6-2.3,7.1-1.9c4.1,0.6,7.9,3.9,9.7,8.3c2.1,5.2,1.4,12.7-4.1,16.2c-1.4,0.9-3.1,1.4-4.7,1.5c1.6,2.4,2.1,5.2,1.6,8
			c-0.5,2.7-2.3,4.9-4.8,6C118.5,63.9,116.7,64.3,114.9,64.3z M99.9,49.7c0.4,0,0.7,0.3,0.8,0.7c1,4,3.3,7.4,6.6,9.9
			c3.5,2.5,8.1,3.1,12.2,1.5c2-0.9,3.4-2.6,3.8-4.8c0.5-2.8-0.3-5.8-2.2-7.9c-0.3-0.3-0.3-0.9,0-1.2c0.2-0.2,0.4-0.3,0.7-0.2
			c1.9,0.1,3.8-0.3,5.5-1.2c4.7-3,5.3-9.6,3.4-14.2c-1.5-3.8-4.8-6.7-8.3-7.2c-2.8-0.4-5.6,0.7-7.3,3c-0.2,0.3-0.7,0.4-1,0.2
			c-0.4-0.2-0.6-0.6-0.5-1c0.4-1.9,0.3-3.8-0.1-5.7c-1-4.5-3.5-8-6.8-9.5c-2.1-1-4.6-1-6.7,0c-2.9,1.3-4.7,4.3-6.4,7.3
			c-0.2,0.4-0.8,0.5-1.2,0.3C92.2,19.5,92,19.3,92,19c-0.7-5.7-4-12.1-9.9-12.9c-2.6-0.3-5.3,0.5-7.5,2c-2,1.3-4.8,4-4.8,5.4l0,0
			c0,0.5-0.4,0.9-0.8,0.9l0,0l0,0c-0.5,0-0.9-0.4-0.9-0.9c0-3.6-1.8-7-4.8-9.1C60,1.9,55.6,1.1,51.6,2.2c-1.7,0.5-3.3,1.3-4.7,2.4
			c-4.4,3.3-6.6,8.7-5.8,14.1c0.1,0.5-0.2,0.9-0.7,1c-0.4,0.1-0.8-0.2-1-0.5c-0.7-1.8-2.4-3.3-3.7-4.5l-0.3-0.3
			c-1.7-1.7-4.1-2.6-6.5-2.4c-2.3,0.2-4.4,1.5-5.7,3.4c-2.4,3.5-2.9,8-1.4,11.9c0.2,0.4-0.1,0.9-0.5,1.1c-0.4,0.1-0.8,0-1-0.3
			c-2.1-2.9-5.7-4.3-9.2-3.5c-2.9,0.5-5.2,2.8-5.6,5.7c-0.6,3.2,0.3,5.9,2.4,7.6c2.8,2.3,7.7,3,11.6,1.6c0.3-0.1,0.6,0,0.9,0.2
			c0.2,0.2,0.3,0.5,0.3,0.9c-0.7,2.3-0.7,4.8-0.2,7.1c0.3,2.7,1.8,5.1,4,6.7c1.9,1.3,4.2,1.6,6.3,1.1c2.8-0.8,5.3-2.3,7.2-4.4
			c1.5-1.5,2.7-4,3.6-7.9c0.1-0.5,0.6-0.8,1-0.7s0.7,0.4,0.7,0.9c0,5,2.3,9.7,6.3,12.7c4.2,2.8,9.5,3.2,14.1,1.1
			c4.8-2,8.2-6.4,9.1-11.5c0.1-0.4,0.4-0.7,0.8-0.7l0,0c0.4,0,0.8,0.3,0.8,0.7c0.5,4.5,2.6,8.8,5.9,12c2.9,2.8,7.2,3.9,11.1,2.9
			c3.4-1,6.4-5,7.5-10.1C99.1,49.9,99.4,49.7,99.9,49.7L99.9,49.7z"/>
		<path class="st148" d="M88.6,110.3c-0.2,0.2-0.3,0.4-0.5,0.6s-0.3,0.3-0.5,0.5l-0.3,0.3l-0.3,0.2c-0.2,0.2-0.4,0.3-0.6,0.4
			c-0.9,0.6-1.8,1-2.8,1.3s-2,0.5-3,0.6s-2.1,0-3.1-0.2c-0.3,0-0.5-0.1-0.8-0.2c-0.2-0.1-0.5-0.1-0.8-0.2l-0.7-0.3
			c-0.2-0.1-0.5-0.2-0.7-0.3c-0.9-0.5-1.8-1.1-2.5-1.8c-1.5-1.4-2.6-3-3.5-4.8c1.4,1.3,2.8,2.5,4.3,3.7c0.7,0.5,1.5,1,2.4,1.3
			c0.8,0.4,1.7,0.7,2.6,0.8c0.9,0.2,1.8,0.3,2.7,0.3c0.9,0,1.8-0.1,2.7-0.2c0.9-0.2,1.8-0.4,2.7-0.7c0.2-0.1,0.4-0.2,0.7-0.3
			c0.1,0,0.2-0.1,0.3-0.1l0.3-0.2C87.8,110.8,88.2,110.6,88.6,110.3z"/>
		<path class="st3" d="M68,155.6c-0.3,0-0.5-0.2-0.6-0.4c-1.1-2.3-1.6-4.7-1.6-7.2c0-0.4,0.3-0.7,0.7-0.6c0.4,0,0.7,0.3,0.7,0.7l0,0
			c0,2.3,0.6,4.6,1.5,6.7c0.1,0.4,0,0.7-0.4,0.9C68.2,155.6,68.1,155.6,68,155.6z"/>
		<path class="st149" d="M69.8,187.5c0-0.1,0.1-0.1,0.2-0.1c1.4-0.8,2.8-1.4,4.3-1.9c1.4-0.5,3-1.2,4.5-1.1c0.7,0.1,1.4,0.3,2,0.6
			c0.7,0.3,1.3,0.4,2,0.7c1.2,0.5,2.1,0.9,2.3,2.6c0.1,0.8-0.3,1.6-1,2l-0.1,0.1c-2.5,0.9-5.4,0.6-8,0.6c-1.3,0-2.6-0.1-4-0.2
			c-0.6,0-1.2-0.1-1.7-0.3c-0.2-0.2-0.4-0.4-0.5-0.7c0-0.2-0.1-0.5-0.2-0.7c-0.4-0.4-0.3-1.1,0.1-1.4
			C69.7,187.6,69.7,187.5,69.8,187.5z"/>
		<path class="st3" d="M69.9,187.1L69.9,187.1c3-1.8,5.2-1.9,8.4-2.4l0,0c0.3,0-0.6-0.4-0.6-0.8s0.7-0.7,0.4-0.6
			c-3.3,0.5-5.6,1.7-8.6,3.5c-0.3,0.2-0.3,0.6-0.2,0.9C69.5,188,69.7,187.2,69.9,187.1z"/>
		<path class="st149" d="M51,188.5c0.1-0.1,0.1-0.1,0.2-0.1c1.4-0.8,2.8-1.4,4.3-1.9c1.4-0.5,3-1.2,4.5-1.1c0.7,0.1,1.4,0.3,2,0.6
			c0.7,0.3,1.3,0.4,2,0.7c0.9,0.2,1.6,0.8,2.1,1.6c0.3,0.7,0.3,1.5,0,2.2c-0.1,0.4-0.4,0.6-0.7,0.8l-0.1,0.1c-2.5,0.9-5.4,0.6-8,0.6
			c-1.3,0-2.6-0.1-4-0.2c-0.6,0-1.2-0.1-1.7-0.3c-0.2-0.2-0.4-0.4-0.5-0.7c0-0.1-0.1-0.6-0.2-0.7C50.4,189.6,50.5,188.9,51,188.5
			C50.9,188.6,51,188.5,51,188.5z"/>
		<path class="st3" d="M50.9,189.1L50.9,189.1c3-1.7,6.1-2.9,9.4-3.4h-1c0.3,0,0.4-0.4,0.4-0.8s-0.3-0.7-0.6-0.6
			c-3.3,0.5-5.6,1.7-8.6,3.5c-0.3,0.2-0.3,0.6-0.2,0.9C50.5,189,50.7,189.2,50.9,189.1z"/>
		<path class="st150" d="M67.7,110.3c0,0,9.5,5.6,21.1,3.2"/>
	</g>
</g>
</svg>
