<?xml version="1.0" encoding="utf-8"?>
<!-- Generator: Adobe Illustrator 25.4.1, SVG Export Plug-In . SVG Version: 6.00 Build 0)  -->
<svg version="1.1" id="Layer_1" xmlns="http://www.w3.org/2000/svg" xmlns:xlink="http://www.w3.org/1999/xlink" x="0px" y="0px"
	 viewBox="0 0 125.3 202.8" style="enable-background:new 0 0 125.3 202.8;" xml:space="preserve">
<style type="text/css">
	.st0{fill:#CDCCCC;}
	.st1{fill:#F6E2D8;}
	.st2{fill:#EFCAB9;}
	.st3{fill:#10495C;}
	.st4{fill:#20404D;}
	.st5{fill:#E8E8E4;}
	.st6{opacity:0.25;}
	.st7{fill:#1D1D1B;}
	.st8{opacity:0.25;fill:#1D1D1B;enable-background:new    ;}
	.st9{opacity:0.28;fill:#E8E8E4;enable-background:new    ;}
	.st10{fill:#2E2D2C;}
	.st11{opacity:0.5;}
	.st12{fill:#E2B9A3;}
	.st13{fill:#F9CCC6;}
	.st14{fill:#F0A39B;}
	.st15{fill:#3C3C3B;}
	.st16{fill:#FFFFFF;}
	.st17{clip-path:url(#SVGID_00000132065597699644273100000000232424760458585228_);}
	.st18{fill:#7CC39E;}
	.st19{fill:#7BC39D;}
	.st20{fill:#79C29E;}
	.st21{fill:#79C29D;}
	.st22{fill:#77C19C;}
	.st23{fill:#75C19C;}
	.st24{fill:#74C09B;}
	.st25{fill:#73C09C;}
	.st26{fill:#73C09B;}
	.st27{fill:#71C09B;}
	.st28{fill:#6EBF9B;}
	.st29{fill:#6DBE9B;}
	.st30{fill:#6ABE9A;}
	.st31{fill:#69BD9A;}
	.st32{fill:#67BD9A;}
	.st33{fill:#67BD99;}
	.st34{fill:#66BC98;}
	.st35{fill:#64BC98;}
	.st36{fill:#63BB98;}
	.st37{fill:#61BB98;}
	.st38{fill:#60BB97;}
	.st39{fill:#5EBA97;}
	.st40{fill:#5DBA96;}
	.st41{fill:#5BB996;}
	.st42{fill:#58B996;}
	.st43{fill:#56B895;}
	.st44{fill:#54B896;}
	.st45{fill:#53B795;}
	.st46{fill:#51B794;}
	.st47{fill:#50B594;}
	.st48{fill:#51B593;}
	.st49{fill:#4FB493;}
	.st50{fill:#4EB293;}
	.st51{fill:#4DB192;}
	.st52{fill:#4CAF91;}
	.st53{fill:#4DAF91;}
	.st54{fill:#4EAD91;}
	.st55{fill:#4DAC90;}
	.st56{fill:#4CAA8F;}
	.st57{fill:#4AAA8F;}
	.st58{fill:#49A88F;}
	.st59{fill:#4AA78E;}
	.st60{fill:#49A58D;}
	.st61{fill:#47A48C;}
	.st62{fill:#44A38B;}
	.st63{fill:#43A18B;}
	.st64{fill:#43A08A;}
	.st65{fill:#429F8A;}
	.st66{fill:#439E89;}
	.st67{fill:#419E89;}
	.st68{fill:#409B88;}
	.st69{fill:#3F9987;}
	.st70{fill:#3D9886;}
	.st71{fill:#3C9786;}
	.st72{fill:#3B9585;}
	.st73{fill:#3B9384;}
	.st74{fill:#3A9284;}
	.st75{fill:#3A9183;}
	.st76{fill:#399083;}
	.st77{fill:#398F82;}
	.st78{fill:#378E82;}
	.st79{fill:#388D81;}
	.st80{fill:#388D82;}
	.st81{fill:#368C80;}
	.st82{fill:#358A81;}
	.st83{fill:#338980;}
	.st84{fill:#338880;}
	.st85{fill:#32877F;}
	.st86{fill:#32857F;}
	.st87{fill:#31857E;}
	.st88{fill:#31847E;}
	.st89{fill:#31837D;}
	.st90{fill:#2F827D;}
	.st91{fill:#2E807C;}
	.st92{fill:#2C7F7C;}
	.st93{fill:#2C7E7B;}
	.st94{fill:#2C7D7B;}
	.st95{fill:#2B7C7A;}
	.st96{fill:#2B7B7A;}
	.st97{fill:#2C7A79;}
	.st98{fill:#297979;}
	.st99{fill:#2A7878;}
	.st100{fill:#2A7778;}
	.st101{fill:#287677;}
	.st102{fill:#277577;}
	.st103{fill:#277477;}
	.st104{fill:#257376;}
	.st105{fill:#257276;}
	.st106{fill:#237175;}
	.st107{fill:#247075;}
	.st108{fill:#247074;}
	.st109{fill:#216F74;}
	.st110{fill:#226E74;}
	.st111{fill:#206D73;}
	.st112{fill:#216C73;}
	.st113{fill:#226B72;}
	.st114{fill:#206A72;}
	.st115{fill:#216972;}
	.st116{fill:#1E6971;}
	.st117{fill:#1F6871;}
	.st118{fill:#206771;}
	.st119{fill:#1E6670;}
	.st120{fill:#1E6570;}
	.st121{fill:#1D646F;}
	.st122{fill:#1A636E;}
	.st123{fill:#1B626E;}
	.st124{fill:#1A616E;}
	.st125{fill:#18606D;}
	.st126{fill:#185F6C;}
	.st127{fill:#185E6C;}
	.st128{fill:#165D6C;}
	.st129{fill:#185C6C;}
	.st130{fill:#165C6A;}
	.st131{fill:#165B6A;}
	.st132{fill:#165A6B;}
	.st133{fill:#155969;}
	.st134{fill:#15586A;}
	.st135{fill:#145769;}
	.st136{fill:#145669;}
	.st137{fill:#145568;}
	.st138{fill:#135468;}
	.st139{fill:#115468;}
	.st140{fill:#135368;}
	.st141{fill:#125367;}
	.st142{fill:#135267;}
	.st143{clip-path:url(#SVGID_00000005245082343317541760000007082405835256036522_);}
</style>
<g id="Layer_2_00000133498239347756651240000007371420041784737975_">
	<g id="Layer_1-2">
		<ellipse class="st0" cx="54.6" cy="193.7" rx="54.6" ry="9.2"/>
		<path class="st1" d="M76.9,193.5c-1,1.7-11.1,0.8-15.4-1.6c-0.8-3.1-1.5-6.2-2-9.3c0-0.1,0-0.3-0.1-0.4c-0.8-4.4-3-10.1-3.1-13.4
			c3.8-0.4,8.3-2.1,12.1-2.5c0.6,4.8,2,7.1,2.4,12.4v0.4c0.2,3,0.5,4.6,0.8,8.6C74,188.3,77.8,189.6,76.9,193.5z"/>
		<path class="st2" d="M70.8,178.6c-1.2,0.7-2.5,1.3-3.8,1.8c-2.4,1-5,1.5-7.6,1.7c-0.8-4.4-3-10.1-3.1-13.4
			c3.8-0.4,8.3-2.1,12.1-2.5C68.9,171.1,70.3,173.3,70.8,178.6z"/>
		<path class="st3" d="M62.1,189.1c0.1,0,0.1-0.1,0.2-0.1c1.5-0.5,3-0.9,4.5-1.1c1.5-0.2,3.1-0.7,4.6-0.3c0.7,0.2,1.3,0.5,1.9,0.9
			s1.3,0.6,1.9,1c1.2,0.9,1.9,2.4,1.7,3.9c-0.1,0.8-0.7,1.1-1.1,0.8h-0.1c-2.6,0.4-5.4-0.2-8-0.7c-1.3-0.2-2.6-0.5-3.9-0.8
			c-0.6-0.1-1.1-0.3-1.6-0.6c-0.2-0.2-0.3-0.5-0.4-0.7c0-0.1,0-0.6,0-0.7c-0.3-0.4-0.2-1,0.2-1.3C62,189.2,62,189.2,62.1,189.1z"/>
		<path class="st4" d="M73.1,195.1c-1,0-1.9-0.1-2.7-0.1c-3.1-0.2-6.2-1-9.1-2.3c-0.2-0.1-0.3-0.3-0.3-0.5c0-0.1-2.8-13.9-5.2-23
			c-0.1-0.2-0.1-0.4,0-0.7c0.1-0.2,0.2-0.3,0.4-0.3c2-0.3,4-0.7,6-1.2s4-1,6.1-1.3c0.2,0,0.4,0.2,0.5,0.5c1.6,6.9,2.7,13.9,3.2,20.9
			c2.1,0.7,4.4,1.6,5.2,3.7c0.3,1,0.4,2,0.1,3c0,0.1-0.1,0.2-0.1,0.2C76.8,194.8,75,195.1,73.1,195.1z M61.9,191.3
			c2.7,1.2,5.6,1.9,8.5,2.1c3.6,0.4,5.6,0,6.1-0.4c0.1-0.5,0.1-1.1-0.1-1.6c-0.7-1.8-3.4-2.6-4.9-3.1c-0.2-0.1-0.4-0.4-0.4-0.7
			c-0.5-6.9-1.5-13.8-3.1-20.5c-1.9,0.3-3.8,0.7-5.7,1.2c-1.8,0.4-3.7,0.9-5.4,1.2C59.1,177.8,61.5,189.2,61.9,191.3z"/>
		<path class="st4" d="M61.1,190.1c-0.2,0-0.4-0.2-0.5-0.5s0-0.7,0.3-0.9c3.4-1.2,7-1.8,10.6-1.8l0,0c0.3,0,0.5,0.3,0.5,0.7
			s-0.2,0.7-0.5,0.7C68,188.3,64.5,188.9,61.1,190.1C61.2,190.1,61.1,190.1,61.1,190.1z"/>
		<path class="st1" d="M55.9,191.8c-4.3,2.4-14.5,3.3-15.4,1.6c-0.9-4,3-5.2,5.3-6c-1-2.4-1.9-5-2.8-7.9c-1-3.3-0.9-6.8-1.4-10.1
			c3.8,0.4,8.9,0.5,12.6,0.9c0,3.4,0.2,7.8,0.6,11.7C55.3,187.4,55.9,191.8,55.9,191.8z"/>
		<path class="st3" d="M55.3,189c-0.1-0.1-0.1-0.1-0.2-0.1c-1.5-0.5-3-0.9-4.5-1.1c-1.5-0.2-3.1-0.7-4.6-0.4
			c-0.7,0.2-1.3,0.5-1.9,0.9c-0.6,0.4-1.3,0.6-1.9,1c-1.2,0.9-1.9,2.4-1.7,3.9c0,0.9,0.7,1.1,1.1,0.8h0.1c2.6,0.5,5.4-0.2,8-0.7
			c1.3-0.2,2.6-0.5,3.9-0.9c0.6-0.1,1.1-0.3,1.6-0.6c0.2-0.2,0.3-0.5,0.4-0.8c0-0.1,0-0.6,0.1-0.7C56.1,189.9,55.9,189.3,55.3,189
			C55.4,189,55.4,189,55.3,189z"/>
		<path class="st2" d="M54.8,182.1c-4.1,0.2-8.2-0.7-11.8-2.5c-1-3.3-0.9-6.8-1.4-10.1c3.8,0.4,8.9,0.5,12.6,0.9
			C54.2,173.8,54.5,178.2,54.8,182.1z"/>
		<path class="st4" d="M44.2,195.1c-1.8,0-3.6-0.2-4.2-1.1c0-0.1-0.1-0.2-0.1-0.2c-0.3-1-0.2-2.1,0.2-3.1c0.8-2.1,3.2-3.1,4.9-3.6
			c-2.2-5.6-3-12-3.9-17.3c0-0.2,0-0.4,0.1-0.6c0.1-0.2,0.2-0.3,0.4-0.3c1.9,0.2,3.4,0.3,5.8,0.5s4.9,0.2,6.8,0.5
			c0.3,0,0.5,0.4,0.5,0.8c-0.1,7.7,1.7,21.1,1.7,21.3c0.1,0.3-0.1,0.6-0.3,0.8c-2.9,1.3-5.9,2.1-9.1,2.4
			C46.2,195,45.2,195.1,44.2,195.1z M40.9,193.1c0.4,0.4,2.5,0.8,6.1,0.4c2.9-0.2,5.7-0.9,8.4-2.1c-0.9-6.7-1.4-13.5-1.6-20.3
			c-1.8-0.2-4.1-0.3-6.3-0.4s-4.4-0.2-6.2-0.4c1.1,5.8,2.8,11.4,5,16.8c0.1,0.2,0.1,0.5,0,0.7c0,0.2-0.2,0.3-0.3,0.4
			c-1.5,0.4-4.2,1.3-4.9,3.1C40.8,191.9,40.8,192.5,40.9,193.1L40.9,193.1z"/>
		<path class="st4" d="M55.5,189.6L55.5,189.6c-3.2-1.2-6.5-1.9-9.9-1.8l0,0c-0.3,0-0.5-0.3-0.5-0.7s0.2-0.7,0.5-0.7
			c3.4,0,6.8,0.6,10,1.9c0.3,0.2,0.4,0.5,0.3,0.9C56,189.4,55.8,189.6,55.5,189.6z"/>
		<path class="st1" d="M11.6,123.9c0.2,0.1,0.3,0.2,0.5,0.2c0.6,0.1,1.3,0.1,1.9,0c-0.8,0.2-1.5,0.7-2,1.4c-0.1,0.1-0.1,0.2-0.2,0.4
			c0,0.1,0,0.3,0.1,0.4c0.2,0.2,0.4,0,0.6-0.1c0.6-0.3,1.4-0.4,2-0.7c0.7,2.3,1.7,4.5,3,6.5H30c-3.5-3.7-7.2-7.2-11.2-10.4
			c0.2-0.6,0.3-1.2,0.5-1.9c0.1-0.2,0.1-0.4,0.1-0.6s-0.1-0.4-0.3-0.5c-0.2-0.1-0.4-0.1-0.6,0s-0.3,0.3-0.4,0.5
			c-0.3,0.4-0.5,0.9-0.6,1.5c-0.6-0.7-1.5-1.2-2.4-1.3c-0.2,0-0.3,0-0.5,0s-0.3,0.2-0.4,0.3c-0.1,0.2,0.1,0.5,0.3,0.7
			c0.3,0.4,0.7,0.8,1,1.2c-0.6-0.5-1.2-0.9-1.9-1.1c-0.2-0.1-0.5-0.2-0.8-0.2s-0.5,0.2-0.6,0.4c0,0.2,0,0.4,0.1,0.6s0.3,0.3,0.4,0.4
			c0.5,0.3,1,0.6,1.6,0.8c-0.9-0.1-1.7,0-2.6,0.3c-0.2,0.1-0.3,0.1-0.5,0.2c-0.1,0.1-0.2,0.3-0.2,0.5
			C11.3,123.6,11.4,123.8,11.6,123.9z"/>
		<path class="st2" d="M30.3,132l-1.4-1.4l-1.1,1.4H30.3z"/>
		<path class="st4" d="M30.2,132.7H17.6c-0.2,0-0.5-0.1-0.6-0.3c-1.1-1.9-2.1-3.9-2.8-6l-0.4,0.1c-0.3,0.1-0.6,0.2-0.9,0.3
			c-0.4,0.3-1,0.3-1.4,0c-0.3-0.2-0.4-0.6-0.4-1c0-0.2,0.1-0.5,0.3-0.7c0.1-0.1,0.2-0.3,0.3-0.4c-0.2,0-0.4-0.1-0.6-0.2l0,0
			c-0.6-0.4-0.8-1.1-0.4-1.7c0.1-0.1,0.2-0.2,0.3-0.3c0.2-0.2,0.4-0.3,0.7-0.4l0.5-0.2c-0.1-0.1-0.2-0.2-0.3-0.3
			c-0.4-0.6-0.3-1.4,0.3-1.8c0.2-0.2,0.5-0.2,0.7-0.3c0.3,0,0.5,0,0.8,0.1v-0.1c0.1-0.4,0.4-0.7,0.9-0.8c0.3-0.1,0.6-0.1,0.8,0
			c0.7,0.1,1.3,0.4,1.9,0.7c0.1-0.2,0.2-0.4,0.3-0.6c0.2-0.3,0.4-0.5,0.7-0.7c0.4-0.3,0.9-0.3,1.3,0c0.3,0.2,0.6,0.6,0.6,1
			c0,0.3,0,0.5-0.1,0.8s-0.1,0.6-0.2,0.9l-0.1,0.5c3.9,3.2,7.6,6.6,11,10.2c0.2,0.2,0.2,0.5,0.1,0.7
			C30.8,132.6,30.5,132.7,30.2,132.7z M18,131.3h10.6c-3.1-3.3-6.5-6.3-10-9.2c-0.2-0.2-0.3-0.4-0.2-0.7c0.1-0.3,0.1-0.6,0.2-0.9
			s0.1-0.6,0.2-0.9l0,0c-0.2,0.4-0.4,0.8-0.5,1.2c-0.1,0.3-0.3,0.5-0.6,0.6c-0.3,0-0.6-0.1-0.7-0.4c-0.4-0.5-1-0.8-1.7-0.9l0.8,1
			c0.3,0.3,0.3,0.7,0,1l0,0c-0.3,0.3-0.7,0.3-0.9,0c-0.5-0.4-1.1-0.8-1.7-1c-0.1-0.1-0.2-0.1-0.4-0.1c0.1,0.1,0.1,0.1,0.2,0.2
			c0.4,0.3,0.9,0.6,1.4,0.7c0.3,0.1,0.5,0.5,0.4,0.8s-0.5,0.6-0.8,0.5c-0.7-0.1-1.5,0-2.2,0.3l0,0h0.1c0.6,0.1,1.1,0.1,1.7,0
			c0.4-0.1,0.7,0.2,0.8,0.5l0,0c0.1,0.4-0.2,0.7-0.6,0.8l0,0c-0.4,0.1-0.7,0.2-1,0.5l0.3-0.1c0.3-0.1,0.6-0.2,0.9-0.3
			c0.2-0.1,0.4-0.1,0.6,0c0.2,0.1,0.3,0.2,0.4,0.4C16,127.5,16.9,129.5,18,131.3z M11.9,123.3l-0.4,0.6L11.9,123.3L11.9,123.3z"/>
		<path class="st5" d="M16.8,138.1c2.9,2.4,6.3,4.1,10,4.9c5.4,1.2,11.1,0.5,16-2.1c3-1.6,5.5-4.9,7.2-7.9l0.2-0.3
			c1.7-2.9,2.3-6.3,1.8-9.6c-0.3-1.3-1.3-6.8-3.6-5.6c-3,1.5-4.7,4.8-6.3,7.7l-0.5,0.8c-1.1,2.2-3.8,3-6,1.9
			c-0.2-0.1-0.4-0.2-0.6-0.4c-1-0.7-1.9-1.4-2.7-2.2c-2.7-2.3-6.3-3.9-9.9-3.2c-2.4,0.5-4.6,1.9-6.1,3.9c-0.6,0.8-1.1,1.6-1.5,2.6
			C13.2,131.8,14.1,135.7,16.8,138.1z"/>
		<g class="st6">
			<path class="st7" d="M16.8,138.1c2.9,2.4,6.3,4.1,10,4.9c5.4,1.2,11.1,0.5,16-2.1c3-1.6,5.5-4.9,7.2-7.9c-2.5-1-5.4,2.3-7.5,3.3
				c-6.2,3-13.4,2.9-19.4-0.3c-2.6-1.2-4.7-3.3-6-5.9c-0.5-1.3-0.8-2.7-0.8-4.1c-0.6,0.8-1.1,1.6-1.5,2.6
				C13.2,131.9,14,135.8,16.8,138.1z"/>
		</g>
		<path class="st4" d="M32,144.2c-5.7,0-11.2-2-15.6-5.6c-2.9-2.6-3.8-6.7-2.2-10.3c1.4-3.4,4.4-6,8-6.8c4.6-0.9,8.5,1.7,10.4,3.3
			l0.6,0.5c0.6,0.6,1.3,1.1,2,1.6c1,0.7,2.1,0.9,3.3,0.7c1.1-0.3,2-1,2.5-2l0.5-0.8l0.4-0.8c1.5-2.7,3.3-5.7,6.2-7.1
			c0.5-0.3,1.1-0.3,1.7,0c1.6,0.8,2.3,3.8,2.8,6v0.1c0.8,4.1-0.8,8-1.9,10c-1,1.8-3.7,6.3-7.6,8.5C39.6,143.3,35.8,144.3,32,144.2z
			 M24.1,122.5c-0.6,0-1.1,0.1-1.7,0.2c-3.2,0.8-5.9,3-7.1,6.1c-1.4,3-0.6,6.6,1.9,8.9c2.8,2.4,6.2,4,9.8,4.8
			c5.2,1.2,10.8,0.5,15.5-2c3.6-2,6.2-6.3,7.1-8c1.6-2.8,2.2-6,1.8-9.2v-0.1c-0.8-4-1.7-4.9-2.1-5.2c-0.2-0.1-0.4-0.1-0.6,0
			c-2.6,1.3-4.1,4-5.7,6.6c-0.2,0.3-0.3,0.5-0.4,0.8l0,0c-0.2,0.3-0.3,0.6-0.5,0.8c-0.7,1.2-1.9,2.1-3.2,2.5c-1.4,0.3-3,0-4.2-0.8
			c-0.8-0.5-1.5-1.1-2.2-1.7l-0.6-0.5C29.7,123.8,27,122.7,24.1,122.5L24.1,122.5z"/>
		<path class="st5" d="M57.7,185.4c4.8,0.5,9.6,2,14-1.7c-1-2.9-1.9-24.8-2.8-27.7c-0.8-2.4-0.5-4.9-1.3-7.3L43,146.4
			c-0.6,2.4-1.3,4.8-1.9,7.2c-0.9,3.7-0.8,24.4-1.7,28.5c4.3,3,9.3,3.8,14.7,3L57.7,185.4z"/>
		<path class="st5" d="M44.5,127.8l23-5c0.5,1.6,0.9,23.1,0.9,24.8c0.1,5.5-23.4,6.6-25.7,3.3C42.7,151.5,43.5,136.1,44.5,127.8z"/>
		
			<image style="overflow:visible;enable-background:new    ;" width="338" height="502" xlink:href="../../../5.jpg"  transform="matrix(4.000000e-02 0 0 4.000000e-02 46.55 136.1218)">
		</image>
		
			<image style="overflow:visible;enable-background:new    ;" width="80" height="110" xlink:href="779CEB6C.png"  transform="matrix(4.000000e-02 0 0 4.000000e-02 59.96 147.75)">
		</image>
		
			<image style="overflow:visible;enable-background:new    ;" width="100" height="120" xlink:href="779CEB6B.png"  transform="matrix(6.181493e-02 0 0 5.254609e-02 41.2717 146.7972)">
		</image>
		<path class="st4" d="M72.1,184.1c-4,3.4-7.5,2-11.4,2c-1.3,0-2.4-0.1-3.2-0.1l-3.3-0.2c-6,0.9-10.9-0.2-15.2-3.1
			c-0.2-0.2-0.4-0.5-0.3-0.8c1.7-7.4,2.1-29.9,3.5-35.4l0,0c-0.5-6.4,0.1-12.8,1.7-19c0.1-0.3,0.4-0.5,0.7-0.3l0,0
			c0.3,0.1,0.4,0.5,0.3,0.8c-1.6,5.4-1.9,13.8-1.7,17.7c0,0.5,0.1,1.1,0.1,1.6c-0.1,0.6-0.3,1.2-0.4,1.9c-1,6-1.5,26.4-2.9,32.6
			c3.9,2.6,8.5,3.7,13.1,3l6.3,0.2c1.9,0.1,6.5,2,11.2-1.6c-1.6-4.7-2.3-27.8-3.6-33.2c-0.1-0.3-0.1-0.6-0.2-0.8l-0.6-0.1
			c0.6-0.3,1.1-0.7,1.4-1.3c0.1-0.2,0.1-0.3,0.1-0.5c0-0.5,0-1.6,0.1-2.9c0.1-3.1,0.3-8.1,0-9.2c-0.1-0.3,0.1-0.6,0.4-0.7
			c0.3-0.1,0.6,0.1,0.7,0.4c0.3,1.1,0.2,5.2,0,9.6c0,1.3-0.1,2.4-0.1,2.9c0,0.6-0.2,1.2-0.7,1.7c1.4,5.6,2.2,29.2,3.9,34.2
			C72.4,183.6,72.3,183.9,72.1,184.1z"/>
		<path class="st1" d="M62.5,153.1l1.8,0.4c1.4-1.8,2.9-3.6,4.5-5.5l6.1,6c-2.2,1.5-4.5,2.6-7,3.5c0.3,0.5,0.3,1.3,0.6,1.9
			c0.1,0.2,0.2,0.4,0.1,0.6c-0.1,0.1-0.2,0.1-0.3,0.1c-0.1,0-0.2-0.1-0.3-0.1c-0.7-0.4-1.1-1.1-1.3-1.9c0.1,0.6,0.1,1.2,0,1.8
			c0,0.2-0.1,0.4-0.2,0.5c-0.1,0.2-0.2,0.3-0.4,0.3c-0.2,0-0.3-0.1-0.4-0.2c-0.1-0.1-0.2-0.3-0.2-0.4c-0.3-0.8-0.4-1.6-0.3-2.4
			c-0.2,0.5-0.4,1-0.8,1.5c-0.1,0.2-0.2,0.3-0.4,0.4c-0.1,0.1-0.3,0.2-0.5,0.1c-0.2-0.1-0.4-0.3-0.4-0.6s0-0.5,0.1-0.7
			c0.2-0.7,0.6-1.3,1-1.8l-1.1,1c-0.2,0.1-0.4,0.3-0.6,0.3c-0.2,0-0.3-0.2-0.3-0.3c0-0.2,0-0.3,0-0.5c0.1-0.9,0.5-1.7,1.2-2.3
			c-0.5-0.1-0.9-0.3-1.3-0.5c-0.2-0.1-0.3-0.2-0.5-0.4c-0.1-0.2-0.1-0.4,0-0.6c0.1-0.2,0.3-0.2,0.5-0.2
			C62.2,153,62.4,153,62.5,153.1z"/>
		<path class="st4" d="M66.1,161.4c-0.3,0-0.7-0.2-0.9-0.4c-0.2-0.2-0.3-0.4-0.3-0.6c-0.1-0.2-0.1-0.4-0.2-0.5
			c-0.1,0.1-0.2,0.2-0.3,0.3c-0.5,0.4-1.3,0.3-1.7-0.2c-0.2-0.2-0.3-0.5-0.3-0.7s0-0.5,0.1-0.7h-0.1c-0.4-0.1-0.7-0.4-0.8-0.8
			c-0.1-0.3-0.1-0.5,0-0.8c0.1-0.6,0.3-1.3,0.7-1.9c-0.2-0.1-0.4-0.2-0.5-0.3c-0.3-0.1-0.5-0.4-0.7-0.6c-0.4-0.5-0.2-1.2,0.3-1.6
			c0.2-0.1,0.4-0.2,0.6-0.2c0.2,0,0.5,0,0.7,0.1l0,0l0.9,0.2l0.5,0.1c1.3-1.7,2.8-3.4,4.3-5.2c0.1-0.1,0.3-0.2,0.4-0.2
			c0.2,0,0.3,0.1,0.5,0.2l6.1,6.1c0.3,0.2,0.3,0.6,0,0.9l-0.1,0.1c-2,1.4-4.2,2.5-6.5,3.4c0,0.1,0.1,0.3,0.1,0.4
			c0.1,0.3,0.2,0.6,0.3,0.8c0.3,0.4,0.3,0.9,0,1.3c-0.2,0.3-0.6,0.4-0.9,0.4c-0.2,0-0.4-0.1-0.6-0.2c-0.1-0.1-0.3-0.2-0.4-0.3
			c0,0.2-0.1,0.4-0.2,0.6C66.8,161.2,66.5,161.4,66.1,161.4L66.1,161.4z M65.1,157.1h0.2c0.3,0.1,0.5,0.4,0.4,0.7
			c-0.1,0.7,0,1.4,0.3,2.1v0.1v-0.1c0.1-0.5,0.1-1.1,0-1.6c-0.1-0.3,0.2-0.7,0.5-0.7l0,0c0.3-0.1,0.7,0.2,0.7,0.5
			c0.1,0.4,0.3,0.7,0.5,1c0-0.1-0.1-0.2-0.1-0.4c-0.1-0.3-0.2-0.6-0.3-0.8c-0.1-0.2-0.1-0.4,0-0.5c0.1-0.2,0.2-0.3,0.4-0.4
			c2.2-0.7,4.2-1.7,6.2-3l-5.1-5c-1.5,1.7-2.9,3.4-4.1,5c-0.2,0.2-0.4,0.3-0.6,0.2l-0.9-0.2c-0.3-0.1-0.6-0.1-0.9-0.2h-0.1l0.1,0.1
			c0.4,0.2,0.7,0.4,1.1,0.4c0.3,0,0.5,0.2,0.5,0.5s-0.1,0.5-0.3,0.7c-0.2,0.1-0.6,0.5-0.8,1.6l0.9-0.8c0.2-0.2,0.6-0.2,0.8,0
			c0.2,0.2,0.2,0.6,0,0.9c-0.4,0.5-0.7,1-0.9,1.6c-0.1,0.1-0.1,0.3-0.1,0.4c0.1-0.1,0.1-0.1,0.2-0.2c0.3-0.4,0.5-0.9,0.7-1.4
			C64.5,157.2,64.8,157.1,65.1,157.1L65.1,157.1z"/>
		<path class="st5" d="M58.4,122.7c0.4,1.3,5.5,4.2,6.5,9.5c1,4.9-2,8.6-2.5,10.1c0,0.1-0.1,0.3-0.1,0.4c-1.1,4-0.8,7.6,2,11.4
			c2.2,2.9,10.5,5.2,15-4.8c0.9-2.3,1.3-4.9,1.1-7.4c-0.3-4.2-2-9.4-6.4-14.9c-7.1-8.9-14.1-13-14.9-13.1
			C58.1,113.9,58,121.2,58.4,122.7z"/>
		<path class="st8" d="M64.3,154.1c2.2,2.9,10.5,5.2,15-4.8c0.9-2.3,1.3-4.9,1.1-7.4c-0.3,1-0.7,2-1.1,2.9c-1.4,2.7-3.6,4.9-6.4,6.1
			c-1,0.5-2.1,0.7-3.2,0.7c-1.8-0.2-3.5-1.2-4.6-2.7c-1.2-1.6-2-3.4-2.5-5.3c-0.1-0.4-0.2-0.7-0.3-1.1
			C61.2,146.7,61.5,150.3,64.3,154.1z"/>
		<path class="st4" d="M70.1,157.2c-2.4,0.1-4.7-0.9-6.2-2.7c-2.8-3.7-3.4-7.5-2-12.4c0.2-0.6,0.4-1.1,0.7-1.6
			c1-1.9,2.4-4.7,1.8-8.2c-0.1-0.3,0.1-0.6,0.5-0.7s0.6,0.1,0.7,0.5l0,0c0.8,3.9-0.9,7.1-1.9,9c-0.2,0.4-0.5,0.9-0.6,1.4
			c-1.3,4.5-0.8,7.9,1.8,11.3c1.6,1.7,3.9,2.5,6.1,2.2c2.3-0.2,5.5-1.6,7.8-6.9c1.1-2.8,1.4-5.9,0.9-8.9c-0.9-4.7-3-9.1-6.1-12.8
			c-6.4-8-12.8-12.2-14.3-12.8c-0.5,1.2-0.6,6.5-0.3,7.8c0.1,0.3-0.1,0.6-0.4,0.7c-0.3,0.1-0.6-0.1-0.7-0.4l0,0
			c-0.4-1.3-0.4-7.9,0.6-9.1c0.2-0.2,0.5-0.4,0.8-0.3c0.9,0.1,7.9,4.2,15.2,13.3s7.6,17.8,5.4,22.8c-2.6,5.7-6.2,7.3-8.8,7.5
			C70.7,157.2,70.4,157.2,70.1,157.2z"/>
		<path class="st5" d="M41.4,123c0.7-2.8,2.2-5.4,4.2-7.5c1.6-1.4,3.6-2.4,5.7-3c4.2-1.3,8.7-1.3,12.9,0.2c4.1,1.5,8.6,3.4,9.8,10.8
			c-6.2,2.4-15.7,5.6-20.3,10.5C49.6,128.2,48.2,125,41.4,123z"/>
		<path class="st9" d="M41.4,123c0.7-2.8,2.2-5.4,4.2-7.5c1.6-1.4,3.6-2.4,5.7-3c4.2-1.3,8.7-1.3,12.9,0.2c4.1,1.5,8.6,3.4,9.8,10.8
			c-6.2,2.4-15.7,5.6-20.3,10.5C49.6,128.2,48.2,125,41.4,123z"/>
		<path class="st4" d="M53.8,134.6L53.8,134.6c-0.2,0-0.4-0.1-0.5-0.3c-0.6-0.8-1.1-1.5-1.6-2.2c-3-4.3-4.8-6.8-10.4-8.5
			c-0.2-0.1-0.3-0.2-0.4-0.3c-0.1-0.2-0.1-0.3,0-0.5c0.8-2.4,2-5.5,4.4-7.7c1.7-1.5,3.7-2.5,5.9-3.1c4.3-1.4,9-1.3,13.3,0.2
			c4.7,1.7,9,3.8,10.2,11.3c0,0.3-0.1,0.6-0.4,0.7L72,125c-5.8,2.2-13.8,5.2-17.7,9.4C54.1,134.5,54,134.6,53.8,134.6z M42.2,122.6
			c5.5,1.8,7.5,4.6,10.5,8.8c0.4,0.5,0.8,1.1,1.2,1.6c4.2-4.1,12-7,17.7-9.2l1.8-0.7c-1.2-6.4-4.9-8.2-9.3-9.8
			c-4.1-1.4-8.5-1.4-12.5-0.1c-2,0.5-3.9,1.5-5.4,2.9C44.3,117.9,42.9,120.1,42.2,122.6L42.2,122.6z"/>
		<path class="st10" d="M21.2,64.9L20,66l-0.3,0.2c-0.7-10.7,1.3-21.3,5.7-31H26l1.1,0.1c3.5,0.4,7,0.2,10.5-0.4
			C35.7,46.4,29.9,57,21.2,64.9z"/>
		<path class="st7" d="M21.2,64.9L20,66c0.8-6.4,1.9-12.8,3.2-19.1C24.1,43,25,39.1,26,35.2l1.1,0.1c-0.2,0.9-0.5,1.8-0.7,2.7
			c-1.7,6.9-3.2,13.8-4.3,20.8C21.8,60.8,21.5,62.8,21.2,64.9z"/>
		<path class="st4" d="M19.5,66.9L19.5,66.9c-0.3-0.1-0.4-0.3-0.5-0.6c-0.7-10.8,1.3-21.6,5.8-31.4c0.1-0.2,0.4-0.4,0.6-0.4h0.1
			c4.1,0.3,8,0.6,11.8-0.3c0.2-0.1,0.4,0,0.6,0.2c0.2,0.1,0.2,0.4,0.2,0.6C36.3,47.2,30,58.1,20.2,66.7C20,66.9,19.8,66.9,19.5,66.9
			z M25.9,35.9c-4.1,9.1-6,19-5.5,29C29,57.3,34.8,47,36.9,35.7C33.2,36.2,29.5,36.3,25.9,35.9z"/>
		<path class="st1" d="M49.2,118c0.1,0.9,0.3,1.9,0.5,2.8c0.8,2.8,3,5.3,5.9,5.7c3.2,0.4,6.3-2.1,7.5-5.2c0.4-1.1,0.7-2.2,0.9-3.3
			c0.2-2.1,0.3-4.3,0.2-6.4c-4.9,0.4-10,1.4-14.9,0.6C49.1,114.1,49.1,116.1,49.2,118z"/>
		<g class="st11">
			<path class="st12" d="M49.2,118c1.8,1.2,3.9,1.9,6.1,2c3,0.2,6.1-0.5,8.7-2c0.2-2.1,0.3-4.3,0.2-6.4c-4.9,0.4-10,1.4-14.9,0.6
				C49.1,114.1,49.1,116.1,49.2,118z"/>
		</g>
		<path class="st4" d="M54.6,126.9c-2.8-0.8-4.7-3.5-5.5-6c-0.3-1-0.5-1.9-0.6-2.9c-0.1-2-0.1-4,0.1-6c0-0.2,0.1-0.4,0.2-0.5
			c0.1-0.1,0.3-0.2,0.5-0.1c3.7,0.6,7.5,0.2,11.3-0.3c1.1-0.1,2.3-0.2,3.4-0.3c0.2,0,0.4,0,0.5,0.2c0.1,0.1,0.2,0.3,0.2,0.5
			c0.1,2.2,0.1,4.4-0.2,6.6c-0.2,1.2-0.5,2.4-0.9,3.5c-1.3,3.1-4.5,6-8.2,5.6C55.2,127,54.9,126.9,54.6,126.9z M49.9,112.9
			c-0.2,1.7-0.2,3.3-0.1,5c0.1,0.9,0.2,1.8,0.5,2.7c0.7,2.3,2.6,4.9,5.3,5.2c3,0.4,5.7-2.1,6.9-4.8c0.4-1,0.7-2.1,0.8-3.1
			c0.2-1.9,0.3-3.7,0.2-5.6c-0.9,0.1-1.8,0.2-2.7,0.3C57.3,113.1,53.6,113.2,49.9,112.9L49.9,112.9z"/>
		<path class="st1" d="M115.3,93c-4.4,5.7-10.9,9.5-18,10.5c-0.4,0.5-0.8,1-1.3,1.5c-0.6,0.7-1.3,1.3-2,1.8c-1.7,1.3-3.6,2.3-5.6,3
			c-11.8,4.4-25.7,7.7-38.2,5.1c-6.1-1.4-11.9-4.1-17-7.7c-5.4-3.7-10.3-8.4-13.1-14.3c-0.1-0.1-0.1-0.3-0.2-0.4
			c-3.4-7.6-3-16.2-1-24.4c0.4-1.4,0.7-2.9,1.2-4.3c2.1-6.8,4.9-13.3,7.1-20c0.2-0.7,0.5-1.5,0.7-2.2c1-3.4,1.6-6.2,3.8-9.1
			c4.9-6.4,13.3-8.3,20.9-9.1c5.4-0.7,10.9-0.6,16.3,0.2C86,26.4,98.6,40.4,103,56.9c1.2,4.8,1.9,9.8,1.9,14.8c0,0.2,0,0.4,0,0.6
			c0.6-0.1,1.3-0.2,1.9-0.2c2.7-0.3,5.4,0.1,7.9,1.2c2.6,1.2,4.4,3.6,5.1,6.3C120.6,84.1,118.3,89.2,115.3,93z"/>
		<path class="st13" d="M27.7,84.9c-1,4-3.8,7.2-7.5,8.9c-0.1-0.1-0.1-0.3-0.2-0.4c-3.4-7.6-3-16.2-1-24.4
			C25.6,71.1,29.4,78.1,27.7,84.9z"/>
		<path class="st4" d="M46.7,114.7c-5-1.6-9.6-4-13.9-7c-6.5-4.5-11.1-9.6-13.6-15.1c-3.5-7.7-3.4-17.6,0.1-29.2
			c1.1-3.7,2.5-7.3,3.8-10.8c1.4-3.6,2.8-7.5,3.9-11.3c0.1-0.4,0.2-0.8,0.4-1.2c0.9-2.9,1.6-5.5,3.6-8.1c5.4-7,14.8-8.7,21.4-9.4
			c5.5-0.7,11-0.6,16.5,0.2c16.3,2.6,30,15.9,34.7,33.9c1.2,4.8,1.9,9.8,1.9,14.7c0.4,0,0.7-0.1,1.1-0.1c2.8-0.3,5.7,0.1,8.3,1.2
			c2.8,1.3,4.8,3.9,5.5,6.9c1,4.2-0.7,9.4-4.3,14.1c-4.5,5.8-11,9.6-18.2,10.7c-0.4,0.5-0.7,0.9-1.1,1.3c-0.6,0.7-1.3,1.3-2.1,1.9
			c-1.8,1.3-3.7,2.3-5.8,3C74,116,61,117.7,50.3,115.6C49,115.3,47.9,115.1,46.7,114.7z M73.5,25.5c-1.6-0.5-3.2-0.9-4.9-1.1
			c-5.3-0.8-10.7-0.8-16.1-0.2c-6.3,0.7-15.3,2.3-20.3,8.8c-1.8,2.4-2.5,4.8-3.3,7.6c-0.1,0.4-0.2,0.8-0.4,1.2
			c-1.1,3.9-2.6,7.7-4,11.5c-1.3,3.5-2.6,7.1-3.8,10.7c-3.4,11.3-3.5,20.7-0.1,28.1c2.4,5.3,6.8,10.1,13.1,14.4
			c5,3.6,10.7,6.2,16.8,7.6c10.4,2.1,23.1,0.4,37.8-5.1c1.9-0.7,3.7-1.6,5.4-2.8c0.7-0.5,1.3-1.1,1.9-1.7c0.4-0.4,0.8-0.9,1.2-1.4
			c0.1-0.2,0.3-0.3,0.5-0.3c6.9-1,13.2-4.6,17.5-10.2c3.4-4.3,4.9-9.1,4.1-12.8l0,0c-0.6-2.5-2.3-4.7-4.7-5.8
			c-2.4-1-4.9-1.4-7.5-1.1c-0.6,0-1.2,0.1-1.8,0.2c-0.2,0-0.4,0-0.6-0.2s-0.3-0.4-0.3-0.6c0-5.1-0.6-10.3-1.9-15.2
			C98,41.5,87,29.6,73.5,25.5z"/>
		<path class="st4" d="M104.6,91.9c-0.1,0-0.2-0.1-0.3-0.2c-0.3-0.3-0.3-0.7,0-0.9c0.8-0.9,0.9-2.2,0.3-3.2c-0.7-1-2-1.6-3.2-1.5
			c-1.3,0.1-2.5,0.7-3.3,1.6c-0.2,0.2-0.6,0.2-0.8,0c-0.2-0.2-0.3-0.5-0.2-0.8c2-4.4,5.7-7.8,10.3-9.3c1.8-0.7,3.7-0.8,5.6-0.3l0,0
			c2,0.5,3.5,2.2,3.8,4.3c0,0.4-0.2,0.7-0.6,0.7s-0.7-0.2-0.7-0.6l0,0c-0.3-1.5-1.4-2.7-2.8-3.2l0,0c-1.6-0.4-3.3-0.3-4.8,0.3
			c-3.4,1.1-6.3,3.4-8.3,6.4c0.6-0.2,1.2-0.4,1.9-0.4c1.7-0.1,3.4,0.7,4.4,2.1c1,1.5,0.8,3.6-0.5,4.9
			C105,91.9,104.8,91.9,104.6,91.9z"/>
		<path class="st10" d="M115.6,73.7c-0.9-0.5-1.9-0.8-2.8-1.1c-0.4-0.1-0.7-0.2-1.1-0.3c-1.2-0.3-2.4-0.4-3.7-0.3
			c-0.4,0-0.7,0-1.1,0.1c-0.8,0.1-1.7,0.2-2.5,0.4c-0.7,0.2-1.4,0.4-2.1,0.6c-0.4,0.1-0.7,0.3-1,0.4c-1.4,0.6-2.6,1.3-3.8,2.3
			c-0.3,0.2-0.6,0.5-0.9,0.8c-0.6,0.6-1.2,1.2-1.7,1.8c-6.8-11.2-10.6-23.8-11.1-36.9c6.1,1,12.3,1.2,18.5,0.5l1.1-0.1
			c1.5-0.2,3-0.4,4.5-0.7L109,41c1.8-0.4,3.6-0.8,5.4-1.3C117.4,50.5,117.5,62.5,115.6,73.7z"/>
		<path class="st7" d="M97.5,75.7c-0.3,0.2-0.6,0.5-0.9,0.8c-0.4-1-0.8-2-1.2-3c-1.8-4.9-3.3-9.8-4.6-14.9
			c-1.2-5.1-2.3-10.2-3.1-15.4c-0.1-0.3,0.1-0.7,0.4-0.8s0.6,0.1,0.7,0.4c0,0,0,0,0,0.1c0.5,2.9,1,5.8,1.6,8.7
			c1,5.1,2.3,10.2,3.8,15.1C95.2,69.7,96.3,72.8,97.5,75.7z"/>
		<path class="st7" d="M102.3,73c-0.4,0.1-0.7,0.3-1,0.4c-0.9-4.5-1.9-9-2.8-13.5c-1.1-5.3-2.2-10.7-3.4-16c-0.2-0.8,0.9-1.2,1-0.4
			l1.9,9l3.4,16C101.7,70.1,102,71.5,102.3,73z"/>
		<path class="st7" d="M108,71.9c-0.4,0-0.7,0-1.1,0.1c-0.5-5-1.2-9.9-1.9-14.8c-0.8-5.1-1.7-10.1-2.7-15.2l1.1-0.1
			c0.5,2.5,1,5,1.4,7.5c1,5.7,1.9,11.4,2.6,17.1C107.6,68.3,107.8,70.1,108,71.9z"/>
		<path class="st7" d="M112.8,72.5c-0.4-0.1-0.7-0.2-1.1-0.3c0.2-6-0.1-12-0.8-17.9c-0.6-4.5-1.6-8.9-2.9-13.2l1-0.1
			c0.4,1.5,0.8,2.9,1.2,4.4c1.6,6.8,2.5,13.8,2.6,20.8C112.8,68.3,112.8,70.4,112.8,72.5z"/>
		<path class="st4" d="M94.8,79.1c-0.1-0.1-0.3-0.2-0.3-0.3c-6.8-11.3-10.7-24.1-11.2-37.3c0-0.2,0.1-0.4,0.2-0.6
			c0.1-0.1,0.3-0.2,0.5-0.2c10.1,1.6,20.5,1,30.3-1.8c0.3-0.1,0.7,0.1,0.8,0.5l0,0c2.8,10.3,3.2,22.2,1.2,34.4
			c0,0.2-0.2,0.4-0.3,0.5c-0.2,0.1-0.4,0.1-0.6,0c-3.3-1.7-7.2-2.1-10.8-1.2c-3.6,0.8-6.8,2.8-9.1,5.7C95.4,79,95.2,79.1,95,79
			C94.9,79.1,94.8,79.1,94.8,79.1z M84.6,42.4c0.7,12.3,4.2,24.2,10.4,34.8c2.4-2.8,5.7-4.7,9.2-5.5c3.6-0.9,7.4-0.6,10.8,0.9
			c1.8-10.6,1.4-21.5-1.1-32C104.4,43.3,94.4,43.9,84.6,42.4z"/>
		<ellipse class="st13" cx="83.3" cy="90.6" rx="12" ry="12.1"/>
		<path class="st14" d="M51.4,76.9c1.8,0,3.3,0.8,3.3,1.6s-1.5,1.6-3.3,1.5S48,79.3,48,78.4S49.5,76.8,51.4,76.9z"/>
		<path class="st4" d="M45.8,52.9c-1.6-1.9-3.9-3-6.4-3c-1.2,0.1-2.4,0.3-3.6,0.6c-1.6,0.4-3.2,1-4.8,1.6c-0.7,0.3-1.5,1-0.6,1.7
			s2,0.5,2.9,0.5c1.2,0.1,2.3,0.2,3.5,0.2c2.4,0.1,4.7,0.1,7.1,0C44.5,54.5,46.9,54,45.8,52.9z"/>
		<path class="st4" d="M61.2,54.1c1.8-1.6,4.3-2.3,6.7-2c1.2,0.2,2.4,0.6,3.5,1.1c1.6,0.7,3.1,1.4,4.5,2.3c0.6,0.4,1.3,1.2,0.4,1.8
			s-2,0.2-2.9,0.1c-1.2-0.1-2.3-0.2-3.5-0.3c-2.3-0.2-4.7-0.6-7-1C62.3,55.9,59.9,55.1,61.2,54.1z"/>
		<path class="st15" d="M110.2,39.8c0.3,2.2,0,4.4-0.8,6.4c-1.6,4.9-6.2,7.6-10.8,5.7c-2.4-1.1-4.4-2.8-5.9-5c-1.5-2-2-5-2.2-7.7
			c-0.7,4.5-3.5,8.4-7.6,10.5c-8.5,4.1-19.5-2.7-19.3-12.9c-1.1,4-3.6,7.5-7,9.9c-3.1,2.2-7.1,2.6-10.6,1c-3.3-1.6-5.2-6.1-5.4-10.4
			c-1.4,3.4-4,6.2-7.3,7.9c-3.6,1.8-7.8,1.6-11.3-0.4c-4.5-2.9-3.5-9.3,0.4-12.4c-1.8-0.2-3.5-0.9-4.9-2c-3.7-3.4-3.6-9.4-1.1-13.6
			c1.1-1.9,2.7-3.4,4.6-4.4c3.6-1.9,8-1.4,10.5,2.9c-0.1-1.8,0.2-3.5,0.9-5.2c1.4-3.5,4-6.7,7.6-7.7c2.1-0.6,4.4-0.3,6.2,1
			C48.7,5.1,50,8.1,51,11c1.4-5,5.5-10.2,10.9-10.1c2.5,0.2,4.8,1.2,6.6,3c1.1,1.1,3.9,4.2,3.6,6c1.4-8,10.5-11,16.7-7.9
			c1.4,0.7,2.7,1.7,3.8,2.9c3.5,3.6,4.7,8.9,3.2,13.7c1-1.7,2.9-2.9,4.4-3.8c4-2.7,9-1.8,11.4,2.8c1.7,3.6,1.5,7.8-0.5,11.2
			c2.1-2.1,5.1-2.9,8-2.2c3.2,0.6,5.6,3.4,5.6,6.7C124.7,41.6,115.7,42.8,110.2,39.8z"/>
		<path class="st10" d="M110.2,39.8c0.3,2.2,0,4.4-0.8,6.4c-1.6,4.9-6.2,7.6-10.8,5.7c-2.4-1.1-4.4-2.8-5.9-5c-1.5-2-2-5-2.2-7.7
			c-0.7,4.5-3.5,8.4-7.6,10.5c-8.5,4.1-19.5-2.7-19.3-12.9c-1.1,4-3.6,7.5-7,9.9c-3.1,2.2-7.1,2.6-10.6,1c-3.3-1.6-5.2-6.1-5.4-10.4
			c-1.4,3.4-4,6.2-7.3,7.9c-3.6,1.8-7.8,1.6-11.3-0.4c-4.5-2.9-3.5-9.3,0.4-12.4c-1.8-0.2-3.5-0.9-4.9-2c-3.7-3.4-3.6-9.4-1.1-13.6
			c1.1-1.9,2.7-3.4,4.6-4.4c-0.1,0.5-0.2,1-0.3,1.5c-0.4,2.9,0.3,6.2,2.4,8.2s5.6,2.2,7.6,0.1c-0.9,2-1.5,4.1-1.8,6.3
			c-0.1,0.8,0,1.6,0.3,2.4c0.7,1.6,2.3,2.5,4,2.3c1.7-0.3,3.1-1.2,4.2-2.5c1-1.4,1.9-2.9,2.6-4.5c0.4,3.6,1.9,7,4.3,9.8
			c2.3,2.8,6,4.5,9.4,3.6c2.7-0.8,4.9-2.6,6.3-5.1c1.4-2.5,2.4-5.1,3-7.9c0.7,3.6,2,6.9,3.9,10c1.8,2.9,4.5,5,7.7,6
			c3.2,0.9,6.7,0.1,9.2-2.1c1.4-1.4,2.4-3.1,3.1-4.9c1.2-2.9,2.1-6,2.7-9.2c0.1,3,1.2,5.8,3.2,8.2c1.7,2,4.1,3.4,6.7,3.7
			c0.8,0.1,1.5,0,2.2-0.3c0.5-0.3,0.9-0.7,1.3-1.2c1.5-2.1,1.9-4.7,1.4-7.2c0.4,1.4,1.5,2.4,2.9,2.6c1.5,0.3,2.9,0.2,4.4-0.2
			c2.2-0.4,4.2-1.4,5.8-2.9c0.7-0.8,1.2-1.7,1.6-2.7c3.2,0.6,5.6,3.4,5.6,6.7C124.7,41.6,115.7,42.8,110.2,39.8z"/>
		<path class="st4" d="M101.6,53.2c-1.2,0-2.3-0.2-3.3-0.7c-2.5-1.2-4.7-3-6.3-5.3c-0.9-1.3-1.6-2.9-1.8-4.5c-1.3,3.3-3.8,6-7,7.6
			c-4.4,2-9.6,1.6-13.6-1.1c-3.3-2.1-5.6-5.4-6.4-9.3c-1.3,3-3.4,5.5-6.1,7.4c-3.3,2.3-7.6,2.7-11.3,1c-3.2-1.6-4.9-5.1-5.5-8.6
			c-1.5,2.7-3.8,4.8-6.5,6.2c-3.8,1.9-8.3,1.7-12-0.5c-2-1.3-3.2-3.5-3.3-5.8c-0.1-2.5,0.8-4.9,2.5-6.7c-1.4-0.4-2.7-1-3.9-2
			c-4.2-3.8-3.8-10.3-1.2-14.5c1.9-3.4,5.5-5.6,9.4-5.8c2.2,0,4.3,1,5.8,2.6c0.2-1.1,0.5-2.2,0.9-3.3c1.6-4.2,4.7-7.2,8.1-8.1
			c2.3-0.6,4.8-0.2,6.8,1.1c2,1.5,3.5,3.6,4.3,6c1.9-4.6,5.8-9,11-8.8c2.6,0.2,5.1,1.3,7,3.2c1.2,1.1,2.2,2.4,3,3.8
			c1-2.5,3-4.5,5.4-5.8c3.6-1.9,7.9-2,11.6-0.2c1.5,0.8,2.9,1.8,4.1,3c2.9,3.1,4.4,7.4,4,11.6c0.7-0.6,1.5-1.1,2.3-1.7l0.3-0.2
			c2.1-1.5,4.6-2,7.1-1.4c2.3,0.7,4.3,2.3,5.3,4.5c1.4,2.9,1.6,6.2,0.6,9.3c2.4-1.2,5.2-1.3,7.7-0.3c3,1.1,4.9,3.9,4.9,7.1
			c0,4.3-2.1,6.5-3.8,7.5c-3.2,1.7-7.1,1.8-10.4,0.3c0,1.9-0.3,3.7-1,5.4c-0.8,2.6-2.6,4.8-5.1,6.1C103.9,53,102.8,53.2,101.6,53.2z
			 M90.5,38.4L90.5,38.4c0.4,0,0.7,0.3,0.7,0.7c0.2,3.4,0.9,5.8,2,7.3c1.4,2.1,3.4,3.7,5.6,4.8c1.8,0.8,3.8,0.8,5.5,0
			c2.1-1.1,3.6-2.9,4.3-5.2c0.8-1.9,1.1-4.1,0.8-6.1c0-0.3,0.1-0.5,0.3-0.7c0.2-0.1,0.5-0.1,0.8,0c3.2,1.8,7.4,1.9,10.1,0.3
			c2.1-1.3,3.3-3.7,3.1-6.2c0-2.6-1.6-4.9-4-5.7c-2.9-1.2-6.2-0.5-8.3,1.7c-0.2,0.3-0.7,0.4-1,0.2c-0.3-0.2-0.4-0.7-0.2-1l0,0
			c1.9-3.2,2-7.1,0.5-10.5c-0.9-1.8-2.5-3.2-4.4-3.7c-2-0.5-4.2-0.1-5.9,1.2l-0.3,0.2c-1.5,0.8-2.8,2-3.8,3.4
			c-0.2,0.4-0.6,0.5-1,0.3s-0.5-0.6-0.3-1c1.4-4.5,0.3-9.5-3-12.9l0,0c-1-1.1-2.2-2.1-3.6-2.7C85.1,1.3,81.3,1.3,78.1,3
			c-2.8,1.4-4.8,4.1-5.3,7.2l0,0c-0.1,0.4-0.5,0.7-0.9,0.6c-0.4-0.1-0.7-0.5-0.6-0.9l0,0c0.2-1.2-1.9-3.9-3.4-5.3
			C66.3,3,64.1,2,61.8,1.8c-5.1-0.2-8.9,4.9-10.2,9.7c-0.1,0.3-0.4,0.5-0.7,0.6c-0.3,0-0.6-0.2-0.7-0.5c-1-2.8-2.2-5.7-4.4-7.2
			c-1.7-1.1-3.7-1.4-5.6-0.8c-3,0.8-5.6,3.5-7.1,7.2c-0.6,1.5-0.9,3.2-0.9,4.8c0,0.3-0.2,0.7-0.5,0.8c-0.3,0.1-0.7,0-0.9-0.3
			c-1.1-2.2-3.3-3.6-5.8-3.6l0,0c-3.3,0.2-6.4,2.1-8,5c-2.2,3.7-2.6,9.4,1,12.6c1.3,1,2.8,1.7,4.5,1.8c0.4,0,0.7,0.4,0.7,0.8
			c0,0.2-0.1,0.4-0.3,0.5c-2,1.6-3.1,4-3,6.5c0,1.9,1,3.6,2.6,4.7c3.2,1.9,7.1,2,10.4,0.4c3.2-1.6,5.6-4.3,7-7.6
			c0.2-0.4,0.6-0.6,1-0.4c0.3,0.1,0.4,0.4,0.4,0.6c0.3,4.6,2.2,8.4,5,9.8c3.2,1.4,7,1.1,9.8-0.9c3.2-2.3,5.6-5.7,6.6-9.5
			c0.1-0.3,0.5-0.6,0.8-0.5c0.4,0.1,0.6,0.4,0.6,0.8c0,4.5,2.3,8.7,6.1,11.1c3.6,2.4,8.2,2.8,12.1,1c3.8-2,6.5-5.7,7.2-10
			C89.8,38.6,90.1,38.4,90.5,38.4z"/>
		<path class="st16" d="M34,84.7c8.6,2.4,21.7,2.8,30.4,1.6c1.5-0.2,3.1-1.7,3.8-2.4C68,86,63.5,92.3,58.8,93
			C48.6,94.5,36.4,87.8,34,84.7z"/>
		<path class="st4" d="M55.8,93.8c-4.3-0.1-8.5-1-12.5-2.7C39,89.4,35,86.9,33.5,85c-0.2-0.2-0.2-0.5,0-0.8c0.1-0.2,0.4-0.3,0.7-0.3
			c8.5,2.4,17.4,2.9,26.1,1.7c0.9-0.1,6.1-1.1,7.4-2.4c0.2-0.2,0.5-0.3,0.7-0.1c0.2,0.1,0.4,0.4,0.4,0.6c-0.2,2.3-4.8,8.9-9.9,9.7
			C57.9,93.7,56.8,93.8,55.8,93.8z M36.2,85.9c4.3,3.2,14.1,7.6,22.5,6.4c3.2-0.5,6.3-3.8,7.8-6.3c-0.8,0.5-5.5,0.9-6.1,1
			C52.4,88.1,44.2,87.8,36.2,85.9z"/>
		<ellipse class="st16" cx="39" cy="67.6" rx="8.5" ry="8.6"/>
		<g>
			<g>
				<defs>
					<path id="SVGID_1_" d="M44.5,70c-0.9,3.1-4.2,4.9-7.3,4c-2.7-0.8-4.4-3.4-4.2-6.1l3.7,0.2l-3.4-1.4c1-2.9,4-4.6,6.9-3.9
						C43.4,63.6,45.3,66.8,44.5,70z"/>
				</defs>
				<clipPath id="SVGID_00000008861863136987007810000007876386567078961593_">
					<use xlink:href="#SVGID_1_"  style="overflow:visible;"/>
				</clipPath>
				<g style="clip-path:url(#SVGID_00000008861863136987007810000007876386567078961593_);">
					<polygon class="st18" points="32.6,74.4 34.5,75.1 32.6,75.1 					"/>
					<polygon class="st18" points="32.6,74.3 34.8,75.1 34.5,75.1 32.6,74.4 					"/>
					<polygon class="st19" points="32.6,74.2 35,75.1 34.8,75.1 32.6,74.3 					"/>
					<polygon class="st20" points="32.6,74.1 35.3,75.1 35,75.1 32.6,74.2 					"/>
					<polygon class="st21" points="32.6,74 35.5,75.1 35.3,75.1 32.6,74.1 					"/>
					<polygon class="st22" points="32.6,73.9 35.8,75.1 35.5,75.1 32.6,74 					"/>
					<polygon class="st23" points="32.6,73.8 36,75.1 35.8,75.1 32.6,73.9 					"/>
					<polygon class="st24" points="32.6,73.7 36.2,75.1 36,75.1 32.6,73.8 					"/>
					<polygon class="st25" points="32.6,73.6 36.5,75.1 36.2,75.1 32.6,73.7 					"/>
					<polygon class="st26" points="32.6,73.5 36.8,75.1 36.5,75.1 32.6,73.6 					"/>
					<polygon class="st27" points="32.6,73.4 37,75.1 36.8,75.1 32.6,73.5 					"/>
					<polygon class="st28" points="32.6,73.3 37.2,75.1 37,75.1 32.6,73.4 					"/>
					<polygon class="st29" points="32.6,73.2 37.5,75.1 37.2,75.1 32.6,73.3 					"/>
					<polygon class="st29" points="32.6,73.1 37.7,75.1 37.5,75.1 32.6,73.2 					"/>
					<polygon class="st30" points="32.6,73 38,75.1 37.7,75.1 32.6,73.1 					"/>
					<polygon class="st31" points="32.6,72.9 38.2,75.1 38,75.1 32.6,73 					"/>
					<polygon class="st32" points="32.6,72.8 38.5,75.1 38.2,75.1 32.6,72.9 					"/>
					<polygon class="st33" points="32.6,72.7 38.7,75.1 38.5,75.1 32.6,72.8 					"/>
					<polygon class="st34" points="32.6,72.6 39,75.1 38.7,75.1 32.6,72.7 					"/>
					<polygon class="st35" points="32.6,72.5 39.2,75.1 39,75.1 32.6,72.6 					"/>
					<polygon class="st36" points="32.6,72.4 39.5,75.1 39.2,75.1 32.6,72.5 					"/>
					<polygon class="st37" points="32.6,72.3 39.7,75.1 39.5,75.1 32.6,72.4 					"/>
					<polygon class="st38" points="32.6,72.2 40,75.1 39.7,75.1 32.6,72.3 					"/>
					<polygon class="st39" points="32.6,72.2 40.2,75.1 40,75.1 					"/>
					<polygon class="st40" points="32.6,72.1 40.5,75.1 40.2,75.1 32.6,72.2 					"/>
					<polygon class="st41" points="32.6,72 40.7,75.1 40.5,75.1 32.6,72.1 					"/>
					<polygon class="st42" points="32.6,71.9 41,75.1 40.7,75.1 32.6,72 					"/>
					<polygon class="st43" points="32.6,71.8 41.2,75.1 41,75.1 32.6,71.9 					"/>
					<polygon class="st44" points="32.6,71.7 41.5,75.1 41.2,75.1 32.6,71.8 					"/>
					<polygon class="st45" points="32.6,71.6 41.7,75.1 41.5,75.1 32.6,71.7 					"/>
					<polygon class="st46" points="32.6,71.5 42,75.1 41.7,75.1 32.6,71.6 					"/>
					<polygon class="st47" points="32.6,71.4 42.2,75.1 42,75.1 32.6,71.5 					"/>
					<polygon class="st48" points="32.6,71.3 42.5,75.1 42.2,75.1 32.6,71.4 					"/>
					<polygon class="st49" points="32.6,71.2 42.7,75.1 42.5,75.1 32.6,71.3 					"/>
					<polygon class="st50" points="32.6,71.1 43,75.1 42.7,75.1 32.6,71.2 					"/>
					<polygon class="st51" points="32.6,71 43.2,75.1 43,75.1 32.6,71.1 					"/>
					<polygon class="st52" points="32.6,70.9 43.5,75.1 43.5,75.1 43.2,75.1 32.6,71 					"/>
					<polygon class="st53" points="32.6,70.8 43.5,75 43.5,75.1 32.6,70.9 					"/>
					<polygon class="st54" points="32.6,70.7 43.5,74.9 43.5,75 32.6,70.8 					"/>
					<polygon class="st55" points="32.6,70.6 43.5,74.9 43.5,74.9 32.6,70.7 					"/>
					<polygon class="st56" points="32.6,70.5 43.6,74.8 43.5,74.9 32.6,70.6 					"/>
					<polygon class="st57" points="32.6,70.4 43.6,74.7 43.6,74.8 32.6,70.5 					"/>
					<polygon class="st58" points="32.6,70.3 43.7,74.6 43.6,74.7 32.6,70.4 					"/>
					<polygon class="st59" points="32.6,70.2 43.7,74.5 43.7,74.6 32.6,70.3 					"/>
					<polygon class="st60" points="32.6,70.1 43.7,74.4 43.7,74.5 32.6,70.2 					"/>
					<polygon class="st61" points="32.6,70 43.7,74.4 43.7,74.4 32.6,70.1 					"/>
					<polygon class="st62" points="32.6,69.9 43.8,74.3 43.7,74.4 32.6,70 					"/>
					<polygon class="st63" points="32.6,69.8 43.8,74.2 43.8,74.3 32.6,69.9 					"/>
					<polygon class="st64" points="32.6,69.8 43.8,74.1 43.8,74.2 					"/>
					<polygon class="st65" points="32.6,69.7 43.9,74 43.8,74.1 32.6,69.8 					"/>
					<polygon class="st66" points="32.6,69.6 43.9,73.9 43.9,74 32.6,69.7 					"/>
					<polygon class="st67" points="32.6,69.5 43.9,73.9 43.9,73.9 32.6,69.6 					"/>
					<polygon class="st68" points="32.6,69.4 44,73.8 43.9,73.9 32.6,69.5 					"/>
					<polygon class="st68" points="32.6,69.3 44,73.7 44,73.8 32.6,69.4 					"/>
					<polygon class="st69" points="32.6,69.2 44,73.6 44,73.7 32.6,69.3 					"/>
					<polygon class="st70" points="32.6,69.1 44.1,73.5 44,73.6 32.6,69.2 					"/>
					<polygon class="st71" points="32.6,69 44.1,73.4 44.1,73.5 32.6,69.1 					"/>
					<polygon class="st71" points="32.6,68.9 44.1,73.4 44.1,73.4 32.6,69 					"/>
					<polygon class="st72" points="32.6,68.8 44.2,73.3 44.1,73.4 32.6,68.9 					"/>
					<polygon class="st73" points="32.6,68.7 44.2,73.2 44.2,73.3 32.6,68.8 					"/>
					<polygon class="st74" points="32.6,68.6 44.2,73.1 44.2,73.2 32.6,68.7 					"/>
					<polygon class="st75" points="32.6,68.5 44.2,73 44.2,73.1 32.6,68.6 					"/>
					<polygon class="st76" points="32.6,68.4 44.3,72.9 44.2,73 32.6,68.5 					"/>
					<polygon class="st77" points="32.6,68.3 44.3,72.8 44.3,72.9 32.6,68.4 					"/>
					<polygon class="st78" points="32.6,68.2 44.3,72.8 44.3,72.8 32.6,68.3 					"/>
					<polygon class="st79" points="32.6,68.1 44.4,72.7 44.3,72.8 32.6,68.2 					"/>
					<polygon class="st80" points="32.6,68 44.4,72.6 44.4,72.7 32.6,68.1 					"/>
					<polygon class="st81" points="32.6,67.9 44.5,72.5 44.4,72.6 32.6,68 					"/>
					<polygon class="st82" points="32.6,67.8 44.5,72.4 44.5,72.5 32.6,67.9 					"/>
					<polygon class="st83" points="32.6,67.7 44.5,72.3 44.5,72.4 32.6,67.8 					"/>
					<polygon class="st84" points="32.6,67.6 44.5,72.3 44.5,72.3 32.6,67.7 					"/>
					<polygon class="st85" points="32.6,67.5 44.6,72.2 44.5,72.3 32.6,67.6 					"/>
					<polygon class="st86" points="32.6,67.4 44.6,72.1 44.6,72.2 32.6,67.5 					"/>
					<polygon class="st87" points="32.6,67.3 44.6,72 44.6,72.1 32.6,67.4 					"/>
					<polygon class="st88" points="32.6,67.2 44.7,71.9 44.6,72 32.6,67.3 					"/>
					<polygon class="st89" points="32.6,67.2 44.7,71.8 44.7,71.9 					"/>
					<polygon class="st90" points="32.6,67.1 44.7,71.8 44.7,71.8 32.6,67.2 					"/>
					<polygon class="st91" points="32.6,67 44.8,71.7 44.7,71.8 32.6,67.1 					"/>
					<polygon class="st91" points="32.6,66.9 44.8,71.6 44.8,71.7 32.6,67 					"/>
					<polygon class="st92" points="32.6,66.8 32.6,66.8 44.8,71.5 44.8,71.6 32.6,66.9 					"/>
					<polygon class="st93" points="44.8,71.5 44.9,71.4 32.6,66.7 32.6,66.8 					"/>
					<polygon class="st94" points="44.9,71.4 44.9,71.3 32.7,66.6 32.6,66.7 					"/>
					<polygon class="st95" points="44.9,71.3 44.9,71.3 32.7,66.5 32.7,66.6 					"/>
					<polygon class="st96" points="44.9,71.3 45,71.2 32.7,66.4 32.7,66.5 					"/>
					<polygon class="st97" points="45,71.2 45,71.1 32.8,66.3 32.7,66.4 					"/>
					<polygon class="st98" points="45,71.1 45,71 32.8,66.3 32.8,66.3 					"/>
					<polygon class="st99" points="45,71 45,70.9 32.8,66.2 32.8,66.3 					"/>
					<polygon class="st100" points="45,70.9 45.1,70.8 32.8,66.1 32.8,66.2 					"/>
					<polygon class="st101" points="45.1,70.8 45.1,70.8 32.9,66 32.8,66.1 					"/>
					<polygon class="st102" points="45.1,70.8 45.2,70.7 32.9,65.9 32.9,66 					"/>
					<polygon class="st103" points="45.2,70.7 45.2,70.6 32.9,65.8 32.9,65.9 					"/>
					<polygon class="st104" points="45.2,70.6 45.2,70.5 33,65.8 32.9,65.8 					"/>
					<polygon class="st105" points="45.2,70.5 45.2,70.4 33,65.7 33,65.8 					"/>
					<polygon class="st106" points="33,65.7 33,65.6 45.2,70.3 45.2,70.4 45.2,70.4 					"/>
					<polygon class="st107" points="33,65.6 33.1,65.5 45.2,70.2 45.2,70.3 					"/>
					<polygon class="st108" points="33.1,65.5 33.1,65.4 45.2,70.1 45.2,70.2 					"/>
					<polygon class="st109" points="33.1,65.4 33.1,65.3 45.2,70 45.2,70.1 					"/>
					<polygon class="st110" points="33.1,65.3 33.2,65.3 45.2,69.9 45.2,70 					"/>
					<polygon class="st111" points="33.2,65.3 33.2,65.2 45.2,69.8 45.2,69.9 					"/>
					<polygon class="st112" points="33.2,65.2 33.2,65.1 45.2,69.8 45.2,69.8 					"/>
					<polygon class="st113" points="33.2,65.1 33.3,65 45.2,69.7 45.2,69.8 					"/>
					<polygon class="st114" points="33.3,65 33.3,64.9 45.2,69.6 45.2,69.7 					"/>
					<polygon class="st115" points="33.3,64.9 33.3,64.8 45.2,69.5 45.2,69.6 					"/>
					<polygon class="st116" points="33.3,64.8 33.4,64.8 45.2,69.4 45.2,69.5 					"/>
					<polygon class="st117" points="33.4,64.8 33.4,64.7 45.2,69.3 45.2,69.4 					"/>
					<polygon class="st118" points="33.4,64.7 33.4,64.6 45.2,69.2 45.2,69.3 					"/>
					<polygon class="st119" points="33.4,64.6 33.5,64.5 45.2,69.1 45.2,69.2 					"/>
					<polygon class="st120" points="33.5,64.5 33.5,64.4 45.2,69 45.2,69.1 					"/>
					<polygon class="st121" points="33.5,64.4 33.5,64.3 45.2,68.9 45.2,69 					"/>
					<polygon class="st121" points="33.5,64.3 33.5,64.3 45.2,68.8 45.2,68.9 					"/>
					<polygon class="st122" points="33.5,64.3 33.6,64.2 45.2,68.7 45.2,68.8 					"/>
					<polygon class="st123" points="33.6,64.2 33.6,64.1 45.2,68.6 45.2,68.7 					"/>
					<polygon class="st124" points="33.6,64.1 33.6,64 45.2,68.5 45.2,68.6 					"/>
					<polygon class="st124" points="33.6,64 33.7,63.9 45.2,68.4 45.2,68.5 					"/>
					<polygon class="st125" points="33.7,63.9 33.7,63.8 45.2,68.3 45.2,68.4 					"/>
					<polygon class="st126" points="33.7,63.8 33.7,63.8 45.2,68.2 45.2,68.3 					"/>
					<polygon class="st127" points="33.7,63.8 33.8,63.7 45.2,68.1 45.2,68.2 					"/>
					<polygon class="st127" points="33.8,63.7 33.8,63.6 45.2,68 45.2,68.1 					"/>
					<polygon class="st128" points="33.8,63.6 33.8,63.5 45.2,67.9 45.2,68 					"/>
					<polygon class="st129" points="33.8,63.5 33.9,63.4 45.2,67.8 45.2,67.9 					"/>
					<polygon class="st130" points="33.9,63.4 33.9,63.3 45.2,67.7 45.2,67.8 					"/>
					<polygon class="st131" points="33.9,63.3 33.9,63.2 45.2,67.6 45.2,67.7 					"/>
					<polygon class="st132" points="33.9,63.2 34,63.2 45.2,67.5 45.2,67.6 					"/>
					<polygon class="st132" points="34,63.2 34,63.1 45.2,67.4 45.2,67.5 					"/>
					<polygon class="st133" points="34,63.1 34,63 45.2,67.3 45.2,67.4 					"/>
					<polygon class="st134" points="34,63 34.1,62.9 45.2,67.2 45.2,67.3 					"/>
					<polygon class="st134" points="34.1,62.9 34.1,62.8 45.2,67.2 45.2,67.2 					"/>
					<polygon class="st135" points="34.1,62.8 34.1,62.7 45.2,67.1 45.2,67.2 					"/>
					<polygon class="st135" points="34.1,62.7 34.2,62.7 45.2,66.9 45.2,67.1 					"/>
					<polygon class="st136" points="34.2,62.7 34.2,62.6 45.2,66.9 45.2,66.9 					"/>
					<polygon class="st136" points="34.2,62.6 34.2,62.5 45.2,66.8 45.2,66.9 					"/>
					<polygon class="st137" points="34.2,62.5 34.2,62.4 45.2,66.7 45.2,66.8 					"/>
					<polygon class="st137" points="34.2,62.4 34.3,62.3 45.2,66.6 45.2,66.7 					"/>
					<polygon class="st138" points="34.3,62.3 34.3,62.2 45.2,66.5 45.2,66.6 					"/>
					<polygon class="st139" points="34.3,62.2 34.3,62.2 45.2,66.4 45.2,66.5 					"/>
					<polygon class="st140" points="34.3,62.2 34.4,62.1 34.5,62.1 45.2,66.3 45.2,66.4 					"/>
					<polygon class="st141" points="34.7,62.1 45.2,66.2 45.2,66.3 34.5,62.1 					"/>
					<polygon class="st141" points="35,62.1 45.2,66.1 45.2,66.2 34.7,62.1 					"/>
					<polygon class="st142" points="35.2,62.1 45.2,66 45.2,66.1 35,62.1 					"/>
					<polygon class="st142" points="35.5,62.1 45.2,65.9 45.2,66 35.2,62.1 					"/>
					<polygon class="st142" points="35.7,62.1 45.2,65.8 45.2,65.9 35.5,62.1 					"/>
					<polygon class="st142" points="45.2,65.8 35.7,62.1 45.2,62.1 					"/>
				</g>
			</g>
		</g>
		<path class="st16" d="M38.6,70.7c0.6,0.1,0.9,0.7,0.8,1.3c-0.1,0.6-0.7,0.9-1.3,0.8s-0.9-0.7-0.8-1.3C37.4,70.9,38,70.5,38.6,70.7
			z"/>
		<ellipse class="st16" cx="66" cy="68.3" rx="8.5" ry="8.6"/>
		<g>
			<g>
				<defs>
					<path id="SVGID_00000030446433570310000540000009906085548379245470_" d="M70.6,70.6c-0.6,3.2-3.6,5.3-6.8,4.7
						c-3-0.5-5.1-3.4-4.8-6.4l3.7,0.1l-3.4-1.2c0.8-2.9,3.8-4.7,6.8-4.1C69.2,64.2,71.3,67.4,70.6,70.6z"/>
				</defs>
				<clipPath id="SVGID_00000134953454318405313960000015389051526162085040_">
					<use xlink:href="#SVGID_00000030446433570310000540000009906085548379245470_"  style="overflow:visible;"/>
				</clipPath>
				<g style="clip-path:url(#SVGID_00000134953454318405313960000015389051526162085040_);">
					<polygon class="st18" points="58.7,75.3 60.2,75.9 58.7,75.9 					"/>
					<polygon class="st18" points="58.7,75.3 60.5,75.9 60.2,75.9 					"/>
					<polygon class="st19" points="58.7,75.2 60.7,75.9 60.5,75.9 58.7,75.3 					"/>
					<polygon class="st20" points="58.7,75.1 61,75.9 60.7,75.9 58.7,75.2 					"/>
					<polygon class="st21" points="58.7,75 61.3,75.9 61,75.9 58.7,75.1 					"/>
					<polygon class="st22" points="58.7,74.9 61.6,75.9 61.3,75.9 58.7,75 					"/>
					<polygon class="st23" points="58.7,74.8 61.8,75.9 61.6,75.9 58.7,74.9 					"/>
					<polygon class="st24" points="58.7,74.7 62.1,75.9 61.8,75.9 58.7,74.8 					"/>
					<polygon class="st25" points="58.7,74.6 62.4,75.9 62.1,75.9 58.7,74.7 					"/>
					<polygon class="st26" points="58.7,74.5 62.7,75.9 62.4,75.9 58.7,74.6 					"/>
					<polygon class="st27" points="58.7,74.4 62.9,75.9 62.7,75.9 58.7,74.5 					"/>
					<polygon class="st28" points="58.7,74.3 63.2,75.9 62.9,75.9 58.7,74.4 					"/>
					<polygon class="st29" points="58.7,74.2 63.5,75.9 63.2,75.9 58.7,74.3 					"/>
					<polygon class="st29" points="58.7,74.1 63.8,75.9 63.5,75.9 58.7,74.2 					"/>
					<polygon class="st30" points="58.7,74 64,75.9 63.8,75.9 58.7,74.1 					"/>
					<polygon class="st31" points="58.7,73.9 64.3,75.9 64,75.9 58.7,74 					"/>
					<polygon class="st32" points="58.7,73.8 64.6,75.9 64.3,75.9 58.7,73.9 					"/>
					<polygon class="st33" points="58.7,73.7 64.9,75.9 64.6,75.9 58.7,73.8 					"/>
					<polygon class="st34" points="58.7,73.6 65.1,75.9 64.9,75.9 58.7,73.7 					"/>
					<polygon class="st35" points="58.7,73.6 65.4,75.9 65.1,75.9 					"/>
					<polygon class="st36" points="58.7,73.4 65.7,75.9 65.4,75.9 58.7,73.6 					"/>
					<polygon class="st37" points="58.7,73.4 66,75.9 65.7,75.9 					"/>
					<polygon class="st38" points="58.7,73.3 66.2,75.9 66,75.9 58.7,73.4 					"/>
					<polygon class="st39" points="58.7,73.2 66.5,75.9 66.2,75.9 58.7,73.3 					"/>
					<polygon class="st40" points="58.7,73.1 66.8,75.9 66.5,75.9 58.7,73.2 					"/>
					<polygon class="st41" points="58.7,73 67.1,75.9 66.8,75.9 58.7,73.1 					"/>
					<polygon class="st42" points="58.7,72.9 67.3,75.9 67.1,75.9 58.7,73 					"/>
					<polygon class="st43" points="58.7,72.8 67.6,75.9 67.3,75.9 58.7,72.9 					"/>
					<polygon class="st44" points="58.7,72.7 67.9,75.9 67.6,75.9 58.7,72.8 					"/>
					<polygon class="st45" points="58.7,72.6 68.2,75.9 67.9,75.9 58.7,72.7 					"/>
					<polygon class="st46" points="58.7,72.5 68.4,75.9 68.2,75.9 58.7,72.6 					"/>
					<polygon class="st47" points="58.7,72.4 68.7,75.9 68.4,75.9 58.7,72.5 					"/>
					<polygon class="st48" points="58.7,72.3 69,75.9 68.7,75.9 58.7,72.4 					"/>
					<polygon class="st49" points="58.7,72.2 69.2,75.9 69,75.9 58.7,72.3 					"/>
					<polygon class="st50" points="58.7,72.1 69.5,75.9 69.2,75.9 58.7,72.2 					"/>
					<polygon class="st51" points="58.7,72 69.7,75.8 69.7,75.9 69.5,75.9 58.7,72.1 					"/>
					<polygon class="st52" points="58.7,71.9 69.8,75.8 69.7,75.8 58.7,72 					"/>
					<polygon class="st53" points="58.7,71.8 69.8,75.7 69.8,75.8 58.7,71.9 					"/>
					<polygon class="st54" points="58.7,71.7 69.8,75.6 69.8,75.7 58.7,71.8 					"/>
					<polygon class="st55" points="58.7,71.7 69.8,75.5 69.8,75.6 					"/>
					<polygon class="st56" points="58.7,71.6 69.9,75.4 69.8,75.5 58.7,71.7 					"/>
					<polygon class="st57" points="58.7,71.5 69.9,75.3 69.9,75.4 58.7,71.6 					"/>
					<polygon class="st58" points="58.7,71.4 69.9,75.2 69.9,75.3 58.7,71.5 					"/>
					<polygon class="st59" points="58.7,71.3 70,75.2 69.9,75.2 58.7,71.4 					"/>
					<polygon class="st60" points="58.7,71.2 70,75.1 70,75.2 58.7,71.3 					"/>
					<polygon class="st61" points="58.7,71.1 70,75 70,75.1 58.7,71.2 					"/>
					<polygon class="st62" points="58.7,71 70.1,74.9 70,75 58.7,71.1 					"/>
					<polygon class="st63" points="58.7,70.9 70.1,74.8 70.1,74.9 58.7,71 					"/>
					<polygon class="st64" points="58.7,70.8 70.1,74.7 70.1,74.8 58.7,70.9 					"/>
					<polygon class="st65" points="58.7,70.7 70.1,74.7 70.1,74.7 58.7,70.8 					"/>
					<polygon class="st66" points="58.7,70.6 70.2,74.6 70.1,74.7 58.7,70.7 					"/>
					<polygon class="st67" points="58.7,70.5 70.2,74.5 70.2,74.6 58.7,70.6 					"/>
					<polygon class="st68" points="58.7,70.4 70.2,74.4 70.2,74.5 58.7,70.5 					"/>
					<polygon class="st68" points="58.7,70.3 70.3,74.3 70.2,74.4 58.7,70.4 					"/>
					<polygon class="st69" points="58.7,70.2 70.3,74.2 70.3,74.3 58.7,70.3 					"/>
					<polygon class="st70" points="58.7,70.1 70.3,74.1 70.3,74.2 58.7,70.2 					"/>
					<polygon class="st71" points="58.7,70 70.3,74.1 70.3,74.1 58.7,70.1 					"/>
					<polygon class="st71" points="58.7,69.9 70.4,74 70.3,74.1 58.7,70 					"/>
					<polygon class="st72" points="58.7,69.8 70.4,73.9 70.4,74 58.7,69.9 					"/>
					<polygon class="st73" points="58.7,69.8 70.4,73.8 70.4,73.9 					"/>
					<polygon class="st74" points="58.7,69.7 70.5,73.7 70.4,73.8 58.7,69.8 					"/>
					<polygon class="st75" points="58.7,69.6 70.5,73.6 70.5,73.7 58.7,69.7 					"/>
					<polygon class="st76" points="58.7,69.5 70.5,73.5 70.5,73.6 58.7,69.6 					"/>
					<polygon class="st77" points="58.7,69.4 70.6,73.5 70.5,73.5 58.7,69.5 					"/>
					<polygon class="st78" points="58.7,69.3 70.6,73.4 70.6,73.5 58.7,69.4 					"/>
					<polygon class="st79" points="58.7,69.2 70.6,73.3 70.6,73.4 58.7,69.3 					"/>
					<polygon class="st80" points="58.7,69.1 70.6,73.2 70.6,73.3 58.7,69.2 					"/>
					<polygon class="st81" points="58.7,69 70.7,73.1 70.6,73.2 58.7,69.1 					"/>
					<polygon class="st82" points="58.7,68.9 70.7,73 70.7,73.1 58.7,69 					"/>
					<polygon class="st83" points="58.7,68.8 70.7,72.9 70.7,73 58.7,68.9 					"/>
					<polygon class="st84" points="58.7,68.7 70.8,72.9 70.7,72.9 58.7,68.8 					"/>
					<polygon class="st85" points="58.7,68.6 70.8,72.8 70.8,72.9 58.7,68.7 					"/>
					<polygon class="st86" points="58.7,68.5 70.8,72.7 70.8,72.8 58.7,68.6 					"/>
					<polygon class="st87" points="58.7,68.4 70.8,72.6 70.8,72.7 58.7,68.5 					"/>
					<polygon class="st88" points="58.7,68.3 70.9,72.5 70.8,72.6 58.7,68.4 					"/>
					<polygon class="st89" points="58.7,68.2 70.9,72.4 70.9,72.5 58.7,68.3 					"/>
					<polygon class="st90" points="58.7,68.1 70.9,72.3 70.9,72.4 58.7,68.2 					"/>
					<polygon class="st91" points="58.7,68 70.9,72.3 70.9,72.3 58.7,68.1 					"/>
					<polygon class="st91" points="58.7,67.9 71,72.2 70.9,72.3 58.7,68 					"/>
					<polygon class="st92" points="58.7,67.8 71,72.1 71,72.2 58.7,67.9 					"/>
					<polygon class="st93" points="58.7,67.8 71,72 71,72.1 					"/>
					<polygon class="st94" points="58.7,67.7 71.1,71.9 71,72 58.7,67.8 					"/>
					<polygon class="st95" points="58.7,67.6 71.1,71.8 71.1,71.9 58.7,67.7 					"/>
					<polygon class="st96" points="58.7,67.5 71.1,71.8 71.1,71.8 58.7,67.6 					"/>
					<polygon class="st97" points="58.7,67.5 58.8,67.4 71.2,71.7 71.1,71.8 					"/>
					<polygon class="st98" points="71.2,71.7 71.2,71.6 58.8,67.3 58.8,67.4 					"/>
					<polygon class="st99" points="71.2,71.6 71.2,71.5 58.8,67.2 58.8,67.3 					"/>
					<polygon class="st100" points="71.2,71.5 71.2,71.4 58.8,67.1 58.8,67.2 					"/>
					<polygon class="st101" points="58.8,67.1 58.9,67 71.3,71.3 71.3,71.3 71.2,71.4 					"/>
					<polygon class="st102" points="58.9,67 58.9,66.9 71.3,71.2 71.3,71.3 					"/>
					<polygon class="st103" points="58.9,66.9 58.9,66.9 71.3,71.1 71.3,71.2 					"/>
					<polygon class="st104" points="58.9,66.9 59,66.8 71.3,71 71.3,71.1 					"/>
					<polygon class="st105" points="59,66.8 59,66.7 71.3,70.9 71.3,71 					"/>
					<polygon class="st106" points="59,66.7 59,66.6 71.3,70.8 71.3,70.9 					"/>
					<polygon class="st107" points="59,66.6 59,66.5 71.3,70.8 71.3,70.8 					"/>
					<polygon class="st108" points="59,66.5 59.1,66.4 71.3,70.7 71.3,70.8 					"/>
					<polygon class="st109" points="59.1,66.4 59.1,66.4 71.3,70.6 71.3,70.7 					"/>
					<polygon class="st110" points="59.1,66.4 59.1,66.3 71.3,70.5 71.3,70.6 					"/>
					<polygon class="st111" points="59.1,66.3 59.2,66.2 71.3,70.4 71.3,70.5 					"/>
					<polygon class="st112" points="59.2,66.2 59.2,66.1 71.3,70.3 71.3,70.4 					"/>
					<polygon class="st113" points="59.2,66.1 59.2,66 71.3,70.2 71.3,70.3 					"/>
					<polygon class="st114" points="59.2,66 59.2,65.9 71.3,70.1 71.3,70.2 					"/>
					<polygon class="st115" points="59.2,65.9 59.3,65.8 71.3,70 71.3,70.1 					"/>
					<polygon class="st116" points="59.3,65.8 59.3,65.8 71.3,69.9 71.3,70 					"/>
					<polygon class="st117" points="59.3,65.8 59.3,65.7 71.3,69.8 71.3,69.9 					"/>
					<polygon class="st118" points="59.3,65.7 59.4,65.6 71.3,69.7 71.3,69.8 					"/>
					<polygon class="st119" points="59.4,65.6 59.4,65.5 71.3,69.6 71.3,69.7 					"/>
					<polygon class="st120" points="59.4,65.5 59.4,65.4 71.3,69.5 71.3,69.6 					"/>
					<polygon class="st121" points="59.4,65.4 59.5,65.3 71.3,69.4 71.3,69.5 					"/>
					<polygon class="st121" points="59.5,65.3 59.5,65.2 71.3,69.3 71.3,69.4 					"/>
					<polygon class="st122" points="59.5,65.2 59.5,65.2 71.3,69.2 71.3,69.3 					"/>
					<polygon class="st123" points="59.5,65.2 59.5,65.1 71.3,69.1 71.3,69.2 					"/>
					<polygon class="st124" points="59.5,65.1 59.6,65 71.3,69.1 71.3,69.1 					"/>
					<polygon class="st124" points="59.6,65 59.6,64.9 71.3,68.9 71.3,69.1 					"/>
					<polygon class="st125" points="59.6,64.9 59.6,64.8 71.3,68.9 71.3,68.9 					"/>
					<polygon class="st126" points="59.6,64.8 59.7,64.7 71.3,68.8 71.3,68.9 					"/>
					<polygon class="st127" points="59.7,64.7 59.7,64.7 71.3,68.7 71.3,68.8 					"/>
					<polygon class="st127" points="59.7,64.7 59.7,64.6 71.3,68.6 71.3,68.7 					"/>
					<polygon class="st128" points="59.7,64.6 59.7,64.5 71.3,68.5 71.3,68.6 					"/>
					<polygon class="st129" points="59.7,64.5 59.8,64.4 71.3,68.4 71.3,68.5 					"/>
					<polygon class="st130" points="59.8,64.4 59.8,64.3 71.3,68.3 71.3,68.4 					"/>
					<polygon class="st131" points="59.8,64.3 59.8,64.2 71.3,68.2 71.3,68.3 					"/>
					<polygon class="st132" points="59.8,64.2 59.9,64.2 71.3,68.1 71.3,68.2 					"/>
					<polygon class="st132" points="59.9,64.2 59.9,64.1 71.3,68 71.3,68.1 					"/>
					<polygon class="st133" points="59.9,64.1 59.9,64 71.3,67.9 71.3,68 					"/>
					<polygon class="st134" points="59.9,64 59.9,63.9 71.3,67.8 71.3,67.9 					"/>
					<polygon class="st134" points="59.9,63.9 60,63.8 71.3,67.7 71.3,67.8 					"/>
					<polygon class="st135" points="60,63.8 60,63.7 71.3,67.6 71.3,67.7 					"/>
					<polygon class="st135" points="60,63.7 60,63.6 71.3,67.5 71.3,67.6 					"/>
					<polygon class="st136" points="60,63.6 60.1,63.5 71.3,67.4 71.3,67.5 					"/>
					<polygon class="st136" points="60.1,63.5 60.1,63.5 71.3,67.3 71.3,67.4 					"/>
					<polygon class="st137" points="60.1,63.5 60.1,63.4 71.3,67.2 71.3,67.3 					"/>
					<polygon class="st137" points="60.1,63.4 60.2,63.3 71.3,67.2 71.3,67.2 					"/>
					<polygon class="st138" points="60.2,63.3 60.2,63.2 71.3,67.1 71.3,67.2 					"/>
					<polygon class="st139" points="60.2,63.2 60.2,63.1 71.3,67 71.3,67.1 					"/>
					<polygon class="st140" points="60.2,63.1 60.2,63 71.3,66.9 71.3,67 					"/>
					<polygon class="st141" points="60.2,63 60.3,63 60.3,63 71.3,66.8 71.3,66.9 					"/>
					<polygon class="st141" points="60.6,63 71.3,66.7 71.3,66.8 60.3,63 					"/>
					<polygon class="st142" points="60.8,63 71.3,66.6 71.3,66.7 60.6,63 					"/>
					<polygon class="st142" points="61.1,63 71.3,66.5 71.3,66.6 60.8,63 					"/>
					<polygon class="st142" points="61.4,63 71.3,66.4 71.3,66.5 61.1,63 					"/>
					<polygon class="st142" points="71.3,66.4 61.4,63 71.3,63 					"/>
				</g>
			</g>
		</g>
		<path class="st16" d="M63.7,70.6c0.6,0.2,0.9,0.8,0.7,1.3c-0.1,0.5-0.6,0.8-1.2,0.8c-0.6-0.2-0.9-0.8-0.7-1.3
			C62.7,70.8,63.2,70.5,63.7,70.6z"/>
	</g>
</g>
</svg>
