<svg id="Layer_2" data-name="Layer 2" xmlns="http://www.w3.org/2000/svg" width="27.752" height="29.33" viewBox="0 0 27.752 29.33">
  <g id="Layer_1" data-name="Layer 1">
    <g id="Layer_2-2" data-name="Layer 2">
      <g id="Layer_1-2" data-name="Layer 1-2">
        <g id="Layer_2-2-2" data-name="Layer 2-2">
          <g id="Layer_1-2-2" data-name="Layer 1-2-2">
            <rect id="Rectangle_126" data-name="Rectangle 126" width="27.752" height="27.752" rx="5.79" transform="translate(0 1.578)" fill="#010101" opacity="0.3"/>
            <rect id="Rectangle_127" data-name="Rectangle 127" width="27.752" height="27.752" rx="5.79" transform="translate(0 0.121)" fill="#f7bca3"/>
            <rect id="Rectangle_128" data-name="Rectangle 128" width="26.523" height="26.523" rx="5.79" transform="translate(0.607)" fill="#fff"/>
            <rect id="Rectangle_129" data-name="Rectangle 129" width="24.611" height="24.611" rx="5.79" transform="translate(1.578 0.789)" fill="#f7bca3"/>
            <path id="Path_38672" data-name="Path 38672" d="M16.886,19.709H9.831A8.77,8.77,0,0,1,1,11s.941,7.905,12.563,7.875S25.672,11,25.672,11A8.77,8.77,0,0,1,16.886,19.709Z" transform="translate(0.517 5.691)" fill="#010101" opacity="0.15"/>
            <path id="Path_38673" data-name="Path 38673" d="M16.886.41H9.831A8.77,8.77,0,0,0,1,9.2s1-7.89,12.624-7.89S25.672,9.2,25.672,9.2A8.785,8.785,0,0,0,16.886.41Z" transform="translate(0.517 0.212)" fill="#f9cf9d"/>
            <path id="Path_38674" data-name="Path 38674" d="M12.9,3.465a.819.819,0,0,1-.819.835.835.835,0,1,1,0-1.669h0A.835.835,0,0,1,12.9,3.465Z" transform="translate(5.82 1.361)" fill="#f9cf9d"/>
            <path id="Path_38675" data-name="Path 38675" d="M15.755,4.715c-.121.364-1.517.2-2.428-.258-.349-.167-.516-.349-.546-.561a.7.7,0,0,1,.334-.652C13.752,2.758,15.922,4.229,15.755,4.715Z" transform="translate(6.611 1.628)" fill="#f9cf9d"/>
            <path id="Path_38676" data-name="Path 38676" d="M19.745,7.02l-1.4-1.411a.759.759,0,0,0-1.032,0L9.943,13,6.909,9.964a.759.759,0,0,0-1.032,0L4.45,11.375a.728.728,0,0,0,0,1.017l3.535,3.535.88.9a1.517,1.517,0,0,0,2.048,0l.9-.9,7.92-7.905a.728.728,0,0,0,.015-1Z" transform="translate(2.195 2.797)" fill="#fff"/>
            <path id="Path_38677" data-name="Path 38677" d="M18.01,5.6a.713.713,0,0,1,.5.212l1.426,1.411a.728.728,0,0,1,0,1.017l-7.89,7.905-.88.9a1.517,1.517,0,0,1-2.048,0l-.9-.9L4.658,12.581a.728.728,0,0,1,0-1.017l1.381-1.411a.728.728,0,0,1,1.032,0l3.035,3.035L17.495,5.8a.743.743,0,0,1,.516-.212m0-.577a1.335,1.335,0,0,0-.926.379l-6.949,6.995L7.511,9.774a1.3,1.3,0,0,0-1.836,0L4.248,11.186a1.29,1.29,0,0,0,0,1.821h0l3.535,3.535.9.9a2,2,0,0,0,2.837,0h0l.9-.9,7.905-7.905a1.29,1.29,0,0,0,0-1.836h0L18.906,5.389A1.3,1.3,0,0,0,18,5.01Z" transform="translate(2.003 2.592)" fill="#fad09d"/>
            <path id="Path_38678" data-name="Path 38678" d="M11.572,9.846,9.933,11.515,6.9,8.48a.728.728,0,0,0-1.017,0L4.47,9.892a.728.728,0,0,0,0,1.017l3.535,3.535.88.9a1.517,1.517,0,0,0,2.048,0l.9-.9,4.552-4.552Z" transform="translate(2.206 4.28)" fill="#010101" opacity="0.05"/>
          </g>
        </g>
      </g>
    </g>
  </g>
</svg>
