<svg xmlns="http://www.w3.org/2000/svg" viewBox="0 0 37.94 40.09"><defs><style>.cls-1,.cls-4,.cls-6{fill:#010101;}.cls-1{opacity:0.3;}.cls-2{fill:#fff;}.cls-3{fill:#f7bca3;}.cls-4{opacity:0.15;}.cls-5{fill:#f9cf9d;}.cls-6{opacity:0.05;}</style></defs><g id="Layer_2" data-name="Layer 2"><g id="Layer_1-2" data-name="Layer 1"><rect class="cls-1" y="2.16" width="37.94" height="37.94" rx="12"/><rect class="cls-2" y="0.16" width="37.94" height="37.94" rx="12"/><rect class="cls-3" x="0.84" width="36.25" height="36.25" rx="12"/><rect class="cls-2" x="2.15" y="1.08" width="33.64" height="33.64" rx="12"/><path class="cls-4" d="M23.79,34.73H14.15a12,12,0,0,1-12-12s1.3,10.8,17.18,10.76S35.79,22.73,35.79,22.73A12,12,0,0,1,23.79,34.73Z"/><path class="cls-5" d="M23.79.86H14.15a12,12,0,0,0-12,12S3.45,2.06,19.33,2.1,35.79,12.86,35.79,12.86A12,12,0,0,0,23.79.86Z"/><path class="cls-5" d="M25.6,6.59a1.14,1.14,0,1,1-1.13-1.13A1.14,1.14,0,0,1,25.6,6.59Z"/><path class="cls-5" d="M30.58,8.67c-.17.49-2.13.26-3.33-.35-.47-.24-.7-.48-.75-.76a1,1,0,0,1,.37-.91C27.83,6,30.8,8,30.58,8.67Z"/><path class="cls-3" d="M26.35,22l-4.1-4.1,4.1-4.09a1,1,0,0,0,0-1.39l-1.9-1.9a1,1,0,0,0-1.38,0L19,14.62l-4.1-4.1a1,1,0,0,0-1.38,0l-1.91,1.9a1,1,0,0,0,0,1.39l4.1,4.09L11.58,22a1,1,0,0,0,0,1.39l1.91,1.9a1,1,0,0,0,1.38,0l4.1-4.1,4.1,4.1a1,1,0,0,0,1.38,0l1.9-1.9A1,1,0,0,0,26.35,22Z"/><path class="cls-5" d="M23.76,10.23a1,1,0,0,1,.69.29l1.9,1.9a1,1,0,0,1,0,1.39l-4.1,4.09,4.1,4.1a1,1,0,0,1,0,1.39l-1.9,1.9a1,1,0,0,1-1.38,0L19,21.19l-4.1,4.1a1,1,0,0,1-1.38,0l-1.91-1.9a1,1,0,0,1,0-1.39l4.1-4.1-4.1-4.09a1,1,0,0,1,0-1.39l1.91-1.9a1,1,0,0,1,1.38,0l4.1,4.1,4.1-4.1a1,1,0,0,1,.69-.29m0-.78a1.75,1.75,0,0,0-1.25.52L19,13.51,15.42,10a1.71,1.71,0,0,0-1.24-.52,1.75,1.75,0,0,0-1.25.52L11,11.87a1.76,1.76,0,0,0,0,2.49l3.55,3.54L11,21.45a1.76,1.76,0,0,0,0,2.49l1.9,1.9a1.75,1.75,0,0,0,1.25.52,1.71,1.71,0,0,0,1.24-.52L19,22.3l3.54,3.54a1.75,1.75,0,0,0,1.25.52A1.71,1.71,0,0,0,25,25.84l1.91-1.9a1.77,1.77,0,0,0,0-2.49L23.36,17.9l3.55-3.54a1.77,1.77,0,0,0,0-2.49L25,10a1.71,1.71,0,0,0-1.24-.52Z"/><path class="cls-6" d="M11.58,22a1,1,0,0,0,0,1.39l1.91,1.9a1,1,0,0,0,1.38,0l4.1-4.1,4.1,4.1a1,1,0,0,0,1.38,0l1.9-1.9a1,1,0,0,0,0-1.39l-4-4H15.6Z"/></g></g></svg>