<svg xmlns="http://www.w3.org/2000/svg" viewBox="0 0 37.94 40.1"><defs><style>.cls-1,.cls-4{fill:#010101;isolation:isolate;}.cls-1{opacity:0.3;}.cls-2{fill:#fff;}.cls-3{fill:#f7bca3;}.cls-4{opacity:0.15;}.cls-5{fill:#f9cf9d;}</style></defs><g id="Layer_2" data-name="Layer 2"><g id="Layer_1-2" data-name="Layer 1"><g id="Layer_2-2" data-name="Layer 2"><g id="Layer_1-2-2" data-name="Layer 1-2"><rect class="cls-1" y="2.16" width="37.94" height="37.94" rx="12"/><rect class="cls-2" y="0.16" width="37.94" height="37.94" rx="12"/><rect class="cls-3" x="0.84" width="36.25" height="36.25" rx="12"/><rect class="cls-2" x="2.15" y="1.08" width="33.64" height="33.64" rx="12"/><path class="cls-4" d="M23.79,34.73H14.15a12,12,0,0,1-12-12s1.3,10.8,17.18,10.76S35.79,22.73,35.79,22.73A12,12,0,0,1,23.79,34.73Z"/><path class="cls-5" d="M23.79.86H14.15a12,12,0,0,0-12,12S3.45,2.06,19.33,2.1,35.79,12.86,35.79,12.86A12,12,0,0,0,23.79.86Z"/><path class="cls-5" d="M25.6,6.59a1.14,1.14,0,1,1-1.15-1.13h0A1.15,1.15,0,0,1,25.6,6.59Z"/><path class="cls-5" d="M30.58,8.67c-.17.49-2.13.26-3.33-.35-.47-.24-.7-.48-.75-.76a1,1,0,0,1,.37-.91C27.83,6,30.8,8,30.58,8.67Z"/></g></g></g></g></svg>