<svg xmlns="http://www.w3.org/2000/svg" viewBox="0 0 21.97 25.58"><defs><style>.cls-1{isolation:isolate;}.cls-2{mix-blend-mode:multiply;}.cls-3{fill:#f7bca3;}.cls-3,.cls-5{fill-rule:evenodd;}.cls-4{fill:#fad09d;}.cls-5{fill:#010101;opacity:0.05;}</style></defs><g class="cls-1"><g id="Layer_2" data-name="Layer 2"><g id="Layer_1-2" data-name="Layer 1"><g class="cls-2"><path class="cls-3" d="M11,25.08a.51.51,0,0,1-.39-.19L.61,12.11a.49.49,0,0,1-.06-.52A.48.48,0,0,1,1,11.31H5.8V1A.5.5,0,0,1,6.3.5h9.36a.5.5,0,0,1,.5.5V11.31H21a.49.49,0,0,1,.39.8l-10,12.78A.51.51,0,0,1,11,25.08Z"/><path class="cls-4" d="M15.67,1V11.81H21L11,24.58,1,11.81H6.3V1h9.37m0-1H6.3a1,1,0,0,0-1,1v9.81H1a1,1,0,0,0-.79,1.61l10,12.78a1,1,0,0,0,1.57,0l10-12.78a1,1,0,0,0,.11-1.05,1,1,0,0,0-.9-.56h-4.3V1a1,1,0,0,0-1-1Z"/></g><g class="cls-2"><polygon class="cls-5" points="10.98 24.58 1 11.8 6.3 11.8 6.3 1 10.98 1 10.98 24.58"/></g></g></g></g></svg>