<svg id="Layer_2" data-name="Layer 2" xmlns="http://www.w3.org/2000/svg" width="27.752" height="29.33" viewBox="0 0 27.752 29.33">
  <g id="Layer_1" data-name="Layer 1">
    <g id="Layer_2-2" data-name="Layer 2">
      <g id="Layer_1-2" data-name="Layer 1-2">
        <g id="Layer_2-2-2" data-name="Layer 2-2">
          <g id="Layer_1-2-2" data-name="Layer 1-2-2">
            <rect id="Rectangle_126" data-name="Rectangle 126" width="27.752" height="27.752" rx="5.79" transform="translate(0 1.578)" fill="#010101" opacity="0.3"/>
            <rect id="Rectangle_127" data-name="Rectangle 127" width="27.752" height="27.752" rx="5.79" transform="translate(0 0.121)" fill="#fff"/>
            <rect id="Rectangle_128" data-name="Rectangle 128" width="26.523" height="26.523" rx="5.79" transform="translate(0.607)" fill="#f7c2ab"/>
            <rect id="Rectangle_129" data-name="Rectangle 129" width="24.611" height="24.611" rx="5.79" transform="translate(1.578 0.789)" fill="#fff"/>
            <path id="Path_38672" data-name="Path 38672" d="M16.886,19.709H9.831A8.77,8.77,0,0,1,1,11s.941,7.905,12.563,7.875S25.672,11,25.672,11A8.77,8.77,0,0,1,16.886,19.709Z" transform="translate(0.517 5.691)" fill="#010101" opacity="0.15"/>
            <path id="Path_38673" data-name="Path 38673" d="M16.886.41H9.831A8.77,8.77,0,0,0,1,9.2s1-7.89,12.624-7.89S25.672,9.2,25.672,9.2A8.785,8.785,0,0,0,16.886.41Z" transform="translate(0.517 0.212)" fill="#f9cf9d"/>
            <path id="Path_38674" data-name="Path 38674" d="M12.9,3.465a.819.819,0,0,1-.819.835.835.835,0,1,1,0-1.669h0A.835.835,0,0,1,12.9,3.465Z" transform="translate(5.82 1.361)" fill="#f9cf9d"/>
            <path id="Path_38675" data-name="Path 38675" d="M15.755,4.715c-.121.364-1.517.2-2.428-.258-.349-.167-.516-.349-.546-.561a.7.7,0,0,1,.334-.652C13.752,2.758,15.922,4.229,15.755,4.715Z" transform="translate(6.611 1.628)" fill="#f9cf9d"/>
          </g>
        </g>
      </g>
    </g>
  </g>
</svg>
