<svg xmlns="http://www.w3.org/2000/svg" viewBox="0 0 18.29 19.33"><defs><style>.cls-1,.cls-4,.cls-7{fill:#010101;isolation:isolate;}.cls-1{opacity:0.3;}.cls-2{fill:#f7bca3;}.cls-3{fill:#fff;}.cls-4{opacity:0.15;}.cls-5{fill:#f9cf9d;}.cls-6{fill:#fad09d;}.cls-7{opacity:0.05;}</style></defs><g id="Layer_2" data-name="Layer 2"><g id="Layer_1-2" data-name="Layer 1"><g id="Layer_2-2" data-name="Layer 2"><g id="Layer_1-2-2" data-name="Layer 1-2"><g id="Layer_2-2-2" data-name="Layer 2-2"><g id="Layer_1-2-2-2" data-name="Layer 1-2-2"><rect class="cls-1" y="1.04" width="18.29" height="18.29" rx="5.79"/><rect class="cls-2" y="0.08" width="18.29" height="18.29" rx="5.79"/><rect class="cls-3" x="0.4" width="17.48" height="17.48" rx="5.79"/><rect class="cls-2" x="1.04" y="0.52" width="16.22" height="16.22" rx="5.79"/><path class="cls-4" d="M11.47,16.74H6.82A5.78,5.78,0,0,1,1,11s.62,5.21,8.28,5.19S17.26,11,17.26,11A5.78,5.78,0,0,1,11.47,16.74Z"/><path class="cls-5" d="M11.47.41H6.82A5.78,5.78,0,0,0,1,6.2S1.66,1,9.32,1,17.26,6.2,17.26,6.2A5.79,5.79,0,0,0,11.47.41Z"/><path class="cls-5" d="M12.34,3.18a.54.54,0,0,1-.54.55.55.55,0,1,1,0-1.1h0A.55.55,0,0,1,12.34,3.18Z"/><path class="cls-5" d="M14.74,4.18c-.08.24-1,.13-1.6-.17-.23-.11-.34-.23-.36-.37A.46.46,0,0,1,13,3.21C13.42,2.89,14.85,3.86,14.74,4.18Z"/><path class="cls-3" d="M14.46,6.47l-.92-.93a.5.5,0,0,0-.68,0L8,10.41l-2-2a.5.5,0,0,0-.68,0l-.94.93a.48.48,0,0,0,0,.67l2.33,2.33.58.59a1,1,0,0,0,1.35,0l.59-.59,5.22-5.21A.48.48,0,0,0,14.46,6.47Z"/><path class="cls-6" d="M13.19,5.4a.47.47,0,0,1,.33.14l.94.93a.48.48,0,0,1,0,.67l-5.2,5.21-.58.59a1,1,0,0,1-1.35,0l-.59-.59L4.39,10a.48.48,0,0,1,0-.67l.91-.93a.48.48,0,0,1,.68,0l2,2,4.87-4.87a.49.49,0,0,1,.34-.14m0-.38a.88.88,0,0,0-.61.25L8,9.87,6.27,8.15a.86.86,0,0,0-1.21,0l-.94.93a.85.85,0,0,0,0,1.2h0l2.33,2.33.59.59a1.32,1.32,0,0,0,1.87,0h0l.59-.59,5.21-5.21a.85.85,0,0,0,0-1.21h0l-.93-.93a.86.86,0,0,0-.6-.25Z"/><path class="cls-7" d="M9.08,9.31,8,10.41l-2-2a.48.48,0,0,0-.67,0l-.93.93a.48.48,0,0,0,0,.67l2.33,2.33.58.59a1,1,0,0,0,1.35,0l.59-.59,3-3Z"/></g></g></g></g></g></g></svg>