<svg xmlns="http://www.w3.org/2000/svg" viewBox="0 0 37.94 40.09"><defs><style>.cls-1,.cls-4,.cls-8{fill:#010101;}.cls-1{opacity:0.3;}.cls-2{fill:#fff;}.cls-3{fill:#f7bca3;}.cls-4{opacity:0.15;}.cls-5{fill:#f9cf9d;}.cls-6{opacity:0.98;}.cls-7{fill:#fad09d;}.cls-8{opacity:0.05;}</style></defs><g id="Layer_2" data-name="Layer 2"><g id="Layer_1-2" data-name="Layer 1"><rect class="cls-1" y="2.16" width="37.94" height="37.94" rx="12"/><rect class="cls-2" y="0.16" width="37.94" height="37.94" rx="12"/><rect class="cls-3" x="0.84" width="36.25" height="36.25" rx="12"/><rect class="cls-2" x="2.15" y="1.08" width="33.64" height="33.64" rx="12"/><path class="cls-4" d="M23.79,34.73H14.15a12,12,0,0,1-12-12s1.3,10.8,17.18,10.76S35.79,22.73,35.79,22.73A12,12,0,0,1,23.79,34.73Z"/><path class="cls-5" d="M23.79.86H14.15a12,12,0,0,0-12,12S3.45,2.06,19.33,2.1,35.79,12.86,35.79,12.86A12,12,0,0,0,23.79.86Z"/><path class="cls-5" d="M25.6,6.59a1.14,1.14,0,1,1-1.13-1.13A1.14,1.14,0,0,1,25.6,6.59Z"/><path class="cls-5" d="M30.58,8.67c-.17.49-2.13.26-3.33-.35-.47-.24-.7-.48-.75-.76a1,1,0,0,1,.37-.91C27.83,6,30.8,8,30.58,8.67Z"/><g class="cls-6"><path class="cls-3" d="M12.26,26.76a.51.51,0,0,1-.51-.5.5.5,0,0,1,.08-.26V20l-1,.05c-.52,0-1,.06-1.51.07h0a.51.51,0,0,1-.44-.26.49.49,0,0,1,0-.52,38.78,38.78,0,0,1,3-4.1,57.73,57.73,0,0,1,4.59-4.66l.89-.84a1.84,1.84,0,0,1,1.11-.6h0a1.93,1.93,0,0,1,1.15.43,36.7,36.7,0,0,1,6.87,6c.44.52.86,1,1.26,1.57l.23.33c.18.28.66,1,.81,1.18a.5.5,0,0,1-.22.91c-1.05.14-2,.22-2.87.25-.05,1,0,2.18.07,3.29.05.9.1,1.75.09,2.53a1,1,0,0,1-.4.88,1.36,1.36,0,0,1-.76.16h0c-.25,0-.54,0-.77-.05l-.27,0-.91-.05L22,26.5h-.13a.32.32,0,0,1-.14,0,.53.53,0,0,1-.29-.1.5.5,0,0,1-.18-.43c0-.68.11-3,.11-3,0-.21,0-.89,0-1.38h-.05l-.43,0-2,.08-2.4.1c0,.43-.05,1-.06,1.51s0,.71,0,.94,0,.63,0,.95c0,.11,0,.23,0,.34a5,5,0,0,1,0,.67.5.5,0,0,1-.42.45,1.67,1.67,0,0,1-.32,0h-.15a11.49,11.49,0,0,1-1.75.1H12.26Z"/><path class="cls-7" d="M18.64,9.68a1.47,1.47,0,0,1,.79.34A36.48,36.48,0,0,1,26.2,15.9c.43.5.85,1,1.25,1.55a18.08,18.08,0,0,0,1.14,1.61h0a23.88,23.88,0,0,1-3.27.25c-.17,2,.15,4.42.13,6.32a.57.57,0,0,1-.17.46,1,1,0,0,1-.49.08c-.37,0-.83-.06-1-.07-.6,0-1.19-.08-1.78-.1l-.2,0h-.06c0-.67.05-1.34.07-2,0-.34,0-.68,0-1s0-1.63-.07-1.94h-.1c-.15,0-.31,0-.46,0s-.41,0-.61,0c-1.54.07-3.09.11-4.63.19-.12.64-.09,2.25-.13,2.9,0,.32,0,.65,0,1s0,.66,0,1c-.15,0-.31,0-.47,0a11.45,11.45,0,0,1-1.67.09H12.3a.06.06,0,0,0,0-.05V19.52c-.94,0-2,.12-3,.14a37.19,37.19,0,0,1,3-4.05,66.85,66.85,0,0,1,5.45-5.46,1.36,1.36,0,0,1,.8-.47h.05m10,9.38h0M12.3,26.25h0s0,0,0,0h0M18.64,8.68h-.12a2.35,2.35,0,0,0-1.42.74l-.9.84A57.28,57.28,0,0,0,11.57,15,39.84,39.84,0,0,0,8.51,19.1a1,1,0,0,0,.83,1.56h0c.48,0,1,0,1.53-.07l.43,0v5.32a.87.87,0,0,0-.07.39,1,1,0,0,0,1,1h1.41a12.49,12.49,0,0,0,1.82-.1h.08a2.83,2.83,0,0,0,.41,0,1,1,0,0,0,.83-.89,6.08,6.08,0,0,0,0-.74c0-.11,0-.21,0-.32,0-.31,0-.61,0-.92s0-.58,0-1,0-.7,0-1l1.93-.08,1.82-.07h.18c0,.36,0,.71,0,.84l0,.92v.1c0,.68-.05,1.35-.07,2a1,1,0,0,0,.4.84,1.09,1.09,0,0,0,.6.19H22l.86.05.92.05.25,0c.23,0,.53.05.81.05a2,2,0,0,0,1-.24,1.52,1.52,0,0,0,.62-1.29c0-.8,0-1.66-.09-2.57s-.1-1.89-.09-2.78c.76,0,1.56-.12,2.45-.24a1,1,0,0,0,.88-1,1,1,0,0,0-.37-.78c-.18-.22-.58-.83-.74-1.08l-.25-.36c-.41-.54-.84-1.08-1.28-1.59A37.28,37.28,0,0,0,20,9.2a2.39,2.39,0,0,0-1.36-.52ZM12.3,27.25Z"/></g><path class="cls-8" d="M25.32,19.31c1.09,0-13.94.23-13,.21V26.2c0,.09-.13.05,0,.05a26.07,26.07,0,0,0,3.06-.1c.16,0,.32,0,.47,0,0-.31,0-.65,0-1s0-.65,0-1c0-.65,0-2.26.13-2.9,1.54-.08,3.09-.12,4.63-.19.2,0,.41,0,.61,0a2.64,2.64,0,0,1,.56,0c0,.31.08,1.62.07,1.94s0,.68,0,1c0,.67-.05,1.34-.07,2A1.13,1.13,0,0,1,22,26c.59,0,1.18.08,1.78.1.3,0,1.25.16,1.51,0a.57.57,0,0,0,.17-.46C25.47,23.73,25.15,21.3,25.32,19.31Z"/></g></g></svg>