<svg xmlns="http://www.w3.org/2000/svg" viewBox="0 0 20.58 21.97"><defs><style>.cls-1{isolation:isolate;}.cls-2{mix-blend-mode:multiply;}.cls-3{fill:#f7bca3;}.cls-3,.cls-5{fill-rule:evenodd;}.cls-4{fill:#fad09d;}.cls-5{fill:#010101;opacity:0.05;}</style></defs><g class="cls-1"><g id="Layer_2" data-name="Layer 2"><g id="Layer_1-2" data-name="Layer 1"><g class="cls-2"><path class="cls-3" d="M13.78,21.47a.51.51,0,0,1-.31-.11L.69,11.38A.51.51,0,0,1,.5,11a.49.49,0,0,1,.19-.39L13.47.61A.51.51,0,0,1,13.78.5.59.59,0,0,1,14,.55a.5.5,0,0,1,.28.45V5.8h5.3a.5.5,0,0,1,.5.5v9.36a.5.5,0,0,1-.5.5h-5.3V21a.51.51,0,0,1-.28.45A.59.59,0,0,1,13.78,21.47Z"/><path class="cls-4" d="M13.78,1V6.3h5.8v9.36h-5.8V21L1,11,13.78,1m0-1a1,1,0,0,0-.62.21L.38,10.2a1,1,0,0,0,0,1.57l12.78,10a1,1,0,0,0,.62.21.91.91,0,0,0,.43-.1,1,1,0,0,0,.57-.9V16.66h4.8a1,1,0,0,0,1-1V6.3a1,1,0,0,0-1-1h-4.8V1a1,1,0,0,0-.57-.9.91.91,0,0,0-.43-.1Z"/></g><g class="cls-2"><polygon class="cls-5" points="1 10.98 13.78 20.97 13.78 15.66 19.58 15.66 19.58 10.98 1 10.98"/></g></g></g></g></svg>