<svg xmlns="http://www.w3.org/2000/svg" viewBox="0 0 37.94 40.09"><defs><style>.cls-1,.cls-4,.cls-8{fill:#010101;}.cls-1{opacity:0.3;}.cls-2{fill:#fff;}.cls-3{fill:#f7bca3;}.cls-4{opacity:0.15;}.cls-5{fill:#f9cf9d;}.cls-6{opacity:0.98;}.cls-7{fill:#fad09d;}.cls-8{opacity:0.05;}</style></defs><g id="Layer_2" data-name="Layer 2"><g id="Layer_1-2" data-name="Layer 1"><rect class="cls-1" y="2.16" width="37.94" height="37.94" rx="12"/><rect class="cls-2" y="0.16" width="37.94" height="37.94" rx="12"/><rect class="cls-3" x="0.84" width="36.25" height="36.25" rx="12"/><rect class="cls-2" x="2.15" y="1.08" width="33.64" height="33.64" rx="12"/><path class="cls-4" d="M23.79,34.73H14.15a12,12,0,0,1-12-12s1.3,10.8,17.18,10.76S35.79,22.73,35.79,22.73A12,12,0,0,1,23.79,34.73Z"/><path class="cls-5" d="M23.79.86H14.15a12,12,0,0,0-12,12S3.45,2.06,19.33,2.1,35.79,12.86,35.79,12.86A12,12,0,0,0,23.79.86Z"/><path class="cls-5" d="M25.6,6.59a1.14,1.14,0,1,1-1.13-1.13A1.14,1.14,0,0,1,25.6,6.59Z"/><path class="cls-5" d="M30.58,8.67c-.17.49-2.13.26-3.33-.35-.47-.24-.7-.48-.75-.76a1,1,0,0,1,.37-.91C27.83,6,30.8,8,30.58,8.67Z"/><g class="cls-6"><path class="cls-7" d="M20.26,27.9a1.28,1.28,0,0,1-.73-.27,1.33,1.33,0,0,1-.44-.91c0-.2-.08-.45-.11-.69s0-.23,0-.34a.81.81,0,0,0,0-.16,4,4,0,0,1-.1-.71c0-.48-.06-1-.08-1.44,0-.95-.06-1.91-.06-2.86s0-1.91.08-2.87.11-1.74.18-2.6l.13-1.51,0-.64s0-.3.05-.38a1,1,0,0,1,1-1.07,1,1,0,0,1,.48.12,10.46,10.46,0,0,1,2,1.48c.44.41.92.94,1.37,1.45.26.29.51.57.75.82a26.68,26.68,0,0,0,3.12.37H28a1,1,0,0,1,.79.38.91.91,0,0,1,.18.37l.07.22a6.4,6.4,0,0,1,.19,1,27.85,27.85,0,0,1-.08,4.66l-.05.69a1,1,0,0,1-.9,1l-.34,0a1.58,1.58,0,0,1-.33.11,19.32,19.32,0,0,1-2.8.41,13.55,13.55,0,0,1-3.85,3.21A1.22,1.22,0,0,1,20.26,27.9Z"/><path class="cls-3" d="M20.2,12.45A9,9,0,0,1,22,13.78c.74.68,1.6,1.75,2.32,2.47a28.21,28.21,0,0,0,3.61.44H28s.07.25.08.27a4.87,4.87,0,0,1,.15.76,32.12,32.12,0,0,1-.13,5.19v0a2.34,2.34,0,0,0-.45.07l-.35.11a17.76,17.76,0,0,1-2.81.39h-.08l-.18,0a12.75,12.75,0,0,1-3.83,3.31.49.49,0,0,1-.16,0,.11.11,0,0,1-.08,0,.44.44,0,0,1-.1-.29c0-.22-.08-.45-.1-.68a6,6,0,0,0-.06-.61,3.19,3.19,0,0,1-.07-.54c0-.47-.06-.94-.08-1.41q-.06-1.41-.06-2.82c0-.94,0-1.88.08-2.82s.12-1.87.2-2.81c0-.42.06-.84.1-1.27l.06-.63a3.61,3.61,0,0,0,.05-.54"/><path class="cls-8" d="M28.12,22.91v0a2.34,2.34,0,0,0-.45.07l-.35.11a17.79,17.79,0,0,1-2.8.39,2.13,2.13,0,0,0-.27,0,12.75,12.75,0,0,1-3.83,3.31c-.08,0-.17.08-.24,0a.44.44,0,0,1-.1-.29c0-.22-.08-.45-.1-.68a6,6,0,0,0-.06-.61,3.19,3.19,0,0,1-.07-.54c0-.47-.06-.94-.08-1.41,0-.94-.06-3.32-.06-4.26h8.61C28.29,20.22,28.16,22.43,28.12,22.91Z"/></g><path class="cls-3" d="M16.18,22.25l-2.49-2.49,2.49-2.49a.59.59,0,0,0,0-.83L15,15.28a.6.6,0,0,0-.84,0L11.7,17.77,9.21,15.28a.6.6,0,0,0-.84,0L7.22,16.44a.59.59,0,0,0,0,.83L9.7,19.76,7.22,22.25a.59.59,0,0,0,0,.83l1.15,1.16a.6.6,0,0,0,.84,0l2.49-2.49,2.48,2.49a.6.6,0,0,0,.84,0l1.16-1.16A.59.59,0,0,0,16.18,22.25Z"/><path class="cls-5" d="M14.6,15.11a.57.57,0,0,1,.42.17l1.16,1.16a.59.59,0,0,1,0,.83l-2.49,2.49,2.49,2.49a.59.59,0,0,1,0,.83L15,24.24a.57.57,0,0,1-.42.17.58.58,0,0,1-.42-.17L11.7,21.75,9.21,24.24a.57.57,0,0,1-.42.17.58.58,0,0,1-.42-.17L7.22,23.08a.59.59,0,0,1,0-.83L9.7,19.76,7.22,17.27a.59.59,0,0,1,0-.83l1.15-1.16a.58.58,0,0,1,.42-.17.57.57,0,0,1,.42.17l2.49,2.49,2.48-2.49a.58.58,0,0,1,.42-.17m0-.48a1.06,1.06,0,0,0-.75.31L11.7,17.1,9.55,14.94a1.08,1.08,0,0,0-.76-.31,1.06,1.06,0,0,0-.75.31L6.88,16.1a1.08,1.08,0,0,0,0,1.51L9,19.76,6.88,21.91a1.08,1.08,0,0,0,0,1.51L8,24.57a1,1,0,0,0,.75.32,1.05,1.05,0,0,0,.76-.32l2.15-2.15,2.15,2.15a1.05,1.05,0,0,0,1.51,0l1.15-1.15a1.06,1.06,0,0,0,0-1.51l-2.15-2.15,2.15-2.15a1.07,1.07,0,0,0,0-1.51l-1.15-1.16a1.07,1.07,0,0,0-.76-.31Z"/><path class="cls-8" d="M7.22,22.25a.59.59,0,0,0,0,.83l1.15,1.16a.6.6,0,0,0,.84,0l2.49-2.49,2.48,2.49a.6.6,0,0,0,.84,0l1.16-1.16a.59.59,0,0,0,0-.83l-2.44-2.44H9.66Z"/></g></g></svg>