<svg xmlns="http://www.w3.org/2000/svg" viewBox="0 0 71.55 42.64"><defs><style>.cls-1,.cls-6{fill:#010101;}.cls-1{opacity:0.3;}.cls-2{fill:#fff;}.cls-3,.cls-5{fill:#f7bca3;}.cls-4{fill:#f9cf9d;}.cls-5{font-size:25px;font-family:BubbleBobble, Bubble Bobble;}.cls-6{opacity:0.15;}</style></defs><g id="Layer_2" data-name="Layer 2"><g id="Layer_1-2" data-name="Layer 1"><rect class="cls-1" y="2.29" width="71.55" height="40.35" rx="12"/><rect class="cls-2" y="0.17" width="71.55" height="40.35" rx="12"/><rect class="cls-3" x="1.59" width="68.37" height="38.56" rx="12"/><rect class="cls-2" x="4.05" y="1.15" width="63.46" height="35.79" rx="12"/><path class="cls-4" d="M59.21,9.14A1.13,1.13,0,1,1,58.08,8,1.13,1.13,0,0,1,59.21,9.14Z"/><path class="cls-4" d="M64.19,11.22c-.17.49-2.12.26-3.33-.35-.47-.24-.69-.48-.75-.75a1,1,0,0,1,.37-.92C61.44,8.53,64.41,10.57,64.19,11.22Z"/><text class="cls-5" transform="translate(23.38 27.29)">No</text><path class="cls-4" d="M35.77,2C66.46,2,67.5,13.15,67.5,13.15a12,12,0,0,0-12-12H16.05a12,12,0,0,0-12,12S5.94,2,35.77,2Z"/><path class="cls-6" d="M35.77,36.17C66.46,36.15,67.5,25,67.5,25a12,12,0,0,1-12,12H16.05a12,12,0,0,1-12-12S5.94,36.18,35.77,36.17Z"/></g></g></svg>