<svg xmlns="http://www.w3.org/2000/svg" viewBox="0 0 37.94 40.09"><defs><style>.cls-1,.cls-4,.cls-9{fill:#010101;}.cls-1{opacity:0.3;}.cls-2{fill:#f7bca3;}.cls-3{fill:#fff;}.cls-4{opacity:0.15;}.cls-5{fill:#f9cf9d;}.cls-6{fill:#fad09d;}.cls-7,.cls-8{fill:none;stroke-linecap:round;stroke-linejoin:round;}.cls-7{stroke:#fbd19d;stroke-width:1.75px;}.cls-8{stroke:#fff;}.cls-9{opacity:0.05;}</style></defs><g id="Layer_2" data-name="Layer 2"><g id="Layer_1-2" data-name="Layer 1"><rect class="cls-1" y="2.16" width="37.94" height="37.94" rx="12"/><rect class="cls-2" y="0.16" width="37.94" height="37.94" rx="12"/><rect class="cls-3" x="0.84" width="36.25" height="36.25" rx="12"/><rect class="cls-2" x="2.15" y="0.92" width="33.64" height="33.64" rx="12"/><path class="cls-4" d="M23.79,34.73H14.15a12,12,0,0,1-12-12s1.3,10.8,17.18,10.76S35.79,22.73,35.79,22.73A12,12,0,0,1,23.79,34.73Z"/><path class="cls-5" d="M23.79.86H14.15a12,12,0,0,0-12,12S3.45,2.06,19.33,2.1,35.79,12.86,35.79,12.86A12,12,0,0,0,23.79.86Z"/><path class="cls-5" d="M25.6,6.59a1.14,1.14,0,1,1-1.13-1.13A1.14,1.14,0,0,1,25.6,6.59Z"/><path class="cls-5" d="M30.58,8.67c-.17.49-2.13.26-3.33-.35-.47-.24-.7-.48-.75-.76a1,1,0,0,1,.37-.91C27.83,6,30.8,8,30.58,8.67Z"/><g id="Layer_2-2" data-name="Layer 2"><g id="Capa_1" data-name="Capa 1"><path class="cls-3" d="M19,20.05a3.51,3.51,0,0,1-3.51-3.51V10.87a3.51,3.51,0,1,1,7,0v5.68A3.51,3.51,0,0,1,19,20.05Z"/><path class="cls-6" d="M19,7.73a3.14,3.14,0,0,1,3.14,3.13v5.68A3.15,3.15,0,0,1,19,19.68h0a3.15,3.15,0,0,1-3.14-3.14V10.87A3.14,3.14,0,0,1,19,7.73h0M19,7h0a3.89,3.89,0,0,0-3.89,3.89v5.67a3.89,3.89,0,0,0,7.78,0V10.86A3.89,3.89,0,0,0,19,7Z"/><line class="cls-7" x1="18.97" y1="24.12" x2="18.97" y2="30.76"/><line class="cls-8" x1="18.97" y1="24.12" x2="18.97" y2="30.76"/><line class="cls-7" x1="16.11" y1="30.76" x2="21.83" y2="30.76"/><line class="cls-8" x1="16.11" y1="30.76" x2="21.83" y2="30.76"/><path class="cls-7" d="M24.79,13.61V18.3A5.82,5.82,0,0,1,19,24.11h0a5.81,5.81,0,0,1-5.82-5.81h0V13.61"/><path class="cls-8" d="M24.79,13.61V18.3A5.82,5.82,0,0,1,19,24.11h0a5.81,5.81,0,0,1-5.82-5.81h0V13.61"/><path class="cls-9" d="M22.11,16.54A3.15,3.15,0,0,1,19,19.68h0a3.15,3.15,0,0,1-3.14-3.14V13.7h6.28Z"/></g></g></g></g></svg>