<svg xmlns="http://www.w3.org/2000/svg" viewBox="0 0 20.58 21.97"><defs><style>.cls-1{isolation:isolate;}.cls-2{mix-blend-mode:multiply;}.cls-3{fill:#f7bca3;}.cls-3,.cls-5{fill-rule:evenodd;}.cls-4{fill:#fad09d;}.cls-5{fill:#010101;opacity:0.05;}</style></defs><g class="cls-1"><g id="Layer_2" data-name="Layer 2"><g id="Layer_1-2" data-name="Layer 1"><g class="cls-2"><path class="cls-3" d="M6.8,21.47a.54.54,0,0,1-.21,0A.5.5,0,0,1,6.3,21v-4.8H1a.5.5,0,0,1-.5-.5V6.3A.5.5,0,0,1,1,5.8H6.3V1A.49.49,0,0,1,6.59.55.54.54,0,0,1,6.8.5a.51.51,0,0,1,.31.11l12.78,10a.49.49,0,0,1,.19.39.51.51,0,0,1-.19.4l-12.78,10A.51.51,0,0,1,6.8,21.47Z"/><path class="cls-4" d="M6.81,1,19.58,11,6.81,21V15.66H1V6.3H6.81V1m0-1a1,1,0,0,0-.43.1,1,1,0,0,0-.56.9V5.3H1a1,1,0,0,0-1,1v9.36a1,1,0,0,0,1,1H5.81V21a1,1,0,0,0,.56.9,1,1,0,0,0,.44.1,1,1,0,0,0,.61-.21l12.78-10a1,1,0,0,0,0-1.57L7.42.21A1,1,0,0,0,6.8,0Z"/></g><g class="cls-2"><polygon class="cls-5" points="19.58 10.98 6.8 20.97 6.8 15.66 1 15.66 1 10.98 19.58 10.98"/></g></g></g></g></svg>