<svg xmlns="http://www.w3.org/2000/svg" viewBox="0 0 360 38.69"><defs><style>.cls-1{isolation:isolate;}.cls-2,.cls-8{fill:#010101;}.cls-2{opacity:0.3;}.cls-3{fill:#fff;}.cls-4{fill:#f7bca3;}.cls-5{fill:#f9cf9d;}.cls-6{mix-blend-mode:multiply;}.cls-7{fill:#fad09d;}.cls-8{opacity:0.05;}</style></defs><g class="cls-1"><g id="Layer_2" data-name="Layer 2"><g id="Layer_1-2" data-name="Layer 1"><rect class="cls-2" y="2.08" width="360" height="36.61" rx="12"/><rect class="cls-3" y="0.15" width="360" height="36.61" rx="12"/><rect class="cls-4" x="2.51" width="354.98" height="34.98" rx="12"/><rect class="cls-3" x="5" y="1.04" width="350" height="32.47" rx="12"/><path class="cls-5" d="M338.64,4.58c0,.33-1.7.59-3.8.59s-3.8-.26-3.8-.59,1.7-.6,3.8-.6S338.64,4.25,338.64,4.58Z"/><path class="cls-5" d="M352.67,12.76c-.49.1-2.48-2.26-5.17-4.09-1.28-.86-3.41-2.08-3.41-2.08-1.23-1-2.67-1.33-2.69-1.66s.72-.45,1.53-.17a18.2,18.2,0,0,1,5.13,2.63C351,9.64,353.29,12.65,352.67,12.76Z"/><g class="cls-6"><path class="cls-4" d="M339.67,28.36a2.13,2.13,0,0,1-1.51-.62l-3.4-3.4a8,8,0,1,1,3-3l3.4,3.39a2.14,2.14,0,0,1,.62,1.51,2.12,2.12,0,0,1-2.12,2.12ZM330.84,13.7a3.71,3.71,0,1,0,0,7.42,3.72,3.72,0,0,0,3.71-3.71,3.7,3.7,0,0,0-3.71-3.71Z"/><path class="cls-7" d="M330.84,9.82A7.59,7.59,0,0,1,337.3,21.4l3.61,3.6a1.76,1.76,0,0,1,0,2.48,1.78,1.78,0,0,1-1.24.51,1.75,1.75,0,0,1-1.24-.51l-3.61-3.61a7.48,7.48,0,0,1-4,1.13,7.59,7.59,0,1,1,0-15.18m0,11.68A4.1,4.1,0,1,0,328,20.3a4.08,4.08,0,0,0,2.89,1.2m0-12.43a8.34,8.34,0,1,0,3.86,15.74l3.2,3.2a2.49,2.49,0,0,0,1.77.73,2.49,2.49,0,0,0,2.5-2.5,2.49,2.49,0,0,0-.73-1.77l-3.2-3.2a8.34,8.34,0,0,0-7.4-12.2Zm0,11.68a3.35,3.35,0,1,1,2.36-1,3.32,3.32,0,0,1-2.36,1Z"/></g><path class="cls-8" d="M338.43,17.41a7.63,7.63,0,0,1-1.13,4l3.61,3.6a1.75,1.75,0,1,1-2.48,2.48l-3.61-3.61a7.48,7.48,0,0,1-4,1.13,7.58,7.58,0,0,1-7.59-7.59C323.25,15.47,338.43,15.47,338.43,17.41Zm-3.5,0a4.1,4.1,0,1,0-1.2,2.89,4.07,4.07,0,0,0,1.2-2.89Z"/></g></g></g></svg>