<svg xmlns="http://www.w3.org/2000/svg" viewBox="0 0 37.94 40.09"><defs><style>.cls-1,.cls-4{fill:#010101;}.cls-1{opacity:0.3;}.cls-2{fill:#fff;}.cls-3{fill:#f7bca3;}.cls-4{opacity:0.15;}.cls-5{fill:#f9cf9d;}.cls-6{fill:#fad09d;}</style></defs><g id="Layer_2" data-name="Layer 2"><g id="Layer_1-2" data-name="Layer 1"><rect class="cls-1" y="2.16" width="37.94" height="37.94" rx="12"/><rect class="cls-2" y="0.16" width="37.94" height="37.94" rx="12"/><rect class="cls-3" x="0.84" width="36.25" height="36.25" rx="12"/><rect class="cls-2" x="2.15" y="1.08" width="33.64" height="33.64" rx="12"/><path class="cls-4" d="M23.79,34.73H14.15a12,12,0,0,1-12-12s1.3,10.8,17.18,10.76S35.79,22.73,35.79,22.73A12,12,0,0,1,23.79,34.73Z"/><path class="cls-5" d="M23.79.86H14.15a12,12,0,0,0-12,12S3.45,2.06,19.33,2.1,35.79,12.86,35.79,12.86A12,12,0,0,0,23.79.86Z"/><path class="cls-5" d="M25.6,6.59a1.14,1.14,0,1,1-1.13-1.13A1.14,1.14,0,0,1,25.6,6.59Z"/><path class="cls-5" d="M30.58,8.67c-.17.49-2.13.26-3.33-.35-.47-.24-.7-.48-.75-.76a1,1,0,0,1,.37-.91C27.83,6,30.8,8,30.58,8.67Z"/><path class="cls-3" d="M19.39,28.18l-.72,0a19,19,0,0,1-2.39-.42.29.29,0,0,1-.23-.24,25.37,25.37,0,0,1,.14-3.41L16,24a13.57,13.57,0,0,1-2.47,2.07.23.23,0,0,1-.14,0,.23.23,0,0,1-.17-.07,17.12,17.12,0,0,1-2.92-3.72.25.25,0,0,1,.06-.32,22.19,22.19,0,0,1,2.41-1.66c-.36,0-.66.06-1,.07s-.88.05-1.32.05h-.44c-.21,0-.57,0-.61-.49-.08-.86-.08-1.74-.09-2.59,0-.37,0-.73,0-1.1a6.68,6.68,0,0,1,0-.78.26.26,0,0,1,.23-.23l.72,0a14,14,0,0,1,2.4.22c.08-.14.15-.27.23-.39a24.58,24.58,0,0,1-2.12-2.49.24.24,0,0,1,0-.31,15.25,15.25,0,0,1,3.41-3,.22.22,0,0,1,.13,0,.27.27,0,0,1,.19.08,14.56,14.56,0,0,1,1.75,2.46l.32-.17a25.66,25.66,0,0,1-.15-3.1c0-.26.28-.27.51-.28l.6,0H18c.44,0,.88,0,1.32.07a11.48,11.48,0,0,0,1.17.07h.33l.3,0,.12.29,0-.24a.39.39,0,0,1,.35.15.51.51,0,0,1,.06.32c0,.17,0,.32,0,.46a14.22,14.22,0,0,1-.07,1.73c0,.19,0,.38-.07.57l0,.17.3.19a22.49,22.49,0,0,1,2.35-2.06.2.2,0,0,1,.15,0,.27.27,0,0,1,.16.06,17.32,17.32,0,0,1,3.13,3.54.24.24,0,0,1,0,.32A13.07,13.07,0,0,1,25,15.63a3.42,3.42,0,0,1,.13.34q.93-.06,1.86-.06c.44,0,.88,0,1.32,0,.26,0,.26.12.26,1.22a16.67,16.67,0,0,1-.4,3.77.28.28,0,0,1-.27.2l-.33,0H27.4a.76.76,0,0,1-.16,0h0a18,18,0,0,1-2.36-.23l-.07.15a27,27,0,0,1,2.06,2.49.26.26,0,0,1,0,.3c-.19.23-.39.43-.59.63s-.34.34-.5.53c0,0-2.06,2.1-2.51,2.1A.3.3,0,0,1,23,27a15.63,15.63,0,0,1-1.81-2.6l-.25.09a15,15,0,0,1,.17,3.33C21.14,28.1,21.06,28.18,19.39,28.18Zm-.53-13.6a.81.81,0,0,0-.27.05,5.32,5.32,0,0,0-2.86,2.63,1.67,1.67,0,0,0,.13,1.36,10.81,10.81,0,0,0,.57,1.06l.19.31c.05.09.11.17.17.26a2.81,2.81,0,0,0,1.58,1,1.5,1.5,0,0,0,.49.11h0l.25,0a2.74,2.74,0,0,0,.39-.09,3.27,3.27,0,0,0,1.33-.75,3.53,3.53,0,0,0,1.22-2.22A2.81,2.81,0,0,0,21.82,17a5.94,5.94,0,0,0-2-2.07,1.79,1.79,0,0,0-1-.34v0Z"/><path class="cls-6" d="M18,8.45c.83,0,1.66.13,2.49.14h.34a.86.86,0,0,1,.23,0,1.16,1.16,0,0,0,.18,0s.15,0,.18,0,0,.18,0,.22,0,.29,0,.43a13.89,13.89,0,0,1-.07,1.7c0,.18,0,.36-.07.55a2.78,2.78,0,0,1-.05.35,5.63,5.63,0,0,1,.62.37,22.16,22.16,0,0,1,2.46-2.18,17.42,17.42,0,0,1,3.09,3.49,12.72,12.72,0,0,1-2.7,1.89,6.22,6.22,0,0,1,.29.71c.68,0,1.35-.07,2-.07.43,0,.87,0,1.3,0a9.54,9.54,0,0,1,0,1,16.43,16.43,0,0,1-.39,3.72s0,0,0,0l-.41,0a2.93,2.93,0,0,0-.29,0h0a16.08,16.08,0,0,1-2.46-.28,3.7,3.7,0,0,1-.17.35l-.08.12a25.55,25.55,0,0,1,2.17,2.6c-.33.42-.73.75-1.08,1.16a15.62,15.62,0,0,1-2.32,2h0a15.91,15.91,0,0,1-1.9-2.76c-.2.09-.42.17-.63.24a15.13,15.13,0,0,1,.2,3.49,5.61,5.61,0,0,1-1.51.1c-.35,0-.64,0-.7,0a19.27,19.27,0,0,1-2.39-.42,26.44,26.44,0,0,1,.16-3.56l-.36-.15L16,23.71a13,13,0,0,1-2.55,2.17,16.62,16.62,0,0,1-2.87-3.67,23.32,23.32,0,0,1,2.6-1.77c-.06-.12-.11-.24-.16-.35q-.59.06-1.17.09c-.44,0-.88.05-1.31.05h-.43c-.23,0-.35,0-.37-.27-.11-1.21-.08-2.45-.11-3.67a6.39,6.39,0,0,1,0-.75l.7,0a14.18,14.18,0,0,1,2.53.24h0a7.76,7.76,0,0,1,.4-.69,26.47,26.47,0,0,1-2.23-2.61A15.43,15.43,0,0,1,14.4,9.5a14.6,14.6,0,0,1,1.84,2.63,6.24,6.24,0,0,1,.68-.35,27.41,27.41,0,0,1-.16-3.25s.27,0,.3,0l.57,0H18m.93,13.19.28,0a3.15,3.15,0,0,0,.42-.09A3.54,3.54,0,0,0,21,20.71a3.71,3.71,0,0,0,1.3-2.38,3,3,0,0,0-.26-1.44A6.26,6.26,0,0,0,20,14.72a2.09,2.09,0,0,0-1.14-.39h0a1,1,0,0,0-.35.06,5.56,5.56,0,0,0-3,2.75,1.9,1.9,0,0,0,.12,1.58c.22.49.51.94.77,1.4l.19.27a3,3,0,0,0,1.69,1.12,1.68,1.68,0,0,0,.58.13h0M18,8h-.34L17,8c-.24,0-.67,0-.75.45,0,0,0,.05,0,.07a24,24,0,0,0,.12,2.86,15,15,0,0,0-1.6-2.21A.51.51,0,0,0,14.4,9a.47.47,0,0,0-.27.08,15.69,15.69,0,0,0-3.46,3.05.51.51,0,0,0,0,.62,28,28,0,0,0,2,2.38l0,.07A14.59,14.59,0,0,0,10.34,15l-.73,0a.51.51,0,0,0-.47.45,7.75,7.75,0,0,0,0,.82c0,.36,0,.72,0,1.09,0,.85,0,1.74.09,2.61a.76.76,0,0,0,.86.72h.44c.4,0,.83,0,1.31-.05-.53.35-1.07.73-1.59,1.14a.51.51,0,0,0-.12.64,16.91,16.91,0,0,0,3,3.78.49.49,0,0,0,.34.14.48.48,0,0,0,.28-.08,13.89,13.89,0,0,0,2.2-1.79,24.65,24.65,0,0,0-.1,3,.5.5,0,0,0,.39.47h.06a19,19,0,0,0,2.39.42l.75,0c1.44,0,2,0,2-.57a14.65,14.65,0,0,0-.09-2.8,16.1,16.1,0,0,0,1.54,2.13.57.57,0,0,0,.4.18c.61,0,2.68-2.17,2.7-2.19.15-.18.32-.35.48-.51A5.54,5.54,0,0,0,27,24a.5.5,0,0,0,0-.6,24.8,24.8,0,0,0-1.77-2.17c.75.11,1.72.17,1.9.17h.08l.2,0h.08l.36,0a.55.55,0,0,0,.52-.4,17.07,17.07,0,0,0,.4-3.83c0-1.12,0-1.42-.49-1.45s-.86-.05-1.34-.05-1.1,0-1.62,0A13.21,13.21,0,0,0,27.72,14a.5.5,0,0,0,.07-.65,17.8,17.8,0,0,0-3.18-3.59.49.49,0,0,0-.32-.12.47.47,0,0,0-.3.1,21.25,21.25,0,0,0-2.23,1.94h0c0-.22,0-.4.07-.58a14.8,14.8,0,0,0,.07-1.76c0-.15,0-.3,0-.44a.8.8,0,0,0-.1-.48.64.64,0,0,0-.53-.26l-.14,0a1.72,1.72,0,0,0-.34,0h-.32A11.65,11.65,0,0,1,19.29,8C18.86,8,18.4,8,18,8Zm.93,13.69v-.5a1.35,1.35,0,0,1-.42-.1A2.54,2.54,0,0,1,17,20.1a1,1,0,0,1-.16-.24l-.19-.31a8.7,8.7,0,0,1-.56-1A1.5,1.5,0,0,1,16,17.38a5.13,5.13,0,0,1,2.72-2.52.58.58,0,0,1,.19,0,1.58,1.58,0,0,1,.84.29,5.76,5.76,0,0,1,1.89,2,2.58,2.58,0,0,1,.22,1.2,3.18,3.18,0,0,1-1.14,2.05,3,3,0,0,1-1.23.7l-.36.08-.2,0v.5Z"/></g></g></svg>