<svg id="Layer_2" data-name="Layer 2" xmlns="http://www.w3.org/2000/svg" width="80.139" height="42.64" viewBox="0 0 80.139 42.64">
  <g id="Layer_1" data-name="Layer 1">
    <rect id="Rectangle_59" data-name="Rectangle 59" width="80.139" height="40.35" rx="12" transform="translate(0 2.29)" fill="#010101" opacity="0.3"/>
    <rect id="Rectangle_60" data-name="Rectangle 60" width="80.139" height="40.35" rx="12" transform="translate(0 0.17)" fill="#fff"/>
    <rect id="Rectangle_61" data-name="Rectangle 61" width="76.959" height="38.56" rx="12" transform="translate(1.59)" fill="#f7bca3"/>
    <rect id="Rectangle_62" data-name="Rectangle 62" width="72.049" height="35.79" rx="12" transform="translate(4.05 1.15)" fill="#fff"/>
    <path id="Path_38584" data-name="Path 38584" d="M59.21,9.14a1.13,1.13,0,1,1-.327-.805A1.13,1.13,0,0,1,59.21,9.14Z" transform="translate(7.059)" fill="#f9cf9d"/>
    <path id="Path_38585" data-name="Path 38585" d="M64.19,11.22c-.17.49-2.12.26-3.33-.35-.47-.24-.69-.48-.75-.75a1,1,0,0,1,.37-.92C61.44,8.53,64.41,10.57,64.19,11.22Z" transform="translate(8.589)" fill="#f9cf9d"/>
    <text id="تسجيل" transform="translate(12.05 23.89)" fill="#f7bca3" font-size="16" font-family="Alhurra"><tspan x="0" y="0">تسجيل</tspan></text>
    <path id="Path_38586" data-name="Path 38586" d="M40.064,2C74.908,2,76.089,13.15,76.089,13.15c0-6.627-6.1-12-13.624-12H17.674c-7.525,0-13.624,5.373-13.624,12C4.05,13.15,6.2,2,40.064,2Z" fill="#f9cf9d"/>
    <path id="Path_38587" data-name="Path 38587" d="M40.064,36.17C74.908,36.15,76.089,25,76.089,25c0,6.627-6.1,12-13.624,12H17.674C10.15,37,4.05,31.627,4.05,25,4.05,25,6.2,36.18,40.064,36.17Z" fill="#010101" opacity="0.15"/>
  </g>
</svg>
