<svg xmlns="http://www.w3.org/2000/svg" viewBox="0 0 37.94 40.09"><defs><style>.cls-1,.cls-4,.cls-8{fill:#010101;}.cls-1{opacity:0.3;}.cls-2{fill:#fff;}.cls-3{fill:#f7bca3;}.cls-4{opacity:0.15;}.cls-5{fill:#f9cf9d;}.cls-6{fill:#fad09d;}.cls-7{opacity:0.05;}</style></defs><g id="Layer_2" data-name="Layer 2"><g id="Layer_1-2" data-name="Layer 1"><rect class="cls-1" y="2.16" width="37.94" height="37.94" rx="12"/><rect class="cls-2" y="0.16" width="37.94" height="37.94" rx="12"/><rect class="cls-3" x="0.84" width="36.25" height="36.25" rx="12"/><rect class="cls-2" x="2.15" y="0.92" width="33.64" height="33.64" rx="12"/><path class="cls-4" d="M23.79,34.73H14.15a12,12,0,0,1-12-12s1.3,10.8,17.18,10.76S35.79,22.73,35.79,22.73A12,12,0,0,1,23.79,34.73Z"/><path class="cls-5" d="M23.79.86H14.15a12,12,0,0,0-12,12S3.45,2.06,19.33,2.1,35.79,12.86,35.79,12.86A12,12,0,0,0,23.79.86Z"/><path class="cls-5" d="M25.6,6.59a1.14,1.14,0,1,1-1.13-1.13A1.14,1.14,0,0,1,25.6,6.59Z"/><path class="cls-5" d="M30.58,8.67c-.17.49-2.13.26-3.33-.35-.47-.24-.7-.48-.75-.76a1,1,0,0,1,.37-.91C27.83,6,30.8,8,30.58,8.67Z"/><g id="Layer_2-2" data-name="Layer 2"><g id="Capa_1" data-name="Capa 1"><path class="cls-3" d="M24.78,26.11a.92.92,0,0,1-.92-.92V19.71a.91.91,0,0,1,.73-.89V16.55a5.66,5.66,0,1,0-11.32,0V18.8a.9.9,0,0,1,.53.27.87.87,0,0,1,.27.64v5.48a.88.88,0,0,1-.27.65.91.91,0,0,1-.65.27H12a.92.92,0,0,1-.92-.92V25L10.92,25l-.21-.08-.22-.11-.19-.12-.18-.14-.18-.15-.15-.17-.09-.1a3,3,0,0,1-.41-.76,2.66,2.66,0,0,1,1.63-3.39l.16-.05v-.18a.91.91,0,0,1,.84-.91V16.55A7,7,0,0,1,18.77,9.7h.17a7.06,7.06,0,0,1,7,6.85V18.8a.91.91,0,0,1,.91.91v.18l.15.05a2.66,2.66,0,0,1,1.79,2.51,2.74,2.74,0,0,1-.56,1.65l-.11.13-.1.11-.15.14-.13.1-.14.1-.17.1-.15.08h0l-.1.05h-.05v0l-.05,0h0l0,0-.15,0v.18a.92.92,0,0,1-.92.92Z"/><path class="cls-6" d="M18.94,10a6.76,6.76,0,0,1,6.76,6.6V19h.24a.67.67,0,0,1,.67.67v.38l.15,0h0l.14.05h0a2.4,2.4,0,0,1,1.62,2.27A2.47,2.47,0,0,1,28,24L28,24l-.05.05,0,.05-.06.06,0,0-.1.09,0,0-.08.06,0,0-.08.06,0,0-.12.08-.09,0h0l-.09.05h0l-.1,0h0l-.1,0h0l-.1,0h0l-.09,0h0l-.11,0v.37a.67.67,0,0,1-.67.67H24.78a.67.67,0,0,1-.67-.67V19.71a.66.66,0,0,1,.67-.66h.06v-2.5a5.91,5.91,0,1,0-11.82,0v2.5h.14a.67.67,0,0,1,.66.66v5.48a.67.67,0,0,1-.67.67H12a.67.67,0,0,1-.67-.67v-.37l-.11,0h0l-.08,0h0l-.08,0h0l-.08,0h0l-.06,0h0l-.07,0,0,0-.06,0,0,0-.06,0h0l-.06,0,0,0-.06,0,0,0-.05,0,0,0-.05-.05,0,0-.05-.05,0,0,0-.06,0,0L10,24h0l-.06-.08h0a2.61,2.61,0,0,1-.36-.68A2.41,2.41,0,0,1,11,20.18l.15-.05h0l.15,0v-.38a.66.66,0,0,1,.67-.66h.17v-2.5a6.77,6.77,0,0,1,6.6-6.6h.17m0-.5h-.18a7.26,7.26,0,0,0-7.09,7.09v2.05a1.16,1.16,0,0,0-.84,1.12,2.92,2.92,0,0,0-1.78,3.7,3,3,0,0,0,.45.82l.08.1.07.08h0l0,0,.06.06.08.08h0l0,0,.05.05h0l0,0,0,.05h0l0,0,.06,0h0l0,0,.06,0,.1.06h0l.05,0,.06,0h0l0,0,.07,0h0l0,0,.07,0h.05l.07,0h0A1.16,1.16,0,0,0,12,26.36h1.15a1.17,1.17,0,0,0,1.17-1.17V19.71a1.17,1.17,0,0,0-.8-1.11V16.55a5.41,5.41,0,1,1,10.82,0v2.08a1.19,1.19,0,0,0-.73,1.08v5.48a1.18,1.18,0,0,0,1.17,1.17h1.16a1.18,1.18,0,0,0,1.17-1.16h0l.1,0h0l.11-.05h0l.12-.05.11-.06.14-.08.14-.1,0,0,.1-.08h0l0,0,.11-.1,0,0,.07-.06.05-.06.06-.07.06-.07a3,3,0,0,0,.61-1.8,2.91,2.91,0,0,0-1.94-2.74,1.17,1.17,0,0,0-.91-1.14v-2a7.31,7.31,0,0,0-7.26-7.1Z"/></g></g><g class="cls-7"><g id="Layer_2-3" data-name="Layer 2"><g id="Capa_1-2" data-name="Capa 1"><path class="cls-8" d="M28.55,22.45a1.68,1.68,0,0,0-.08-.6L9.4,22.3a2.43,2.43,0,0,0,.13.95,2.61,2.61,0,0,0,.36.68h0L10,24h0l.06.06,0,0,0,.06,0,0,.05.05,0,0,.05.05,0,0,.05,0,0,0,.06,0,0,0,.06,0h0l.06,0,0,0,.06,0,0,0,.07,0h0l.06,0h0l.08,0h0l.08,0h0l.08,0h0l.11,0v.37a.67.67,0,0,0,.67.67h1.15a.67.67,0,0,0,.67-.67h0v-3L24.11,22v3.24a.67.67,0,0,0,.67.67h1.16a.67.67,0,0,0,.67-.67v-.37l.11,0h0l.09,0h0l.1,0h0l.1,0h0l.1,0h0l.09-.05h0l.09,0h0l.12-.08,0,0,.08-.06,0,0,.08-.06,0,0,.1-.09,0,0,.06-.06,0-.05L28,24,28,24h0A2.47,2.47,0,0,0,28.55,22.45Z"/></g></g></g></g></g></svg>