<svg id="Layer_1" data-name="Layer 1" xmlns="http://www.w3.org/2000/svg" width="144.453" height="38.69" viewBox="0 0 144.453 38.69">
  <rect id="Rectangle_71" data-name="Rectangle 71" width="144.453" height="36.61" rx="12" transform="translate(0 2.08)" fill="#010101" opacity="0.3"/>
  <rect id="Rectangle_72" data-name="Rectangle 72" width="144.453" height="36.61" rx="12" transform="translate(0 0.15)" fill="#fff"/>
  <rect id="Rectangle_73" data-name="Rectangle 73" width="139.434" height="34.98" rx="12" transform="translate(2.51)" fill="#f7bca3"/>
  <rect id="Rectangle_74" data-name="Rectangle 74" width="134.453" height="32.47" rx="12" transform="translate(5 1.04)" fill="#fff"/>
  <g id="Polygon_5" data-name="Polygon 5" transform="translate(108.25 4)" fill="#ffca4d">
    <path d="M 6.786839962005615 24.2415828704834 C 6.634590148925781 24.2415828704834 6.479800224304199 24.16351318359375 6.382890224456787 24.037841796875 C 6.316949844360352 23.95234298706055 6.249269962310791 23.80888175964355 6.301270008087158 23.61097145080566 L 8.032309532165527 17.02325248718262 C 8.180620193481445 16.45885276794434 7.98528003692627 15.85457229614258 7.534669876098633 15.4837818145752 L 2.298719882965088 11.17517185211182 C 2.053859949111938 10.97369194030762 2.116329908370972 10.70948219299316 2.141309976577759 10.63330268859863 C 2.166290044784546 10.55712223052979 2.272409915924072 10.30721187591553 2.589040040969849 10.28984260559082 L 9.30148983001709 9.921622276306152 C 9.892319679260254 9.889202117919922 10.41024971008301 9.510982513427734 10.62098026275635 8.958072662353516 L 13.03277969360352 2.629882335662842 C 13.14663028717041 2.331162214279175 13.41917991638184 2.307942152023315 13.5 2.307942152023315 C 13.58082008361816 2.307942152023315 13.85336971282959 2.331162214279175 13.967209815979 2.62987232208252 L 16.37902069091797 8.958072662353516 C 16.58975028991699 9.510992050170898 17.10769081115723 9.889202117919922 17.69852066040039 9.921611785888672 L 24.41095924377441 10.28984260559082 C 24.72759056091309 10.30721187591553 24.83370018005371 10.55711269378662 24.85869026184082 10.63329219818115 C 24.88367080688477 10.70947265625 24.94614028930664 10.97368240356445 24.70128059387207 11.17517185211182 L 19.4653205871582 15.4837818145752 C 19.01472091674805 15.85457229614258 18.81937980651855 16.45885276794434 18.96768951416016 17.02325248718262 L 20.69873046875 23.61097145080566 C 20.75071907043457 23.8088321685791 20.68304061889648 23.9522819519043 20.61710929870605 24.03778266906738 C 20.52017974853516 24.16347312927246 20.36537933349609 24.24156188964844 20.21313095092773 24.2415714263916 C 20.11907958984375 24.2415828704834 20.02758026123047 24.21289253234863 19.9411792755127 24.15630149841309 L 14.32188034057617 20.47568130493164 C 14.076979637146 20.31526184082031 13.79277038574219 20.23047256469727 13.5 20.23047256469727 C 13.20722961425781 20.23047256469727 12.923020362854 20.31526184082031 12.67811965942383 20.47568130493164 L 7.058819770812988 24.15631294250488 C 6.972430229187012 24.21289253234863 6.880929946899414 24.2415828704834 6.786839962005615 24.2415828704834 Z" stroke="none"/>
    <path d="M 13.49999046325684 2.807931900024414 L 13.5 2.807941436767578 L 11.08819007873535 9.136142730712891 C 10.80722045898438 9.873361587524414 10.11664009094238 10.37765312194824 9.328880310058594 10.42086219787598 L 2.616430282592773 10.78909206390381 C 2.616426467895508 10.78909206390381 2.616424560546875 10.78909301757812 2.616420745849609 10.78909301757812 C 2.616420745849609 10.78909301757812 2.616420745849609 10.78909301757812 2.616420745849609 10.78909206390381 L 7.85236930847168 15.09769248962402 C 8.453189849853516 15.59208202362061 8.713630676269531 16.39778137207031 8.515899658203125 17.15032196044922 L 6.784860610961914 23.73803329467773 L 12.40415000915527 20.05742263793945 C 12.73069953918457 19.84353256225586 13.10962963104248 19.73047256469727 13.5 19.73047256469727 C 13.89037036895752 19.73047256469727 14.26930046081543 19.84353256225586 14.59584045410156 20.05741119384766 L 20.21513175964355 23.73802757263184 C 20.21513366699219 23.7380256652832 20.21513366699219 23.7380256652832 20.21513938903809 23.7380428314209 L 18.48410034179688 17.15031242370605 C 18.28636932373047 16.39778137207031 18.54681015014648 15.59208202362061 19.14762115478516 15.09770202636719 L 24.38357925415039 10.78909301757812 C 24.38357543945312 10.78909301757812 24.38357353210449 10.78909206390381 24.38356971740723 10.78909206390381 L 17.6711311340332 10.42086219787598 C 16.88333892822266 10.37765312194824 16.1927604675293 9.87335205078125 15.91180038452148 9.136133193969727 L 13.49999046325684 2.807931900024414 M 13.49999904632568 1.807945251464844 C 13.88541984558105 1.807945251464844 14.27083969116211 2.022567749023438 14.43443012237549 2.451812744140625 L 16.84624099731445 8.780002593994141 C 16.98688125610352 9.149042129516602 17.3315601348877 9.400732040405273 17.72589874267578 9.422361373901367 L 24.43835067749023 9.790592193603516 C 25.34831047058105 9.840511322021484 25.72269058227539 10.98219203948975 25.01898956298828 11.5612621307373 L 19.78302955627441 15.86987209320068 C 19.48160934448242 16.11790084838867 19.35206985473633 16.51865196228027 19.45127105712891 16.89618301391602 L 21.18231010437012 23.48390197753906 C 21.41507911682129 24.36975288391113 20.43341064453125 25.0764217376709 19.66722106933594 24.57456207275391 L 14.04792022705078 20.89394187927246 C 13.71516036987305 20.67598152160645 13.28483963012695 20.67598152160645 12.95207977294922 20.89394187927246 L 7.332780838012695 24.57456207275391 C 6.56658935546875 25.07642364501953 5.584920883178711 24.3697509765625 5.817689895629883 23.48390197753906 L 7.548730850219727 16.89618301391602 C 7.647930145263672 16.51865196228027 7.518390655517578 16.11790084838867 7.216970443725586 15.86987209320068 L 1.981010437011719 11.5612621307373 C 1.277309417724609 10.98220252990723 1.651689529418945 9.840511322021484 2.561649322509766 9.790592193603516 L 9.274099349975586 9.422361373901367 C 9.668439865112305 9.400732040405273 10.01310920715332 9.149042129516602 10.15376091003418 8.780002593994141 L 12.56556034088135 2.451812744140625 C 12.72915458679199 2.022567749023438 13.114577293396 1.807945251464844 13.49999904632568 1.807945251464844 Z" stroke="none" fill="#fff"/>
  </g>
</svg>
