<svg xmlns="http://www.w3.org/2000/svg" width="156.657" height="227.082" viewBox="0 0 156.657 227.082">
  <g id="Group_19592" data-name="Group 19592" transform="matrix(1, 0.017, -0.017, 1, -18.213, -52.394)">
    <rect id="Rectangle_75" data-name="Rectangle 75" width="147.253" height="184.2" rx="15" transform="translate(26 91)" fill="rgba(112,112,112,0.44)"/>
    <rect id="Rectangle_80" data-name="Rectangle 80" width="142.565" height="178.2" rx="15" transform="translate(28.144 90)" fill="#f7bda4"/>
    <rect id="Rectangle_81" data-name="Rectangle 81" width="139.253" height="173.96" rx="15" transform="translate(29.684 92)" fill="#fff"/>
    <path id="Path_38934" data-name="Path 38934" d="M14.458,1.25s.273-3.378,6.274-11.433S40.1-18.758,47.466-19.538,76.655-31.75,76.655-31.75,95.2-19.538,103.388-19.538s17.186,2.079,25.1,9.354S136.4,1.25,136.4,1.25c9.04,0,16.368,6.98,16.368,15.59V177.11c0,8.61-7.328,15.59-16.368,15.59H16.368C7.328,192.7,0,185.72,0,177.11V16.84C0,8.23,5.418,1.25,14.458,1.25Z" transform="translate(23.041 83.75)" fill="#fff"/>
    <path id="Path_38935" data-name="Path 38935" d="M14.173.567s.267-3.308,6.151-11.2,18.987-8.4,26.207-9.161S75.144-31.75,75.144-31.75s18.184,11.96,26.207,11.96,16.847,2.036,24.6,9.161,7.755,11.2,7.755,11.2c8.861,0,16.045,6.836,16.045,15.268V172.788c0,8.432-7.184,15.268-16.045,15.268H16.045C7.184,188.056,0,181.221,0,172.788V15.835C0,7.4,5.312.567,14.173.567Z" transform="translate(24.547 86.072)" fill="#f7bda4"/>
    <path id="Path_38936" data-name="Path 38936" d="M13.9-.092s.262-3.241,6.031-10.968,18.618-8.226,25.7-8.974S73.685-31.75,73.685-31.75s17.831,11.716,25.7,11.716,16.52,1.994,24.125,8.974,7.6,10.968,7.6,10.968c8.689,0,15.734,6.7,15.734,14.956V168.616c0,8.26-7.044,14.956-15.734,14.956H15.733C7.044,183.572,0,176.876,0,168.616V14.864C0,6.6,5.209-.092,13.9-.092Z" transform="translate(26 88.314)" fill="#fff"/>
  </g>
</svg>
