<svg xmlns="http://www.w3.org/2000/svg" viewBox="0 0 37.94 40.09"><defs><style>.cls-1,.cls-4,.cls-8{fill:#010101;}.cls-1{opacity:0.3;}.cls-2{fill:#fff;}.cls-3{fill:#f7bca3;}.cls-4{opacity:0.15;}.cls-5{fill:#f9cf9d;}.cls-6{opacity:0.98;}.cls-7{fill:#fad09d;}.cls-8{opacity:0.05;}</style></defs><g id="Layer_2" data-name="Layer 2"><g id="Layer_1-2" data-name="Layer 1"><rect class="cls-1" y="2.16" width="37.94" height="37.94" rx="12"/><rect class="cls-2" y="0.16" width="37.94" height="37.94" rx="12"/><rect class="cls-3" x="0.84" width="36.25" height="36.25" rx="12"/><rect class="cls-2" x="2.15" y="1.08" width="33.64" height="33.64" rx="12"/><path class="cls-4" d="M23.79,34.73H14.15a12,12,0,0,1-12-12s1.3,10.8,17.18,10.76S35.79,22.73,35.79,22.73A12,12,0,0,1,23.79,34.73Z"/><path class="cls-5" d="M23.79.86H14.15a12,12,0,0,0-12,12S3.45,2.06,19.33,2.1,35.79,12.86,35.79,12.86A12,12,0,0,0,23.79.86Z"/><path class="cls-5" d="M25.6,6.59a1.14,1.14,0,1,1-1.13-1.13A1.14,1.14,0,0,1,25.6,6.59Z"/><path class="cls-5" d="M30.58,8.67c-.17.49-2.13.26-3.33-.35-.47-.24-.7-.48-.75-.76a1,1,0,0,1,.37-.91C27.83,6,30.8,8,30.58,8.67Z"/><g class="cls-6"><path class="cls-7" d="M20.26,27.9a1.25,1.25,0,0,1-.74-.28,1.36,1.36,0,0,1-.43-.9c0-.2-.08-.45-.11-.69s0-.23,0-.34a.81.81,0,0,0,0-.16,5.24,5.24,0,0,1-.1-.71c0-.48-.06-1-.08-1.44,0-.95-.06-1.91-.06-2.86s0-1.91.08-2.87.11-1.74.18-2.6l.18-2.15s0-.3.05-.37a1.11,1.11,0,0,1,.12-.56,1,1,0,0,1,.88-.52,1,1,0,0,1,.48.12,10.46,10.46,0,0,1,2,1.48c.44.41.92.94,1.37,1.45.26.29.51.57.75.82a27.94,27.94,0,0,0,3.17.37h.12l-.13.76v.16l0,.07,1-.26.08.29a5.23,5.23,0,0,1,.18.91,27.85,27.85,0,0,1-.08,4.66l-.05.69a1,1,0,0,1-.91,1l-.33,0a1.58,1.58,0,0,1-.33.11,19.32,19.32,0,0,1-2.8.41,13.58,13.58,0,0,1-3.85,3.21A1.22,1.22,0,0,1,20.26,27.9Z"/><path class="cls-3" d="M20.2,12.45A9,9,0,0,1,22,13.78c.74.68,1.6,1.75,2.32,2.47a28.21,28.21,0,0,0,3.61.44H28s.07.25.08.27a4.87,4.87,0,0,1,.15.76,32.12,32.12,0,0,1-.13,5.19v0a2.34,2.34,0,0,0-.45.07l-.35.11a17.79,17.79,0,0,1-2.8.39h-.09l-.18,0a12.75,12.75,0,0,1-3.83,3.31.49.49,0,0,1-.16,0,.11.11,0,0,1-.08,0,.44.44,0,0,1-.1-.29c0-.22-.08-.45-.1-.68a6,6,0,0,0-.06-.61,3.19,3.19,0,0,1-.07-.54c0-.47-.06-.94-.08-1.41q-.06-1.41-.06-2.82c0-.94,0-1.88.08-2.82s.12-1.87.2-2.81c0-.42.06-.84.1-1.27l.06-.63a3.61,3.61,0,0,0,.05-.54"/><path class="cls-3" d="M11.53,27.8a.71.71,0,0,1-.32-.07,2,2,0,0,1-.86-.86A5.88,5.88,0,0,1,9.71,25a24.54,24.54,0,0,1-.11-8.59,10,10,0,0,1,1.91-4.84.37.37,0,0,1,.29-.14.28.28,0,0,1,.15,0l.12,0a1.3,1.3,0,0,1,.49.28c.26.15.44.27.62.39a3.91,3.91,0,0,0,1,.49.55.55,0,0,1,.37.31,1.09,1.09,0,0,1-.13.89c-.24.62-.43,1.16-.6,1.7a17.82,17.82,0,0,0-.7,3.34A12.21,12.21,0,0,0,13,20.28a17,17,0,0,0,.35,3.64c.1.42.2.83.32,1.23a5.66,5.66,0,0,0,.2.58A1.63,1.63,0,0,0,14,26l.15.34a.59.59,0,0,1,0,.35c-.13.27-.52.47-1.6.83l-.13,0-.16.07a1.65,1.65,0,0,1-.69.21Z"/><path class="cls-7" d="M11.8,11.82a1.71,1.71,0,0,1,.5.26l.15.12a8.92,8.92,0,0,0,1.58.85c.34.1,0,.62,0,.8-.21.54-.4,1.08-.57,1.63a17.23,17.23,0,0,0-.71,3.41,12.94,12.94,0,0,0-.07,1.39A16.53,16.53,0,0,0,13,24c.1.42.2.85.32,1.26a6.26,6.26,0,0,0,.21.61c.07.19.18.37.25.56s-1.4.69-1.53.75a2.21,2.21,0,0,1-.71.24.57.57,0,0,1-.18,0,1.72,1.72,0,0,1-.68-.71,5.41,5.41,0,0,1-.59-1.75A23.75,23.75,0,0,1,10,16.48a9.93,9.93,0,0,1,1.83-4.66m0-.75a.73.73,0,0,0-.58.27,10.36,10.36,0,0,0-2,5,24.57,24.57,0,0,0,.12,8.72,6.11,6.11,0,0,0,.68,2,2.31,2.31,0,0,0,1,1,1.18,1.18,0,0,0,.46.09,2,2,0,0,0,.86-.24l.13-.06.11,0c1.22-.4,1.63-.63,1.81-1a.82.82,0,0,0,0-.65c-.05-.12-.11-.25-.17-.37l-.09-.21c-.07-.18-.13-.36-.19-.55-.11-.37-.21-.76-.3-1.16a16.21,16.21,0,0,1-.35-3.6q0-.64.06-1.32a17.09,17.09,0,0,1,.69-3.25c.16-.52.34-1,.55-1.59l0-.07a1.44,1.44,0,0,0,.14-1.2,1,1,0,0,0-.62-.52,3.71,3.71,0,0,1-.85-.45l-.57-.35a1.66,1.66,0,0,0-.6-.35l-.1,0a.85.85,0,0,0-.31-.06Z"/><path class="cls-3" d="M15.88,25.85a.52.52,0,0,1-.25-.07,3.16,3.16,0,0,1-1.07-2.09,18.59,18.59,0,0,1-.09-6.57,11.19,11.19,0,0,1,.5-2,6.11,6.11,0,0,1,.4-.89,4,4,0,0,1,.52-.8.55.55,0,0,1,.41-.19.66.66,0,0,1,.56.42.65.65,0,0,0,.21.18,3.91,3.91,0,0,0,.79.38.65.65,0,0,1,.43.25.66.66,0,0,1,0,.67l-.17.44a15.68,15.68,0,0,0-.51,1.62,10.72,10.72,0,0,0-.39,2.86,12.32,12.32,0,0,0,.26,2.75c.08.34.15.64.24.93l.15.43.08.18a1.51,1.51,0,0,1,.12.26.39.39,0,0,1-.11.42,1.65,1.65,0,0,1-.54.28,1.76,1.76,0,0,0-.36.17l-.33.17a2.39,2.39,0,0,1-.43.14l-.19,0Z"/><path class="cls-7" d="M16.3,13.63c.13,0,.22.21.28.32a1.11,1.11,0,0,0,.37.27,3.42,3.42,0,0,0,.8.37c.09,0,.17,0,.23.12s0,.24,0,.36-.11.26-.15.4c-.2.54-.38,1.1-.53,1.66a11.27,11.27,0,0,0-.39,2.95,12.18,12.18,0,0,0,.27,2.83q.11.48.24,1c.05.15.1.31.16.46s.14.29.2.43a1.67,1.67,0,0,1-.52.25c-.21.07-.4.22-.61.31a2.84,2.84,0,0,1-.38.13h-.39a2.78,2.78,0,0,1-.91-1.85,17.82,17.82,0,0,1-.09-6.43,10.6,10.6,0,0,1,.49-1.92,7.05,7.05,0,0,1,.37-.85,3.36,3.36,0,0,1,.47-.71.17.17,0,0,1,.13-.08m0-.75a.9.9,0,0,0-.68.32,4.38,4.38,0,0,0-.58.87,9.14,9.14,0,0,0-.42.94,11.33,11.33,0,0,0-.52,2,18.91,18.91,0,0,0,.09,6.71,3.49,3.49,0,0,0,1.23,2.32.91.91,0,0,0,.46.13h.25a1.27,1.27,0,0,0,.28,0,3.11,3.11,0,0,0,.48-.17,2.69,2.69,0,0,0,.38-.19l.21-.11.08,0a2,2,0,0,0,.66-.34.76.76,0,0,0,.22-.84,2.55,2.55,0,0,0-.13-.29l-.07-.15c0-.14-.1-.27-.14-.41s-.15-.58-.22-.87a11.48,11.48,0,0,1-.26-2.71A10.65,10.65,0,0,1,18,17.32a15.1,15.1,0,0,1,.5-1.59l.15-.39a1,1,0,0,0-.05-1.06,1,1,0,0,0-.6-.4,2.5,2.5,0,0,1-.65-.3l-.08-.05-.08,0a1,1,0,0,0-.88-.61Z"/><path class="cls-8" d="M28.12,22.91v0a2.34,2.34,0,0,0-.45.07l-.35.11a17.79,17.79,0,0,1-2.8.39,2.13,2.13,0,0,0-.27,0,12.75,12.75,0,0,1-3.83,3.31c-.08,0-.17.08-.24,0a.44.44,0,0,1-.1-.29c0-.22-.08-.45-.1-.68a6,6,0,0,0-.06-.61,3.19,3.19,0,0,1-.07-.54c0-.47-.06-.94-.08-1.41,0-.94-.06-3.32-.06-4.26h8.61C28.29,20.22,28.16,22.43,28.12,22.91Z"/><path class="cls-8" d="M13.77,26.43c-.07-.19-.18-.37-.25-.56a6.26,6.26,0,0,1-.21-.61c-.12-.41-.22-.84-.32-1.26a16.53,16.53,0,0,1-.36-3.72,12.94,12.94,0,0,1,.07-1.39c0-.4-3,.25-3,.25a24.44,24.44,0,0,0,.39,5.79,5.41,5.41,0,0,0,.59,1.75,1.72,1.72,0,0,0,.68.71c.29.12.63-.11.89-.21S13.86,26.68,13.77,26.43Z"/><path class="cls-8" d="M17.74,24.76c-.06-.14-.14-.28-.2-.43s-.11-.31-.16-.46q-.14-.48-.24-1a22.22,22.22,0,0,1-.27-3.83l-2.24-.14a14.88,14.88,0,0,0,.3,4.68,2.68,2.68,0,0,0,.91,1.85s.19,0,.25,0h.14a2.84,2.84,0,0,0,.38-.13c.21-.09.4-.24.61-.31A1.67,1.67,0,0,0,17.74,24.76Z"/></g></g></g></svg>