<svg xmlns="http://www.w3.org/2000/svg" width="39" height="37" viewBox="0 0 39 37">
  <g id="Polygon_2" data-name="Polygon 2" fill="#ffca4d">
    <path d="M 28.2811222076416 34.01850509643555 C 27.99743270874023 34.01852416992188 27.72496223449707 33.93552398681641 27.47128105163574 33.77182769775391 L 20.85554122924805 29.50262641906738 C 20.45063209533691 29.24133682250977 19.98190116882324 29.10323524475098 19.5000114440918 29.10323524475098 C 19.01811218261719 29.10323524475098 18.54937171936035 29.24134635925293 18.14446258544922 29.50263595581055 L 11.52872180938721 33.77182769775391 C 11.27506160736084 33.93551635742188 11.00258159637451 34.01850509643555 10.71885204315186 34.01850509643555 C 10.25508213043213 34.01850509643555 9.804681777954102 33.79262542724609 9.514012336730957 33.41427612304688 C 9.230711936950684 33.04551696777344 9.142662048339844 32.58761596679688 9.266072273254395 32.12490463256836 L 11.287841796875 24.54457664489746 C 11.54153156280518 23.59342575073242 11.21134185791016 22.57826614379883 10.44667148590088 21.95833587646484 L 4.34887170791626 17.01475524902344 C 3.759121894836426 16.53664588928223 3.713101863861084 15.86031627655029 3.866671800613403 15.38680553436279 C 4.020251750946045 14.91329574584961 4.454462051391602 14.39272594451904 5.212552070617676 14.35175609588623 L 13.06855201721191 13.92717552185059 C 14.04881191253662 13.87420558929443 14.91107177734375 13.248366355896 15.26525211334229 12.33278560638428 L 18.10102272033691 5.002235889434814 C 18.37450218200684 4.295305728912354 19.00300216674805 4.043416023254395 19.50000190734863 4.043416023254395 C 19.99699211120605 4.043416023254395 20.62549209594727 4.295305728912354 20.89897155761719 5.002235889434814 L 23.7347526550293 12.33278560638428 C 24.08893203735352 13.24835586547852 24.95118141174316 13.87418556213379 25.93144226074219 13.92717552185059 L 33.78745269775391 14.35175609588623 C 34.5455436706543 14.39272594451904 34.97975158691406 14.91329574584961 35.13333129882812 15.38680553436279 C 35.28690338134766 15.86031627655029 35.24088287353516 16.53664588928223 34.65113067626953 17.01475524902344 L 28.55332183837891 21.95832633972168 C 27.78865242004395 22.57827568054199 27.45848274230957 23.59343528747559 27.71216201782227 24.54457664489746 L 29.73393249511719 32.12490463256836 C 29.85732269287109 32.5875244140625 29.76926231384277 33.04539489746094 29.48598098754883 33.41415405273438 C 29.19529151916504 33.79255676269531 28.74488258361816 34.01848602294922 28.2811222076416 34.01850509643555 Z" stroke="none"/>
    <path d="M 19.49999237060547 4.543415069580078 C 19.33921241760254 4.543415069580078 18.79679107666016 4.589515686035156 18.56735229492188 5.182636260986328 L 15.73158264160156 12.51318550109863 C 15.30656242370605 13.61187553405762 14.27185249328613 14.36287498474121 13.09554100036621 14.42644500732422 L 5.239540100097656 14.85102653503418 C 4.603500366210938 14.88540649414062 4.391960144042969 15.38787651062012 4.342281341552734 15.54105567932129 C 4.2926025390625 15.69424629211426 4.168952941894531 16.2252254486084 4.663753509521484 16.62636566162109 L 10.76154136657715 21.56993675231934 C 11.67916107177734 22.31385612487793 12.07538223266602 23.53204727172852 11.77095222473145 24.67343521118164 L 9.749172210693359 32.25375747680664 C 9.643482208251953 32.6500244140625 9.778572082519531 32.93792724609375 9.910511016845703 33.10966491699219 C 10.10425186157227 33.36184692382812 10.41398239135742 33.51850509643555 10.71885108947754 33.51850509643555 C 10.90484237670898 33.51850509643555 11.08610153198242 33.46238708496094 11.25762176513672 33.35170745849609 L 17.87336158752441 29.08250617980957 C 18.3592414855957 28.76895523071289 18.92173194885254 28.60322570800781 19.50000190734863 28.60322570800781 C 20.07826232910156 28.60322570800781 20.6407413482666 28.76895523071289 21.12664222717285 29.08250617980957 L 27.74238204956055 33.35170745849609 C 27.91390228271484 33.46238708496094 28.09517288208008 33.51850509643555 28.28115081787109 33.51850509643555 C 28.58596229553223 33.51850509643555 28.89568328857422 33.36182403564453 29.08944320678711 33.10961532592773 C 29.22139167785645 32.9378662109375 29.35649108886719 32.64996719360352 29.25082206726074 32.25375747680664 L 27.22905158996582 24.67342567443848 C 26.92463302612305 23.53205490112305 27.32084274291992 22.31386566162109 28.23844146728516 21.56993675231934 L 34.33625030517578 16.62636566162109 C 34.8310432434082 16.2252254486084 34.70740127563477 15.69424629211426 34.65772247314453 15.54105567932129 C 34.6080322265625 15.38787651062012 34.39650344848633 14.88540649414062 33.76045989990234 14.85102653503418 L 25.90445327758789 14.42644500732422 C 24.72815322875977 14.36286544799805 23.69344329833984 13.61186599731445 23.26841163635254 12.51318550109863 L 20.43264198303223 5.182636260986328 C 20.20320129394531 4.589515686035156 19.6607723236084 4.543415069580078 19.49999237060547 4.543415069580078 M 19.49999618530273 3.543418884277344 C 20.26779365539551 3.543418884277344 21.03559112548828 3.969562530517578 21.36529159545898 4.821846008300781 L 24.2010612487793 12.15239524841309 C 24.48495101928711 12.8862361907959 25.1727409362793 13.38543510437012 25.95843124389648 13.42790603637695 L 33.81443023681641 13.85248565673828 C 35.64236068725586 13.9512767791748 36.38800048828125 16.25032615661621 34.96600341796875 17.40315628051758 L 28.86820220947266 22.34672546386719 C 28.25558090209961 22.8433952331543 27.99203109741211 23.65370559692383 28.19527053833008 24.41572570800781 L 30.217041015625 31.99605560302734 C 30.68833160400391 33.76306533813477 28.73679351806641 35.18353652954102 27.20017242431641 34.19194793701172 L 20.58443260192871 29.92274475097656 C 19.92424201965332 29.49672698974609 19.07576179504395 29.49672698974609 18.41557121276855 29.92274475097656 L 11.79983139038086 34.19194793701172 C 10.26321029663086 35.18353652954102 8.311672210693359 33.76306533813477 8.782951354980469 31.99605560302734 L 10.80473136901855 24.41572570800781 C 11.00797271728516 23.65370559692383 10.74442100524902 22.8433952331543 10.13179206848145 22.34673690795898 L 4.033992767333984 17.40315628051758 C 2.612003326416016 16.25032615661621 3.357643127441406 13.9512767791748 5.185573577880859 13.85248565673828 L 13.04157257080078 13.42790603637695 C 13.82726097106934 13.38544654846191 14.51505279541016 12.8862361907959 14.79893112182617 12.15239524841309 L 17.63470268249512 4.821846008300781 C 17.96440124511719 3.969562530517578 18.73219871520996 3.543418884277344 19.49999618530273 3.543418884277344 Z" stroke="none" fill="#ffdd8b"/>
  </g>
</svg>
